<?xml version="1.0" encoding="UTF-8"?> <svg xmlns="http://www.w3.org/2000/svg" width="116" height="116" viewBox="0 0 116 116" fill="none"> <path d="M33 69.7757V82.5134C33 83.2702 33.4971 83.9306 34.2298 84.12C38.0495 85.1072 49.9482 88 58.2336 88C66.5191 88 78.4178 85.1072 82.2375 84.12C82.9702 83.9306 83.4673 83.2702 83.4673 82.5134V69.7757M33 69.7757L36.8083 63.4284C37.0605 63.0081 37.4767 62.7199 37.9605 62.6411C40.819 62.1757 51.1745 60.5699 58.2336 60.5233C65.658 60.4744 76.5138 62.1035 79.7318 62.6149C80.311 62.707 80.7964 63.0985 81.0143 63.6431L83.4673 69.7757M33 69.7757C33 69.7757 48.2921 73.1402 58.2336 73.1402C68.1752 73.1402 83.4673 69.7757 83.4673 69.7757" stroke="#515845"></path> <ellipse cx="45.6168" cy="66.1309" rx="3.92523" ry="1.1215" fill="#BA9C69"></ellipse> <ellipse cx="71.4112" cy="66.1309" rx="3.92523" ry="1.1215" fill="#BA9C69"></ellipse> <ellipse cx="58.2337" cy="66.1309" rx="3.08411" ry="1.1215" fill="#BA9C69"></ellipse> <path d="M51.5047 44.8224C51.5047 44.8224 55.5854 45.6505 58.2337 45.6635C60.9906 45.6771 65.243 44.8224 65.243 44.8224L64.1215 57.7196L63.2804 58.5607H53.1869L52.6262 56.8785L51.5047 44.8224Z" fill="#515845"></path> <path d="M49.8224 28L52.4871 57.3112C52.5658 58.1777 53.2923 58.8411 54.1624 58.8411H62.5852C63.4553 58.8411 64.1818 58.1777 64.2606 57.3112L66.9252 28" stroke="#515845"></path> <rect x="55.1495" y="71.7383" width="6.72897" height="2.80374" fill="white"></rect> <path d="M54.3085 59.1215L55.6002 77.464C55.6622 78.345 56.395 79.028 57.2783 79.028H59.7499C60.6331 79.028 61.3659 78.345 61.4279 77.464L62.7197 59.1215" stroke="#515845"></path> <circle cx="58" cy="58" r="57.5" stroke="#515845"></circle> </svg> 