<?xml version="1.0" encoding="UTF-8"?> <svg xmlns="http://www.w3.org/2000/svg" width="116" height="116" viewBox="0 0 116 116" fill="none"> <path d="M69.6783 24C69.6783 24 58.7629 45.5571 58.3007 60.7613C57.9956 70.7968 64.0753 83.2642 59.467 86.396C57.9954 87.3961 56.9951 87.2445 55.5015 86.396C49.9491 83.2416 53.6812 61.7852 58.3006 47.1171C61.3231 37.5198 69.6783 24 69.6783 24Z" fill="#515845"></path> <path d="M77.232 40.7227C77.232 40.7227 70.262 54.4881 69.9668 64.1968C69.772 70.605 73.6542 78.5662 70.7116 80.566C69.7719 81.2046 69.1331 81.1078 68.1794 80.566C64.6339 78.5518 67.017 64.8506 69.9668 55.4843C71.8968 49.3559 77.232 40.7227 77.232 40.7227Z" fill="#BA9C69"></path> <path d="M36 31.6013C36 31.6013 43.9457 47.2934 44.2821 58.3611C44.5042 65.6663 40.0786 74.7417 43.4331 77.0215C44.5044 77.7495 45.2325 77.6391 46.3198 77.0215C50.3615 74.7253 47.6448 59.1064 44.2822 48.429C42.082 41.4428 36 31.6013 36 31.6013Z" fill="#BA9C69"></path> <circle cx="58" cy="58" r="57.5" stroke="#515845"></circle> </svg> 