<?xml version="1.0" encoding="UTF-8"?> <svg xmlns="http://www.w3.org/2000/svg" width="116" height="116" viewBox="0 0 116 116" fill="none"> <path d="M30 77.9877C30 77.9877 37.7211 75.277 52.3457 75.2099C67.9319 75.1384 73.3333 77 73.3333 77" stroke="#BA9C69"></path> <line x1="56.1757" y1="63.728" x2="45.6819" y2="82.2465" stroke="#515845"></line> <path d="M63.6723 60.3743C63.1865 61.2157 62.5949 61.9851 61.9311 62.6384C61.2673 63.2917 60.5445 63.8162 59.8039 64.1819C59.0632 64.5476 58.3193 64.7474 57.6145 64.7699C56.9097 64.7923 56.2579 64.637 55.6963 64.3127C55.1347 63.9884 54.6742 63.5016 54.3413 62.8801C54.0083 62.2585 53.8093 61.5143 53.7557 60.69C53.7021 59.8657 53.7949 58.9775 54.0289 58.076C54.2628 57.1745 54.6332 56.2775 55.119 55.436L59.3957 57.9051L63.6723 60.3743Z" fill="#515845"></path> <path d="M59.7527 43.7284L76.7282 43.7284L65.4535 60.5626L53.8885 53.8855L59.7527 43.7284Z" fill="#BA9C69"></path> <path d="M53.5802 53.9667C53.5802 53.9667 61.6666 37.8333 64.3827 35.4482C67.1072 33.0556 69.0821 32.4725 73.0246 32.0532C74.5678 31.889 83.5802 32.0531 82.9012 33.2877C76.1112 45.6335 65.3086 61.0655 65.3086 61.0655L53.5802 53.9667Z" stroke="#515845" stroke-linecap="round"></path> <circle cx="58" cy="58" r="57.5" stroke="#515845"></circle> </svg> 