<?xml version="1.0" encoding="UTF-8"?> <svg xmlns="http://www.w3.org/2000/svg" width="116" height="116" viewBox="0 0 116 116" fill="none"> <path d="M40.4275 54.9796C40.4275 54.9796 37.2324 55.9694 37.6897 59.628C38.4544 65.7449 43.1714 66.4127 43.1714 66.4127" stroke="#515845"></path> <path d="M75.3259 55.1852C75.3259 55.1852 78.4812 56.1469 78.0467 59.7569C77.3202 65.7926 72.6714 66.4724 72.6714 66.4724" stroke="#515845"></path> <path d="M46.1466 71.6143C46.1466 71.6143 45.817 75.7761 45.2421 78.3784C44.7102 80.7864 43.4026 84.4194 43.4026 84.4194" stroke="#515845"></path> <path d="M68.5887 71.5185C68.5887 71.5185 68.3319 75.7639 68.8186 78.3842C69.269 80.809 70.8348 84.4202 70.8348 84.4202" stroke="#515845"></path> <path d="M74.5008 38.591C65.7466 24.0004 48.8905 34.9322 48.8905 34.9322C48.8905 34.9322 45.0349 34.7738 42.9453 35.8469C40.9231 36.8853 38.8293 39.5057 38.8293 39.5057H41.116C41.116 39.5057 37.9147 44.5363 39.2867 53.2253C40.617 61.6506 43.4026 71.9756 46.6039 73.8049C48.5892 74.9394 59.0546 76.2582 67.6409 73.8049C72.2141 72.4982 81.3607 50.0244 74.5008 38.591Z" fill="#BA9C69"></path> <path d="M48.1721 58.9541C48.0808 58.3458 48.5519 57.7987 49.167 57.7987H66.4497C67.0648 57.7987 67.536 58.3458 67.4447 58.9541L66.2374 67.003C66.1635 67.4956 65.7404 67.8599 65.2424 67.8599H50.3744C49.8764 67.8599 49.4533 67.4956 49.3794 67.003L48.1721 58.9541Z" fill="#515845"></path> <circle cx="50.3085" cy="59.3694" r="0.676841" fill="#BA9C69"></circle> <circle cx="50.5514" cy="62.2844" r="0.676841" fill="#BA9C69"></circle> <circle cx="51.2802" cy="65.6852" r="0.676841" fill="#BA9C69"></circle> <circle cx="59.5394" cy="65.1994" r="0.676841" fill="#BA9C69"></circle> <circle cx="58.0819" cy="66.6569" r="0.676841" fill="#BA9C69"></circle> <circle cx="54.1952" cy="66.414" r="0.676841" fill="#BA9C69"></circle> <circle cx="61.4827" cy="66.6569" r="0.676841" fill="#BA9C69"></circle> <circle cx="53.7093" cy="59.3694" r="0.676841" fill="#BA9C69"></circle> <circle cx="53.4665" cy="62.0415" r="0.676841" fill="#BA9C69"></circle> <circle cx="56.3814" cy="64.9565" r="0.676841" fill="#BA9C69"></circle> <circle cx="53.7093" cy="64.2277" r="0.676841" fill="#BA9C69"></circle> <circle cx="61.7256" cy="64.2277" r="0.676841" fill="#BA9C69"></circle> <circle cx="64.6406" cy="64.2277" r="0.676841" fill="#BA9C69"></circle> <circle cx="64.3977" cy="66.171" r="0.676841" fill="#BA9C69"></circle> <circle cx="59.3358" cy="60.1042" r="0.676841" fill="#BA9C69"></circle> <circle cx="56.6244" cy="59.3694" r="0.676841" fill="#BA9C69"></circle> <circle cx="59.3358" cy="62.8115" r="0.676841" fill="#BA9C69"></circle> <circle cx="56.3814" cy="62.5273" r="0.676841" fill="#BA9C69"></circle> <circle cx="64.3977" cy="59.3694" r="0.676841" fill="#BA9C69"></circle> <circle cx="61.4827" cy="59.1265" r="0.676841" fill="#BA9C69"></circle> <circle cx="63.3968" cy="62.8115" r="0.676841" fill="#BA9C69"></circle> <circle cx="61.4827" cy="61.3127" r="0.676841" fill="#BA9C69"></circle> <circle cx="65.3694" cy="61.5557" r="0.676841" fill="#BA9C69"></circle> <circle cx="58" cy="58" r="57.5" stroke="#515845"></circle> </svg> 