<?xml version="1.0" encoding="UTF-8"?> <svg xmlns="http://www.w3.org/2000/svg" width="116" height="116" viewBox="0 0 116 116" fill="none"> <path d="M58.1538 33C61.2981 33 63.8449 36.4482 66.6328 37.6325C69.4207 38.8168 73.7807 38.167 75.8978 40.4099C78.0149 42.6528 77.4804 46.7717 78.6752 49.6749C79.87 52.5781 83.3077 55.0096 83.3077 58.1538C83.3077 61.2981 79.8595 63.8449 78.6752 66.6328C77.4909 69.4207 78.1407 73.7807 75.8978 75.8978C73.6549 78.0149 69.536 77.5013 66.6328 78.6752C63.7296 79.849 61.2981 83.3077 58.1538 83.3077C55.0096 83.3077 52.4628 79.8595 49.6749 78.6752C46.887 77.4909 42.527 78.1407 40.4099 75.8978C38.2928 73.6549 38.8063 69.536 37.6325 66.6328C36.4587 63.7296 33 61.2981 33 58.1538C33 55.0096 36.4482 52.4628 37.6325 49.6749C38.8168 46.887 38.167 42.527 40.4099 40.4099C42.6528 38.2928 46.7717 38.8063 49.6749 37.6325C52.5781 36.4587 55.0096 33 58.1538 33ZM58.1538 40.9444C54.7501 40.9444 51.4229 41.9537 48.5928 43.8447C45.7627 45.7357 43.557 48.4235 42.2544 51.5681C40.9519 54.7127 40.6111 58.1729 41.2751 61.5112C41.9391 64.8495 43.5782 67.916 45.9849 70.3227C48.3917 72.7295 51.4582 74.3686 54.7965 75.0326C58.1348 75.6966 61.595 75.3558 64.7396 74.0533C67.8842 72.7507 70.572 70.545 72.463 67.7149C74.354 64.8848 75.3633 61.5575 75.3633 58.1538C75.3494 53.5939 73.5319 49.2246 70.3075 46.0002C67.0831 42.7758 62.7138 40.9582 58.1538 40.9444Z" fill="#515845"></path> <path d="M66.4779 50.4376L68.1653 52.0307C68.3379 52.2584 68.4313 52.5363 68.4313 52.822C68.4313 53.1077 68.3379 53.3856 68.1653 53.6133L57.5273 65.467C57.317 65.7055 57.0568 65.8948 56.7653 66.0216C56.4737 66.1484 56.1578 66.2095 55.8399 66.2007C55.5237 66.1989 55.211 66.133 54.921 66.0069C54.6309 65.8808 54.3695 65.6971 54.1525 65.467L48.3986 59.7341C48.2932 59.6437 48.2068 59.5334 48.1444 59.4094C48.082 59.2854 48.0448 59.1503 48.0351 59.0118C48.0253 58.8734 48.0432 58.7344 48.0876 58.6029C48.132 58.4714 48.2021 58.35 48.2938 58.2458L48.3986 58.1305L50.1069 56.5479C50.3127 56.3266 50.5971 56.1949 50.899 56.1812C51.2008 56.1675 51.496 56.2728 51.721 56.4745L51.7943 56.5479L55.8714 60.7402L64.8743 50.4691C65.0853 50.2567 65.3705 50.1347 65.6698 50.1288C65.969 50.1229 66.2588 50.2337 66.4779 50.4376Z" fill="#BA9C69"></path> <circle cx="58" cy="58" r="57.5" stroke="#515845"></circle> </svg> 