<?xml version="1.0" encoding="UTF-8"?> <svg xmlns="http://www.w3.org/2000/svg" width="603" height="233" viewBox="0 0 603 233" fill="none"> <path fill-rule="evenodd" clip-rule="evenodd" d="M412.935 156.735C409.531 157.075 405.446 161.16 401.021 168.989L388.426 190.435V205.753C388.426 208.476 389.447 210.518 391.149 211.199C392.17 211.539 394.213 211.88 397.617 212.22V214.603H368.683V212.22C374.129 212.22 377.193 210.859 377.533 207.795C377.533 207.114 377.873 206.093 377.873 204.731V192.137L359.492 161.5C358.13 159.458 357.109 158.096 356.428 157.416C355.407 156.394 353.705 156.054 351.662 156.054V153.671H379.916V156.054C376.852 156.054 375.15 156.394 374.81 156.394C372.767 156.735 371.746 157.756 371.746 159.458C371.746 160.479 372.767 162.862 374.81 166.266L387.064 187.031L395.234 173.074C398.297 167.968 399.659 164.224 399.659 161.5C399.659 159.798 398.978 158.437 397.957 157.416C396.936 156.394 395.574 156.054 393.872 156.054V153.671H412.935V156.735ZM522.203 77.0809C519.48 81.5061 517.778 86.9526 517.778 93.4202C517.778 99.8878 518.799 105.675 520.501 110.781C522.884 117.248 525.948 122.014 530.713 124.737C533.437 126.439 536.16 127.12 539.223 127.12C541.606 127.12 544.329 126.439 546.712 125.418C550.797 123.375 553.861 119.971 555.563 115.206C557.265 111.121 557.946 106.355 557.946 101.249C557.946 93.4201 556.244 86.2717 553.18 80.4849C549.095 72.996 543.649 69.2517 536.16 69.2517C530.373 68.9113 525.607 71.6344 522.203 77.0809ZM275.413 77.0809C272.689 81.5061 270.987 86.9526 270.987 93.4202C270.987 99.8878 272.009 105.675 273.711 110.781C276.093 117.248 279.157 122.014 283.923 124.737C286.646 126.439 289.369 127.12 292.433 127.12C294.815 127.12 297.539 126.439 299.921 125.418C304.006 123.375 307.07 119.971 308.772 115.206C310.474 111.121 311.155 106.355 311.155 101.249C311.155 93.4201 309.453 86.2717 306.389 80.4849C302.304 72.996 296.858 69.2517 289.369 69.2517C283.242 68.9113 278.476 71.6344 275.413 77.0809ZM218.906 98.5262V119.631C218.906 122.354 219.927 124.056 222.31 125.077C223.672 125.758 226.054 126.099 229.118 126.099C237.968 126.099 242.394 121.673 242.394 112.823C242.394 108.398 241.372 104.994 238.99 102.611C236.607 100.228 233.203 98.8665 229.118 98.8665H218.906V98.5262ZM218.906 76.7404V95.8029H227.076C230.139 95.8029 232.522 95.4626 234.224 94.7818C236.607 94.101 238.309 92.3989 239.33 90.3565C240.351 87.9737 241.032 85.591 241.032 83.2081C241.032 80.8253 240.351 78.4425 239.33 76.0597C237.968 73.3365 236.266 71.6345 234.224 70.9537C232.522 70.2729 230.139 69.9324 227.076 69.9324C224.352 69.9324 222.31 70.2729 220.948 70.9537C219.927 72.3153 218.906 74.0172 218.906 76.7404ZM313.538 120.652C307.07 126.779 299.241 129.503 290.05 129.503C281.199 129.503 273.711 126.439 267.924 120.312C262.137 114.185 259.073 106.696 259.073 97.8454C259.073 88.3141 262.137 80.8253 267.924 75.0384C274.051 69.2516 281.54 66.5284 291.071 66.5284C300.262 66.5284 307.751 69.592 313.878 75.3789C320.005 81.1657 323.069 88.6545 323.069 97.8454C323.409 107.036 320.005 114.525 313.538 120.652ZM249.202 101.93C252.606 104.653 254.308 108.398 254.308 113.163C254.308 123.375 246.819 128.141 231.501 128.141H199.163V125.758C202.567 125.758 204.609 125.418 205.971 124.397C207.673 123.375 208.354 121.333 208.354 118.269V78.1021C208.354 74.6981 207.673 72.3153 206.311 71.2941C204.95 70.2729 202.907 69.9324 199.163 69.9324V67.5497H232.862C237.968 67.5497 242.734 68.9113 246.478 71.2941C250.904 74.0173 252.946 78.1021 252.946 82.8677C252.946 86.9525 251.244 90.0161 248.18 92.7393C245.457 95.1221 241.713 96.4838 237.628 96.8242V97.1645C242.394 98.5261 246.479 100.228 249.202 101.93ZM394.893 125.758C392.511 125.758 390.809 126.779 389.447 128.481H387.064V106.696H389.787C394.553 120.312 401.701 127.12 410.892 127.12C414.296 127.12 417.36 126.099 420.083 123.716C422.466 121.673 423.828 118.61 423.828 115.206C423.828 111.802 422.806 109.079 421.104 107.377C418.381 104.653 413.615 102.951 405.786 101.59C397.617 100.569 391.83 97.8453 389.107 93.7605C387.064 91.0373 386.043 87.6333 386.043 84.2293C386.043 79.4637 387.745 75.0384 390.809 71.6344C393.872 68.2304 397.957 66.5284 403.063 66.5284C404.425 66.5284 406.467 66.8688 409.531 67.2092C412.254 67.89 414.637 67.8901 415.998 67.8901C417.36 67.8901 419.062 67.5496 420.424 66.8688H423.828L425.87 84.5697H422.806C420.083 79.4637 417.36 75.7193 414.977 73.6768C411.573 70.2728 407.488 68.5708 403.063 68.5708C399.999 68.5708 397.276 69.592 394.893 71.6344C392.511 73.6768 391.489 76.4001 391.489 79.4637C391.489 82.5273 392.511 84.5697 394.893 86.2717C397.957 88.3141 403.744 90.0161 412.594 91.3778C424.508 93.0798 430.636 99.207 430.636 109.759C430.636 115.206 428.593 119.631 424.849 123.375C421.104 127.12 416.339 129.162 411.233 129.162C409.531 129.162 406.807 128.482 403.063 127.46C399.319 126.439 396.936 125.758 394.893 125.758ZM383.66 112.823L377.873 128.141H325.792V125.758C331.238 125.758 334.302 124.397 334.983 122.014C335.323 121.333 335.323 120.312 335.323 119.291V76.7404C335.323 73.3364 334.302 71.6345 331.919 70.9537C330.558 70.6133 328.515 70.2728 325.792 70.2728V67.8901H355.747V70.2728C352.003 70.2728 349.62 70.6133 348.599 71.2941C346.897 72.3153 345.876 74.3577 345.876 77.7617V119.631C345.876 122.354 346.897 124.056 348.599 125.077C350.301 125.758 352.684 126.099 356.428 126.099C361.534 126.099 365.959 125.077 369.704 122.695C372.767 120.993 375.831 117.589 379.575 113.163H383.66V112.823ZM503.481 128.141H474.888V125.758C478.292 125.758 480.674 125.418 482.036 124.737C483.398 124.056 484.079 122.014 484.079 119.291V98.8665H453.442V119.631C453.442 122.354 454.464 124.056 456.166 125.077C457.527 125.758 459.57 126.099 462.293 126.099V128.481H433.699V126.099C437.103 126.099 439.146 125.758 440.167 125.077C441.869 124.056 442.55 122.354 442.55 119.291V77.0809C442.55 74.0172 441.869 72.3152 440.507 71.6344C439.146 70.9536 436.763 70.6133 433.359 70.6133V68.2304H461.952V70.6133C459.229 70.6133 457.187 70.9536 455.825 71.6344C454.123 72.6556 453.102 74.3577 453.102 77.0809V96.1433H483.738V77.4213C483.738 74.6981 482.717 72.6556 481.015 71.9748C479.653 71.294 477.611 70.9537 474.888 70.9537V68.5708H503.481V70.9537C500.418 70.9537 498.375 71.294 497.014 71.9748C495.312 72.996 494.291 74.6981 494.291 77.4213V120.312C494.291 123.035 495.312 125.077 497.014 125.758C498.035 126.439 500.418 126.779 503.481 126.779V128.141ZM560.669 120.652C554.201 126.779 546.372 129.503 537.181 129.503C528.331 129.503 520.842 126.439 515.055 120.312C509.268 114.185 506.205 106.696 506.205 97.8454C506.205 88.3141 509.268 80.8253 515.055 75.0384C521.182 69.2516 528.671 66.5284 538.202 66.5284C547.393 66.5284 554.882 69.592 561.009 75.3789C567.136 81.1657 570.2 88.6545 570.2 97.8454C570.2 107.036 567.136 114.525 560.669 120.652ZM602.538 128.141H574.285V125.758C577.689 125.758 580.072 125.418 581.093 124.737C582.454 123.716 583.135 121.673 583.135 118.269V77.7617C583.135 75.0385 582.454 72.996 580.752 71.6344C579.391 70.6132 577.348 69.9324 574.285 69.9324V67.5497H602.879V69.9324C599.815 69.9324 597.432 70.2729 596.411 71.2941C595.049 72.3153 594.028 74.3577 594.028 77.4213V117.929C594.028 120.993 594.709 123.035 596.411 124.056C597.773 125.077 599.815 125.418 602.879 125.418V128.141H602.538ZM326.813 156.735C332.26 156.735 336.685 157.756 339.748 159.118C343.152 160.82 346.216 163.883 348.939 168.308H352.003L348.939 154.012H294.475L291.411 168.308H294.135C297.539 164.224 300.943 161.16 303.666 159.458C307.07 157.416 311.495 156.394 316.261 156.394V205.072C316.261 208.476 315.24 210.518 313.538 211.539C312.176 212.22 310.134 212.561 306.389 212.561V214.943H336.344V212.561C332.6 212.561 329.877 211.88 328.856 210.859C327.494 209.837 326.813 208.135 326.813 205.412V156.735ZM280.519 205.072C280.519 208.135 281.199 210.178 282.901 211.199C284.263 212.22 286.305 212.561 289.369 212.561V214.943H260.775V212.561C264.179 212.561 266.562 212.22 267.583 211.539C268.945 210.518 269.626 208.476 269.626 205.072V164.564C269.626 161.841 268.945 159.798 267.243 158.437C265.881 157.416 263.839 156.735 260.775 156.735V154.352H289.369V156.735C286.305 156.735 283.923 157.075 282.901 158.096C281.54 159.118 280.519 161.16 280.519 164.224V205.072ZM259.073 202.008C252.606 211.539 243.415 215.965 231.841 215.965C222.991 215.965 215.502 212.901 209.715 207.114C203.588 200.987 200.524 193.839 200.524 184.988C200.524 176.138 203.588 168.649 209.375 162.522C215.162 156.394 222.65 153.331 231.501 153.331C233.203 153.331 235.926 153.671 239.33 154.692C242.734 155.714 245.457 156.054 247.159 156.054C249.542 156.054 251.244 155.373 252.946 153.671H256.35V172.734H253.627C248.181 161.5 241.032 155.714 232.522 155.714C225.714 155.714 220.608 158.777 217.204 165.245C214.14 170.351 212.779 176.818 212.779 183.967C212.779 191.456 214.481 197.923 218.225 203.37C222.31 209.497 228.097 212.561 235.245 212.561C243.415 212.561 250.563 208.476 256.35 200.647L259.073 202.008Z" fill="white"></path> <path fill-rule="evenodd" clip-rule="evenodd" d="M21.8142 4.57657C27.2606 6.95938 34.409 1.8533 34.409 22.2774V88.996C38.1534 86.9536 49.3867 82.5284 60.9603 80.486C63.3431 80.1456 65.0451 79.8053 67.0875 78.1033C68.4491 76.7417 69.4703 75.0396 69.4703 71.976V42.7014V12.4058C69.4703 5.25733 73.8956 2.53416 80.0228 2.87456C86.4904 3.21496 93.6388 8.6614 98.064 18.533C102.83 29.0855 103.51 46.4459 98.7449 59.3812C95.0004 69.9336 89.554 74.0184 80.0228 77.082C77.2996 78.1032 76.9592 79.1245 80.0228 79.8053C120.871 90.0173 143.337 119.292 140.274 159.119C138.231 190.436 119.85 227.199 86.4904 227.88C43.5998 228.561 27.601 166.267 43.5998 127.802C51.0887 106.356 66.7471 98.1869 79.0016 97.5061C91.256 97.1657 103.851 104.654 89.554 124.738C73.8956 147.205 102.149 173.416 120.19 157.417C121.552 156.055 122.913 154.693 123.935 153.332C132.104 140.737 126.658 126.1 118.829 115.207C111.68 105.676 101.808 99.8889 93.2984 96.8253C80.0228 92.0597 63.0027 91.7193 51.0887 94.7829C25.899 101.591 0.709302 127.461 0.0284995 158.098C-0.652303 183.287 10.9213 202.009 28.6222 215.966C43.2594 227.539 65.0451 233.326 86.8308 232.986C114.403 232.645 137.891 223.455 156.273 199.967C170.569 181.585 174.654 158.778 168.867 135.291C166.144 123.036 160.698 112.824 154.23 104.655C144.699 92.0597 129.381 81.8476 115.084 77.4224C123.594 71.6356 128.7 64.8276 131.764 59.0408C141.635 39.9783 135.508 20.235 117.807 8.321C108.616 1.85338 98.4045 0.151289 88.8732 0.151289C74.9168 -0.189112 60.9603 0.151289 47.3442 0.151289H21.1334C17.7294 -0.189112 18.4101 3.21496 21.8142 4.57657Z" fill="white"></path> <path fill-rule="evenodd" clip-rule="evenodd" d="M210.736 6.95862H216.863V1.51228V1.17186H217.204H218.565H218.906V1.51228V15.8091V16.1495H218.565H217.204H216.863V15.8091V9.00105H210.736V15.8091V16.1495H210.396H209.034H208.694V15.8091V1.51228V1.17186H209.034H210.396H210.736V1.51228V6.95862ZM230.82 1.17186L236.607 15.8091L236.947 16.1495H236.266H234.905H234.564V15.8091L233.203 12.0646H227.756L226.395 15.8091V16.1495H226.054H224.693H224.012L224.352 15.8091L230.139 1.17186L230.479 0.150596L230.82 1.17186ZM230.479 5.25661L228.437 10.3626H232.522L230.479 5.25661ZM243.755 16.1495H242.393H242.053V15.8091V1.51228V1.17186H242.393H243.755H244.095V1.51228V15.8091V16.1495H243.755ZM258.733 5.25661C258.733 5.93742 258.733 6.27782 258.392 6.95862C258.052 7.29902 258.052 7.97991 257.371 8.32031C257.031 8.66071 256.69 9.00105 256.009 9.00105C255.669 9.00105 254.988 9.34147 254.648 9.34147L258.733 15.8091L259.073 16.4899H258.392H257.031H256.69L252.265 9.68189V16.4899V16.8303H251.925H250.903H250.563V16.4899V2.19302V1.8526H250.903H254.307C254.988 1.8526 255.669 1.85262 256.009 2.19302C256.69 2.53343 257.031 2.53347 257.371 2.87387C257.711 3.21427 258.052 3.55465 258.392 4.23545C258.733 4.23545 258.733 4.57581 258.733 5.25661ZM254.307 7.29904C254.648 7.29904 254.988 7.29904 255.329 7.29904C255.669 7.29904 256.009 6.95862 256.009 6.95862C256.35 6.61822 256.35 6.61828 256.35 6.27788C256.35 5.93748 256.35 5.93744 256.35 5.59704C256.35 5.25664 256.35 4.9163 256.35 4.9163C256.35 4.5759 256.009 4.57585 256.009 4.23545C255.669 3.89505 255.669 3.89503 255.329 3.89503C254.988 3.89503 254.648 3.89503 254.307 3.89503H252.265V7.97989H254.307V7.29904ZM280.518 1.51228V2.87387V3.21429H280.178H277.455V15.8091V16.1495H277.114H275.753H275.412V15.8091V3.21429H272.689H272.349V2.87387V1.51228V1.17186H272.689H279.838H280.178V1.51228H280.518ZM294.134 5.25661C294.134 5.93742 294.134 6.27782 293.794 6.95862C293.454 7.29902 293.454 7.97991 292.773 8.32031C292.432 8.66071 292.092 9.00105 291.411 9.00105C291.071 9.00105 290.39 9.34147 290.05 9.34147L294.134 15.8091L294.475 16.4899H293.794H292.432H292.092L287.667 9.68189V16.4899V16.8303H287.326H285.965H285.624V16.4899V2.19302V1.8526H285.965H289.369C290.05 1.8526 290.73 1.85262 291.071 2.19302C291.752 2.53343 292.092 2.53347 292.432 2.87387C292.773 3.21427 293.113 3.55465 293.454 4.23545C294.134 4.23545 294.134 4.57581 294.134 5.25661ZM290.05 7.29904C290.39 7.29904 290.73 7.29904 291.071 7.29904C291.411 7.29904 291.752 6.95862 291.752 6.95862C292.092 6.61822 292.092 6.61828 292.092 6.27788C292.092 5.93748 292.092 5.93744 292.092 5.59704C292.092 5.25664 292.092 4.9163 292.092 4.9163C292.092 4.5759 291.752 4.57585 291.752 4.23545C291.411 3.89505 291.411 3.89503 291.071 3.89503C290.73 3.89503 290.39 3.89503 290.05 3.89503H288.007V7.97989H290.05V7.29904ZM305.027 1.17186L310.814 15.8091L311.154 16.1495H310.474H309.112H308.772V15.8091L307.41 12.0646H301.964L300.602 15.8091V16.1495H300.262H298.9H298.219L298.56 15.8091L304.346 1.17186L304.687 0.150596L305.027 1.17186ZM304.687 5.25661L302.644 10.3626H306.729L304.687 5.25661ZM326.813 1.17186H328.175H328.515V1.51228V16.1495V17.1707L327.834 16.4899L318.303 5.59704V15.8091V16.1495H317.963H316.601H316.26V15.8091V1.51228V0.491018L316.941 1.17186L326.473 12.0646V1.51228V1.17186H326.813ZM340.429 4.23545C340.429 3.89505 340.089 3.89501 340.089 3.55461L339.748 3.21429C339.748 3.21429 339.408 2.87387 339.067 2.87387C338.727 2.87387 338.727 2.87387 338.387 2.87387C338.046 2.87387 337.706 2.87387 337.365 2.87387C337.025 2.87387 337.025 3.21429 336.685 3.21429C336.685 3.21429 336.344 3.55463 336.344 3.89503C336.344 4.23543 336.344 4.23547 336.344 4.57587C336.344 4.91628 336.344 4.91621 336.685 5.25661C336.685 5.59702 337.025 5.59706 337.365 5.93746L338.727 6.6183C339.067 6.9587 339.748 6.95864 340.089 7.29904C340.429 7.63944 340.769 7.63946 340.769 7.63946C341.11 7.97987 341.45 8.32031 341.791 8.32031C342.131 8.66071 342.471 9.00107 342.471 9.34147C342.812 9.68187 342.812 10.0222 343.152 10.3626C343.152 10.703 343.493 11.0435 343.493 11.7243C343.493 12.7455 343.152 13.7667 342.131 14.7879C341.791 15.1283 341.11 15.4687 340.769 15.8091C340.089 16.1495 339.748 16.1495 339.067 16.1495C338.387 16.1495 338.046 16.1495 337.365 15.8091C336.685 15.8091 336.344 15.4687 336.004 15.1283C335.663 14.7879 335.323 14.4475 334.983 14.1071C334.642 13.7667 334.302 13.4263 334.302 12.7455V12.4051H334.642L335.663 12.0646H336.004V12.4051C336.004 12.7455 336.344 13.0859 336.344 13.4263C336.685 13.7667 336.685 13.7667 337.025 14.1071C337.365 14.1071 337.365 14.4475 337.706 14.4475C338.046 14.4475 338.387 14.4475 338.727 14.4475C339.067 14.4475 339.408 14.4475 339.748 14.4475C340.089 14.4475 340.429 14.1071 340.429 14.1071C340.769 13.7667 340.769 13.7667 340.769 13.4263C340.769 13.0859 340.769 12.7455 340.769 12.4051C340.769 11.7243 340.429 10.7031 339.408 10.0223C339.408 10.0223 339.067 9.68189 338.727 9.68189C338.387 9.68189 338.046 9.34145 337.706 9.00105C337.025 8.66065 336.344 8.32029 336.004 7.97989C335.663 7.63949 335.323 7.63944 335.323 7.29904C334.983 6.95864 334.642 6.61828 334.302 6.27788C333.961 5.93748 333.961 5.2567 333.961 4.9163C333.961 4.23549 333.961 3.89501 334.302 3.55461C334.642 3.21421 334.642 2.87385 334.983 2.53345C335.323 2.19305 335.663 1.8526 336.344 1.8526C336.685 1.8526 337.365 1.51228 338.046 1.51228C339.067 1.51228 339.748 1.85262 340.429 2.19302C340.769 2.53343 341.11 2.53347 341.11 2.87387C341.45 3.21427 341.45 3.55463 341.791 3.89503L342.131 4.23545H341.791L340.769 4.9163L340.429 4.23545ZM352.343 1.17186C353.024 1.17186 353.705 1.17188 354.045 1.51228C354.726 1.85269 355.066 1.85262 355.407 2.19302C355.747 2.53343 356.087 2.87381 356.428 3.55461C356.768 3.89501 356.768 4.57581 356.768 5.25661C356.768 5.93742 356.768 6.27782 356.428 6.95862C356.087 7.29902 356.087 7.97991 355.407 8.32031C355.066 8.66071 354.726 9.00105 354.045 9.00105C353.705 9.34145 353.024 9.34147 352.343 9.34147H350.301V16.1495V16.4899H349.96H348.599H348.258V16.1495V1.8526V1.51228H348.599H352.343V1.17186ZM352.343 7.29904C352.683 7.29904 353.024 7.29904 353.364 7.29904C353.705 7.29904 354.045 6.95862 354.045 6.95862C354.385 6.61822 354.385 6.61828 354.385 6.27788C354.385 5.93748 354.385 5.93744 354.385 5.59704C354.385 5.25664 354.385 4.9163 354.385 4.9163C354.385 4.5759 354.045 4.57585 354.045 4.23545C353.705 3.89505 353.705 3.89503 353.364 3.89503C353.024 3.89503 352.683 3.89503 352.343 3.89503H350.301V7.97989H352.343V7.29904ZM364.257 14.4475H367.321H367.661V14.7879V16.1495V16.4899H367.321H362.555H362.215V16.1495V1.8526V1.51228H362.555H363.917H364.257V1.8526V14.4475ZM379.575 1.17186L385.362 15.8091L385.702 16.1495H385.022H383.66H383.32V15.8091L381.958 12.0646H376.512L375.15 15.8091V16.1495H374.809H373.448H372.767L373.107 15.8091L378.894 1.17186L379.235 0.150596L379.575 1.17186ZM379.235 5.25661L377.192 10.3626H381.277L379.235 5.25661ZM401.361 1.17186H402.722H403.063V1.51228V16.1495V17.1707L402.382 16.4899L392.851 5.59704V15.8091V16.1495H392.51H391.149H390.808V15.8091V1.51228V0.491018L391.489 1.17186L401.02 12.0646V1.51228V1.17186H401.361ZM416.338 1.51228V2.87387V3.21429H415.998H413.275V15.8091V16.1495H412.934H411.573H411.232V15.8091V3.21429H408.509H408.169V2.87387V1.51228V1.17186H408.509H415.658H415.998V1.51228H416.338ZM425.529 1.17186L431.316 15.8091L431.657 16.1495H430.976H429.614H429.274V15.8091L427.912 12.0646H422.466L421.104 15.8091V16.1495H420.764H419.402H418.721L419.062 15.8091L424.849 1.17186L425.189 0.150596L425.529 1.17186ZM425.189 5.25661L423.147 10.3626H427.231L425.189 5.25661ZM441.869 1.51228V2.87387V3.21429H441.528H438.805V15.8091V16.1495H438.465H437.103H436.763V15.8091V3.21429H434.039H433.699V2.87387V1.51228V1.17186H434.039H441.188H441.528V1.51228H441.869ZM449.017 16.1495H447.655H447.315V15.8091V1.51228V1.17186H447.655H449.017H449.357V1.51228V15.8091V16.1495H449.017ZM470.803 8.66063C470.803 9.68183 470.462 10.7031 470.122 11.7243C469.781 12.7455 469.101 13.4263 468.42 14.1071C467.739 14.7879 466.718 15.4687 466.037 15.8091C465.016 16.1495 463.995 16.4899 462.973 16.4899C461.952 16.4899 460.931 16.1495 459.91 15.8091C458.889 15.4687 458.208 14.7879 457.527 14.1071C456.846 13.4263 456.165 12.4051 455.825 11.7243C455.485 10.7031 455.144 9.68183 455.144 8.66063C455.144 7.63942 455.485 6.61824 455.825 5.59704C456.165 4.57583 456.846 3.89509 457.527 3.21429C458.208 2.53349 459.229 1.85269 459.91 1.51228C460.931 1.17188 461.952 0.83144 462.973 0.83144C463.995 0.83144 465.016 1.17188 466.037 1.51228C467.058 1.85269 467.739 2.53349 468.42 3.21429C469.101 3.89509 469.781 4.91623 470.122 5.59704C470.462 6.61824 470.803 7.63942 470.803 8.66063ZM462.973 14.4475C463.654 14.4475 464.675 14.4475 465.356 14.1071C466.037 13.7667 466.718 13.4263 467.058 12.7455C467.739 12.0647 468.079 11.7243 468.42 11.0435C468.76 10.3627 468.76 9.68183 468.76 8.66063C468.76 7.97982 468.76 6.95868 468.42 6.27788C468.079 5.59708 467.739 4.91628 467.058 4.57587C466.377 3.89507 466.037 3.55469 465.356 3.21429C464.675 2.87389 463.995 2.87387 462.973 2.87387C462.293 2.87387 461.271 2.87389 460.591 3.21429C459.91 3.55469 459.229 3.89507 458.889 4.57587C458.208 5.25668 457.867 5.59708 457.527 6.27788C457.187 6.95868 457.187 7.63942 457.187 8.66063C457.187 9.34143 457.187 10.3627 457.527 11.0435C457.867 11.7243 458.208 12.4051 458.889 12.7455C459.569 13.4263 459.91 13.7667 460.591 14.1071C461.271 14.4475 462.293 14.4475 462.973 14.4475ZM487.142 1.17186H488.504H488.844V1.51228V16.1495V17.1707L488.163 16.4899L478.632 5.59704V15.8091V16.1495H478.291H476.93H476.589V15.8091V1.51228V0.491018L477.27 1.17186L486.802 12.0646V1.51228V1.17186H487.142ZM216.183 45.0836L215.161 43.722C214.821 44.0624 214.481 44.4028 214.14 44.4028C213.8 44.7432 213.459 44.7432 213.119 45.0836C212.779 45.0836 212.438 45.424 212.098 45.424C211.757 45.424 211.417 45.424 211.077 45.424C210.055 45.424 209.034 45.0836 208.353 44.4028C208.013 44.0624 207.673 43.722 207.673 43.0412C207.332 42.7008 207.332 42.02 207.332 41.3392C207.332 40.318 207.673 39.2968 208.353 38.616C208.694 38.2756 209.034 37.9351 209.375 37.5947C209.715 37.2543 210.055 36.914 210.396 36.5736L209.715 35.8927C209.715 35.5523 209.375 35.5524 209.375 35.212C209.375 34.8716 209.034 34.8715 209.034 34.5311C209.034 34.1907 209.034 34.1908 209.034 33.8504C209.034 33.51 209.034 33.51 209.034 33.1696C209.034 32.1484 209.375 31.4675 210.055 30.7867C210.396 30.4463 210.736 30.106 211.077 30.106C211.417 30.106 212.098 29.7655 212.438 29.7655C212.779 29.7655 213.459 29.7656 213.8 30.106C214.14 30.106 214.481 30.4463 214.821 30.7867C215.161 31.1271 215.502 31.4676 215.502 31.808C215.842 32.1484 215.842 32.4888 215.842 33.1696C215.842 33.51 215.842 33.8503 215.842 34.1907C215.842 34.5311 215.502 34.8716 215.502 35.212C215.161 35.5524 215.161 35.8927 214.821 35.8927C214.481 36.2331 214.14 36.2332 213.8 36.5736L212.779 37.2544L215.161 40.6584L216.863 39.2967L217.204 38.9564L217.544 39.2967L218.225 40.318L218.565 40.6584L218.225 40.9987L216.183 42.3604L217.544 44.4028L217.885 45.0836H217.204H216.183ZM213.459 35.212C213.8 34.8716 213.8 34.8716 214.14 34.8716L214.481 34.5311L214.821 34.1907C214.821 34.1907 214.821 33.8504 214.821 33.51V33.1696L214.481 32.8291C214.481 32.8291 214.14 32.4887 213.8 32.4887C213.459 32.4887 213.459 32.4887 213.119 32.4887C212.779 32.4887 212.779 32.4887 212.438 32.4887C212.098 32.4887 212.098 32.4887 212.098 32.8291L211.757 33.1696C211.757 33.1696 211.757 33.51 211.757 33.8504C211.757 34.1908 211.757 34.1907 211.757 34.5311C211.757 34.8715 212.098 35.212 212.098 35.212L212.779 35.8927L213.459 35.212ZM209.715 41.3392C209.715 41.6796 209.715 42.02 209.715 42.02C209.715 42.3604 210.055 42.3603 210.055 42.7008C210.055 42.7008 210.396 43.0412 210.736 43.0412C211.077 43.0412 211.077 43.0412 211.417 43.0412C211.757 43.0412 211.757 43.0412 212.098 43.0412C212.438 43.0412 212.438 43.0412 212.779 42.7008C213.119 42.7008 213.459 42.3604 213.459 42.3604C213.8 42.3604 213.8 42.02 214.14 41.6796L211.757 38.2756C211.417 38.616 211.077 38.616 210.736 38.9564C210.396 39.2968 210.055 39.2968 210.055 39.6372L209.715 39.9776C209.715 39.9776 209.715 40.318 209.375 40.318V40.6584C209.715 40.9988 209.715 41.3392 209.715 41.3392ZM238.649 29.7655L244.436 44.4028L244.776 44.7432H244.095H242.734H242.393V44.4028L241.032 40.6584H235.585L234.224 44.4028V44.7432H233.883H232.522H231.841L232.181 44.4028L237.968 29.7655L238.309 28.7444L238.649 29.7655ZM238.309 34.1907L236.266 39.2967H240.351L238.309 34.1907ZM256.35 32.1484H250.903V35.8927H256.009H256.35V36.2331V37.5947V37.9352H256.009H250.903V43.3816H256.009H256.35V43.722V45.0836V45.424H256.009H249.201H248.861V45.0836V30.7867V30.4464H249.201H256.009H256.35V30.7867V32.1484V32.4887V32.1484ZM268.604 33.1696C268.604 32.8292 268.264 32.8291 268.264 32.4887L267.924 32.1484C267.924 32.1484 267.583 31.808 267.243 31.808C266.902 31.808 266.902 31.808 266.562 31.808C266.222 31.808 265.881 31.808 265.541 31.808C265.2 31.808 265.2 32.1484 264.86 32.1484C264.86 32.1484 264.52 32.4887 264.52 32.8291C264.52 33.1695 264.52 33.1696 264.52 33.51C264.52 33.8504 264.52 33.8503 264.86 34.1907C264.86 34.5311 265.2 34.5312 265.541 34.8716L266.902 35.5524C267.243 35.8928 267.924 35.8927 268.264 36.2331C268.604 36.5735 268.945 36.5736 268.945 36.5736C269.285 36.914 269.626 37.2544 269.966 37.2544C270.306 37.5948 270.647 37.9352 270.647 38.2756C270.987 38.616 270.987 38.9563 271.328 39.2967C271.328 39.6371 271.668 39.9776 271.668 40.6584C271.668 41.6796 271.328 42.7008 270.306 43.722C269.966 44.0624 269.285 44.4028 268.945 44.7432C268.264 45.0836 267.924 45.0836 267.243 45.0836C266.562 45.0836 266.222 45.0836 265.541 44.7432C264.86 44.7432 264.52 44.4028 264.179 44.0624C263.839 43.722 263.498 43.3816 263.158 43.0412C262.818 42.7008 262.477 42.3604 262.477 41.6796V41.3392H262.818L263.839 40.9987H264.179V41.3392C264.179 41.6796 264.52 42.02 264.52 42.3604C264.86 42.7008 264.86 42.7008 265.2 43.0412C265.541 43.0412 265.541 43.3816 265.881 43.3816C266.222 43.3816 266.562 43.3816 266.902 43.3816C267.243 43.3816 267.583 43.3816 267.924 43.3816C268.264 43.3816 268.604 43.0412 268.604 43.0412C268.945 42.7008 268.945 42.7008 268.945 42.3604C268.945 42.02 268.945 41.6796 268.945 41.3392C268.945 40.6584 268.604 39.6372 267.583 38.9564C267.583 38.9564 267.243 38.616 266.902 38.616C266.562 38.616 266.222 38.2756 265.881 37.9352C265.2 37.5948 264.52 37.2544 264.179 36.914C263.839 36.5736 263.498 36.5735 263.498 36.2331C263.158 35.8927 262.818 35.5524 262.477 35.212C262.137 34.8716 262.137 34.1908 262.137 33.8504C262.137 33.1696 262.137 32.8291 262.477 32.4887C262.818 32.1483 262.818 31.808 263.158 31.4676C263.498 31.1271 263.839 30.7867 264.52 30.7867C264.86 30.7867 265.541 30.4464 266.222 30.4464C267.243 30.4464 267.924 30.7867 268.604 31.1271C268.945 31.4675 269.285 31.4676 269.285 31.808C269.626 32.1484 269.626 32.4887 269.966 32.8291L270.306 33.1696H269.966L268.945 33.8504L268.604 33.1696ZM283.922 30.4464V31.808V32.1484H283.582H280.859V44.7432V45.0836H280.518H279.157H278.816V44.7432V32.1484H276.093H275.753V31.808V30.4464V30.106H276.093H283.242H283.582V30.4464H283.922ZM291.411 35.8927H297.538V30.4464V30.106H297.879H299.24H299.581V30.4464V44.7432V45.0836H299.24H297.879H297.538V44.7432V37.9352H291.411V44.7432V45.0836H291.071H289.709H289.369V44.7432V30.4464V30.106H289.709H291.071H291.411V30.4464V35.8927ZM313.197 32.1484H308.091V35.8927H313.197H313.537V36.2331V37.5947V37.9352H313.197H308.091V43.3816H313.197H313.537V43.722V45.0836V45.424H313.197H306.389H306.048V45.0836V30.7867V30.4464H306.389H313.197H313.537V30.7867V32.1484V32.4887H313.197V32.1484ZM326.813 30.4464V31.808V32.1484H326.473H323.749V44.7432V45.0836H323.409H322.388H322.047V44.7432V32.1484H319.324H318.984V31.808V30.4464V30.106H319.324H326.473H326.813V30.4464ZM333.961 45.0836H332.6H332.259V44.7432V30.4464V30.106H332.6H333.961H334.302V30.4464V44.7432V45.0836H333.961ZM342.131 37.5947C342.131 39.2967 342.812 40.6584 343.833 41.6796C344.854 42.7008 346.216 43.0412 347.577 43.0412C347.918 43.0412 348.258 43.0412 348.599 43.0412C348.939 43.0412 349.279 43.0412 349.279 43.0412C349.62 43.0412 349.62 43.0412 349.96 43.0412C350.301 43.0412 350.301 43.0412 350.641 42.7008C350.981 42.7008 351.322 42.3604 351.662 42.3604C352.003 42.02 352.343 42.02 352.683 41.6796L353.364 41.3392V42.02V43.3816V43.722C353.024 44.0624 352.683 44.0624 352.343 44.4028C352.003 44.7432 351.662 44.7432 351.322 44.7432C350.981 45.0836 350.301 45.0836 349.62 45.0836C348.939 45.0836 348.258 45.0836 347.918 45.0836C346.897 45.0836 345.875 44.7432 344.854 44.4028C343.833 44.0624 343.152 43.3816 342.471 42.7008C341.791 42.0199 341.11 40.9988 340.769 40.318C340.429 39.2968 340.089 38.2756 340.089 37.2544C340.089 34.8716 340.769 33.1696 342.131 31.808C342.812 31.1272 343.493 30.4464 344.514 30.106C345.535 29.7656 346.556 29.4251 347.577 29.4251C348.258 29.4251 348.939 29.4251 349.279 29.4251C349.96 29.4251 350.301 29.4251 350.641 29.7655C350.981 29.7655 351.322 30.106 351.662 30.106C352.003 30.106 352.343 30.4463 352.683 30.7867H353.024V31.1271V32.4887V33.1696L352.343 32.8291C352.003 32.8291 351.662 32.4887 351.662 32.4887C351.322 32.4887 351.322 32.1484 350.981 32.1484C350.641 32.1484 350.641 31.808 350.301 31.808C349.96 31.808 349.96 31.808 349.62 31.4676C349.279 31.4676 348.939 31.4675 348.599 31.1271C348.258 30.7867 347.918 31.1271 347.577 31.1271C346.216 31.1271 344.854 31.4675 343.833 32.4887C343.152 33.1695 342.812 33.5099 342.471 34.1907C342.471 35.8927 342.131 36.9139 342.131 37.5947ZM369.363 37.5947C369.363 39.2967 370.044 40.6584 371.065 41.6796C372.086 42.7008 373.448 43.0412 374.809 43.0412C375.15 43.0412 375.49 43.0412 375.831 43.0412C376.171 43.0412 376.512 43.0412 376.512 43.0412C376.852 43.0412 376.852 43.0412 377.192 43.0412C377.533 43.0412 377.533 43.0412 377.873 42.7008C378.214 42.7008 378.554 42.3604 378.894 42.3604C379.235 42.02 379.575 42.02 379.916 41.6796L380.596 41.3392V42.02V43.3816V43.722C380.256 44.0624 379.916 44.0624 379.575 44.4028C379.235 44.7432 378.894 44.7432 378.554 44.7432C378.214 45.0836 377.533 45.0836 376.852 45.0836C376.171 45.0836 375.49 45.0836 375.15 45.0836C374.129 45.0836 373.108 44.7432 372.086 44.4028C371.065 44.0624 370.384 43.3816 369.703 42.7008C369.023 42.0199 368.342 40.9988 368.001 40.318C367.661 39.2968 367.321 38.2756 367.321 37.2544C367.321 34.8716 368.002 33.1696 369.363 31.808C370.044 31.1272 370.725 30.4464 371.746 30.106C372.767 29.7656 373.788 29.4251 374.809 29.4251C375.49 29.4251 376.171 29.4251 376.512 29.4251C377.192 29.4251 377.533 29.4251 377.873 29.7655C378.214 29.7655 378.554 30.106 378.894 30.106C379.235 30.106 379.575 30.4463 379.916 30.7867H380.256V31.1271V32.4887V33.1696L379.575 32.8291C379.235 32.8291 378.894 32.4887 378.894 32.4887C378.554 32.4887 378.554 32.1484 378.214 32.1484C377.873 32.1484 377.873 31.808 377.533 31.808C377.192 31.808 377.192 31.808 376.852 31.4676C376.512 31.4676 376.171 31.4675 375.831 31.1271C375.49 30.7867 375.15 31.1271 374.809 31.1271C373.448 31.1271 372.086 31.4675 371.065 32.4887C370.384 33.1695 370.044 33.5099 369.703 34.1907C369.363 35.8927 369.363 36.9139 369.363 37.5947ZM388.085 43.0412H391.149H391.489V43.3816V44.7432V45.0836H391.149H386.383H386.043V44.7432V30.4464V30.106H386.383H387.745H388.085V30.4464V43.0412ZM399.318 45.0836H397.957H397.616V44.7432V30.4464V30.106H397.957H399.318H399.659V30.4464V44.7432V45.0836H399.318ZM417.019 30.106H418.381H418.721V30.4464V45.0836V46.1048L418.04 45.424L408.509 34.5311V44.7432V45.0836H408.169H406.807H406.467V44.7432V30.4464V29.4251L407.148 30.106L416.679 40.9987V30.4464V30.106H417.019ZM426.551 45.0836H425.189H424.849V44.7432V30.4464V30.106H425.189H426.551H426.891V30.4464V44.7432V45.0836H426.551ZM434.72 37.5947C434.72 39.2967 435.401 40.6584 436.422 41.6796C437.443 42.7008 438.805 43.0412 440.167 43.0412C440.507 43.0412 440.847 43.0412 441.188 43.0412C441.528 43.0412 441.869 43.0412 441.869 43.0412C442.209 43.0412 442.209 43.0412 442.549 43.0412C442.89 43.0412 442.89 43.0412 443.23 42.7008C443.571 42.7008 443.911 42.3604 444.251 42.3604C444.592 42.02 444.932 42.02 445.273 41.6796L445.953 41.3392V42.02V43.3816V43.722C445.613 44.0624 445.273 44.0624 444.932 44.4028C444.592 44.7432 444.251 44.7432 443.911 44.7432C443.571 45.0836 442.89 45.0836 442.209 45.0836C441.528 45.0836 440.847 45.0836 440.507 45.0836C439.486 45.0836 438.465 44.7432 437.443 44.4028C436.422 44.0624 435.741 43.3816 435.061 42.7008C434.38 42.0199 433.699 40.9988 433.359 40.318C433.018 39.2968 432.678 38.2756 432.678 37.2544C432.678 34.8716 433.359 33.1696 434.72 31.808C435.401 31.1272 436.082 30.4464 437.103 30.106C438.124 29.7656 439.145 29.4251 440.167 29.4251C440.847 29.4251 441.528 29.4251 441.869 29.4251C442.549 29.4251 442.89 29.4251 443.23 29.7655C443.571 29.7655 443.911 30.106 444.251 30.106C444.592 30.106 444.932 30.4463 445.273 30.7867H445.613V31.1271V32.4887V33.1696L444.932 32.8291C444.592 32.8291 444.251 32.4887 444.251 32.4887C443.911 32.4887 443.911 32.1484 443.571 32.1484C443.23 32.1484 443.23 31.808 442.89 31.808C442.549 31.808 442.549 31.808 442.209 31.4676C441.869 31.4676 441.528 31.4675 441.188 31.1271C440.847 30.7867 440.507 31.1271 440.167 31.1271C438.805 31.1271 437.443 31.4675 436.422 32.4887C435.741 33.1695 435.401 33.5099 435.061 34.1907C435.061 35.8927 434.72 36.9139 434.72 37.5947Z" fill="white"></path> </svg> 