<?xml version="1.0" encoding="UTF-8"?> <svg xmlns="http://www.w3.org/2000/svg" width="97" height="141" viewBox="0 0 97 141" fill="none"> <path d="M22.7293 82.0757C22.2963 84.4697 13.9148 101.549 5.20101 112.374C-13.6252 132.377 28.7337 138.26 53.4433 140.613C71.7762 136.104 51.9446 121.06 65.3713 115.234C85.311 106.582 22.7293 82.0757 22.7293 82.0757Z" fill="#F5D1B5"></path> <path d="M92.638 52.9178C91.9259 43.27 88.6408 31.3713 88.6408 31.3713C88.6408 31.3713 53.9038 32.47 40.7025 33.3181C27.5013 34.1662 16.6834 58.1854 17.6317 74.5465C18.4512 88.6138 35.6854 91.4767 35.6854 91.4767C41.225 101.858 55.9579 115.134 75.5469 116.856C95.1394 118.573 92.4734 102.967 94.3808 95.8496C96.2881 88.7319 97.6373 73.6376 96.689 67.7795C95.7407 61.9286 93.3501 62.5656 92.638 52.9178Z" fill="#F7DAC4"></path> <path d="M19.3209 14.7132C58.15 -13.5266 87.566 19.4199 87.566 19.4199C87.566 19.4199 88.9957 32.6735 89.4967 34.7419C87.3711 34.5415 85.1882 34.4377 82.8907 34.5451C31.8857 36.9856 36.8098 113.402 84.7408 116.029C82.4005 116.845 79.4231 117.202 75.5475 116.862C55.9586 115.145 41.2257 101.865 35.6861 91.4833C35.6861 91.4833 18.4519 88.6169 17.6324 74.5532C16.6805 58.1885 0.414215 28.4638 19.3209 14.7132Z" fill="#F7DAC4"></path> <path d="M54.6201 33.802C15.791 40.5078 8.73114 25.3026 8.73074 30.0091C-3.70113 47.1845 -1.32225 57.0655 6.33942 68.4195C14.0011 79.7736 10.1183 98.0008 28.5227 90.6907C28.5227 90.6907 19.5442 84.8374 18.5637 75.5519C17.5867 66.2635 28.827 70.8873 29.6 72.4431C30.3729 73.999 40.0636 80.3622 40.4787 55.5475C40.629 46.5767 54.6201 40.5079 54.6201 33.802C41.6771 37.6639 26.3808 33.3628 26.3808 44.3399C26.3808 49.851 28.3439 44.6915 29.6 50.0874C29.6 50.0874 29.4877 61.6197 31.0873 54.8778C32.6869 48.1417 36.9705 39.55 54.6201 33.802Z" fill="#4A353B"></path> <path d="M54.6206 33.5391C54.6206 33.5391 73.1822 29.5532 76.9767 27.6559C79.33 26.4793 87.5665 19.4194 87.5665 19.4194" stroke="#4A353B" stroke-width="0.470655" stroke-dasharray="3.29 3.29"></path> <path d="M58.9855 12.6887C58.6062 12.7551 58.2449 12.5015 58.1785 12.1222C58.112 11.7429 58.3656 11.3816 58.7449 11.3151C59.1241 11.2487 59.4855 11.5023 59.552 11.8816C59.6184 12.2609 59.3648 12.6222 58.9855 12.6887Z" fill="#4A353B"></path> <path d="M62.6486 12.0475C62.2693 12.114 61.908 11.8604 61.8415 11.4811C61.7751 11.1018 62.0287 10.7405 62.4079 10.674C62.7872 10.6076 63.1486 10.8612 63.215 11.2405C63.2815 11.6197 63.0279 11.9811 62.6486 12.0475Z" fill="#4A353B"></path> <path d="M60.5325 14.7772C60.6127 15.2351 60.8817 15.4238 61.3396 15.3436C61.7974 15.2634 61.9862 14.9944 61.906 14.5366C61.8258 14.0788 61.5568 13.89 61.0989 13.9702C60.87 14.0103 60.4924 14.5483 60.5325 14.7772Z" fill="#4A353B"></path> <path d="M67.5079 12.8473C67.1287 12.9138 66.7674 12.6601 66.7009 12.2809C66.6345 11.9016 66.888 11.5403 67.2673 11.4738C67.6466 11.4074 68.008 11.661 68.0744 12.0402C68.1409 12.4195 67.8872 12.7809 67.5079 12.8473Z" fill="#4A353B"></path> <path d="M57.4064 15.797C57.0271 15.8635 56.6658 15.6099 56.5994 15.2306C56.5329 14.8513 56.7865 14.49 57.1658 14.4235C57.545 14.3571 57.9064 14.6107 57.9729 14.99C58.0393 15.3693 57.7857 15.7306 57.4064 15.797Z" fill="#4A353B"></path> <path d="M52.5643 12.3981C52.6445 12.8559 52.9135 13.0447 53.3713 12.9645C53.8291 12.8843 54.0179 12.6153 53.9377 12.1575C53.8575 11.6996 53.5885 11.5108 53.1307 11.591C52.6728 11.6712 52.4841 11.9402 52.5643 12.3981Z" fill="#4A353B"></path> <path d="M59.032 8.90613C59.1122 9.36396 59.3812 9.55278 59.8391 9.47257C60.2969 9.39236 60.4857 9.12334 60.4055 8.66551C60.3253 8.20768 60.0563 8.01886 59.5984 8.09907C59.1406 8.17928 58.9518 8.4483 59.032 8.90613Z" fill="#4A353B"></path> <path d="M54.1312 7.87659C54.2114 8.33442 54.4804 8.52324 54.9382 8.44303C55.396 8.36282 55.5848 8.0938 55.5046 7.63597C55.4244 7.17814 55.1554 6.98932 54.6976 7.06953C54.2397 7.14974 54.051 7.41876 54.1312 7.87659Z" fill="#4A353B"></path> <path d="M51.4426 15.4259C51.5228 15.8838 51.7919 16.0726 52.2497 15.9923C52.7075 15.9121 52.8963 15.6431 52.8161 15.1853C52.7359 14.7275 52.4669 14.5386 52.0091 14.6188C51.5513 14.6991 51.4025 15.197 51.4426 15.4259Z" fill="#4A353B"></path> <path d="M49.4802 13.6464C49.1009 13.7129 48.7395 13.4593 48.6731 13.08C48.6066 12.7007 48.8603 12.3393 49.2396 12.2729C49.6188 12.2065 49.9801 12.4601 50.0466 12.8393C50.113 13.2186 49.8595 13.58 49.4802 13.6464Z" fill="#4A353B"></path> <path d="M49.594 8.90788C49.2147 8.97432 48.8533 8.72073 48.7869 8.34145C48.7204 7.96217 48.974 7.60082 49.3533 7.53437C49.7326 7.46792 50.0939 7.72154 50.1604 8.10081C50.2268 8.48009 49.9732 8.84143 49.594 8.90788Z" fill="#4A353B"></path> <path d="M47.6315 16.5656C47.2523 16.632 46.8909 16.3784 46.8245 15.9992C46.758 15.6199 47.0116 15.2585 47.3909 15.1921C47.7702 15.1256 48.1315 15.3793 48.198 15.7585C48.2644 16.1378 48.0108 16.4991 47.6315 16.5656Z" fill="#4A353B"></path> <path d="M44.094 13.882C44.1742 14.3398 44.4433 14.5286 44.9011 14.4484C45.3589 14.3682 45.5477 14.0992 45.4675 13.6413C45.3873 13.1835 45.1183 12.9947 44.6605 13.0749C44.4315 13.115 44.0539 13.6531 44.094 13.882Z" fill="#4A353B"></path> <path d="M45.2961 11.3122C45.3763 11.77 45.6454 11.9588 46.1032 11.8786C46.5611 11.7984 46.7498 11.5293 46.6696 11.0715C46.5894 10.6137 46.3204 10.4249 45.8626 10.5051C45.6337 10.5452 45.256 11.0832 45.2961 11.3122Z" fill="#4A353B"></path> <path d="M42.2048 7.1349C42.285 7.59273 42.5541 7.78154 43.0119 7.70133C43.4698 7.62112 43.6585 7.3521 43.5783 6.89427C43.4981 6.43644 43.2291 6.24762 42.7713 6.32783C42.5424 6.36794 42.1647 6.90599 42.2048 7.1349Z" fill="#4A353B"></path> <path d="M41.239 15.0902C40.8597 15.1567 40.4983 14.9031 40.4319 14.5238C40.3654 14.1445 40.6191 13.7832 40.9983 13.7167C41.3776 13.6503 41.7389 13.9039 41.8054 14.2832C41.8718 14.6625 41.6183 15.0238 41.239 15.0902Z" fill="#4A353B"></path> <path d="M41.1242 10.3918C40.745 10.4582 40.3836 10.2046 40.3171 9.82533C40.2507 9.44606 40.5043 9.08471 40.8836 9.01826C41.2629 8.95181 41.6242 9.20542 41.6906 9.5847C41.7571 9.96398 41.5035 10.3253 41.1242 10.3918Z" fill="#4A353B"></path> <path d="M42.5154 16.9899C42.5956 17.4477 42.8646 17.6365 43.3224 17.5563C43.7802 17.4761 43.9691 17.2071 43.8889 16.7493C43.8087 16.2914 43.5396 16.1026 43.0818 16.1828C42.6239 16.263 42.4352 16.5321 42.5154 16.9899Z" fill="#4A353B"></path> <path d="M36.5119 16.3905C36.1326 16.457 35.7713 16.2034 35.7049 15.8241C35.6384 15.4448 35.892 15.0835 36.2713 15.017C36.6506 14.9506 37.0119 15.2042 37.0783 15.5835C37.1448 15.9628 36.8912 16.3241 36.5119 16.3905Z" fill="#4A353B"></path> <path d="M36.9475 13.4828C36.5682 13.5493 36.2069 13.2957 36.1404 12.9164C36.074 12.5371 36.3276 12.1758 36.7068 12.1093C37.0861 12.0429 37.4474 12.2965 37.5139 12.6758C37.5803 13.055 37.3268 13.4164 36.9475 13.4828Z" fill="#4A353B"></path> <path d="M36.1457 8.9047C35.7664 8.97115 35.4051 8.71754 35.3387 8.33826C35.2722 7.95898 35.5258 7.59765 35.9051 7.5312C36.2844 7.46475 36.6457 7.71836 36.7121 8.09764C36.7786 8.47692 36.525 8.83825 36.1457 8.9047Z" fill="#4A353B"></path> <path d="M34.4752 19.5785C34.0959 19.645 33.7346 19.3913 33.6682 19.0121C33.6017 18.6328 33.8553 18.2715 34.2346 18.205C34.6139 18.1386 34.9752 18.3922 35.0417 18.7714C35.1081 19.1507 34.8545 19.5121 34.4752 19.5785Z" fill="#4A353B"></path> <path d="M31.9743 17.4213C31.595 17.4878 31.2337 17.2341 31.1673 16.8549C31.1008 16.4756 31.3544 16.1142 31.7337 16.0478C32.113 15.9814 32.4743 16.235 32.5407 16.6142C32.6072 16.9935 32.3536 17.3549 31.9743 17.4213Z" fill="#4A353B"></path> <path d="M31.8586 12.7226C31.4793 12.789 31.118 12.5354 31.0516 12.1561C30.9851 11.7769 31.2387 11.4155 31.618 11.3491C31.9972 11.2826 32.3586 11.5362 32.425 11.9155C32.4915 12.2948 32.2379 12.6561 31.8586 12.7226Z" fill="#4A353B"></path> <path d="M30.6633 20.7179C30.284 20.7843 29.9226 20.5308 29.8562 20.1515C29.7897 19.7722 30.0434 19.4109 30.4227 19.3444C30.8019 19.278 31.1632 19.5316 31.2297 19.9109C31.2961 20.2902 31.0426 20.6515 30.6633 20.7179Z" fill="#4A353B"></path> <path d="M27.7893 15.0875C27.41 15.154 27.0486 14.9004 26.9822 14.5211C26.9157 14.1419 27.1694 13.7805 27.5486 13.7141C27.9279 13.6476 28.2892 13.9012 28.3557 14.2805C28.4221 14.6598 28.1685 15.0211 27.7893 15.0875Z" fill="#4A353B"></path> <path d="M26.3024 20.0663C25.9232 20.1327 25.5618 19.8792 25.4953 19.4999C25.4289 19.1206 25.6825 18.7593 26.0618 18.6928C26.4411 18.6264 26.8024 18.88 26.8689 19.2593C26.9353 19.6385 26.6817 19.9998 26.3024 20.0663Z" fill="#4A353B"></path> <path d="M21.7248 20.8683C21.3455 20.9347 20.9842 20.6812 20.9177 20.3019C20.8513 19.9226 21.1049 19.5613 21.4842 19.4948C21.8635 19.4284 22.2248 19.682 22.2912 20.0613C22.3577 20.4405 22.1041 20.8018 21.7248 20.8683Z" fill="#4A353B"></path> <path d="M37.9372 17.7919C38.0175 18.2497 38.2864 18.4385 38.7443 18.3583C39.2021 18.2781 39.391 18.0091 39.3107 17.5513C39.2305 17.0934 38.9615 16.9046 38.5036 16.9848C38.2747 17.0249 37.8971 17.563 37.9372 17.7919Z" fill="#4A353B"></path> <path d="M67.5027 16.8595C67.5829 17.3173 67.8519 17.5062 68.3098 17.4259C68.7676 17.3457 68.9564 17.0767 68.8762 16.6189C68.796 16.1611 68.527 15.9722 68.0691 16.0524C67.6113 16.1326 67.4225 16.4017 67.5027 16.8595Z" fill="#4A353B"></path> <path d="M73.5666 13.2868C73.6468 13.7446 73.9159 13.9334 74.3737 13.8532C74.8316 13.773 75.0204 13.504 74.9401 13.0461C74.8599 12.5883 74.5909 12.3995 74.1331 12.4797C73.6753 12.5599 73.4864 12.8289 73.5666 13.2868Z" fill="#4A353B"></path> <path d="M64.5339 22.806C64.1546 22.8725 63.7933 22.6189 63.7269 22.2396C63.6604 21.8603 63.914 21.499 64.2933 21.4326C64.6725 21.3661 65.0338 21.6197 65.1003 21.999C65.1667 22.3783 64.9132 22.7396 64.5339 22.806Z" fill="#4A353B"></path> <path d="M63.0476 27.7858C62.6683 27.8522 62.307 27.5986 62.2405 27.2193C62.1741 26.8401 62.4277 26.4788 62.8069 26.4123C63.1862 26.3459 63.5475 26.5994 63.614 26.9787C63.6804 27.358 63.4268 27.7193 63.0476 27.7858Z" fill="#4A353B"></path> <path d="M67.2238 24.694C66.8446 24.7604 66.4832 24.5068 66.4168 24.1275C66.3504 23.7483 66.6039 23.387 66.9832 23.3205C67.3625 23.2541 67.7238 23.5076 67.7902 23.8869C67.8567 24.2662 67.6031 24.6275 67.2238 24.694Z" fill="#4A353B"></path> <path d="M60.636 18.0624C60.7162 18.5202 60.9852 18.709 61.4431 18.6288C61.9009 18.5486 62.0897 18.2796 62.0095 17.8217C61.9293 17.3639 61.6603 17.1751 61.2024 17.2553C60.7446 17.3355 60.5558 17.6045 60.636 18.0624Z" fill="#4A353B"></path> <path d="M62.925 17.6615C63.0052 18.1193 63.2743 18.3081 63.7321 18.2279C64.19 18.1477 64.3787 17.8787 64.2985 17.4208C64.2183 16.963 63.9493 16.7742 63.4915 16.8544C63.0337 16.9347 62.8448 17.2037 62.925 17.6615Z" fill="#4A353B"></path> <path d="M56.2971 20.2382C56.3773 20.696 56.6463 20.8848 57.1041 20.8046C57.562 20.7244 57.7508 20.4554 57.6706 19.9975C57.5904 19.5397 57.3213 19.3509 56.8635 19.4311C56.4057 19.5113 56.2169 19.7803 56.2971 20.2382Z" fill="#4A353B"></path> <path d="M54.4542 19.1454C54.075 19.2119 53.7137 18.9583 53.6472 18.579C53.5808 18.1997 53.8343 17.8384 54.2136 17.7719C54.5929 17.7055 54.9543 17.9591 55.0207 18.3384C55.0872 18.7176 54.8335 19.079 54.4542 19.1454Z" fill="#4A353B"></path> <path d="M52.5265 21.6066C52.1472 21.673 51.7859 21.4195 51.7195 21.0402C51.653 20.6609 51.9066 20.2996 52.2859 20.2331C52.6651 20.1667 53.0265 20.4203 53.093 20.7995C53.1594 21.1788 52.9058 21.5401 52.5265 21.6066Z" fill="#4A353B"></path> <path d="M40.213 29.4267C39.8337 29.4931 39.4724 29.2395 39.406 28.8602C39.3395 28.481 39.5931 28.1196 39.9724 28.0532C40.3517 27.9867 40.713 28.2403 40.7795 28.6196C40.8459 28.9989 40.5923 29.3602 40.213 29.4267Z" fill="#4A353B"></path> <path d="M40.5553 34.0856C40.176 34.152 39.8147 33.8985 39.7483 33.5192C39.6818 33.1399 39.9354 32.7786 40.3147 32.7121C40.694 32.6457 41.0553 32.8993 41.1218 33.2785C41.1882 33.6578 40.9346 34.0191 40.5553 34.0856Z" fill="#4A353B"></path> <path d="M50.4016 18.9115C50.0223 18.978 49.6609 18.7244 49.5945 18.3451C49.528 17.9658 49.7817 17.6045 50.1609 17.538C50.5402 17.4716 50.9015 17.7252 50.968 18.1045C51.0344 18.4838 50.7809 18.8451 50.4016 18.9115Z" fill="#4A353B"></path> <path d="M45.3259 19.5648C45.4061 20.0227 45.6751 20.2115 46.1329 20.1313C46.5908 20.0511 46.7796 19.782 46.6994 19.3242C46.6192 18.8664 46.3501 18.6776 45.8923 18.7578C45.4345 18.838 45.2457 19.107 45.3259 19.5648Z" fill="#4A353B"></path> <path d="M47.3699 21.8021C47.4501 22.26 47.7191 22.4487 48.177 22.3685C48.6348 22.2883 48.8236 22.0193 48.7434 21.5615C48.6632 21.1037 48.3942 20.9149 47.9363 20.9951C47.4785 21.0753 47.2897 21.3443 47.3699 21.8021Z" fill="#4A353B"></path> <path d="M41.3659 21.2028C40.9866 21.2692 40.6253 21.0156 40.5588 20.6364C40.4924 20.2571 40.746 19.8957 41.1253 19.8293C41.5046 19.7628 41.8659 20.0165 41.9323 20.3957C41.9988 20.775 41.7452 21.1363 41.3659 21.2028Z" fill="#4A353B"></path> <path d="M39.4113 24.8481C39.0321 24.9145 38.6707 24.6609 38.6042 24.2816C38.5378 23.9024 38.7914 23.541 39.1707 23.4746C39.55 23.4081 39.9113 23.6617 39.9777 24.041C40.0442 24.4203 39.7906 24.7816 39.4113 24.8481Z" fill="#4A353B"></path> <path d="M42.1683 25.7806C42.2485 26.2384 42.5175 26.4273 42.9753 26.3471C43.4331 26.2668 43.6219 25.9978 43.5417 25.54C43.4615 25.0822 43.1925 24.8934 42.7347 24.9736C42.2768 25.0538 42.1282 25.5517 42.1683 25.7806Z" fill="#4A353B"></path> <path d="M43.5993 23.1705C43.22 23.237 42.8587 22.9834 42.7923 22.6041C42.7258 22.2249 42.9794 21.8635 43.3587 21.7971C43.738 21.7306 44.0993 21.9842 44.1657 22.3635C44.2322 22.7428 43.9786 23.1041 43.5993 23.1705Z" fill="#4A353B"></path> <path d="M70.594 21.0368C70.6742 21.4946 70.9433 21.6834 71.4011 21.6032C71.8589 21.523 72.0477 21.254 71.9675 20.7961C71.8873 20.3383 71.6183 20.1495 71.1605 20.2297C70.7026 20.3099 70.5138 20.5789 70.594 21.0368Z" fill="#4A353B"></path> <path d="M64.9304 29.1073C65.0106 29.5651 65.2797 29.754 65.7375 29.6737C66.1953 29.5935 66.3841 29.3245 66.3039 28.8667C66.2237 28.4089 65.9547 28.22 65.4969 28.3002C65.039 28.3805 64.8502 28.6495 64.9304 29.1073Z" fill="#4A353B"></path> <path d="M74.7703 17.9452C74.8505 18.403 75.1195 18.5918 75.5773 18.5116C76.0352 18.4314 76.224 18.1624 76.1438 17.7046C76.0635 17.2467 75.7946 17.0579 75.3367 17.1381C75.1078 17.1782 74.69 17.4874 74.7703 17.9452Z" fill="#4A353B"></path> <path d="M80.6262 17.9935C80.7064 18.4514 80.9755 18.6402 81.4333 18.5599C81.8911 18.4797 82.0799 18.2107 81.9997 17.7529C81.9195 17.2951 81.6505 17.1063 81.1927 17.1865C80.9638 17.2266 80.546 17.5357 80.6262 17.9935Z" fill="#4A353B"></path> <path d="M59.5656 22.7328C59.1863 22.7993 58.825 22.5457 58.7585 22.1664C58.6921 21.7871 58.9457 21.4258 59.3249 21.3593C59.7042 21.2929 60.0656 21.5465 60.132 21.9258C60.1985 22.305 59.9448 22.6664 59.5656 22.7328Z" fill="#4A353B"></path> <path d="M77.8616 22.1225C77.9418 22.5803 78.2108 22.7691 78.6686 22.6889C79.1264 22.6086 79.3153 22.3396 79.2351 21.8818C79.1549 21.424 78.8858 21.2352 78.428 21.3154C77.9701 21.3956 77.7813 21.6646 77.8616 22.1225Z" fill="#4A353B"></path> <path d="M54.8396 24.0331C54.4603 24.0996 54.0989 23.846 54.0325 23.4667C53.966 23.0874 54.2196 22.7261 54.5989 22.6596C54.9782 22.5932 55.3395 22.8468 55.406 23.2261C55.4724 23.6053 55.2188 23.9667 54.8396 24.0331Z" fill="#4A353B"></path> <path d="M58.468 28.5878C58.0887 28.6543 57.7273 28.4007 57.6609 28.0214C57.5944 27.6421 57.8481 27.2808 58.2273 27.2143C58.6066 27.1479 58.9679 27.4015 59.0344 27.7807C59.1008 28.16 58.8473 28.5214 58.468 28.5878Z" fill="#4A353B"></path> <path d="M45.1345 33.2834C44.7552 33.3498 44.3938 33.0962 44.3274 32.7169C44.2609 32.3377 44.5146 31.9763 44.8938 31.9099C45.2731 31.8434 45.6344 32.097 45.7009 32.4763C45.7673 32.8556 45.5138 33.2169 45.1345 33.2834Z" fill="#4A353B"></path> <path d="M51.445 24.8637C51.0657 24.9301 50.7044 24.6765 50.6379 24.2972C50.5715 23.9179 50.8251 23.5566 51.2044 23.4902C51.5837 23.4237 51.945 23.6773 52.0114 24.0566C52.0779 24.4359 51.8243 24.7972 51.445 24.8637Z" fill="#4A353B"></path> <path d="M53.488 27.1007C53.1087 27.1672 52.7473 26.9136 52.6809 26.5343C52.6144 26.155 52.8681 25.7937 53.2474 25.7272C53.6266 25.6608 53.9879 25.9144 54.0544 26.2937C54.1208 26.6729 53.8673 27.0343 53.488 27.1007Z" fill="#4A353B"></path> <path d="M35.176 30.3092C34.7967 30.3757 34.4353 30.1221 34.3689 29.7428C34.3024 29.3635 34.5561 29.0022 34.9354 28.9357C35.3146 28.8693 35.6759 29.1229 35.7424 29.5021C35.8088 29.8814 35.5553 30.2428 35.176 30.3092Z" fill="#4A353B"></path> <path d="M24.9548 32.6793C24.5755 32.7458 24.2141 32.4922 24.1477 32.1129C24.0812 31.7336 24.3349 31.3723 24.7142 31.3059C25.0934 31.2394 25.4547 31.493 25.5212 31.8723C25.5876 32.2515 25.3341 32.6129 24.9548 32.6793Z" fill="#4A353B"></path> <path d="M33.2878 32.9996C32.9085 33.0661 32.5471 32.8125 32.4807 32.4332C32.4142 32.0539 32.6679 31.6926 33.0472 31.6262C33.4264 31.5597 33.7877 31.8133 33.8542 32.1926C33.9206 32.5719 33.6671 32.9332 33.2878 32.9996Z" fill="#4A353B"></path> <path d="M45.9797 24.641C46.0599 25.0988 46.329 25.2876 46.7868 25.2074C47.2447 25.1272 47.4334 24.8582 47.3532 24.4004C47.273 23.9425 47.004 23.7537 46.5462 23.8339C46.3173 23.874 45.8995 24.1832 45.9797 24.641Z" fill="#4A353B"></path> <path d="M45.8147 27.7374C45.8949 28.1953 46.164 28.3841 46.6218 28.3039C47.0796 28.2237 47.2684 27.9546 47.1882 27.4968C47.108 27.039 46.839 26.8502 46.3812 26.9304C46.1522 26.9705 45.7345 27.2796 45.8147 27.7374Z" fill="#4A353B"></path> <path d="M48.4827 26.798C48.5629 27.2558 48.8319 27.4446 49.2898 27.3644C49.7476 27.2842 49.9364 27.0152 49.8562 26.5574C49.7759 26.0995 49.507 25.9107 49.0491 25.9909C48.5913 26.0711 48.4024 26.3402 48.4827 26.798Z" fill="#4A353B"></path> <path d="M48.905 31.9149C48.9852 32.3728 49.2543 32.5616 49.7121 32.4814C50.1699 32.4012 50.3587 32.1321 50.2785 31.6743C50.1983 31.2165 49.9293 31.0276 49.4715 31.1079C49.0137 31.1881 48.8248 31.4571 48.905 31.9149Z" fill="#4A353B"></path> <path d="M53.4846 31.1124C53.5648 31.5703 53.8339 31.7591 54.2917 31.6789C54.7495 31.5987 54.9383 31.3296 54.8581 30.8718C54.7779 30.414 54.5089 30.2252 54.0511 30.3054C53.5932 30.3856 53.4044 30.6546 53.4846 31.1124Z" fill="#4A353B"></path> <path d="M36.1677 34.6181C36.2479 35.0759 36.517 35.2647 36.9748 35.1845C37.4326 35.1043 37.6214 34.8353 37.5412 34.3774C37.461 33.9196 37.192 33.7308 36.7342 33.811C36.2764 33.8912 36.0875 34.1602 36.1677 34.6181Z" fill="#4A353B"></path> <path d="M71.3957 25.6151C71.4759 26.073 71.745 26.2618 72.2028 26.1816C72.6607 26.1013 72.8495 25.8323 72.7692 25.3745C72.689 24.9167 72.42 24.7278 71.9622 24.8081C71.5044 24.8883 71.3155 25.1573 71.3957 25.6151Z" fill="#4A353B"></path> <path d="M29.4747 24.7016C29.0955 24.768 28.7342 24.5144 28.6677 24.1351C28.6013 23.7559 28.8548 23.3945 29.2341 23.3281C29.6134 23.2616 29.9748 23.5152 30.0412 23.8945C30.1077 24.2738 29.854 24.6351 29.4747 24.7016Z" fill="#4A353B"></path> <path d="M25.1144 24.0497C24.7351 24.1162 24.3738 23.8626 24.3074 23.4833C24.2409 23.104 24.4945 22.7427 24.8738 22.6762C25.253 22.6098 25.6144 22.8634 25.6809 23.2427C25.7473 23.6219 25.4937 23.9833 25.1144 24.0497Z" fill="#4A353B"></path> <path d="M17.8947 23.2663C17.5154 23.3327 17.1541 23.0791 17.0876 22.6998C17.0212 22.3206 17.2748 21.9592 17.654 21.8928C18.0333 21.8263 18.3947 22.0799 18.4611 22.4592C18.5276 22.8385 18.2739 23.1998 17.8947 23.2663Z" fill="#4A353B"></path> <path d="M24.9547 27.9731C24.5754 28.0395 24.2141 27.7859 24.1477 27.4066C24.0812 27.0274 24.3348 26.666 24.7141 26.5996C25.0934 26.5331 25.4547 26.7867 25.5212 27.166C25.5876 27.5453 25.334 27.9066 24.9547 27.9731Z" fill="#4A353B"></path> <path d="M35.6388 26.2172C35.2595 26.2837 34.8982 26.0301 34.8318 25.6508C34.7653 25.2715 35.0189 24.9102 35.3982 24.8437C35.7775 24.7773 36.1388 25.0309 36.2053 25.4101C36.2717 25.7894 36.0181 26.1508 35.6388 26.2172Z" fill="#4A353B"></path> <path d="M32.2052 26.8188C31.8259 26.8852 31.4646 26.6316 31.3982 26.2523C31.3317 25.8731 31.5853 25.5117 31.9646 25.4453C32.3439 25.3788 32.7052 25.6324 32.7717 26.0117C32.8381 26.391 32.5845 26.7523 32.2052 26.8188Z" fill="#4A353B"></path> <path d="M28.7824 28.8336C28.4031 28.9001 28.0418 28.6465 27.9753 28.2672C27.9089 27.8879 28.1625 27.5266 28.5417 27.4602C28.921 27.3937 29.2824 27.6473 29.3488 28.0266C29.4153 28.4058 29.1616 28.7672 28.7824 28.8336Z" fill="#4A353B"></path> <path d="M20.2482 30.3263C19.8689 30.3928 19.5076 30.1391 19.4411 29.7599C19.3747 29.3806 19.6283 29.0193 20.0075 28.9528C20.3868 28.8864 20.7482 29.14 20.8146 29.5192C20.8811 29.8985 20.6275 30.2599 20.2482 30.3263Z" fill="#4A353B"></path> <path d="M17.9489 26.2487C17.5696 26.3151 17.2083 26.0615 17.1418 25.6822C17.0754 25.303 17.329 24.9417 17.7082 24.8752C18.0875 24.8088 18.4489 25.0623 18.5153 25.4416C18.5818 25.8209 18.3281 26.1822 17.9489 26.2487Z" fill="#4A353B"></path> <path d="M37.0162 21.9645C36.637 22.0309 36.2757 21.7774 36.2092 21.3981C36.1428 21.0188 36.3963 20.6575 36.7756 20.591C37.1549 20.5246 37.5163 20.7782 37.5827 21.1575C37.6492 21.5367 37.3955 21.898 37.0162 21.9645Z" fill="#4A353B"></path> <path d="M33.2063 23.1037C32.827 23.1701 32.4656 22.9165 32.3992 22.5372C32.3327 22.158 32.5863 21.7966 32.9656 21.7302C33.3449 21.6637 33.7062 21.9173 33.7727 22.2966C33.8391 22.6759 33.5855 23.0372 33.2063 23.1037Z" fill="#4A353B"></path> </svg> 