<?xml version="1.0" encoding="UTF-8"?> <svg xmlns="http://www.w3.org/2000/svg" width="154" height="160" viewBox="0 0 154 160" fill="none"> <g clip-path="url(#clip0_237_8683)"> <rect width="154" height="160" fill="white"></rect> <path d="M151 137C139.5 131.5 120.5 146.614 120.5 146.614C106.707 130.035 110.572 80.4354 110.572 80.4354L113.582 76.4369C112.19 65.2499 107.023 60.0383 107.023 60.0383L106.035 77.8296L98.6666 56.8934L82.7173 53.7035C70.0926 59.9035 48.6173 40.0905 47.4492 39.0122L47.4042 38.9673V38.9224C47.3593 38.9224 47.3144 38.9673 47.3144 38.9673C34.0608 46.7847 33.2521 60.0833 33.2521 60.0833C40.8448 118.983 72.7883 121.544 72.7883 121.544L73.3724 126.531L68.6101 128.867L68.0026 104.277C68.0026 104.277 69.5754 128.373 76 146.614C65.5 162.5 54 156.5 41 154.5C35.9934 153.73 33.5 153 28.5 150.5C22.8813 147.691 17 141.5 17 141.5C20.729 134.671 23.0095 121.901 23.749 113C24.429 104.814 23.4794 97.0766 23.749 90.5622C25.007 59.2027 22.9637 93.6441 25.7492 55.7253C28.6245 16.5035 45.4724 6.34993 55.5361 3.83398C59.984 2.7108 63.1289 3.07022 63.1289 3.07022C66.4536 2.48616 69.5985 2.17167 72.5188 2.03688C81.3695 1.72239 88.6477 3.42964 94.7578 6.75427C98.4868 8.77601 101.811 11.4267 104.732 14.5717C119.917 30.7905 125.713 60.3528 134.384 89.0166C145.975 127.205 148.394 132.822 151 137Z" fill="#4A353B"></path> <path d="M129.109 137.038C129.109 137.038 123.605 144.436 119 148C110.76 154.378 93.994 157.306 93.994 157.306H56.8838L70 131L73.2824 126.576L72.6983 121.589C72.6983 121.589 40.7549 119.028 33.1621 60.1282C33.1621 60.1282 33.9708 46.7397 47.3143 38.9673V39.0122C48.123 39.776 69.8679 59.9934 82.6273 53.7484L98.5766 56.9383L105.945 77.8745L106.933 60.0832C106.933 60.0832 112.1 65.2948 113.493 76.4818L110.482 80.4803C110.482 80.4803 109.719 95.9354 114.706 110.717C116.593 116.108 125.38 132.59 129.109 137.038Z" fill="#F6DAC4"></path> <path d="M104.732 14.6165C104.507 14.4817 104.237 14.3469 104.013 14.2122C104.058 14.2122 104.282 14.2571 104.732 14.6165Z" fill="#F6DAC4"></path> <path d="M114.795 110.672C96.3301 129.766 72.6533 121.544 72.6533 121.544C102.62 124.869 105.99 77.8746 105.99 77.8746L106.978 60.0833C106.978 60.0833 112.145 65.2949 113.537 76.4818L110.527 80.4804C110.572 80.4354 109.808 95.8905 114.795 110.672Z" fill="#E4C0A4"></path> <path d="M72.6534 121.499C72.6534 121.499 40.7099 118.938 33.1172 60.0383C33.1172 60.0383 33.9259 46.6499 47.2694 38.8774V38.9224C47.2694 38.9224 38.1041 50.5586 38.823 60.4876C38.823 60.5325 41.6983 111.525 72.6534 121.499Z" fill="#E4C0A4"></path> <path d="M64.6562 153.712L93.949 157.262H56.8389L70 130L72.6534 121.544C72.6534 121.544 80.1563 128.643 94.6679 128.149L74.3606 131.293L64.6562 153.712Z" fill="#E4C0A4"></path> <path d="M72.5188 2.08179C54.413 13.2687 47.3145 38.9673 47.3145 38.9673C48.213 22.0745 52.3463 10.4832 55.5362 3.83396C59.984 2.71077 63.129 3.07019 63.129 3.07019C66.4536 2.48614 69.5536 2.17164 72.5188 2.08179Z" fill="#3D2C31"></path> <path d="M152.5 138C143 138 120 146.614 120 146.614C106.207 130.036 110.572 80.4356 110.572 80.4356L113.582 76.437C112.19 65.25 107.023 60.0385 107.023 60.0385C107.023 60.0385 95.881 33.7558 75.7085 34.2051C75.7085 34.2051 95.836 29.0385 110.842 53.6587C110.842 53.6587 115.739 51.637 115.29 44.0443C114.93 38.2935 108.056 17.5819 94.7578 6.75439C98.4867 8.77613 101.811 11.4269 104.732 14.5718C119.917 30.7906 125.713 60.3529 134.384 89.0167C145.975 127.205 149.894 133.822 152.5 138Z" fill="#3D2C31"></path> <path d="M73.1165 75.0716C73.1165 75.0716 78.9441 65.7028 89.0928 70.7091C89.0802 70.5869 84.3525 79.8424 73.1165 75.0716Z" fill="white"></path> <path d="M84.0468 72.218C83.9621 70.7278 82.5207 69.5979 80.8273 69.6942C79.1339 69.7904 77.8298 71.0765 77.9145 72.5666C77.9992 74.0568 79.4406 75.1869 81.134 75.0906C82.8274 74.9943 84.1315 73.7082 84.0468 72.218Z" fill="#8E9561"></path> <path d="M83.147 71.6294C83.0854 70.5456 82.0471 69.7232 80.8279 69.7926C79.6086 69.8619 78.6701 70.7966 78.7317 71.8804C78.7933 72.9642 79.8317 73.7866 81.051 73.7173C82.2702 73.648 83.2087 72.7132 83.147 71.6294Z" fill="#3D2C31"></path> <path d="M80.4399 73.3856C80.7676 73.1441 80.9353 72.8154 80.8145 72.6516C80.6938 72.4878 80.3302 72.5508 80.0025 72.7923C79.6749 73.0339 79.5071 73.3625 79.6279 73.5264C79.7486 73.6902 80.1122 73.6272 80.4399 73.3856Z" fill="white"></path> <path d="M81.0302 73.9709C81.3579 73.7293 81.5256 73.4006 81.4049 73.2368C81.2841 73.073 80.9205 73.136 80.5928 73.3776C80.2651 73.6191 80.0974 73.9478 80.2182 74.1116C80.339 74.2754 80.7025 74.2124 81.0302 73.9709Z" fill="white"></path> <path d="M79.8233 72.9716C80.1509 72.7301 80.3186 72.4014 80.1978 72.2375C80.0771 72.0737 79.7135 72.1367 79.3858 72.3783C79.0582 72.6198 78.8904 72.9485 79.0112 73.1123C79.132 73.2762 79.4956 73.2132 79.8233 72.9716Z" fill="white"></path> <path d="M89.0794 70.5872C89.0453 71.4552 87.6707 73.6963 86.7685 74.5302L86.427 74.8124L85.9634 75.1071C85.8538 75.2419 85.7316 75.2545 85.4998 75.4019L85.0236 75.5745C84.9014 75.5871 84.6695 75.7344 84.5473 75.747L84.0711 75.9195C83.717 76.0795 83.3505 76.1173 82.9964 76.2772C81.5551 76.6727 80.0635 76.5793 78.5844 76.6082C77.8386 76.5615 77.2151 76.5022 76.4567 76.3333C75.8205 76.1518 74.5481 75.7889 74.0215 75.4726C74.7799 75.6415 75.9174 75.8948 76.6633 75.9415C77.4091 75.9882 78.0201 75.9253 78.7659 75.972C79.4992 75.8964 80.1228 75.9557 80.7338 75.8928C81.1004 75.855 81.3448 75.8298 81.7115 75.7921C82.0781 75.7543 82.3099 75.607 82.6765 75.5692C83.8859 75.3211 85.0702 74.8287 85.9975 74.2392C86.7774 73.4178 88.5439 71.3834 89.0794 70.5872Z" fill="#E4C0A4"></path> <path d="M73.1161 75.0718C73.3191 73.4454 74.1457 71.8782 75.2545 70.6525C76.3633 69.4268 77.986 68.3951 79.6717 67.9745C81.3574 67.5539 83.2156 67.6096 84.7576 68.1918C85.516 68.3606 86.2995 68.7739 87.0831 69.1872C87.7445 69.6131 88.4184 70.1612 89.0924 70.7093C88.2244 70.6752 87.466 70.5063 86.7076 70.3374L85.5826 70.2062C85.2034 70.1218 84.8242 70.0374 84.4576 70.0752C82.966 69.9818 81.6217 70.1202 80.29 70.3809C77.4919 70.7926 75.2114 72.633 73.1161 75.0718Z" fill="#3D2C31"></path> <path d="M86.9995 69.1626C87.2565 69.2596 89.2535 70.0254 89.6201 69.9876C89.9993 70.0721 90.366 70.0343 90.72 69.8744C91.074 69.7144 91.428 69.5544 91.6347 69.1627C91.8539 68.8931 92.048 68.3791 92.1324 67.9998C92.1702 68.3665 92.0983 68.8679 91.8917 69.2597C91.685 69.6514 91.3562 70.0558 91.0148 70.338C90.5511 70.6327 90.0623 70.6831 89.7082 70.843C89.2194 70.8934 88.0012 70.5717 87.4998 70.4998L86.9995 69.1626Z" fill="#3D2C31"></path> <path d="M57.8371 76.6541C57.8371 76.6541 49.9905 68.8173 41.21 75.8966C41.3322 75.8841 47.9569 83.8468 57.8371 76.6541Z" fill="white"></path> <path d="M50.0575 78.4144C51.7386 78.1887 52.9404 76.8065 52.7418 75.3272C52.5432 73.8478 51.0194 72.8315 49.3383 73.0572C47.6572 73.2829 46.4554 74.6651 46.654 76.1445C46.8527 77.6238 48.3764 78.6401 50.0575 78.4144Z" fill="#8E9561"></path> <path d="M49.8968 77.0712C51.1072 76.9087 51.9714 75.9048 51.8269 74.8289C51.6825 73.753 50.5841 73.0125 49.3737 73.175C48.1633 73.3375 47.2992 74.3415 47.4437 75.4174C47.5881 76.4933 48.6864 77.2337 49.8968 77.0712Z" fill="#3D2C31"></path> <path d="M49.2702 76.9598C49.5784 76.6939 49.7204 76.3533 49.5875 76.1992C49.4545 76.0451 49.0968 76.1358 48.7886 76.4017C48.4804 76.6677 48.3383 77.0082 48.4712 77.1623C48.6042 77.3165 48.962 77.2258 49.2702 76.9598Z" fill="white"></path> <path d="M49.9132 77.3858C50.2214 77.1199 50.3635 76.7794 50.2305 76.6252C50.0975 76.4711 49.7399 76.5618 49.4317 76.8277C49.1234 77.0937 48.9813 77.4342 49.1143 77.5884C49.2473 77.7425 49.605 77.6518 49.9132 77.3858Z" fill="white"></path> <path d="M48.5807 76.4501C48.889 76.1841 49.031 75.8436 48.898 75.6894C48.765 75.5353 48.4074 75.626 48.0991 75.8919C47.7909 76.1579 47.6488 76.4985 47.7818 76.6526C47.9148 76.8067 48.2725 76.716 48.5807 76.4501Z" fill="white"></path> <path d="M41.3325 75.884C41.5428 76.7269 43.4677 78.6282 44.5082 79.1385L44.9001 79.3452L45.414 79.5392C45.5488 79.6488 45.671 79.6362 45.928 79.7332L46.4294 79.8052C46.5516 79.7926 46.8086 79.8896 46.9308 79.877L47.4323 79.9488C47.8115 80.0333 48.178 79.9955 48.5446 79.9578C50.0237 79.9289 51.4776 79.6557 52.9189 79.2602C53.6395 79.0625 54.2253 78.7551 54.946 78.5574C55.5318 78.2501 56.7035 77.6354 57.142 77.0962C56.4465 77.5384 55.3845 78.0183 54.7734 78.0812C54.0528 78.279 53.4418 78.3419 52.7211 78.5396C51.9879 78.6152 51.3895 78.8003 50.7785 78.8632C50.4118 78.9009 50.1675 78.9261 49.8008 78.9639C49.4342 79.0016 49.1898 79.0268 48.8106 78.9424C47.5759 78.9461 46.3161 78.7053 45.2881 78.3171C44.1631 78.186 42.0191 76.5543 41.3325 75.884Z" fill="#E4C0A4"></path> <path d="M57.8373 76.6541C55.1792 74.8283 52.4619 73.6262 49.7356 73.5365C48.3788 73.5527 47.0346 73.6912 45.6059 74.2088C45.2393 74.2466 44.8852 74.4066 44.5312 74.5665L43.4565 74.9242C42.7484 75.2442 42.0404 75.5641 41.1976 75.7744C41.6235 75.113 42.1841 74.5613 42.7322 73.8873C43.4277 73.4452 43.9758 72.7712 44.8061 72.4387C46.197 71.5544 48.0049 71.1212 49.7409 71.1894C51.4769 71.2576 53.2633 71.8147 54.5986 72.7886C56.1784 73.7375 57.307 75.1032 57.8373 76.6541Z" fill="#3D2C31"></path> <path d="M43.2085 73.7149C42.9767 73.8622 41.3539 74.8938 40.9999 75.0538C40.6459 75.2138 40.2793 75.2515 39.9001 75.1671C39.5209 75.0826 39.1417 74.9982 38.8596 74.6567C38.59 74.4375 38.2952 73.9739 38.1353 73.6199C38.2952 73.9739 38.3455 74.4627 38.6277 74.8042C38.9099 75.1456 39.3142 75.4744 39.8282 75.6685C40.3422 75.8626 40.831 75.8122 41.3198 75.7619C41.8087 75.7115 42.9804 75.0969 43.4566 74.9243L43.2085 73.7149Z" fill="#3D2C31"></path> <path d="M72.6685 69.416C72.8463 67.5452 73.8922 65.7085 75.3675 64.445C76.8303 63.0593 78.8574 62.3566 80.8001 62.033C82.7428 61.7094 84.7736 62.2412 86.56 62.7982C87.4658 63.1989 88.2493 63.6122 89.0329 64.0255C89.8291 64.561 90.5031 65.1092 91.1896 65.7795C90.1994 65.758 89.3314 65.7238 88.4508 65.5675C87.5827 65.5334 86.7147 65.4993 85.9563 65.3304C84.3425 65.2496 82.7287 65.1689 81.2622 65.3199C78.2323 65.879 75.5096 67.0239 72.6685 69.416Z" fill="#3D2C31"></path> <path d="M57.2695 71.075C55.5495 70.0922 53.9524 69.3551 52.4782 68.9866C50.8812 68.4952 49.4069 68.3723 47.9327 68.4951C46.4585 68.618 44.8615 68.9866 43.2644 69.6008C42.4044 69.8465 41.6673 70.2151 40.8074 70.4608C39.9474 70.8293 39.0875 71.1979 38.2275 71.4436C38.7189 70.5836 39.2103 69.8465 39.8246 68.9866C40.4388 68.2495 41.1759 67.6352 42.0359 67.021C43.633 65.9153 45.5986 65.0553 47.6871 64.9325C49.7756 64.8096 51.9868 65.3011 53.7067 66.4067C55.3038 67.5124 56.6552 69.2323 57.2695 71.075Z" fill="#3D2C31"></path> <path d="M71.3921 91.1764C71.5171 91.3618 71.7412 91.5343 71.8791 91.8189C72.0041 92.0043 72.142 92.2889 72.1807 92.5864C72.2194 92.8839 72.271 93.2805 72.2106 93.5909C72.1501 93.9013 71.9776 94.1255 71.8051 94.3496C71.6326 94.5738 71.4471 94.6988 71.1625 94.8366C70.9771 94.9616 70.7788 94.9874 70.5934 95.1123C70.408 95.2373 70.2097 95.2631 70.0242 95.3881C69.8388 95.5131 69.7525 95.6252 69.6921 95.9356C69.58 95.8493 69.5542 95.651 69.5413 95.5518C69.5155 95.3535 69.6017 95.2414 69.688 95.1294C69.8605 94.9052 70.0331 94.6811 70.2185 94.5561C70.5764 94.207 70.9602 94.0562 71.1327 93.8321C71.4044 93.595 71.4648 93.2846 71.5124 92.8751C71.4865 92.6767 71.4607 92.4784 71.422 92.1809C71.4091 92.0817 71.3962 91.9826 71.3704 91.7843C71.4308 91.4739 71.405 91.2755 71.3921 91.1764Z" fill="#E4C0A4"></path> <path d="M64.8344 91.929C64.9118 92.524 64.778 93.0456 64.8425 93.5414C64.8941 93.9381 65.1312 94.2098 65.4674 94.4685C65.5795 94.5548 65.7907 94.6281 66.0019 94.7015C66.114 94.7877 66.4115 94.749 66.6227 94.8224C66.8339 94.8957 67.1443 94.9562 67.3685 95.1287C67.5926 95.3013 67.7563 95.7841 67.683 95.9954C67.5451 95.7108 67.4201 95.5254 67.2218 95.5512C67.0105 95.4778 66.8122 95.5036 66.6139 95.5295C66.4156 95.5553 66.2172 95.5811 65.9068 95.5207C65.6956 95.4473 65.3852 95.3868 65.1611 95.2143C64.9369 95.0418 64.7128 94.8693 64.4629 94.4984C64.325 94.2139 64.1742 93.8301 64.2217 93.4205C64.2435 92.8126 64.5885 92.3644 64.8344 91.929Z" fill="#E4C0A4"></path> <path d="M65.7561 95.1369C65.7561 95.1369 66.0712 93.6841 66.6315 94.1154C67.2048 94.6458 67.0968 95.3659 67.0968 95.3659L65.7561 95.1369Z" fill="#E4C0A4"></path> <path d="M71.1239 94.5391C71.1239 94.5391 70.4345 93.1162 69.917 93.7886C69.3994 94.461 69.7873 95.1165 69.7873 95.1165L71.1239 94.5391Z" fill="#E4C0A4"></path> <g filter="url(#filter0_d_237_8683)"> <path d="M17.4836 51.0945C17.3932 50.9901 17.4045 50.8322 17.5088 50.7418L19.2091 49.2682C19.3134 49.1778 19.4713 49.1891 19.5618 49.2934C19.6522 49.3978 19.6409 49.5557 19.5366 49.6461L18.0252 50.9559L19.335 52.4673C19.4255 52.5717 19.4142 52.7295 19.3098 52.82C19.2055 52.9104 19.0476 52.8991 18.9572 52.7948L17.4836 51.0945ZM46.0393 47.0182L46.0128 46.7696L46.0393 47.0182ZM55.5415 49.8128C55.4183 50.0303 55.4183 50.0304 55.4183 50.0303C55.4182 50.0303 55.4182 50.0303 55.4181 50.0303C55.418 50.0302 55.4178 50.0301 55.4175 50.0299C55.4169 50.0296 55.416 50.0291 55.4147 50.0284C55.4122 50.0269 55.4083 50.0248 55.4031 50.0218C55.3927 50.016 55.377 50.0073 55.3563 49.9958C55.3148 49.9729 55.2531 49.9392 55.173 49.8963C55.0127 49.8105 54.7789 49.6881 54.4862 49.5423C53.9005 49.2505 53.0799 48.8659 52.1407 48.4941C50.2507 47.7461 47.9242 47.0686 46.0658 47.2668L46.0128 46.7696C48.0007 46.5576 50.4252 47.2774 52.3247 48.0292C53.2803 48.4074 54.1142 48.7984 54.7091 49.0947C55.0067 49.2429 55.2449 49.3677 55.409 49.4555C55.491 49.4995 55.5546 49.5342 55.5978 49.558C55.6194 49.57 55.636 49.5792 55.6472 49.5855C55.6528 49.5886 55.6571 49.591 55.66 49.5927C55.6615 49.5935 55.6626 49.5941 55.6634 49.5946C55.6638 49.5948 55.6641 49.595 55.6643 49.5951C55.6645 49.5952 55.6646 49.5952 55.6646 49.5952C55.6647 49.5953 55.6648 49.5953 55.5415 49.8128ZM46.0658 47.2668C40.8412 47.8241 36.2152 48.9724 31.6437 49.9007C27.0786 50.8277 22.5802 51.532 17.6547 51.1801L17.6903 50.6814C22.5465 51.0283 26.9913 50.3352 31.5442 49.4107C36.0905 48.4875 40.7571 47.3302 46.0128 46.7696L46.0658 47.2668Z" fill="white"></path> <path d="M44.0964 38.2396C43.9988 38.1419 43.8405 38.1419 43.7429 38.2396L42.1518 39.8305C42.0542 39.9281 42.0542 40.0864 42.1518 40.184C42.2494 40.2817 42.4077 40.2817 42.5053 40.184L43.9196 38.7699L45.3338 40.1842C45.4314 40.2818 45.5897 40.2818 45.6873 40.1842C45.785 40.0866 45.785 39.9283 45.6873 39.8306L44.0964 38.2396ZM47.1581 56.9397L47.3693 56.8059L47.1581 56.9397ZM48.6255 61.6795C48.8742 61.6534 48.8741 61.6534 48.8741 61.6533C48.8741 61.6533 48.8741 61.6532 48.8741 61.6531C48.8741 61.653 48.8741 61.6528 48.8741 61.6526C48.874 61.6521 48.8739 61.6515 48.8739 61.6506C48.8737 61.649 48.8734 61.6467 48.8731 61.6437C48.8724 61.6377 48.8715 61.629 48.8702 61.6177C48.8675 61.595 48.8636 61.562 48.8582 61.5195C48.8473 61.4345 48.8306 61.3117 48.8069 61.1588C48.7594 60.8532 48.684 60.4268 48.5716 59.9419C48.3481 58.9774 47.9736 57.7599 47.3693 56.8059L46.9469 57.0734C47.506 57.9561 47.8652 59.1085 48.0845 60.0548C48.1936 60.5252 48.2668 60.9393 48.3128 61.2355C48.3357 61.3835 48.3519 61.5018 48.3622 61.5828C48.3673 61.6232 48.3711 61.6543 48.3735 61.6751C48.3747 61.6855 48.3755 61.6933 48.3761 61.6984C48.3764 61.701 48.3766 61.7029 48.3767 61.704C48.3768 61.7046 48.3768 61.705 48.3769 61.7053C48.3769 61.7054 48.3769 61.7055 48.3769 61.7055C48.3769 61.7055 48.3769 61.7055 48.3769 61.7055C48.3769 61.7055 48.3769 61.7055 48.6255 61.6795ZM47.3693 56.8059C42.1099 48.5021 44.1694 43.4334 44.1696 38.4164L43.6696 38.4163C43.6694 43.3031 41.5857 48.6089 46.9469 57.0734L47.3693 56.8059Z" fill="white"></path> <path d="M30.4439 38.1925C30.3204 38.1307 30.1702 38.1807 30.1084 38.3042L29.1012 40.3161C29.0394 40.4396 29.0894 40.5898 29.2128 40.6516C29.3363 40.7134 29.4865 40.6634 29.5483 40.54L30.4436 38.7516L32.232 39.6469C32.3555 39.7087 32.5057 39.6587 32.5675 39.5353C32.6293 39.4118 32.5793 39.2616 32.4559 39.1998L30.4439 38.1925ZM36.2725 59.4385L36.4704 59.2857L36.2725 59.4385ZM38.9234 64.267C39.1534 64.1691 39.1534 64.1691 39.1534 64.1691C39.1534 64.169 39.1534 64.169 39.1533 64.1689C39.1533 64.1688 39.1532 64.1686 39.1531 64.1684C39.1529 64.168 39.1527 64.1674 39.1523 64.1666C39.1517 64.165 39.1507 64.1627 39.1493 64.1596C39.1467 64.1534 39.1428 64.1444 39.1377 64.1326C39.1275 64.109 39.1125 64.0743 39.0929 64.0297C39.0538 63.9404 38.9965 63.8113 38.9236 63.651C38.778 63.3306 38.5698 62.8855 38.3198 62.3861C37.8218 61.3912 37.1503 60.1661 36.4704 59.2857L36.0747 59.5913C36.7236 60.4315 37.3775 61.6206 37.8727 62.6099C38.1193 63.1025 38.3247 63.5419 38.4685 63.858C38.5403 64.016 38.5967 64.1431 38.635 64.2305C38.6542 64.2742 38.6689 64.308 38.6787 64.3308C38.6836 64.3421 38.6873 64.3508 38.6897 64.3565C38.691 64.3594 38.6919 64.3615 38.6925 64.3629C38.6928 64.3636 38.693 64.3641 38.6931 64.3644C38.6932 64.3646 38.6933 64.3647 38.6933 64.3648C38.6933 64.3648 38.6933 64.3648 38.6933 64.3649C38.6933 64.3649 38.6933 64.3649 38.9234 64.267ZM36.4704 59.2857C33.0022 54.795 31.9661 50.8937 31.5782 47.4624C31.383 45.7367 31.3523 44.1403 31.26 42.6192C31.1682 41.107 31.0155 39.6783 30.5692 38.3372L30.0948 38.495C30.5195 39.7714 30.6696 41.1459 30.7609 42.6495C30.8517 44.1442 30.8843 45.7762 31.0813 47.5185C31.4776 51.023 32.5407 55.0154 36.0747 59.5913L36.4704 59.2857Z" fill="white"></path> <path d="M4.33315 61.8304C4.33315 62.5668 3.7362 63.1638 2.99982 63.1638C2.26344 63.1638 1.66649 62.5668 1.66649 61.8304C1.66649 61.0941 2.26344 60.4971 2.99982 60.4971C3.7362 60.4971 4.33315 61.0941 4.33315 61.8304ZM46.0391 57.2554L46.0126 57.0068L46.0391 57.2554ZM56.6592 59.5946C56.5652 59.8263 56.5652 59.8263 56.5651 59.8263C56.5651 59.8262 56.565 59.8262 56.565 59.8262C56.5648 59.8261 56.5645 59.826 56.5641 59.8259C56.5634 59.8256 56.5622 59.8251 56.5607 59.8245C56.5576 59.8232 56.5528 59.8213 56.5465 59.8188C56.5339 59.8137 56.515 59.8061 56.49 59.7963C56.4402 59.7765 56.3662 59.7474 56.2706 59.7105C56.0793 59.6367 55.8014 59.5315 55.4556 59.4065C54.764 59.1564 53.8022 58.8273 52.7213 58.5111C50.5473 57.8751 47.9348 57.3046 46.0656 57.5039L46.0126 57.0068C47.9896 56.7959 50.6871 57.395 52.8617 58.0312C53.955 58.3511 54.927 58.6837 55.6257 58.9363C55.9751 59.0627 56.2564 59.1691 56.4506 59.244C56.5477 59.2815 56.6231 59.3111 56.6743 59.3314C56.6999 59.3416 56.7195 59.3494 56.7327 59.3547C56.7394 59.3574 56.7444 59.3594 56.7478 59.3608C56.7495 59.3615 56.7508 59.362 56.7517 59.3624C56.7522 59.3626 56.7525 59.3627 56.7528 59.3628C56.7529 59.3629 56.753 59.3629 56.7531 59.3629C56.7531 59.363 56.7532 59.363 56.6592 59.5946ZM46.0656 57.5039C43.4606 57.7818 40.3811 58.4055 36.9893 59.1381C33.6018 59.8698 29.9059 60.7094 26.0844 61.4132C18.4443 62.8203 10.2633 63.6928 2.94583 62.0745L3.0538 61.5863C10.269 63.182 18.3675 62.326 25.9938 60.9215C29.8055 60.2195 33.4895 59.3826 36.8837 58.6494C40.2735 57.9172 43.3775 57.2878 46.0126 57.0068L46.0656 57.5039Z" fill="white"></path> </g> <g filter="url(#filter1_d_237_8683)"> <path d="M122.386 94.6619C122.444 94.5368 122.39 94.388 122.265 94.3295L120.227 93.3757C120.102 93.3171 119.953 93.3711 119.895 93.4961C119.836 93.6212 119.89 93.77 120.015 93.8285L121.827 94.6763L120.979 96.4878C120.92 96.6128 120.974 96.7616 121.099 96.8202C121.224 96.8787 121.373 96.8248 121.432 96.6997L122.386 94.6619ZM92.588 95.9599L92.5432 96.2058L92.588 95.9599ZM83.5437 92.6577C83.4353 92.8829 83.4353 92.883 83.4354 92.883C83.4354 92.883 83.4355 92.883 83.4356 92.8831C83.4358 92.8832 83.4361 92.8833 83.4364 92.8835C83.4371 92.8838 83.4382 92.8843 83.4396 92.885C83.4423 92.8863 83.4464 92.8883 83.4518 92.8909C83.4626 92.896 83.4785 92.9036 83.4994 92.9135C83.5412 92.9334 83.6028 92.9625 83.6823 92.9997C83.8414 93.0742 84.0723 93.1811 84.3602 93.3114C84.9359 93.5719 85.7403 93.926 86.6549 94.3002C88.4789 95.0464 90.7606 95.8808 92.5432 96.2058L92.6329 95.7139C90.9054 95.399 88.665 94.5823 86.8443 93.8374C85.9366 93.466 85.1379 93.1145 84.5663 92.8559C84.2805 92.7266 84.0516 92.6205 83.8943 92.5469C83.8157 92.5101 83.7549 92.4813 83.7139 92.4619C83.6934 92.4521 83.6779 92.4447 83.6675 92.4398C83.6623 92.4373 83.6584 92.4354 83.6558 92.4342C83.6545 92.4335 83.6535 92.4331 83.6529 92.4328C83.6526 92.4326 83.6524 92.4325 83.6522 92.4325C83.6521 92.4324 83.6521 92.4324 83.6521 92.4324C83.652 92.4324 83.652 92.4324 83.5437 92.6577ZM92.5432 96.2058C105.69 98.6027 114.4 97.6333 122.244 94.7909L122.074 94.3208C114.327 97.1282 105.708 98.0978 92.6329 95.7139L92.5432 96.2058Z" fill="white"></path> <path d="M115.534 80.2522C115.585 80.124 115.523 79.9785 115.394 79.9274L113.304 79.094C113.176 79.0428 113.031 79.1053 112.98 79.2336C112.928 79.3618 112.991 79.5072 113.119 79.5584L114.977 80.2992L114.236 82.157C114.185 82.2852 114.247 82.4306 114.376 82.4818C114.504 82.5329 114.649 82.4704 114.7 82.3422L115.534 80.2522ZM93.1735 90.4097L93.2183 90.1638L93.1735 90.4097ZM84.1291 87.1075C84.0207 87.3328 84.0208 87.3328 84.0208 87.3328C84.0209 87.3329 84.021 87.3329 84.0211 87.3329C84.0213 87.333 84.0215 87.3332 84.0219 87.3333C84.0226 87.3337 84.0237 87.3342 84.025 87.3348C84.0278 87.3362 84.0319 87.3381 84.0373 87.3407C84.0481 87.3459 84.064 87.3535 84.0849 87.3634C84.1267 87.3832 84.1883 87.4123 84.2678 87.4496C84.4268 87.524 84.6577 87.631 84.9456 87.7612C85.5214 88.0218 86.3257 88.3758 87.2404 88.75C89.0643 89.4962 91.3461 90.3307 93.1286 90.6557L93.2183 90.1638C91.4909 89.8488 89.2505 89.0322 87.4297 88.2872C86.522 87.9159 85.7234 87.5644 85.1518 87.3057C84.866 87.1764 84.6371 87.0704 84.4798 86.9967C84.4011 86.9599 84.3404 86.9312 84.2994 86.9117C84.2789 86.902 84.2633 86.8946 84.2529 86.8896C84.2477 86.8871 84.2438 86.8852 84.2412 86.884C84.24 86.8834 84.239 86.8829 84.2384 86.8826C84.2381 86.8825 84.2378 86.8824 84.2377 86.8823C84.2376 86.8823 84.2376 86.8822 84.2375 86.8822C84.2375 86.8822 84.2375 86.8822 84.1291 87.1075ZM93.1286 90.6557C98.2002 91.5803 103.141 89.2546 107.111 86.5995C109.101 85.2689 110.86 83.8466 112.282 82.6907C112.994 82.1115 113.619 81.6017 114.149 81.2008C114.683 80.7963 115.1 80.5184 115.4 80.3893L115.203 79.9299C114.841 80.0857 114.38 80.3983 113.847 80.8022C113.309 81.2096 112.676 81.726 111.966 82.3027C110.544 83.4589 108.801 84.8677 106.833 86.1838C102.888 88.8221 98.0896 91.0519 93.2183 90.1638L93.1286 90.6557Z" fill="white"></path> <path d="M95.2043 81.3885C95.3127 81.303 95.4699 81.3216 95.5554 81.43L96.9487 83.1967C97.0342 83.3051 97.0157 83.4623 96.9073 83.5478C96.7988 83.6333 96.6416 83.6147 96.5561 83.5063L95.3176 81.9359L93.7473 83.1744C93.6388 83.2599 93.4816 83.2413 93.3961 83.1329C93.3106 83.0245 93.3292 82.8673 93.4376 82.7818L95.2043 81.3885ZM90.7976 99.4726L90.6035 99.315L90.6035 99.315L90.7976 99.4726ZM88.9402 103.655C88.6963 103.6 88.6963 103.6 88.6963 103.6C88.6963 103.6 88.6963 103.6 88.6964 103.6C88.6964 103.6 88.6964 103.6 88.6965 103.6C88.6966 103.599 88.6967 103.599 88.6969 103.598C88.6972 103.596 88.6977 103.594 88.6983 103.592C88.6996 103.586 88.7014 103.578 88.7039 103.568C88.7087 103.547 88.716 103.517 88.7255 103.479C88.7447 103.402 88.7734 103.291 88.8117 103.154C88.8883 102.879 89.0038 102.496 89.1594 102.063C89.4689 101.203 89.9446 100.126 90.6035 99.315L90.9916 99.6303C90.386 100.376 89.933 101.39 89.6299 102.232C89.4793 102.651 89.3675 103.022 89.2934 103.288C89.2564 103.421 89.2289 103.527 89.2107 103.6C89.2016 103.637 89.1948 103.665 89.1904 103.683C89.1882 103.693 89.1865 103.7 89.1855 103.704C89.1849 103.707 89.1845 103.708 89.1843 103.709C89.1842 103.71 89.1841 103.71 89.1841 103.71C89.184 103.71 89.184 103.711 89.184 103.711C89.184 103.711 89.184 103.711 89.184 103.711C89.184 103.711 89.184 103.711 88.9402 103.655ZM90.6035 99.315C96.3148 92.2849 94.5634 86.1886 95.1109 81.5554L95.6074 81.6141C95.0829 86.0532 96.8248 92.4501 90.9916 99.6303L90.6035 99.315Z" fill="white"></path> <path d="M103.584 79.4297C103.681 79.332 103.839 79.3318 103.937 79.4294L105.53 81.0187C105.628 81.1162 105.628 81.2745 105.53 81.3722C105.433 81.47 105.274 81.4701 105.177 81.3726L103.761 79.9599L102.348 81.3756C102.251 81.4733 102.092 81.4735 101.995 81.376C101.897 81.2785 101.897 81.1202 101.994 81.0224L103.584 79.4297ZM98.6671 100.157L98.8608 100.315L98.6671 100.157ZM93.9494 109.829C93.719 109.732 93.719 109.732 93.7191 109.732C93.7191 109.731 93.7191 109.731 93.7192 109.731C93.7193 109.731 93.7195 109.731 93.7197 109.73C93.7201 109.729 93.7207 109.728 93.7215 109.726C93.7232 109.722 93.7257 109.716 93.7289 109.708C93.7354 109.693 93.745 109.67 93.7577 109.64C93.7829 109.581 93.82 109.493 93.8678 109.382C93.9633 109.158 94.1011 108.837 94.2706 108.446C94.6097 107.666 95.0757 106.608 95.5833 105.498C96.0908 104.389 96.6408 103.227 97.1478 102.24C97.6508 101.26 98.1225 100.429 98.4735 99.9989L98.8608 100.315C98.5482 100.698 98.0986 101.482 97.5926 102.468C97.0906 103.446 96.5441 104.601 96.038 105.706C95.5321 106.812 95.0675 107.867 94.7293 108.646C94.5602 109.035 94.4228 109.355 94.3276 109.578C94.28 109.689 94.2431 109.776 94.218 109.836C94.2054 109.865 94.1959 109.888 94.1895 109.903C94.1862 109.911 94.1838 109.916 94.1822 109.92C94.1814 109.922 94.1808 109.923 94.1804 109.924C94.1802 109.925 94.18 109.925 94.1799 109.925C94.1799 109.926 94.1798 109.926 94.1798 109.926C94.1798 109.926 94.1798 109.926 93.9494 109.829ZM98.4735 99.9989C105.086 91.8998 103.515 83.459 103.511 79.6066L104.011 79.6061C104.015 83.3695 105.614 92.0436 98.8608 100.315L98.4735 99.9989Z" fill="white"></path> <path d="M134.036 107.83C133.95 108.561 134.473 109.224 135.204 109.31C135.935 109.397 136.598 108.874 136.685 108.143C136.771 107.411 136.248 106.748 135.517 106.662C134.786 106.576 134.123 107.098 134.036 107.83ZM91.7879 99.8828L91.8606 99.6436L91.7879 99.8828ZM84.7529 97.6182C84.6727 97.8549 84.6727 97.8549 84.6727 97.855C84.6728 97.855 84.6728 97.855 84.6729 97.855C84.673 97.855 84.6731 97.8551 84.6734 97.8552C84.6738 97.8553 84.6745 97.8555 84.6754 97.8558C84.6771 97.8564 84.6798 97.8573 84.6833 97.8585C84.6903 97.8609 84.7007 97.8644 84.7144 97.869C84.7418 97.8783 84.7825 97.892 84.8354 97.9099C84.9413 97.9455 85.0962 97.9976 85.2929 98.0632C85.6861 98.1946 86.2459 98.3806 86.9124 98.599C88.2453 99.0358 90.006 99.6026 91.7152 100.122L91.8606 99.6436C90.1562 99.1256 88.3993 98.5601 87.0681 98.1239C86.4026 97.9058 85.8438 97.7202 85.4513 97.589C85.2551 97.5235 85.1005 97.4715 84.995 97.436C84.9422 97.4182 84.9017 97.4046 84.8744 97.3954C84.8608 97.3907 84.8505 97.3872 84.8436 97.3849C84.8401 97.3837 84.8375 97.3829 84.8358 97.3823C84.8349 97.382 84.8342 97.3818 84.8338 97.3816C84.8336 97.3815 84.8334 97.3815 84.8333 97.3814C84.8333 97.3814 84.8332 97.3814 84.8332 97.3814C84.8332 97.3814 84.8332 97.3814 84.7529 97.6182ZM91.7152 100.122C96.1818 101.479 99.4172 102.83 102.19 104.052C104.96 105.274 107.286 106.376 109.911 107.222C115.177 108.918 121.63 109.579 135.385 108.235L135.336 107.737C121.608 109.079 115.234 108.411 110.064 106.746C107.471 105.91 105.178 104.823 102.392 103.595C99.6091 102.368 96.3535 101.009 91.8606 99.6436L91.7152 100.122Z" fill="white"></path> </g> </g> <defs> <filter id="filter0_d_237_8683" x="1.6665" y="38.166" width="56.0864" height="27.1987" filterUnits="userSpaceOnUse" color-interpolation-filters="sRGB"> <feFlood flood-opacity="0" result="BackgroundImageFix"></feFlood> <feColorMatrix in="SourceAlpha" type="matrix" values="0 0 0 0 0 0 0 0 0 0 0 0 0 0 0 0 0 0 127 0" result="hardAlpha"></feColorMatrix> <feOffset dx="1" dy="1"></feOffset> <feComposite in2="hardAlpha" operator="out"></feComposite> <feColorMatrix type="matrix" values="0 0 0 0 0 0 0 0 0 0 0 0 0 0 0 0 0 0 0.25 0"></feColorMatrix> <feBlend mode="normal" in2="BackgroundImageFix" result="effect1_dropShadow_237_8683"></feBlend> <feBlend mode="normal" in="SourceGraphic" in2="effect1_dropShadow_237_8683" result="shape"></feBlend> </filter> <filter id="filter1_d_237_8683" x="83.4355" y="79.0762" width="54.2583" height="31.8496" filterUnits="userSpaceOnUse" color-interpolation-filters="sRGB"> <feFlood flood-opacity="0" result="BackgroundImageFix"></feFlood> <feColorMatrix in="SourceAlpha" type="matrix" values="0 0 0 0 0 0 0 0 0 0 0 0 0 0 0 0 0 0 127 0" result="hardAlpha"></feColorMatrix> <feOffset dx="1" dy="1"></feOffset> <feComposite in2="hardAlpha" operator="out"></feComposite> <feColorMatrix type="matrix" values="0 0 0 0 0 0 0 0 0 0 0 0 0 0 0 0 0 0 0.25 0"></feColorMatrix> <feBlend mode="normal" in2="BackgroundImageFix" result="effect1_dropShadow_237_8683"></feBlend> <feBlend mode="normal" in="SourceGraphic" in2="effect1_dropShadow_237_8683" result="shape"></feBlend> </filter> <clipPath id="clip0_237_8683"> <rect width="154" height="160" fill="white"></rect> </clipPath> </defs> </svg> 