<?xml version="1.0" encoding="UTF-8"?> <svg xmlns="http://www.w3.org/2000/svg" width="101" height="102" viewBox="0 0 101 102" fill="none"> <g clip-path="url(#clip0_265_209)"> <path d="M52.5 3C24.0369 -2.72638 18.9667 25.9701 18.9667 25.9701C18.9667 25.9701 16.8352 42.8502 35.1826 39.5745C65.3636 34.186 64.4813 69.3376 64.4813 69.3376C64.4813 69.3376 103.653 13.2913 52.5 3Z" fill="#E3D1C2"></path> <path d="M35.185 39.5747C64.4439 30.4181 63.0459 70.4145 63.0459 70.4145C63.0459 70.4145 86.5927 42.4447 79.519 23.72C71.8817 3.50328 49.5766 3.00427 49.5766 3.00427C49.5766 3.00427 41.0217 6.16694 37.8628 12.1943C33.4291 20.6543 32.4273 30.8922 32.4273 30.8922C32.4273 30.8922 20.345 44.2188 35.185 39.5747Z" fill="#4A353B" stroke="#4A353B"></path> <path d="M61.0261 67.2692C61.0261 67.2692 61.0253 82.3177 64.3853 90.2509C64.3853 90.2509 79.4566 107.714 37.3529 100.059C29.6064 98.1925 45.7346 94.0755 34.7214 82.5957C23.8016 71.2092 61.0261 67.2692 61.0261 67.2692Z" fill="#F5D1B5"></path> <path d="M20.451 22.0289C20.451 22.0289 12.9034 31.4726 20.4685 62.2584C27.0652 89.1037 35.1744 83.4745 49.4064 80.4644C62.5744 77.6793 70.0413 61.5225 69.4536 56.0259C68.8659 50.5293 78.3182 50.0534 78.2254 44.3515C78.0882 35.9253 70.3629 34.2647 69.5846 39.3463C68.9082 44.3441 65.8298 50.8888 61.7164 46.923C57.5939 43.05 64.7945 23.1233 55.9237 26.5694C48.0372 28.573 30.8016 27.8486 20.451 22.0289Z" fill="#F6DAC4"></path> </g> <defs> <clipPath id="clip0_265_209"> <rect width="101" height="102" fill="white"></rect> </clipPath> </defs> </svg> 