<?xml version="1.0" encoding="UTF-8"?> <svg xmlns="http://www.w3.org/2000/svg" width="132" height="142" viewBox="0 0 132 142" fill="none"> <path d="M0 79.3409C0 74.8467 3.6433 71.2034 8.13753 71.2034H121.249C125.744 71.2034 129.387 74.8467 129.387 79.3409V89.1059H0V79.3409Z" fill="#F5D1B5"></path> <rect y="89.1062" width="129.387" height="11.3926" fill="#C1A48E"></rect> <rect y="100.499" width="129.387" height="13.8338" fill="#C1948E"></rect> <rect y="114.332" width="129.387" height="13.8338" fill="#AA7564"></rect> <path d="M0 128.166H129.387V128.166C129.387 135.806 123.193 142 115.553 142H13.8338C6.19361 142 0 135.806 0 128.166V128.166Z" fill="#A78173"></path> <path d="M20.3442 120.842C18.9762 115.368 21.8849 112.855 23.5993 106.602C24.7149 102.533 26.5062 72.2829 33.3642 52.4871C41.0997 30.1585 63.4731 0 63.4731 0C63.4731 0 38.5545 36.2724 33.3642 63.0659C30.2192 79.3014 29.0734 102.94 30.9229 107.009C32.7723 111.077 37.026 113.519 35.3985 120.842C33.771 128.166 21.9711 127.352 20.3442 120.842Z" fill="#4A353B"></path> <path d="M54.0625 120.842C52.6945 115.368 55.6032 112.855 57.3176 106.602C58.4332 102.533 60.2244 72.2829 67.0825 52.4871C74.818 30.1585 97.1914 0 97.1914 0C97.1914 0 72.2728 36.2724 67.0825 63.0659C63.9374 79.3014 62.7917 102.94 64.6411 107.009C66.4906 111.077 70.7443 113.519 69.1168 120.842C67.4893 128.166 55.6893 127.352 54.0625 120.842Z" fill="#4A353B"></path> <path d="M88.2402 122.47C86.8722 116.996 89.7809 114.482 91.4953 108.229C92.6109 104.16 94.4022 73.9103 101.26 54.1145C108.996 31.786 131.369 1.62744 131.369 1.62744C131.369 1.62744 106.451 37.8998 101.26 64.6933C98.1152 80.9289 96.9694 104.567 98.8189 108.636C100.668 112.705 104.922 115.146 103.295 122.47C101.667 129.794 89.8671 128.98 88.2402 122.47Z" fill="#4A353B"></path> <path d="M110.036 89.7796C109.345 87.0581 110.815 85.8084 111.681 82.6997C112.245 80.6769 113.15 65.6379 116.615 55.7963C120.524 44.6954 131.828 29.7019 131.828 29.7019C131.828 29.7019 119.238 47.735 116.615 61.0556C115.026 69.1272 114.447 80.8792 115.381 82.902C116.316 84.9248 118.465 86.1385 117.643 89.7796C116.821 93.4207 110.858 93.0161 110.036 89.7796Z" fill="#4A353B"></path> <path d="M77.486 89.7796C76.7948 87.0581 78.2645 85.8084 79.1307 82.6997C79.6944 80.6769 80.5995 65.6379 84.0647 55.7963C87.9733 44.6954 99.278 29.7019 99.278 29.7019C99.278 29.7019 86.6872 47.735 84.0647 61.0556C82.4756 69.1272 81.8967 80.8792 82.8311 82.902C83.7656 84.9248 85.9149 86.1385 85.0926 89.7796C84.2702 93.4207 78.308 93.0161 77.486 89.7796Z" fill="#4A353B"></path> <path d="M43.3087 89.7796C42.6175 87.0581 44.0872 85.8084 44.9535 82.6997C45.5172 80.6769 46.4222 65.6379 49.8874 55.7963C53.796 44.6954 65.1007 29.7019 65.1007 29.7019C65.1007 29.7019 52.51 47.735 49.8874 61.0556C48.2983 69.1272 47.7194 80.8792 48.6539 82.902C49.5884 84.9248 51.7377 86.1385 50.9153 89.7796C50.093 93.4207 44.1308 93.0161 43.3087 89.7796Z" fill="#4A353B"></path> <path d="M9.94448 89.7796C9.25326 87.0581 10.723 85.8084 11.5892 82.6997C12.1529 80.6769 13.058 65.6379 16.5232 55.7963C20.4318 44.6954 31.7365 29.7019 31.7365 29.7019C31.7365 29.7019 19.1457 47.735 16.5232 61.0556C14.9341 69.1272 14.3552 80.8792 15.2896 82.902C16.2241 84.9248 18.3734 86.1385 17.5511 89.7796C16.7287 93.4207 10.7665 93.0161 9.94448 89.7796Z" fill="#4A353B"></path> </svg> 