<?xml version="1.0" encoding="UTF-8"?> <svg xmlns="http://www.w3.org/2000/svg" width="325" height="204" viewBox="0 0 325 204" fill="none"> <mask id="mask0_424_2899" style="mask-type:alpha" maskUnits="userSpaceOnUse" x="0" y="0" width="325" height="204"> <path d="M67 64.9342C67 64.9342 120.176 34.9891 111.5 9.93906C105 -8.82931 119.5 5.43974 151 9.93887C192.072 15.8051 209.806 -2.84121 204.5 17.6703C202.5 25.4016 214 35.9392 214 35.9392L268 139.434L324.5 203.934C194.5 162.434 103 178.934 0 170.434L67 64.9342Z" fill="#D9D9D9"></path> </mask> <g mask="url(#mask0_424_2899)"> <path d="M67.5999 117.398C67.5999 117.398 50.3 221.198 133 361.698C122.8 448.498 120.8 439.498 135.4 555.198C134.2 573.098 123.2 615.898 110.6 627.298C97.9999 638.698 100 644.798 135.4 639.098C148.4 635.798 182.7 593.098 176.1 570.698C173 559.998 167.5 545.698 163.7 524.798C159.4 501.998 180.8 474.598 177 432.198C169.7 350.298 146.7 160.098 146.7 160.098C146.7 160.098 94.4999 106.798 67.5999 117.398Z" fill="#F6DAC4"></path> <path opacity="0.5" d="M133 361.798C122.8 448.598 120.8 439.598 135.4 555.298C134.2 573.198 123.2 615.998 110.6 627.398C97.9996 638.798 99.9997 644.898 135.4 639.198C148.4 635.898 182.7 593.198 176.1 570.798C173 560.098 167.5 545.798 163.7 524.898C159.4 502.098 180.8 474.698 177 432.298C169.7 350.398 146.7 160.198 146.7 160.198C146.7 160.198 94.4996 106.898 67.5996 117.498C67.5996 117.498 121.9 143.098 125.8 178.598C129.6 214.098 133 361.798 133 361.798Z" fill="#E4C0A4"></path> <path d="M241.3 131.498C241.3 131.498 253.3 181.798 186.3 331.598C175.1 356.598 173.3 384.598 177.1 411.698C177.3 412.798 177.5 413.998 177.6 415.098C179.7 446.798 174.6 501.598 159.5 564.098C156.5 583.698 177.6 646.898 177.6 660.398C177.6 673.898 148.3 679.998 142.2 662.698C136.2 645.398 136.2 585.998 136.2 567.898C136.2 552.998 116.7 480.798 125.1 419.598C131.1 376.098 135.2 332.298 135.5 288.398C135.8 234.998 136.6 175.397 145.6 159.297C162.1 129.997 217.7 124.398 241.3 131.498Z" fill="#F6DAC4"></path> <path d="M169.8 -138.203C160.5 -162.834 153.332 -138.341 146 -146.834C134.822 -159.782 138.45 -172.72 127.2 -159.835C115.795 -146.77 133.9 -132.102 127.2 -122.502C125.3 -119.802 123.1 -117.802 120.5 -116.302C110.3 -94.3024 103 -71.7023 94.6003 -49.5023C94.6003 -49.3023 94.6003 -49.1024 94.6003 -48.8024C94.6003 -44.2024 82.5 -12.335 111.5 0.165039C111.5 0.165039 112 33.3976 109.2 40.6976C107.1 46.1976 90.3003 68.1976 78.6003 90.3976L80.1003 96.0976C79.8003 96.2976 79.4004 96.5977 78.9004 96.9977C78.3004 97.4977 77.7003 97.8976 77.2003 98.3976C75.9003 99.4976 74.7004 100.398 73.5004 101.098C71.9004 104.898 70.5004 108.598 69.4004 112.198L136.8 139.098L240 121.398C232.6 86.8976 216.9 74.5977 207.2 65.4977C205.4 63.7977 203.7 61.9977 202.2 59.9977C197.3 53.6977 194.9 47.7975 196.6 40.0975C200.4 22.8975 218.5 -7.83496 221.5 -29.835C222.7 -34.335 221.9 -40.235 221.5 -45.335C207.4 -76.935 187.1 -103.603 173.8 -136.203C172.2 -136.603 166.769 -140.834 169.8 -138.203Z" fill="#F6DAC4"></path> <path d="M78.9004 96.9976C79.4004 96.5976 79.8003 96.2974 80.1003 96.0974L78.6003 90.3975C76.7003 93.9975 75.0004 97.5974 73.4004 101.097C74.6004 100.397 75.8003 99.4975 77.1003 98.3975C77.7003 97.9975 78.3004 97.4976 78.9004 96.9976Z" fill="#FFDFC7"></path> <path d="M72.9003 102.398C72.9003 102.398 118.3 146.398 237.2 113.698C237.2 113.698 240.8 126.498 241.3 131.598C241.3 131.598 186.7 125.598 159.1 144.898C148.1 152.598 142.2 168.098 142.2 168.098C142.2 168.098 96.8002 117.798 67.7002 117.298C67.7002 117.298 71.8002 105.098 72.6002 103.298" fill="#4A353B"></path> <path d="M236.8 113.698C239.4 113.798 242.6 115.098 245.1 116.898C246.7 117.998 248.1 119.198 249 120.498C250 121.898 250.5 123.398 250.2 124.798C250 125.398 249.7 125.998 249.2 126.498C247.5 128.198 246.2 127.898 244.8 126.598C244 125.798 243.3 124.698 242.5 123.298C241 120.898 239.1 117.798 236.1 115.698C235.6 115.398 235.5 114.698 235.8 114.198C236.1 113.898 236.4 113.698 236.8 113.698ZM243.9 118.698C242.9 117.998 241.9 117.498 240.8 116.998C242.3 118.698 243.4 120.598 244.4 122.098C245.2 123.298 245.8 124.398 246.4 124.998C246.8 125.398 247.2 125.398 247.7 124.898C247.9 124.698 248.1 124.398 248.1 124.198C248.3 123.498 247.9 122.598 247.3 121.698C246.5 120.698 245.3 119.698 243.9 118.698Z" fill="#4A353B"></path> <path d="M237.599 114.698C237.699 114.798 237.799 114.898 237.999 114.998C239.899 116.598 243.199 123.098 245.499 129.898C247.799 136.798 248.999 144.198 246.899 147.698C246.799 147.898 246.599 148.098 246.499 148.298C245.199 149.898 243.999 150.098 242.899 149.198C241.199 147.798 240.499 142.498 239.599 135.798C238.799 129.698 237.899 122.398 235.999 115.998C235.799 115.398 236.199 114.798 236.799 114.598C237.099 114.398 237.399 114.498 237.599 114.698ZM243.399 130.498C242.199 126.998 240.799 123.598 239.499 121.098C240.499 125.998 241.199 131.098 241.799 135.498C242.599 141.698 243.199 146.598 244.299 147.498C244.299 147.498 244.499 147.298 244.799 146.898C244.899 146.798 244.999 146.698 244.999 146.598C246.799 143.598 245.499 136.898 243.399 130.498Z" fill="#4A353B"></path> <path d="M235.7 116.298C235.7 115.698 236.1 115.198 236.7 115.098C237.3 115.098 237.8 115.498 237.9 116.098C238 118.198 237.6 122.098 237 126.998C235.5 139.798 233.2 160.098 238.1 174.798C238.3 175.398 238 175.998 237.4 176.198C236.8 176.398 236.2 176.098 236 175.498C231 160.398 233.3 139.798 234.8 126.798C235.4 121.998 235.9 118.298 235.7 116.298Z" fill="#4A353B"></path> <path d="M235.799 116.498C235.699 115.898 235.999 115.298 236.599 115.198C237.199 115.098 237.799 115.398 237.899 115.998C238.199 117.398 238.099 119.998 237.899 123.298C237.399 131.698 236.699 144.998 242.499 153.298C242.799 153.798 242.699 154.498 242.199 154.798C241.699 155.098 240.999 154.998 240.699 154.498C234.499 145.498 235.199 131.798 235.699 123.098C235.899 120.098 235.999 117.598 235.799 116.498Z" fill="#4A353B"></path> <path d="M68.0004 104.398C66.8004 104.598 65.7004 104.898 64.5004 105.198C62.9004 105.698 61.5004 106.498 60.4004 107.298C59.5004 107.998 59.0004 108.798 59.0004 109.498C59.0004 109.798 59.1003 109.998 59.2003 110.298C59.6003 110.898 60.0004 110.998 60.4004 110.698C61.1004 110.298 62.0003 109.398 63.1003 108.398C64.5003 107.198 66.1004 105.698 68.0004 104.398ZM63.8004 103.198C66.7004 102.198 70.1003 101.798 72.7003 102.298C73.1003 102.398 73.4004 102.598 73.5004 102.998C73.7004 103.598 73.4004 104.198 72.8004 104.398C69.4004 105.598 66.7003 108.098 64.7003 110.098C63.5003 111.198 62.5003 112.098 61.6003 112.698C59.9003 113.698 58.6004 113.598 57.4004 111.498C57.0004 110.898 56.9004 110.198 56.9004 109.598C56.9004 108.198 57.8003 106.798 59.2003 105.698C60.3003 104.698 62.0004 103.798 63.8004 103.198Z" fill="#4A353B"></path> <path d="M71.5 103.198C71.7 103.098 71.8 103.098 71.9 102.998C72.2 102.898 72.5 102.898 72.8 103.098C73.3 103.398 73.4999 104.098 73.1999 104.598C69.6999 110.298 66.8999 117.098 64.5999 122.798C61.9999 129.098 60 133.898 58 134.898C56.7 135.498 55.5999 134.998 54.6999 133.098C54.5999 132.898 54.5 132.698 54.4 132.398C53.2 128.498 56.4 121.598 60.4 115.598C64.4 109.598 69.2 104.198 71.5 103.198ZM68.5 108.698C66.6 110.798 64.3 113.698 62.3 116.798C58.6 122.398 55.5999 128.598 56.5999 131.798C56.5999 131.898 56.6999 132.098 56.6999 132.198C56.8999 132.698 57 132.898 57 132.898C58.2 132.298 60.1 127.798 62.5 121.998C64.2 117.898 66.2 113.198 68.5 108.698Z" fill="#4A353B"></path> <path d="M71.0004 104.398C71.2004 103.798 71.8004 103.498 72.4004 103.698C73.0004 103.898 73.3004 104.498 73.1004 105.098C72.5004 106.998 71.9004 110.698 71.2004 115.498C69.3004 128.398 66.2004 148.898 57.4004 162.198C57.1004 162.698 56.4004 162.798 55.9004 162.498C55.4004 162.198 55.3004 161.498 55.6004 160.998C64.1004 148.098 67.2004 127.898 69.1004 115.198C69.7004 110.198 70.3004 106.398 71.0004 104.398Z" fill="#4A353B"></path> <path d="M71 104.298C71.3 103.798 71.9 103.598 72.5 103.798C73 104.098 73.2 104.698 73 105.298C72.5 106.298 72 108.698 71.3 111.798C69.5 120.298 66.7 133.798 58.3 140.798C57.8 141.198 57.0999 141.098 56.6999 140.698C56.2999 140.198 56.4 139.498 56.8 139.098C64.6 132.498 67.2999 119.498 69.0999 111.298C69.7999 108.098 70.3 105.598 71 104.298Z" fill="#4A353B"></path> <path d="M106.3 -72.7021C106.3 -72.7021 96.5997 -51.5021 93.4997 -44.4021C90.7997 -38.4021 84.1999 -16.8021 103 -2.20215C112.501 3.79785 114 5.16504 129.5 0.665039C132.028 -0.068795 135.6 -2.20215 135.6 -2.20215C135.6 -2.20215 144.6 -7.9021 149.9 -7.9021H150.4C153.7 -7.9021 156.9 -7.10205 159.8 -5.60205C169.7 -0.602051 192.6 6.16504 214 -12.835C229.4 -26.735 227.5 -61.635 192.5 -82.335C192.5 -82.335 196.5 -59.335 167 -20.835C163.5 -15.935 149.9 -14.302 143.9 -14.302C140.4 -14.302 137 -15.2021 134.1 -17.1021C125.2 -22.7021 108.4 -37.9021 108.3 -73.7021L106.3 -72.7021Z" fill="#4A353B"></path> </g> <ellipse cx="148.5" cy="65.1709" rx="5" ry="21.5" fill="#EDCDB4"></ellipse> <g filter="url(#filter0_d_424_2899)"> <path d="M121.104 20.5161C120.913 20.0204 121.16 19.4641 121.656 19.2735C122.151 19.0829 122.708 19.3301 122.898 19.8258L121.104 20.5161ZM100.607 74.6266C100.079 74.6853 99.6037 74.305 99.5451 73.7772C99.4864 73.2494 99.8667 72.774 100.395 72.7153L100.607 74.6266ZM123.5 45.1709L124.445 45.3492L123.5 45.1709ZM123.839 22.9632C123.969 23.4782 123.656 24.0007 123.141 24.1301C122.626 24.2596 122.104 23.947 121.974 23.432L123.839 22.9632ZM123.08 29.53C123.018 29.0025 123.396 28.5248 123.923 28.463C124.45 28.4012 124.928 28.7786 124.99 29.3061L123.08 29.53ZM125.355 35.7349C125.353 36.2659 124.921 36.695 124.39 36.6933C123.859 36.6916 123.43 36.2597 123.432 35.7286L125.355 35.7349ZM123.036 41.9232C123.102 41.3962 123.583 41.0226 124.11 41.0886C124.637 41.1546 125.011 41.6353 124.945 42.1622L123.036 41.9232ZM123.938 47.7697C123.819 48.2871 123.302 48.6098 122.785 48.4904C122.268 48.3709 121.945 47.8546 122.064 47.3372L123.938 47.7697ZM120.782 51.9439C120.949 51.4396 121.492 51.1657 121.997 51.3322C122.501 51.4986 122.775 52.0424 122.608 52.5466L120.782 51.9439ZM120.8 57.1822C120.579 57.6653 120.009 57.8781 119.526 57.6576C119.043 57.4371 118.83 56.8667 119.05 56.3836L120.8 57.1822ZM116.818 60.5588C117.099 60.1081 117.692 59.9703 118.143 60.2511C118.594 60.5318 118.731 61.1249 118.451 61.5756L116.818 60.5588ZM115.5 65.6203C115.155 66.0241 114.548 66.072 114.144 65.7271C113.74 65.3823 113.692 64.7754 114.037 64.3715L115.5 65.6203ZM110.701 67.6805C111.109 67.3403 111.715 67.3949 112.055 67.8026C112.396 68.2103 112.341 68.8166 111.933 69.1569L110.701 67.6805ZM107.793 72.0174C107.329 72.2771 106.743 72.1122 106.484 71.649C106.224 71.1858 106.389 70.5998 106.852 70.34L107.793 72.0174ZM102.577 72.1987C103.084 72.041 103.623 72.3241 103.78 72.8312C103.938 73.3382 103.655 73.8772 103.148 74.035L102.577 72.1987ZM122.001 20.1709C122.898 19.8258 122.898 19.8259 122.898 19.826C122.899 19.826 122.899 19.8261 122.899 19.8262C122.899 19.8264 122.899 19.8265 122.899 19.8267C122.899 19.8271 122.899 19.8275 122.899 19.828C122.9 19.8291 122.9 19.8303 122.901 19.8319C122.902 19.835 122.904 19.8391 122.905 19.8443C122.909 19.8548 122.915 19.8694 122.922 19.8882C122.936 19.9258 122.955 19.98 122.98 20.0504C123.03 20.1911 123.101 20.3966 123.187 20.663C123.358 21.1957 123.59 21.9725 123.839 22.9632L121.974 23.432C121.736 22.4848 121.516 21.7483 121.356 21.2521C121.276 21.0041 121.211 20.8162 121.168 20.6923C121.146 20.6303 121.129 20.5843 121.118 20.5548C121.113 20.54 121.109 20.5294 121.106 20.5229C121.105 20.5197 121.104 20.5175 121.104 20.5163C121.103 20.5158 121.103 20.5155 121.103 20.5154C121.103 20.5154 121.103 20.5154 121.103 20.5155C121.103 20.5156 121.103 20.5157 121.103 20.5158C121.103 20.5158 121.103 20.5159 121.103 20.5159C121.103 20.516 121.104 20.5161 122.001 20.1709ZM124.99 29.3061C125.215 31.2273 125.362 33.3876 125.355 35.7349L123.432 35.7286C123.439 33.4652 123.297 31.3821 123.08 29.53L124.99 29.3061ZM124.945 42.1622C124.814 43.2033 124.649 44.2667 124.445 45.3492L122.555 44.9926C122.752 43.9502 122.911 42.926 123.036 41.9232L124.945 42.1622ZM124.445 45.3492C124.288 46.1789 124.119 46.9855 123.938 47.7697L122.064 47.3372C122.239 46.5787 122.403 45.7974 122.555 44.9926L124.445 45.3492ZM122.608 52.5466C122.059 54.2121 121.452 55.7543 120.8 57.1822L119.05 56.3836C119.672 55.0213 120.254 53.5446 120.782 51.9439L122.608 52.5466ZM118.451 61.5756C117.507 63.0901 116.514 64.4319 115.5 65.6203L114.037 64.3715C114.99 63.2561 115.926 61.9918 116.818 60.5588L118.451 61.5756ZM111.933 69.1569C110.506 70.348 109.101 71.2837 107.793 72.0174L106.852 70.34C108.064 69.6603 109.371 68.7909 110.701 67.6805L111.933 69.1569ZM103.148 74.035C102.384 74.2726 101.762 74.4191 101.324 74.5068C101.105 74.5507 100.932 74.58 100.811 74.5986C100.75 74.6079 100.702 74.6146 100.668 74.6191C100.651 74.6213 100.637 74.623 100.627 74.6243C100.622 74.6249 100.618 74.6254 100.614 74.6258C100.613 74.626 100.611 74.6261 100.61 74.6263C100.609 74.6264 100.609 74.6264 100.608 74.6265C100.608 74.6265 100.608 74.6265 100.608 74.6266C100.607 74.6266 100.607 74.6266 100.607 74.6266C100.607 74.6266 100.607 74.6266 100.501 73.671C100.395 72.7153 100.394 72.7153 100.394 72.7153C100.394 72.7153 100.394 72.7154 100.394 72.7154C100.394 72.7154 100.394 72.7154 100.393 72.7154C100.393 72.7155 100.393 72.7155 100.393 72.7155C100.392 72.7155 100.392 72.7156 100.392 72.7156C100.393 72.7155 100.394 72.7154 100.395 72.7152C100.399 72.7147 100.406 72.7139 100.417 72.7125C100.438 72.7097 100.472 72.705 100.519 72.6978C100.612 72.6834 100.757 72.6592 100.946 72.6213C101.324 72.5454 101.882 72.4149 102.577 72.1987L103.148 74.035Z" fill="white"></path> </g> <g filter="url(#filter1_d_424_2899)"> <path d="M185.007 20.2968C185.241 19.82 185.044 19.244 184.567 19.0103C184.09 18.7765 183.514 18.9736 183.28 19.4505L185.007 20.2968ZM200.999 77.2064C201.52 77.3116 202.027 76.9748 202.132 76.4542C202.237 75.9337 201.9 75.4265 201.38 75.3214L200.999 77.2064ZM180.359 45.1807L179.402 45.2747L180.359 45.1807ZM182.04 22.5561C181.866 23.0577 182.131 23.6057 182.633 23.7802C183.134 23.9547 183.682 23.6896 183.857 23.188L182.04 22.5561ZM182.18 29.2966C182.288 28.7767 181.954 28.2675 181.434 28.1593C180.914 28.051 180.405 28.3847 180.297 28.9046L182.18 29.2966ZM179.345 35.4118C179.3 35.9409 179.692 36.4066 180.221 36.4518C180.75 36.4971 181.216 36.1048 181.261 35.5757L179.345 35.4118ZM181.103 41.9181C181.084 41.3874 180.638 40.9728 180.108 40.9919C179.577 41.0111 179.162 41.4568 179.182 41.9875L181.103 41.9181ZM179.699 47.783C179.772 48.309 180.258 48.6761 180.784 48.6029C181.31 48.5297 181.677 48.044 181.604 47.518L179.699 47.783ZM182.492 52.324C182.371 51.807 181.854 51.4861 181.337 51.6073C180.82 51.7285 180.499 52.2458 180.62 52.7629L182.492 52.324ZM182.041 57.6417C182.218 58.1424 182.767 58.4049 183.268 58.228C183.769 58.0511 184.031 57.5017 183.854 57.001L182.041 57.6417ZM185.75 61.4543C185.51 60.9805 184.931 60.7908 184.457 61.0306C183.984 61.2704 183.794 61.849 184.034 62.3228L185.75 61.4543ZM186.67 66.7031C186.977 67.1358 187.578 67.2372 188.01 66.9294C188.443 66.6216 188.545 66.0213 188.237 65.5886L186.67 66.7031ZM191.335 69.2604C190.959 68.8854 190.351 68.8861 189.976 69.2621C189.601 69.6381 189.601 70.2469 189.977 70.622L191.335 69.2604ZM193.93 73.9048C194.368 74.2045 194.967 74.0921 195.266 73.6537C195.566 73.2153 195.453 72.6169 195.015 72.3173L193.93 73.9048ZM199.202 74.5973C198.711 74.3953 198.149 74.6297 197.947 75.1208C197.745 75.6119 197.979 76.1738 198.471 76.3758L199.202 74.5973ZM184.144 19.8737C183.28 19.4505 183.28 19.4506 183.28 19.4507C183.28 19.4507 183.28 19.4508 183.28 19.4509C183.28 19.451 183.28 19.4512 183.28 19.4514C183.28 19.4517 183.28 19.4522 183.279 19.4527C183.279 19.4537 183.278 19.4549 183.278 19.4564C183.276 19.4594 183.274 19.4635 183.272 19.4686C183.267 19.4788 183.26 19.4932 183.251 19.5116C183.234 19.5485 183.209 19.6019 183.177 19.6711C183.114 19.8097 183.023 20.0122 182.912 20.2754C182.69 20.8017 182.383 21.5708 182.04 22.5561L183.857 23.188C184.185 22.2451 184.476 21.5151 184.683 21.0242C184.787 20.7788 184.87 20.5932 184.926 20.4709C184.954 20.4097 184.975 20.3643 184.989 20.3352C184.996 20.3206 185.001 20.3101 185.004 20.3037C185.006 20.3005 185.007 20.2983 185.007 20.2972C185.007 20.2966 185.008 20.2963 185.008 20.2962C185.008 20.2962 185.008 20.2962 185.008 20.2963C185.008 20.2964 185.007 20.2965 185.007 20.2965C185.007 20.2966 185.007 20.2967 185.007 20.2967C185.007 20.2968 185.007 20.2968 184.144 19.8737ZM180.297 28.9046C179.894 30.8388 179.549 33.0232 179.345 35.4118L181.261 35.5757C181.458 33.2707 181.791 31.1626 182.18 29.2966L180.297 28.9046ZM179.182 41.9875C179.22 43.0583 179.292 44.155 179.402 45.2747L181.316 45.0867C181.21 44.0076 181.141 42.9505 181.103 41.9181L179.182 41.9875ZM179.402 45.2747C179.486 46.133 179.586 46.9689 179.699 47.783L181.604 47.518C181.494 46.73 181.398 45.9198 181.316 45.0867L179.402 45.2747ZM180.62 52.7629C181.029 54.5068 181.507 56.1304 182.041 57.6417L183.854 57.001C183.344 55.5577 182.886 54.0015 182.492 52.324L180.62 52.7629ZM184.034 62.3228C184.857 63.9484 185.745 65.4028 186.67 66.7031L188.237 65.5886C187.368 64.3665 186.529 62.9943 185.75 61.4543L184.034 62.3228ZM189.977 70.622C191.321 71.9622 192.665 73.0405 193.93 73.9048L195.015 72.3173C193.842 71.5152 192.59 70.5116 191.335 69.2604L189.977 70.622ZM198.471 76.3758C199.225 76.6863 199.845 76.8915 200.282 77.0202C200.501 77.0846 200.674 77.1299 200.795 77.1597C200.856 77.1746 200.904 77.1857 200.938 77.1933C200.955 77.1971 200.969 77.2001 200.979 77.2023C200.984 77.2034 200.989 77.2042 200.992 77.2049C200.994 77.2053 200.995 77.2056 200.996 77.2058C200.997 77.206 200.997 77.2061 200.998 77.2062C200.998 77.2062 200.998 77.2063 200.999 77.2063C200.999 77.2063 200.999 77.2064 200.999 77.2064C200.999 77.2064 200.999 77.2064 201.19 76.2639C201.38 75.3214 201.38 75.3214 201.38 75.3215C201.38 75.3215 201.38 75.3215 201.38 75.3215C201.381 75.3216 201.381 75.3216 201.381 75.3216C201.381 75.3217 201.381 75.3217 201.382 75.3218C201.382 75.3218 201.382 75.3219 201.382 75.3218C201.382 75.3218 201.381 75.3216 201.379 75.3212C201.375 75.3204 201.368 75.3188 201.357 75.3164C201.336 75.3117 201.301 75.3038 201.254 75.2922C201.16 75.269 201.015 75.2312 200.826 75.1755C200.447 75.0639 199.89 74.8804 199.202 74.5973L198.471 76.3758Z" fill="white"></path> </g> <g filter="url(#filter2_d_424_2899)"> <path d="M148.5 73.8907C148.5 40.4666 148.5 108.671 148.5 108.671" stroke="white" stroke-width="2" stroke-linecap="round" stroke-dasharray="5 5"></path> </g> <path d="M110.002 2.67059C109.384 0.200731 111.005 -0.32892 113.501 0.170503C126 2.67098 134.497 6.67059 134.497 6.67059L118.997 11.6706L110.997 29.1705C110.997 29.1705 113.003 14.6706 110.002 2.67059Z" fill="#F6DAC4"></path> <defs> <filter id="filter0_d_424_2899" x="98.5391" y="19.209" width="27.8154" height="59.4238" filterUnits="userSpaceOnUse" color-interpolation-filters="sRGB"> <feFlood flood-opacity="0" result="BackgroundImageFix"></feFlood> <feColorMatrix in="SourceAlpha" type="matrix" values="0 0 0 0 0 0 0 0 0 0 0 0 0 0 0 0 0 0 127 0" result="hardAlpha"></feColorMatrix> <feOffset dy="3"></feOffset> <feGaussianBlur stdDeviation="0.5"></feGaussianBlur> <feComposite in2="hardAlpha" operator="out"></feComposite> <feColorMatrix type="matrix" values="0 0 0 0 0.3125 0 0 0 0 0.3125 0 0 0 0 0.3125 0 0 0 0.12 0"></feColorMatrix> <feBlend mode="normal" in2="BackgroundImageFix" result="effect1_dropShadow_424_2899"></feBlend> <feBlend mode="normal" in="SourceGraphic" in2="effect1_dropShadow_424_2899" result="shape"></feBlend> </filter> <filter id="filter1_d_424_2899" x="178.181" y="18.9121" width="24.9707" height="62.3135" filterUnits="userSpaceOnUse" color-interpolation-filters="sRGB"> <feFlood flood-opacity="0" result="BackgroundImageFix"></feFlood> <feColorMatrix in="SourceAlpha" type="matrix" values="0 0 0 0 0 0 0 0 0 0 0 0 0 0 0 0 0 0 127 0" result="hardAlpha"></feColorMatrix> <feOffset dy="3"></feOffset> <feGaussianBlur stdDeviation="0.5"></feGaussianBlur> <feComposite in2="hardAlpha" operator="out"></feComposite> <feColorMatrix type="matrix" values="0 0 0 0 0.3125 0 0 0 0 0.3125 0 0 0 0 0.3125 0 0 0 0.12 0"></feColorMatrix> <feBlend mode="normal" in2="BackgroundImageFix" result="effect1_dropShadow_424_2899"></feBlend> <feBlend mode="normal" in="SourceGraphic" in2="effect1_dropShadow_424_2899" result="shape"></feBlend> </filter> <filter id="filter2_d_424_2899" x="146.5" y="64.2266" width="4" height="49.4443" filterUnits="userSpaceOnUse" color-interpolation-filters="sRGB"> <feFlood flood-opacity="0" result="BackgroundImageFix"></feFlood> <feColorMatrix in="SourceAlpha" type="matrix" values="0 0 0 0 0 0 0 0 0 0 0 0 0 0 0 0 0 0 127 0" result="hardAlpha"></feColorMatrix> <feOffset dy="3"></feOffset> <feGaussianBlur stdDeviation="0.5"></feGaussianBlur> <feComposite in2="hardAlpha" operator="out"></feComposite> <feColorMatrix type="matrix" values="0 0 0 0 0.3125 0 0 0 0 0.3125 0 0 0 0 0.3125 0 0 0 0.12 0"></feColorMatrix> <feBlend mode="normal" in2="BackgroundImageFix" result="effect1_dropShadow_424_2899"></feBlend> <feBlend mode="normal" in="SourceGraphic" in2="effect1_dropShadow_424_2899" result="shape"></feBlend> </filter> </defs> </svg> 