<?xml version="1.0" encoding="UTF-8"?> <svg xmlns="http://www.w3.org/2000/svg" width="638" height="320" viewBox="0 0 638 320" fill="none"> <path d="M637.546 0H0V320H637.546V0Z" fill="#BA9C69"></path> <path fill-rule="evenodd" clip-rule="evenodd" d="M385.635 184.23C383.59 184.435 381.136 186.888 378.478 191.591L370.912 204.473V213.674C370.912 215.31 371.526 216.537 372.548 216.946C373.162 217.15 374.389 217.355 376.433 217.559V218.991H359.053V217.559C362.325 217.559 364.165 216.741 364.369 214.901C364.369 214.492 364.574 213.879 364.574 213.061V205.495L353.532 187.093C352.714 185.866 352.101 185.048 351.692 184.639C351.079 184.026 350.056 183.821 348.829 183.821V182.39H365.801V183.821C363.96 183.821 362.938 184.026 362.734 184.026C361.507 184.23 360.893 184.844 360.893 185.866C360.893 186.479 361.507 187.911 362.734 189.955L370.095 202.428L375.002 194.045C376.842 190.978 377.66 188.729 377.66 187.093C377.66 186.071 377.251 185.253 376.638 184.639C376.024 184.026 375.206 183.821 374.184 183.821V182.39H385.635V184.23ZM451.27 136.384C449.635 139.042 448.612 142.313 448.612 146.198C448.612 150.083 449.226 153.559 450.248 156.626C451.679 160.511 453.52 163.374 456.382 165.01C458.018 166.032 459.654 166.441 461.494 166.441C462.925 166.441 464.561 166.032 465.992 165.419C468.446 164.192 470.286 162.147 471.309 159.285C472.331 156.831 472.74 153.968 472.74 150.901C472.74 146.198 471.718 141.904 469.877 138.428C467.424 133.93 464.152 131.681 459.654 131.681C456.178 131.476 453.315 133.112 451.27 136.384ZM303.027 136.384C301.392 139.042 300.369 142.313 300.369 146.198C300.369 150.083 300.983 153.559 302.005 156.626C303.436 160.511 305.277 163.374 308.139 165.01C309.775 166.032 311.411 166.441 313.251 166.441C314.682 166.441 316.318 166.032 317.75 165.419C320.203 164.192 322.043 162.147 323.066 159.285C324.088 156.831 324.497 153.968 324.497 150.901C324.497 146.198 323.475 141.904 321.635 138.428C319.181 133.93 315.909 131.681 311.411 131.681C307.73 131.476 304.868 133.112 303.027 136.384ZM269.085 149.265V161.943C269.085 163.578 269.698 164.601 271.13 165.214C271.948 165.623 273.379 165.828 275.219 165.828C280.535 165.828 283.194 163.17 283.194 157.853C283.194 155.195 282.58 153.15 281.149 151.719C279.718 150.288 277.673 149.47 275.219 149.47H269.085V149.265ZM269.085 136.179V147.63H273.992C275.833 147.63 277.264 147.425 278.286 147.016C279.718 146.607 280.74 145.585 281.353 144.358C281.967 142.927 282.376 141.495 282.376 140.064C282.376 138.633 281.967 137.202 281.353 135.77C280.535 134.134 279.513 133.112 278.286 132.703C277.264 132.294 275.833 132.09 273.992 132.09C272.357 132.09 271.13 132.294 270.312 132.703C269.698 133.521 269.085 134.543 269.085 136.179ZM325.928 162.556C322.043 166.237 317.341 167.872 311.82 167.872C306.504 167.872 302.005 166.032 298.529 162.352C295.053 158.671 293.213 154.173 293.213 148.856C293.213 143.131 295.053 138.633 298.529 135.157C302.21 131.681 306.708 130.045 312.433 130.045C317.954 130.045 322.452 131.885 326.133 135.361C329.813 138.837 331.654 143.336 331.654 148.856C331.858 154.377 329.813 158.876 325.928 162.556ZM287.283 151.31C289.328 152.946 290.35 155.195 290.35 158.058C290.35 164.192 285.852 167.055 276.651 167.055H257.226V165.623C259.27 165.623 260.497 165.419 261.315 164.805C262.337 164.192 262.746 162.965 262.746 161.125V136.997C262.746 134.952 262.337 133.521 261.52 132.908C260.702 132.294 259.475 132.09 257.226 132.09V130.658H277.468C280.535 130.658 283.398 131.476 285.647 132.908C288.305 134.543 289.532 136.997 289.532 139.86C289.532 142.313 288.51 144.154 286.67 145.789C285.034 147.221 282.785 148.039 280.331 148.243V148.447C283.194 149.265 285.647 150.288 287.283 151.31ZM374.797 165.623C373.366 165.623 372.344 166.237 371.526 167.259H370.095V154.173H371.73C374.593 162.352 378.887 166.441 384.408 166.441C386.452 166.441 388.293 165.828 389.928 164.396C391.36 163.17 392.178 161.329 392.178 159.285C392.178 157.24 391.564 155.604 390.542 154.582C388.906 152.946 386.043 151.924 381.341 151.106C376.433 150.492 372.957 148.856 371.321 146.403C370.095 144.767 369.481 142.722 369.481 140.678C369.481 137.815 370.504 135.157 372.344 133.112C374.184 131.067 376.638 130.045 379.705 130.045C380.523 130.045 381.75 130.249 383.59 130.454C385.226 130.863 386.657 130.863 387.475 130.863C388.293 130.863 389.315 130.658 390.133 130.249H392.178L393.404 140.882H391.564C389.928 137.815 388.293 135.566 386.861 134.339C384.817 132.294 382.363 131.272 379.705 131.272C377.865 131.272 376.229 131.885 374.797 133.112C373.366 134.339 372.753 135.975 372.753 137.815C372.753 139.655 373.366 140.882 374.797 141.904C376.638 143.131 380.114 144.154 385.43 144.971C392.587 145.994 396.267 149.674 396.267 156.013C396.267 159.285 395.04 161.943 392.791 164.192C390.542 166.441 387.679 167.668 384.612 167.668C383.59 167.668 381.954 167.259 379.705 166.646C377.456 166.032 376.024 165.623 374.797 165.623ZM368.05 157.853L364.574 167.055H333.289V165.623C336.561 165.623 338.401 164.805 338.81 163.374C339.015 162.965 339.015 162.352 339.015 161.738V136.179C339.015 134.134 338.401 133.112 336.97 132.703C336.152 132.499 334.925 132.294 333.289 132.294V130.863H351.283V132.294C349.034 132.294 347.603 132.499 346.989 132.908C345.967 133.521 345.353 134.748 345.353 136.793V161.943C345.353 163.578 345.967 164.601 346.989 165.214C348.012 165.623 349.443 165.828 351.692 165.828C354.759 165.828 357.417 165.214 359.666 163.783C361.507 162.761 363.347 160.716 365.596 158.058H368.05V157.853ZM440.024 167.055H422.849V165.623C424.893 165.623 426.325 165.419 427.143 165.01C427.96 164.601 428.369 163.374 428.369 161.738V149.47H409.967V161.943C409.967 163.578 410.58 164.601 411.603 165.214C412.42 165.623 413.647 165.828 415.283 165.828V167.259H398.107V165.828C400.152 165.828 401.379 165.623 401.992 165.214C403.015 164.601 403.424 163.578 403.424 161.738V136.384C403.424 134.543 403.015 133.521 402.197 133.112C401.379 132.703 399.948 132.499 397.903 132.499V131.067H415.079V132.499C413.443 132.499 412.216 132.703 411.398 133.112C410.376 133.725 409.762 134.748 409.762 136.384V147.834H428.165V136.588C428.165 134.952 427.551 133.725 426.529 133.316C425.711 132.908 424.484 132.703 422.849 132.703V131.272H440.024V132.703C438.184 132.703 436.957 132.908 436.139 133.316C435.117 133.93 434.504 134.952 434.504 136.588V162.352C434.504 163.987 435.117 165.214 436.139 165.623C436.753 166.032 438.184 166.237 440.024 166.237V167.055ZM474.376 162.556C470.491 166.237 465.788 167.872 460.267 167.872C454.951 167.872 450.452 166.032 446.976 162.352C443.5 158.671 441.66 154.173 441.66 148.856C441.66 143.131 443.5 138.633 446.976 135.157C450.657 131.681 455.155 130.045 460.881 130.045C466.401 130.045 470.9 131.885 474.58 135.361C478.261 138.837 480.101 143.336 480.101 148.856C480.101 154.377 478.261 158.876 474.376 162.556ZM499.526 167.055H482.555V165.623C484.599 165.623 486.031 165.419 486.644 165.01C487.462 164.396 487.871 163.17 487.871 161.125V136.793C487.871 135.157 487.462 133.93 486.44 133.112C485.622 132.499 484.395 132.09 482.555 132.09V130.658H499.73V132.09C497.89 132.09 496.459 132.294 495.845 132.908C495.028 133.521 494.414 134.748 494.414 136.588V160.92C494.414 162.761 494.823 163.987 495.845 164.601C496.663 165.214 497.89 165.419 499.73 165.419V167.055H499.526ZM333.903 184.23C337.174 184.23 339.833 184.844 341.673 185.662C343.718 186.684 345.558 188.524 347.194 191.182H349.034L347.194 182.594H314.478L312.638 191.182H314.273C316.318 188.729 318.363 186.888 319.999 185.866C322.043 184.639 324.702 184.026 327.564 184.026V213.265C327.564 215.31 326.951 216.537 325.928 217.15C325.111 217.559 323.884 217.764 321.635 217.764V219.195H339.628V217.764C337.379 217.764 335.743 217.355 335.13 216.741C334.312 216.128 333.903 215.106 333.903 213.47V184.23ZM306.095 213.265C306.095 215.106 306.504 216.332 307.526 216.946C308.344 217.559 309.571 217.764 311.411 217.764V219.195H294.235V217.764C296.28 217.764 297.711 217.559 298.325 217.15C299.143 216.537 299.551 215.31 299.551 213.265V188.933C299.551 187.297 299.143 186.07 298.12 185.253C297.302 184.639 296.075 184.23 294.235 184.23V182.799H311.411V184.23C309.571 184.23 308.139 184.435 307.526 185.048C306.708 185.662 306.095 186.888 306.095 188.729V213.265ZM293.213 211.425C289.328 217.15 283.807 219.809 276.855 219.809C271.539 219.809 267.04 217.968 263.564 214.492C259.884 210.812 258.043 206.518 258.043 201.201C258.043 195.885 259.884 191.387 263.36 187.706C266.836 184.026 271.334 182.185 276.651 182.185C277.673 182.185 279.309 182.39 281.353 183.003C283.398 183.617 285.034 183.821 286.056 183.821C287.488 183.821 288.51 183.412 289.532 182.39H291.577V193.84H289.941C286.67 187.093 282.376 183.617 277.264 183.617C273.174 183.617 270.107 185.457 268.063 189.342C266.222 192.409 265.405 196.294 265.405 200.588C265.405 205.086 266.427 208.971 268.676 212.243C271.13 215.924 274.606 217.764 278.9 217.764C283.807 217.764 288.101 215.31 291.577 210.607L293.213 211.425Z" fill="white"></path> <path fill-rule="evenodd" clip-rule="evenodd" d="M150.696 92.8311C153.968 94.2624 158.262 91.1953 158.262 103.464V143.54C160.511 142.314 167.258 139.655 174.211 138.429C175.642 138.224 176.664 138.02 177.891 136.997C178.709 136.179 179.322 135.157 179.322 133.317V115.732V97.5339C179.322 93.24 181.98 91.6043 185.661 91.8087C189.546 92.0132 193.84 95.2848 196.498 101.214C199.361 107.553 199.77 117.981 196.907 125.751C194.658 132.09 191.386 134.544 185.661 136.384C184.025 136.997 183.821 137.611 185.661 138.02C210.198 144.154 223.693 161.738 221.853 185.662C220.626 204.473 209.584 226.556 189.546 226.965C163.782 227.374 154.172 189.956 163.782 166.85C168.281 153.968 177.687 149.061 185.048 148.652C192.409 148.448 199.974 152.946 191.386 165.01C181.98 178.505 198.952 194.25 209.789 184.639C210.607 183.822 211.425 183.004 212.038 182.186C216.945 174.62 213.674 165.828 208.971 159.285C204.677 153.56 198.747 150.084 193.635 148.243C185.661 145.381 175.437 145.176 168.281 147.016C153.15 151.106 138.019 166.646 137.61 185.048C137.201 200.179 144.153 211.425 154.786 219.809C163.578 226.761 176.664 230.237 189.75 230.032C206.313 229.828 220.421 224.307 231.463 210.199C240.051 199.157 242.504 185.457 239.028 171.349C237.393 163.988 234.121 157.853 230.236 152.946C224.511 145.381 215.31 139.246 206.722 136.588C211.834 133.112 214.901 129.023 216.741 125.547C222.671 114.096 218.99 102.237 208.357 95.0803C202.837 91.1953 196.703 90.1729 190.977 90.1729C182.594 89.9684 174.211 90.1729 166.032 90.1729H150.287C148.242 89.9684 148.651 92.0132 150.696 92.8311Z" fill="white"></path> <path fill-rule="evenodd" clip-rule="evenodd" d="M264.179 94.2613H267.859V90.9898V90.7853H268.064H268.881H269.086V90.9898V99.5776V99.7821H268.881H268.064H267.859V99.5776V95.4882H264.179V99.5776V99.7821H263.974H263.156H262.952V99.5776V90.9898V90.7853H263.156H263.974H264.179V90.9898V94.2613ZM276.242 90.7853L279.718 99.5776L279.923 99.7821H279.514H278.696H278.492V99.5776L277.674 97.3284H274.402L273.584 99.5776V99.7821H273.38H272.562H272.153L272.357 99.5776L275.833 90.7853L276.038 90.1719L276.242 90.7853ZM276.038 93.239L274.811 96.3061H277.265L276.038 93.239ZM284.012 99.7821H283.194H282.99V99.5776V90.9898V90.7853H283.194H284.012H284.217V90.9898V99.5776V99.7821H284.012ZM293.009 93.239C293.009 93.6479 293.009 93.8524 292.805 94.2613C292.6 94.4658 292.6 94.8748 292.191 95.0793C291.987 95.2837 291.782 95.4882 291.373 95.4882C291.169 95.4882 290.76 95.6927 290.556 95.6927L293.009 99.5776L293.214 99.9866H292.805H291.987H291.782L289.124 95.8972V99.9866V100.191H288.92H288.306H288.102V99.9866V91.3987V91.1942H288.306H290.351C290.76 91.1942 291.169 91.1943 291.373 91.3987C291.782 91.6032 291.987 91.6032 292.191 91.8077C292.396 92.0122 292.6 92.2166 292.805 92.6256C293.009 92.6256 293.009 92.83 293.009 93.239ZM290.351 94.4658C290.556 94.4658 290.76 94.4658 290.964 94.4658C291.169 94.4658 291.373 94.2613 291.373 94.2613C291.578 94.0569 291.578 94.0569 291.578 93.8524C291.578 93.648 291.578 93.6479 291.578 93.4435C291.578 93.239 291.578 93.0345 291.578 93.0345C291.578 92.8301 291.373 92.83 291.373 92.6256C291.169 92.4211 291.169 92.4211 290.964 92.4211C290.76 92.4211 290.556 92.4211 290.351 92.4211H289.124V94.8748H290.351V94.4658ZM306.095 90.9898V91.8077V92.0122H305.891H304.255V99.5776V99.7821H304.051H303.233H303.028V99.5776V92.0122H301.393H301.188V91.8077V90.9898V90.7853H301.393H305.687H305.891V90.9898H306.095ZM314.274 93.239C314.274 93.6479 314.274 93.8524 314.07 94.2613C313.865 94.4658 313.865 94.8748 313.456 95.0793C313.252 95.2837 313.048 95.4882 312.639 95.4882C312.434 95.4882 312.025 95.6927 311.821 95.6927L314.274 99.5776L314.479 99.9866H314.07H313.252H313.048L310.389 95.8972V99.9866V100.191H310.185H309.367H309.163V99.9866V91.3987V91.1942H309.367H311.412C311.821 91.1942 312.23 91.1943 312.434 91.3987C312.843 91.6032 313.048 91.6032 313.252 91.8077C313.456 92.0122 313.661 92.2166 313.865 92.6256C314.274 92.6256 314.274 92.83 314.274 93.239ZM311.821 94.4658C312.025 94.4658 312.23 94.4658 312.434 94.4658C312.639 94.4658 312.843 94.2613 312.843 94.2613C313.048 94.0569 313.048 94.0569 313.048 93.8524C313.048 93.648 313.048 93.6479 313.048 93.4435C313.048 93.239 313.048 93.0345 313.048 93.0345C313.048 92.8301 312.843 92.83 312.843 92.6256C312.639 92.4211 312.639 92.4211 312.434 92.4211C312.23 92.4211 312.025 92.4211 311.821 92.4211H310.594V94.8748H311.821V94.4658ZM320.817 90.7853L324.294 99.5776L324.498 99.7821H324.089H323.271H323.067V99.5776L322.249 97.3284H318.977L318.159 99.5776V99.7821H317.955H317.137H316.728L316.933 99.5776L320.409 90.7853L320.613 90.1719L320.817 90.7853ZM320.613 93.239L319.386 96.3061H321.84L320.613 93.239ZM333.904 90.7853H334.722H334.926V90.9898V99.7821V100.396L334.517 99.9866L328.792 93.4435V99.5776V99.7821H328.587H327.77H327.565V99.5776V90.9898V90.3764L327.974 90.7853L333.699 97.3284V90.9898V90.7853H333.904ZM342.083 92.6256C342.083 92.4211 341.878 92.4211 341.878 92.2166L341.674 92.0122C341.674 92.0122 341.469 91.8077 341.265 91.8077C341.06 91.8077 341.06 91.8077 340.856 91.8077C340.651 91.8077 340.447 91.8077 340.242 91.8077C340.038 91.8077 340.038 92.0122 339.833 92.0122C339.833 92.0122 339.629 92.2166 339.629 92.4211C339.629 92.6256 339.629 92.6256 339.629 92.8301C339.629 93.0345 339.629 93.0345 339.833 93.239C339.833 93.4434 340.038 93.4435 340.242 93.6479L341.06 94.0569C341.265 94.2614 341.674 94.2613 341.878 94.4658C342.083 94.6703 342.287 94.6703 342.287 94.6703C342.492 94.8748 342.696 95.0793 342.901 95.0793C343.105 95.2837 343.309 95.4882 343.309 95.6927C343.514 95.8971 343.514 96.1016 343.718 96.3061C343.718 96.5105 343.923 96.7151 343.923 97.124C343.923 97.7374 343.718 98.3508 343.105 98.9642C342.901 99.1687 342.492 99.3732 342.287 99.5776C341.878 99.7821 341.674 99.7821 341.265 99.7821C340.856 99.7821 340.651 99.7821 340.242 99.5776C339.833 99.5776 339.629 99.3732 339.425 99.1687C339.22 98.9643 339.016 98.7597 338.811 98.5553C338.607 98.3508 338.402 98.1463 338.402 97.7374V97.5329H338.607L339.22 97.3284H339.425V97.5329C339.425 97.7374 339.629 97.9419 339.629 98.1464C339.833 98.3508 339.833 98.3508 340.038 98.5553C340.242 98.5553 340.242 98.7598 340.447 98.7598C340.651 98.7598 340.856 98.7598 341.06 98.7598C341.265 98.7598 341.469 98.7598 341.674 98.7598C341.878 98.7598 342.083 98.5553 342.083 98.5553C342.287 98.3508 342.287 98.3508 342.287 98.1464C342.287 97.9419 342.287 97.7374 342.287 97.5329C342.287 97.124 342.083 96.5106 341.469 96.1016C341.469 96.1016 341.265 95.8972 341.06 95.8972C340.856 95.8972 340.651 95.6927 340.447 95.4882C340.038 95.2837 339.629 95.0793 339.425 94.8748C339.22 94.6703 339.016 94.6703 339.016 94.4658C338.811 94.2613 338.607 94.0569 338.402 93.8524C338.198 93.648 338.198 93.239 338.198 93.0345C338.198 92.6256 338.198 92.4211 338.402 92.2166C338.607 92.0121 338.607 91.8077 338.811 91.6032C339.016 91.3987 339.22 91.1942 339.629 91.1942C339.833 91.1942 340.242 90.9898 340.651 90.9898C341.265 90.9898 341.674 91.1943 342.083 91.3987C342.287 91.6032 342.492 91.6032 342.492 91.8077C342.696 92.0122 342.696 92.2166 342.901 92.4211L343.105 92.6256H342.901L342.287 93.0345L342.083 92.6256ZM349.239 90.7853C349.648 90.7853 350.057 90.7853 350.262 90.9898C350.671 91.1943 350.875 91.1943 351.079 91.3987C351.284 91.6032 351.488 91.8077 351.693 92.2166C351.897 92.4211 351.897 92.83 351.897 93.239C351.897 93.6479 351.897 93.8524 351.693 94.2613C351.488 94.4658 351.488 94.8748 351.079 95.0793C350.875 95.2837 350.671 95.4882 350.262 95.4882C350.057 95.6927 349.648 95.6927 349.239 95.6927H348.012V99.7821V99.9866H347.808H346.99H346.786V99.7821V91.1942V90.9898H346.99H349.239V90.7853ZM349.239 94.4658C349.444 94.4658 349.648 94.4658 349.853 94.4658C350.057 94.4658 350.262 94.2613 350.262 94.2613C350.466 94.0569 350.466 94.0569 350.466 93.8524C350.466 93.648 350.466 93.6479 350.466 93.4435C350.466 93.239 350.466 93.0345 350.466 93.0345C350.466 92.8301 350.262 92.83 350.262 92.6256C350.057 92.4211 350.057 92.4211 349.853 92.4211C349.648 92.4211 349.444 92.4211 349.239 92.4211H348.012V94.8748H349.239V94.4658ZM356.396 98.7598H358.236H358.441V98.9642V99.7821V99.9866H358.236H355.373H355.169V99.7821V91.1942V90.9898H355.373H356.191H356.396V91.1942V98.7598ZM365.597 90.7853L369.073 99.5776L369.278 99.7821H368.869H368.051H367.846V99.5776L367.028 97.3284H363.757L362.939 99.5776V99.7821H362.734H361.917H361.508L361.712 99.5776L365.188 90.7853L365.393 90.1719L365.597 90.7853ZM365.393 93.239L364.166 96.3061H366.619L365.393 93.239ZM378.683 90.7853H379.501H379.706V90.9898V99.7821V100.396L379.297 99.9866L373.571 93.4435V99.5776V99.7821H373.367H372.549H372.345V99.5776V90.9898V90.3764L372.754 90.7853L378.479 97.3284V90.9898V90.7853H378.683ZM387.68 90.9898V91.8077V92.0122H387.476H385.84V99.5776V99.7821H385.635H384.817H384.613V99.5776V92.0122H382.977H382.773V91.8077V90.9898V90.7853H382.977H387.271H387.476V90.9898H387.68ZM393.201 90.7853L396.677 99.5776L396.881 99.7821H396.472H395.655H395.45V99.5776L394.632 97.3284H391.361L390.543 99.5776V99.7821H390.338H389.52H389.111L389.316 99.5776L392.792 90.7853L392.996 90.1719L393.201 90.7853ZM392.996 93.239L391.77 96.3061H394.223L392.996 93.239ZM403.016 90.9898V91.8077V92.0122H402.811H401.175V99.5776V99.7821H400.971H400.153H399.948V99.5776V92.0122H398.313H398.108V91.8077V90.9898V90.7853H398.313H402.607H402.811V90.9898H403.016ZM407.309 99.7821H406.492H406.287V99.5776V90.9898V90.7853H406.492H407.309H407.514V90.9898V99.5776V99.7821H407.309ZM420.396 95.2837C420.396 95.8971 420.191 96.5106 419.987 97.124C419.782 97.7374 419.373 98.1463 418.964 98.5553C418.555 98.9642 417.942 99.3732 417.533 99.5776C416.92 99.7821 416.306 99.9866 415.693 99.9866C415.079 99.9866 414.466 99.7821 413.853 99.5776C413.239 99.3732 412.83 98.9642 412.421 98.5553C412.012 98.1463 411.603 97.5329 411.399 97.124C411.194 96.5106 410.99 95.8971 410.99 95.2837C410.99 94.6703 411.194 94.0569 411.399 93.4435C411.603 92.83 412.012 92.4211 412.421 92.0122C412.83 91.6032 413.444 91.1943 413.853 90.9898C414.466 90.7853 415.079 90.5808 415.693 90.5808C416.306 90.5808 416.92 90.7853 417.533 90.9898C418.147 91.1943 418.555 91.6032 418.964 92.0122C419.373 92.4211 419.782 93.0345 419.987 93.4435C420.191 94.0569 420.396 94.6703 420.396 95.2837ZM415.693 98.7598C416.102 98.7598 416.715 98.7597 417.124 98.5553C417.533 98.3508 417.942 98.1463 418.147 97.7374C418.556 97.3284 418.76 97.124 418.964 96.715C419.169 96.3061 419.169 95.8971 419.169 95.2837C419.169 94.8748 419.169 94.2614 418.964 93.8524C418.76 93.4435 418.556 93.0345 418.147 92.8301C417.738 92.4211 417.533 92.2167 417.124 92.0122C416.715 91.8077 416.306 91.8077 415.693 91.8077C415.284 91.8077 414.671 91.8077 414.262 92.0122C413.853 92.2167 413.444 92.4211 413.239 92.8301C412.83 93.239 412.626 93.4435 412.421 93.8524C412.217 94.2614 412.217 94.6703 412.217 95.2837C412.217 95.6926 412.217 96.3061 412.421 96.715C412.626 97.124 412.83 97.5329 413.239 97.7374C413.648 98.1463 413.853 98.3508 414.262 98.5553C414.671 98.7597 415.284 98.7598 415.693 98.7598ZM430.21 90.7853H431.028H431.233V90.9898V99.7821V100.396L430.824 99.9866L425.099 93.4435V99.5776V99.7821H424.894H424.076H423.872V99.5776V90.9898V90.3764L424.281 90.7853L430.006 97.3284V90.9898V90.7853H430.21ZM267.45 117.162L266.837 116.344C266.632 116.549 266.428 116.753 266.223 116.753C266.019 116.958 265.814 116.958 265.61 117.162C265.405 117.162 265.201 117.367 264.996 117.367C264.792 117.367 264.587 117.367 264.383 117.367C263.77 117.367 263.156 117.162 262.747 116.753C262.543 116.549 262.338 116.344 262.338 115.935C262.134 115.731 262.134 115.322 262.134 114.913C262.134 114.3 262.338 113.686 262.747 113.277C262.952 113.073 263.156 112.868 263.361 112.664C263.565 112.459 263.77 112.255 263.974 112.05L263.565 111.642C263.565 111.437 263.361 111.437 263.361 111.233C263.361 111.028 263.156 111.028 263.156 110.824C263.156 110.619 263.156 110.619 263.156 110.415C263.156 110.21 263.156 110.21 263.156 110.006C263.156 109.392 263.361 108.983 263.77 108.574C263.974 108.37 264.179 108.166 264.383 108.166C264.587 108.166 264.996 107.961 265.201 107.961C265.405 107.961 265.814 107.961 266.019 108.166C266.223 108.166 266.428 108.37 266.632 108.574C266.837 108.779 267.041 108.983 267.041 109.188C267.246 109.392 267.246 109.597 267.246 110.006C267.246 110.21 267.246 110.415 267.246 110.619C267.246 110.824 267.041 111.028 267.041 111.233C266.837 111.437 266.837 111.642 266.632 111.642C266.428 111.846 266.223 111.846 266.019 112.05L265.405 112.459L266.837 114.504L267.859 113.686L268.064 113.482L268.268 113.686L268.677 114.3L268.881 114.504L268.677 114.709L267.45 115.527L268.268 116.753L268.472 117.162H268.064H267.45ZM265.814 111.233C266.019 111.028 266.019 111.028 266.223 111.028L266.428 110.824L266.632 110.619C266.632 110.619 266.632 110.415 266.632 110.21V110.006L266.428 109.801C266.428 109.801 266.223 109.597 266.019 109.597C265.814 109.597 265.814 109.597 265.61 109.597C265.405 109.597 265.405 109.597 265.201 109.597C264.996 109.597 264.996 109.597 264.996 109.801L264.792 110.006C264.792 110.006 264.792 110.21 264.792 110.415C264.792 110.619 264.792 110.619 264.792 110.824C264.792 111.028 264.996 111.233 264.996 111.233L265.405 111.642L265.814 111.233ZM263.565 114.913C263.565 115.118 263.565 115.322 263.565 115.322C263.565 115.527 263.77 115.527 263.77 115.731C263.77 115.731 263.974 115.935 264.179 115.935C264.383 115.935 264.383 115.935 264.587 115.935C264.792 115.935 264.792 115.935 264.996 115.935C265.201 115.935 265.201 115.935 265.405 115.731C265.61 115.731 265.814 115.527 265.814 115.527C266.019 115.527 266.019 115.322 266.223 115.118L264.792 113.073C264.587 113.277 264.383 113.277 264.179 113.482C263.974 113.686 263.77 113.686 263.77 113.891L263.565 114.095C263.565 114.095 263.565 114.3 263.361 114.3V114.504C263.565 114.709 263.565 114.913 263.565 114.913ZM280.945 107.961L284.421 116.753L284.626 116.958H284.217H283.399H283.194V116.753L282.377 114.504H279.105L278.287 116.753V116.958H278.083H277.265H276.856L277.06 116.753L280.536 107.961L280.741 107.348L280.945 107.961ZM280.741 110.619L279.514 113.686H281.968L280.741 110.619ZM291.578 109.392H288.306V111.642H291.373H291.578V111.846V112.664V112.868H291.373H288.306V116.14H291.373H291.578V116.344V117.162V117.367H291.373H287.284H287.079V117.162V108.574V108.37H287.284H291.373H291.578V108.574V109.392V109.597V109.392ZM298.939 110.006C298.939 109.801 298.734 109.801 298.734 109.597L298.53 109.392C298.53 109.392 298.325 109.188 298.121 109.188C297.917 109.188 297.917 109.188 297.712 109.188C297.508 109.188 297.303 109.188 297.099 109.188C296.894 109.188 296.894 109.392 296.69 109.392C296.69 109.392 296.485 109.597 296.485 109.801C296.485 110.006 296.485 110.006 296.485 110.21C296.485 110.415 296.485 110.415 296.69 110.619C296.69 110.824 296.894 110.824 297.099 111.028L297.917 111.437C298.121 111.642 298.53 111.642 298.734 111.846C298.939 112.05 299.143 112.05 299.143 112.05C299.348 112.255 299.552 112.459 299.757 112.459C299.961 112.664 300.166 112.868 300.166 113.073C300.37 113.277 300.37 113.482 300.575 113.686C300.575 113.891 300.779 114.095 300.779 114.504C300.779 115.118 300.575 115.731 299.961 116.344C299.757 116.549 299.348 116.753 299.143 116.958C298.734 117.162 298.53 117.162 298.121 117.162C297.712 117.162 297.508 117.162 297.099 116.958C296.69 116.958 296.485 116.753 296.281 116.549C296.076 116.344 295.872 116.14 295.667 115.935C295.463 115.731 295.258 115.527 295.258 115.118V114.913H295.463L296.076 114.709H296.281V114.913C296.281 115.118 296.485 115.322 296.485 115.527C296.69 115.731 296.69 115.731 296.894 115.935C297.099 115.935 297.099 116.14 297.303 116.14C297.508 116.14 297.712 116.14 297.917 116.14C298.121 116.14 298.325 116.14 298.53 116.14C298.734 116.14 298.939 115.935 298.939 115.935C299.143 115.731 299.143 115.731 299.143 115.527C299.143 115.322 299.143 115.118 299.143 114.913C299.143 114.504 298.939 113.891 298.325 113.482C298.325 113.482 298.121 113.277 297.917 113.277C297.712 113.277 297.508 113.073 297.303 112.868C296.894 112.664 296.485 112.459 296.281 112.255C296.076 112.051 295.872 112.05 295.872 111.846C295.667 111.642 295.463 111.437 295.258 111.233C295.054 111.028 295.054 110.619 295.054 110.415C295.054 110.006 295.054 109.801 295.258 109.597C295.463 109.392 295.463 109.188 295.667 108.983C295.872 108.779 296.076 108.574 296.485 108.574C296.69 108.574 297.099 108.37 297.508 108.37C298.121 108.37 298.53 108.574 298.939 108.779C299.143 108.983 299.348 108.983 299.348 109.188C299.552 109.392 299.552 109.597 299.757 109.801L299.961 110.006H299.757L299.143 110.415L298.939 110.006ZM308.14 108.37V109.188V109.392H307.936H306.3V116.958V117.162H306.095H305.278H305.073V116.958V109.392H303.437H303.233V109.188V108.37V108.166H303.437H307.731H307.936V108.37H308.14ZM312.639 111.642H316.319V108.37V108.166H316.524H317.341H317.546V108.37V116.958V117.162H317.341H316.524H316.319V116.958V112.868H312.639V116.958V117.162H312.434H311.616H311.412V116.958V108.37V108.166H311.616H312.434H312.639V108.37V111.642ZM325.725 109.392H322.658V111.642H325.725H325.929V111.846V112.664V112.868H325.725H322.658V116.14H325.725H325.929V116.344V117.162V117.367H325.725H321.635H321.431V117.162V108.574V108.37H321.635H325.725H325.929V108.574V109.392V109.597H325.725V109.392ZM333.904 108.37V109.188V109.392H333.699H332.063V116.958V117.162H331.859H331.246H331.041V116.958V109.392H329.405H329.201V109.188V108.37V108.166H329.405H333.699H333.904V108.37ZM338.198 117.162H337.38H337.175V116.958V108.37V108.166H337.38H338.198H338.402V108.37V116.958V117.162H338.198ZM343.105 112.664C343.105 113.686 343.514 114.504 344.127 115.118C344.741 115.731 345.559 115.935 346.377 115.935C346.581 115.935 346.786 115.935 346.99 115.935C347.194 115.935 347.399 115.935 347.399 115.935C347.603 115.935 347.603 115.935 347.808 115.935C348.012 115.935 348.012 115.935 348.217 115.731C348.421 115.731 348.626 115.527 348.83 115.527C349.035 115.322 349.239 115.322 349.444 115.118L349.853 114.913V115.322V116.14V116.344C349.648 116.549 349.444 116.549 349.239 116.753C349.035 116.958 348.83 116.958 348.626 116.958C348.421 117.162 348.012 117.162 347.603 117.162C347.194 117.162 346.786 117.162 346.581 117.162C345.968 117.162 345.354 116.958 344.741 116.753C344.127 116.549 343.718 116.14 343.309 115.731C342.901 115.322 342.492 114.709 342.287 114.3C342.083 113.686 341.878 113.073 341.878 112.459C341.878 111.028 342.287 110.006 343.105 109.188C343.514 108.779 343.923 108.37 344.536 108.166C345.15 107.961 345.763 107.757 346.377 107.757C346.786 107.757 347.194 107.757 347.399 107.757C347.808 107.757 348.012 107.757 348.217 107.961C348.421 107.961 348.626 108.166 348.83 108.166C349.035 108.166 349.239 108.37 349.444 108.574H349.648V108.779V109.597V110.006L349.239 109.801C349.035 109.801 348.83 109.597 348.83 109.597C348.626 109.597 348.626 109.392 348.421 109.392C348.217 109.392 348.217 109.188 348.012 109.188C347.808 109.188 347.808 109.188 347.603 108.983C347.399 108.983 347.194 108.983 346.99 108.779C346.786 108.574 346.581 108.779 346.377 108.779C345.559 108.779 344.741 108.983 344.127 109.597C343.718 110.006 343.514 110.21 343.309 110.619C343.309 111.642 343.105 112.255 343.105 112.664ZM359.463 112.664C359.463 113.686 359.872 114.504 360.485 115.118C361.099 115.731 361.917 115.935 362.734 115.935C362.939 115.935 363.143 115.935 363.348 115.935C363.552 115.935 363.757 115.935 363.757 115.935C363.961 115.935 363.961 115.935 364.166 115.935C364.37 115.935 364.37 115.935 364.575 115.731C364.779 115.731 364.984 115.527 365.188 115.527C365.393 115.322 365.597 115.322 365.802 115.118L366.21 114.913V115.322V116.14V116.344C366.006 116.549 365.802 116.549 365.597 116.753C365.393 116.958 365.188 116.958 364.984 116.958C364.779 117.162 364.37 117.162 363.961 117.162C363.552 117.162 363.143 117.162 362.939 117.162C362.325 117.162 361.712 116.958 361.099 116.753C360.485 116.549 360.076 116.14 359.667 115.731C359.258 115.322 358.849 114.709 358.645 114.3C358.44 113.686 358.236 113.073 358.236 112.459C358.236 111.028 358.645 110.006 359.463 109.188C359.872 108.779 360.281 108.37 360.894 108.166C361.508 107.961 362.121 107.757 362.734 107.757C363.143 107.757 363.552 107.757 363.757 107.757C364.166 107.757 364.37 107.757 364.575 107.961C364.779 107.961 364.984 108.166 365.188 108.166C365.393 108.166 365.597 108.37 365.802 108.574H366.006V108.779V109.597V110.006L365.597 109.801C365.393 109.801 365.188 109.597 365.188 109.597C364.984 109.597 364.984 109.392 364.779 109.392C364.575 109.392 364.575 109.188 364.37 109.188C364.166 109.188 364.166 109.188 363.961 108.983C363.757 108.983 363.552 108.983 363.348 108.779C363.143 108.574 362.939 108.779 362.734 108.779C361.917 108.779 361.099 108.983 360.485 109.597C360.076 110.006 359.872 110.21 359.667 110.619C359.463 111.642 359.463 112.255 359.463 112.664ZM370.709 115.935H372.549H372.754V116.14V116.958V117.162H372.549H369.687H369.482V116.958V108.37V108.166H369.687H370.504H370.709V108.37V115.935ZM377.456 117.162H376.639H376.434V116.958V108.37V108.166H376.639H377.456H377.661V108.37V116.958V117.162H377.456ZM388.089 108.166H388.907H389.111V108.37V117.162V117.776L388.702 117.367L382.977 110.824V116.958V117.162H382.773H381.955H381.75V116.958V108.37V107.757L382.159 108.166L387.885 114.709V108.37V108.166H388.089ZM393.814 117.162H392.996H392.792V116.958V108.37V108.166H392.996H393.814H394.019V108.37V116.958V117.162H393.814ZM398.722 112.664C398.722 113.686 399.131 114.504 399.744 115.118C400.357 115.731 401.175 115.935 401.993 115.935C402.198 115.935 402.402 115.935 402.607 115.935C402.811 115.935 403.016 115.935 403.016 115.935C403.22 115.935 403.22 115.935 403.425 115.935C403.629 115.935 403.629 115.935 403.833 115.731C404.038 115.731 404.242 115.527 404.447 115.527C404.651 115.322 404.856 115.322 405.06 115.118L405.469 114.913V115.322V116.14V116.344C405.265 116.549 405.06 116.549 404.856 116.753C404.651 116.958 404.447 116.958 404.242 116.958C404.038 117.162 403.629 117.162 403.22 117.162C402.811 117.162 402.402 117.162 402.198 117.162C401.584 117.162 400.971 116.958 400.357 116.753C399.744 116.549 399.335 116.14 398.926 115.731C398.517 115.322 398.108 114.709 397.904 114.3C397.699 113.686 397.495 113.073 397.495 112.459C397.495 111.028 397.904 110.006 398.722 109.188C399.131 108.779 399.54 108.37 400.153 108.166C400.766 107.961 401.38 107.757 401.993 107.757C402.402 107.757 402.811 107.757 403.016 107.757C403.425 107.757 403.629 107.757 403.833 107.961C404.038 107.961 404.242 108.166 404.447 108.166C404.651 108.166 404.856 108.37 405.06 108.574H405.265V108.779V109.597V110.006L404.856 109.801C404.651 109.801 404.447 109.597 404.447 109.597C404.242 109.597 404.242 109.392 404.038 109.392C403.833 109.392 403.833 109.188 403.629 109.188C403.424 109.188 403.425 109.188 403.22 108.983C403.016 108.983 402.811 108.983 402.607 108.779C402.402 108.574 402.198 108.779 401.993 108.779C401.175 108.779 400.357 108.983 399.744 109.597C399.335 110.006 399.131 110.21 398.926 110.619C398.926 111.642 398.722 112.255 398.722 112.664Z" fill="white"></path> </svg> 