<?xml version="1.0" encoding="UTF-8"?> <svg xmlns="http://www.w3.org/2000/svg" width="116" height="116" viewBox="0 0 116 116" fill="none"> <circle cx="58" cy="58" r="57.5" stroke="#515845"></circle> <path d="M57.5172 41.7931V45.7242C57.5172 46.7069 56.5345 47.6897 55.5517 47.6897H31.9655C30.9828 47.6897 30 46.7069 30 45.7242V41.7931C30 40.8104 30.9828 39.8276 31.9655 39.8276H55.5517C56.5345 39.8276 57.5172 40.8104 57.5172 41.7931Z" fill="#515845"></path> <path d="M54.569 45.7242V41.7931C54.569 40.8104 53.5863 39.8276 52.6035 39.8276H55.5518C56.5346 39.8276 57.5173 40.8104 57.5173 41.7931V45.7242C57.5173 46.7069 56.5346 47.6897 55.5518 47.6897H52.6035C53.5863 47.6897 54.569 46.7069 54.569 45.7242Z" fill="#515845"></path> <path d="M32.9483 45.7242V41.7931C32.9483 40.8104 33.931 39.8276 34.9138 39.8276H31.9655C30.9828 39.8276 30 40.8104 30 41.7931V45.7242C30 46.7069 30.9828 47.6897 31.9655 47.6897H34.9138C33.931 47.6897 32.9483 46.7069 32.9483 45.7242Z" fill="#515845"></path> <path d="M57.5172 57.1242V83.069C57.5172 85.231 55.7483 87 53.5862 87H33.931C31.769 87 30 85.231 30 83.069V57.1242C30 56.1414 30.3931 55.1586 31.1793 54.3724L33.931 51.6207V47.6897H53.5862V51.6207L56.3379 54.3724C57.1241 55.1586 57.5172 56.1414 57.5172 57.1242Z" fill="#BA9C69"></path> <path d="M54.5692 84.0517V58.1069C54.5692 57.1242 54.1761 56.1414 53.3899 55.3552L50.6382 52.6035V47.6897H53.5865V51.6207L56.3382 54.3724C57.1244 55.1586 57.5175 56.1414 57.5175 57.1242V83.069C57.5175 85.231 55.7485 87 53.5865 87H53.1933C53.9795 86.2138 54.5692 85.231 54.5692 84.0517Z" fill="#BA9C69"></path> <path d="M32.9483 84.0517V58.1069C32.9483 57.1242 33.3414 56.1414 34.1276 55.3552L36.8793 52.6035V47.6897H33.931V51.6207L31.1793 54.3724C30.3931 55.1586 30 56.1414 30 57.1242V83.069C30 85.231 31.769 87 33.931 87H34.3241C33.5379 86.2138 32.9483 85.231 32.9483 84.0517Z" fill="#BA9C69"></path> <path d="M57.5172 57.5173V81.1035H39.8275C37.6654 81.1035 35.8965 79.3345 35.8965 77.1724V61.4483C35.8965 59.2862 37.6654 57.5173 39.8275 57.5173H57.5172Z" fill="white"></path> <path d="M55.5524 67.3449V71.2759H51.6213V75.2069H47.6903V71.2759H43.7593V67.3449H47.6903V63.4138H51.6213V67.3449H55.5524Z" fill="#515845"></path> <path d="M85.034 33.931V83.069C85.034 85.231 83.2651 87 81.103 87H59.4823C57.3202 87 55.5513 85.231 55.5513 83.069V33.931C55.5513 31.769 57.3202 30 59.4823 30H81.103C83.2651 30 85.034 31.769 85.034 33.931Z" fill="#BA9C69"></path> <path d="M84.534 33.931V83.069C84.534 84.9549 82.9889 86.5 81.103 86.5H59.4823C57.5964 86.5 56.0513 84.9549 56.0513 83.069V33.931C56.0513 32.0451 57.5964 30.5 59.4823 30.5H81.103C82.9889 30.5 84.534 32.0451 84.534 33.931Z" fill="white" stroke="#515845"></path> <path d="M76.19 41.7931C77.8183 41.7931 79.1383 40.4731 79.1383 38.8448C79.1383 37.2165 77.8183 35.8965 76.19 35.8965C74.5617 35.8965 73.2417 37.2165 73.2417 38.8448C73.2417 40.4731 74.5617 41.7931 76.19 41.7931Z" fill="#515845"></path> <path d="M76.19 51.6207C77.8183 51.6207 79.1383 50.3007 79.1383 48.6724C79.1383 47.0441 77.8183 45.7242 76.19 45.7242C74.5617 45.7242 73.2417 47.0441 73.2417 48.6724C73.2417 50.3007 74.5617 51.6207 76.19 51.6207Z" fill="#515845"></path> <path d="M76.19 61.4482C77.8183 61.4482 79.1383 60.1283 79.1383 58.5C79.1383 56.8717 77.8183 55.5517 76.19 55.5517C74.5617 55.5517 73.2417 56.8717 73.2417 58.5C73.2417 60.1283 74.5617 61.4482 76.19 61.4482Z" fill="#515845"></path> <path d="M76.19 71.2759C77.8183 71.2759 79.1383 69.9559 79.1383 68.3276C79.1383 66.6993 77.8183 65.3793 76.19 65.3793C74.5617 65.3793 73.2417 66.6993 73.2417 68.3276C73.2417 69.9559 74.5617 71.2759 76.19 71.2759Z" fill="#515845"></path> <path d="M76.19 81.1035C77.8183 81.1035 79.1383 79.7835 79.1383 78.1552C79.1383 76.5269 77.8183 75.2069 76.19 75.2069C74.5617 75.2069 73.2417 76.5269 73.2417 78.1552C73.2417 79.7835 74.5617 81.1035 76.19 81.1035Z" fill="#515845"></path> <path d="M64.397 41.7931C66.0253 41.7931 67.3453 40.4731 67.3453 38.8448C67.3453 37.2165 66.0253 35.8965 64.397 35.8965C62.7687 35.8965 61.4487 37.2165 61.4487 38.8448C61.4487 40.4731 62.7687 41.7931 64.397 41.7931Z" fill="#515845"></path> <path d="M64.397 51.6207C66.0253 51.6207 67.3453 50.3007 67.3453 48.6724C67.3453 47.0441 66.0253 45.7242 64.397 45.7242C62.7687 45.7242 61.4487 47.0441 61.4487 48.6724C61.4487 50.3007 62.7687 51.6207 64.397 51.6207Z" fill="#515845"></path> <path d="M64.397 61.4482C66.0253 61.4482 67.3453 60.1283 67.3453 58.5C67.3453 56.8717 66.0253 55.5517 64.397 55.5517C62.7687 55.5517 61.4487 56.8717 61.4487 58.5C61.4487 60.1283 62.7687 61.4482 64.397 61.4482Z" fill="#515845"></path> <path d="M64.397 71.2759C66.0253 71.2759 67.3453 69.9559 67.3453 68.3276C67.3453 66.6993 66.0253 65.3793 64.397 65.3793C62.7687 65.3793 61.4487 66.6993 61.4487 68.3276C61.4487 69.9559 62.7687 71.2759 64.397 71.2759Z" fill="#515845"></path> <path d="M64.397 81.1035C66.0253 81.1035 67.3453 79.7835 67.3453 78.1552C67.3453 76.5269 66.0253 75.2069 64.397 75.2069C62.7687 75.2069 61.4487 76.5269 61.4487 78.1552C61.4487 79.7835 62.7687 81.1035 64.397 81.1035Z" fill="#515845"></path> </svg> 