<?xml version="1.0" encoding="UTF-8"?> <svg xmlns="http://www.w3.org/2000/svg" width="116" height="116" viewBox="0 0 116 116" fill="none"> <circle cx="58" cy="58" r="57.5" stroke="#515845"></circle> <path d="M65.576 34.8049L70.8353 47.0766C70.66 46.726 66.4526 40.7655 58.0378 40.7655C49.6229 40.7655 45.4155 46.726 45.2402 47.0766L50.4995 34.8049C50.4995 34.8049 52.9538 32 58.0378 32C63.1217 32 65.576 34.8049 65.576 34.8049Z" fill="#BA9C69"></path> <path d="M65.575 34.8049C70.3084 42.5185 71.3602 44.4469 71.3602 47.2519C71.3602 55.842 42.7848 82.8396 42.7848 82.8396L37.175 72.1458C36.9997 72.1458 71.1849 45.6741 65.575 34.8049Z" fill="#515845"></path> <path d="M79.0739 72.1458L73.464 82.8396C73.464 82.8396 44.8887 56.0173 44.8887 47.2519C44.8887 44.4469 45.7652 42.5185 50.6738 34.8049C44.8887 45.6741 79.0739 72.1458 79.0739 72.1458Z" fill="#515845"></path> </svg> 