<?xml version="1.0" encoding="UTF-8"?> <svg xmlns="http://www.w3.org/2000/svg" width="116" height="116" viewBox="0 0 116 116" fill="none"> <circle cx="58" cy="58" r="57.5" stroke="#515845"></circle> <path d="M57.7309 77.0124C68.3095 77.0124 76.8851 68.4368 76.8851 57.8582C76.8851 47.2796 68.3095 38.704 57.7309 38.704C47.1523 38.704 38.5767 47.2796 38.5767 57.8582C38.5767 68.4368 47.1523 77.0124 57.7309 77.0124Z" fill="#BA9C69"></path> <path d="M54.8581 54.9851H49.1118V60.7313H54.8581V66.4776H60.6044V60.7313H66.3506V54.9851H60.6044V49.2388H54.8581V54.9851Z" fill="#515845"></path> <path d="M48.7287 39.6617C43.9401 40.4279 44.1317 36.0224 45.0894 35.4478L53.7088 32H63.669C65.3928 32 67.1167 32.3831 68.6491 33.1493L75.353 36.4055C77.2685 37.3632 79.1839 37.7463 81.2909 37.7463H86.4625V49.2388H77.6516C72.6715 51.3458 66.5421 49.6219 65.3929 43.4925L63.669 40.4278C63.2859 39.6617 62.3282 38.8955 61.3705 38.704L54.4749 37.9378C52.9426 38.5124 51.2187 39.2786 48.7287 39.6617Z" fill="white"></path> <path d="M66.1592 45.5995L68.0746 41.0025L57.1567 36.4055C56.7736 37.1717 55.2413 41.0025 60.6045 43.1095L66.1592 45.5995Z" fill="white"></path> <path d="M66.7338 76.0547C71.5224 75.2886 71.3308 79.694 70.3731 80.2687L61.7537 83.7164H51.7935C50.0697 83.7164 48.3458 83.3333 46.8134 82.5672L40.1095 79.3109C38.194 78.3532 36.2786 77.9702 34.1716 77.9702H29V66.4776H37.8109C42.791 64.3706 48.9204 66.0945 50.0696 72.2239L51.7935 75.2886C52.1766 76.0547 53.1343 76.8209 54.092 77.0124L60.9876 77.7786C62.5199 77.204 64.2438 76.4378 66.7338 76.0547Z" fill="white"></path> <path d="M49.3036 70.1169L47.3882 74.7139L58.3061 79.3109C58.6892 78.5448 60.2215 74.7139 54.8583 72.607L49.3036 70.1169Z" fill="white"></path> <path d="M54.8581 54.9851H49.1118V60.7313H54.8581V66.4776H60.6044V60.7313H66.3506V54.9851H60.6044V49.2388H54.8581V54.9851Z" stroke="#515845" stroke-miterlimit="10" stroke-linecap="round" stroke-linejoin="round"></path> <path d="M62.5197 77.204C63.669 76.8209 65.0097 76.2463 66.7336 76.0547C71.5222 75.2885 71.3306 79.694 70.3729 80.2686L61.7535 83.7164H51.7933C50.0695 83.7164 48.3456 83.3333 46.8132 82.5671L40.1093 79.3109C38.1938 78.3532 36.2784 77.9701 34.1714 77.9701H29.9575" stroke="#515845" stroke-miterlimit="10" stroke-linecap="round" stroke-linejoin="round"></path> <path d="M29.9575 66.4776H37.8107C42.2162 64.7537 47.3879 65.7114 49.4948 70.1169" stroke="#515845" stroke-miterlimit="10" stroke-linecap="round" stroke-linejoin="round"></path> <path d="M47.3882 74.5224L58.3061 79.1194C58.6892 78.3532 60.2215 74.5224 54.8583 72.4154L49.3036 70.1169" stroke="#515845" stroke-miterlimit="10" stroke-linecap="round" stroke-linejoin="round"></path> <path d="M52.9426 38.5124C51.7934 38.8955 50.4526 39.4701 48.7287 39.6617C43.9401 40.4279 44.1317 36.0224 45.0894 35.4478L53.7088 32H63.669C65.3928 32 67.1167 32.3831 68.6491 33.1493L75.353 36.4055C77.2685 37.3632 79.1839 37.7463 81.2909 37.7463H85.5048" stroke="#515845" stroke-miterlimit="10" stroke-linecap="round" stroke-linejoin="round"></path> <path d="M85.5041 49.2388H77.6509C73.2454 50.9627 68.0738 50.005 65.9668 45.5995" stroke="#515845" stroke-miterlimit="10" stroke-linecap="round" stroke-linejoin="round"></path> <path d="M68.0746 41.194L57.1567 36.597C56.7736 37.3632 55.2413 41.194 60.6045 43.301L66.1592 45.5995" stroke="#515845" stroke-miterlimit="10" stroke-linecap="round" stroke-linejoin="round"></path> </svg> 