<?xml version="1.0" encoding="UTF-8"?> <svg xmlns="http://www.w3.org/2000/svg" width="74" height="74" viewBox="0 0 74 74" fill="none"> <path d="M25.4482 48.6251C25.2642 49.6424 21.7026 56.9 17.9998 61.5001C9.99977 70.0001 27.9998 72.5001 38.4998 73.5001C46.2902 71.584 37.863 65.1912 43.5685 62.7155C52.0417 59.0386 25.4482 48.6251 25.4482 48.6251Z" fill="#FFD0AB"></path> <path d="M55.1551 36.2346C54.8525 32.1349 53.4565 27.0787 53.4565 27.0787C53.4565 27.0787 38.6954 27.5455 33.0857 27.9059C27.4759 28.2663 22.879 38.473 23.282 45.4255C23.6302 51.4033 30.9537 52.6198 30.9537 52.6198C33.3077 57.0313 39.5683 62.6729 47.8924 63.4043C56.218 64.1343 55.0851 57.5026 55.8957 54.478C56.7062 51.4534 57.2795 45.0393 56.8765 42.5499C56.4735 40.0637 55.4577 40.3343 55.1551 36.2346Z" fill="#FED7B8"></path> <path d="M23.9999 20.0001C40.4998 7.99989 52.9999 22.0001 52.9999 22.0001C52.9999 22.0001 53.6074 27.6321 53.8203 28.511C52.917 28.4259 51.9894 28.3818 51.0132 28.4274C29.3391 29.4645 31.4316 61.9368 51.7994 63.053C50.8048 63.3997 49.5396 63.5518 47.8928 63.4073C39.5686 62.6774 33.308 57.0342 30.9541 52.6227C30.9541 52.6227 23.6306 51.4047 23.2823 45.4285C22.8778 38.4745 15.9656 25.8433 23.9999 20.0001Z" fill="#FED7B8"></path> <path d="M38.9998 28.1117C22.4998 30.9613 19.4998 24.4999 19.4996 26.4999C14.2168 33.7984 15.2277 37.9972 18.4834 42.822C21.7392 47.6469 20.0892 55.3923 27.91 52.2859C27.91 52.2859 24.0947 49.7986 23.678 45.8529C23.2629 41.9059 28.0393 43.8707 28.3677 44.5318C28.6962 45.193 32.8141 47.8969 32.9905 37.3522C33.0544 33.5402 38.9998 30.9613 38.9998 28.1117C33.4998 29.7528 26.9998 27.9251 26.9998 32.5896C26.9998 34.9315 27.834 32.7391 28.3677 35.032C28.3677 35.032 28.32 39.9325 28.9998 37.0676C29.6795 34.2052 31.4998 30.5543 38.9998 28.1117Z" fill="#363B3E"></path> <circle cx="37" cy="37" r="36.5" stroke="black"></circle> <path d="M39 28C39 28 46.8875 26.3062 48.5 25.5C49.5 25 53 22 53 22" stroke="#D32943" stroke-width="0.2" stroke-dasharray="1.4 1.4"></path> <path d="M40.8548 19.14C40.6937 19.1683 40.5401 19.0605 40.5119 18.8993C40.4837 18.7382 40.5914 18.5846 40.7526 18.5564C40.9138 18.5281 41.0673 18.6359 41.0956 18.7971C41.1238 18.9582 41.016 19.1118 40.8548 19.14Z" fill="#D32943"></path> <path d="M42.4115 18.8674C42.2503 18.8956 42.0968 18.7879 42.0685 18.6267C42.0403 18.4655 42.1481 18.312 42.3092 18.2837C42.4704 18.2555 42.624 18.3633 42.6522 18.5244C42.6804 18.6856 42.5727 18.8392 42.4115 18.8674Z" fill="#D32943"></path> <path d="M41.5124 20.0275C41.5465 20.2221 41.6608 20.3023 41.8554 20.2682C42.0499 20.2341 42.1301 20.1198 42.096 19.9253C42.062 19.7307 41.9477 19.6505 41.7531 19.6845C41.6558 19.7016 41.4954 19.9302 41.5124 20.0275Z" fill="#D32943"></path> <path d="M44.4764 19.2073C44.3153 19.2356 44.1617 19.1278 44.1335 18.9666C44.1052 18.8055 44.213 18.6519 44.3742 18.6237C44.5353 18.5955 44.6889 18.7032 44.7171 18.8644C44.7454 19.0256 44.6376 19.1791 44.4764 19.2073Z" fill="#D32943"></path> <path d="M40.1839 20.4607C40.0228 20.4889 39.8692 20.3811 39.841 20.2199C39.8128 20.0588 39.9205 19.9052 40.0817 19.877C40.2429 19.8488 40.3964 19.9565 40.4247 20.1177C40.4529 20.2789 40.3451 20.4324 40.1839 20.4607Z" fill="#D32943"></path> <path d="M38.1262 19.0165C38.1603 19.211 38.2746 19.2912 38.4691 19.2572C38.6637 19.2231 38.7439 19.1088 38.7098 18.9142C38.6757 18.7197 38.5614 18.6394 38.3669 18.6735C38.1723 18.7076 38.0921 18.8219 38.1262 19.0165Z" fill="#D32943"></path> <path d="M40.8747 17.5324C40.9088 17.727 41.0231 17.8072 41.2177 17.7731C41.4122 17.7391 41.4924 17.6247 41.4584 17.4302C41.4243 17.2356 41.31 17.1554 41.1154 17.1895C40.9209 17.2236 40.8406 17.3379 40.8747 17.5324Z" fill="#D32943"></path> <path d="M38.7922 17.0951C38.8263 17.2896 38.9406 17.3699 39.1351 17.3358C39.3297 17.3017 39.4099 17.1874 39.3758 16.9928C39.3417 16.7983 39.2274 16.718 39.0329 16.7521C38.8383 16.7862 38.7581 16.9005 38.7922 17.0951Z" fill="#D32943"></path> <path d="M37.6496 20.303C37.6837 20.4976 37.798 20.5778 37.9926 20.5437C38.1871 20.5096 38.2673 20.3953 38.2333 20.2008C38.1992 20.0062 38.0849 19.926 37.8903 19.9601C37.6958 19.9941 37.6326 20.2057 37.6496 20.303Z" fill="#D32943"></path> <path d="M36.8158 19.5469C36.6546 19.5751 36.5011 19.4674 36.4728 19.3062C36.4446 19.145 36.5524 18.9915 36.7136 18.9632C36.8747 18.935 37.0283 19.0428 37.0565 19.2039C37.0847 19.3651 36.977 19.5187 36.8158 19.5469Z" fill="#D32943"></path> <path d="M36.8642 17.5333C36.703 17.5615 36.5494 17.4538 36.5212 17.2926C36.4929 17.1314 36.6007 16.9779 36.7619 16.9496C36.9231 16.9214 37.0766 17.0292 37.1048 17.1903C37.1331 17.3515 37.0253 17.505 36.8642 17.5333Z" fill="#D32943"></path> <path d="M36.0302 20.7873C35.869 20.8155 35.7154 20.7078 35.6872 20.5466C35.659 20.3854 35.7667 20.2319 35.9279 20.2037C36.0891 20.1754 36.2426 20.2832 36.2709 20.4444C36.2991 20.6055 36.1913 20.7591 36.0302 20.7873Z" fill="#D32943"></path> <path d="M34.527 19.6471C34.5611 19.8416 34.6755 19.9219 34.87 19.8878C35.0646 19.8537 35.1448 19.7394 35.1107 19.5448C35.0766 19.3503 34.9623 19.27 34.7678 19.3041C34.6705 19.3212 34.51 19.5498 34.527 19.6471Z" fill="#D32943"></path> <path d="M35.0378 18.555C35.0719 18.7495 35.1862 18.8298 35.3808 18.7957C35.5753 18.7616 35.6555 18.6473 35.6214 18.4527C35.5874 18.2582 35.473 18.1779 35.2785 18.212C35.1812 18.2291 35.0207 18.4577 35.0378 18.555Z" fill="#D32943"></path> <path d="M33.7243 16.7799C33.7584 16.9744 33.8727 17.0547 34.0673 17.0206C34.2618 16.9865 34.342 16.8722 34.308 16.6776C34.2739 16.4831 34.1596 16.4028 33.965 16.4369C33.8677 16.454 33.7073 16.6826 33.7243 16.7799Z" fill="#D32943"></path> <path d="M33.3139 20.1604C33.1527 20.1886 32.9991 20.0808 32.9709 19.9197C32.9427 19.7585 33.0504 19.6049 33.2116 19.5767C33.3728 19.5485 33.5263 19.6562 33.5545 19.8174C33.5828 19.9786 33.475 20.1321 33.3139 20.1604Z" fill="#D32943"></path> <path d="M33.265 18.1638C33.1039 18.192 32.9503 18.0842 32.9221 17.9231C32.8938 17.7619 33.0016 17.6084 33.1628 17.5801C33.3239 17.5519 33.4775 17.6596 33.5057 17.8208C33.534 17.982 33.4262 18.1355 33.265 18.1638Z" fill="#D32943"></path> <path d="M33.8561 20.9676C33.8902 21.1622 34.0045 21.2424 34.1991 21.2083C34.3936 21.1742 34.4739 21.0599 34.4398 20.8654C34.4057 20.6708 34.2914 20.5906 34.0968 20.6247C33.9023 20.6588 33.8221 20.7731 33.8561 20.9676Z" fill="#D32943"></path> <path d="M31.3051 20.7128C31.1439 20.741 30.9904 20.6333 30.9621 20.4721C30.9339 20.3109 31.0416 20.1574 31.2028 20.1291C31.364 20.1009 31.5175 20.2087 31.5458 20.3698C31.574 20.531 31.4662 20.6845 31.3051 20.7128Z" fill="#D32943"></path> <path d="M31.4901 19.4774C31.329 19.5056 31.1754 19.3978 31.1472 19.2367C31.119 19.0755 31.2267 18.922 31.3879 18.8937C31.549 18.8655 31.7026 18.9732 31.7308 19.1344C31.7591 19.2956 31.6513 19.4491 31.4901 19.4774Z" fill="#D32943"></path> <path d="M31.1493 17.5319C30.9881 17.5601 30.8346 17.4523 30.8064 17.2912C30.7781 17.13 30.8859 16.9765 31.0471 16.9482C31.2082 16.92 31.3618 17.0278 31.39 17.1889C31.4182 17.3501 31.3105 17.5036 31.1493 17.5319Z" fill="#D32943"></path> <path d="M30.4398 22.0676C30.2786 22.0959 30.1251 21.9881 30.0969 21.8269C30.0686 21.6658 30.1764 21.5122 30.3376 21.484C30.4987 21.4558 30.6523 21.5635 30.6805 21.7247C30.7088 21.8858 30.601 22.0394 30.4398 22.0676Z" fill="#D32943"></path> <path d="M29.3768 21.151C29.2157 21.1792 29.0621 21.0714 29.0339 20.9103C29.0057 20.7491 29.1134 20.5955 29.2746 20.5673C29.4358 20.5391 29.5893 20.6468 29.6175 20.808C29.6458 20.9692 29.538 21.1227 29.3768 21.151Z" fill="#D32943"></path> <path d="M29.3275 19.1544C29.1664 19.1826 29.0128 19.0748 28.9846 18.9137C28.9564 18.7525 29.0641 18.599 29.2253 18.5707C29.3864 18.5425 29.54 18.6502 29.5682 18.8114C29.5965 18.9726 29.4887 19.1261 29.3275 19.1544Z" fill="#D32943"></path> <path d="M28.8197 22.5518C28.6585 22.5801 28.505 22.4723 28.4767 22.3111C28.4485 22.15 28.5563 21.9964 28.7175 21.9682C28.8786 21.9399 29.0322 22.0477 29.0604 22.2089C29.0886 22.3701 28.9809 22.5236 28.8197 22.5518Z" fill="#D32943"></path> <path d="M27.5985 20.1591C27.4374 20.1873 27.2838 20.0795 27.2556 19.9184C27.2273 19.7572 27.3351 19.6037 27.4963 19.5754C27.6574 19.5472 27.811 19.6549 27.8392 19.8161C27.8674 19.9773 27.7597 20.1308 27.5985 20.1591Z" fill="#D32943"></path> <path d="M26.9667 22.275C26.8055 22.3032 26.652 22.1955 26.6237 22.0343C26.5955 21.8731 26.7033 21.7196 26.8644 21.6913C27.0256 21.6631 27.1791 21.7709 27.2074 21.932C27.2356 22.0932 27.1279 22.2467 26.9667 22.275Z" fill="#D32943"></path> <path d="M25.0214 22.6158C24.8602 22.644 24.7066 22.5363 24.6784 22.3751C24.6502 22.2139 24.758 22.0604 24.9191 22.0321C25.0803 22.0039 25.2338 22.1117 25.2621 22.2728C25.2903 22.434 25.1825 22.5875 25.0214 22.6158Z" fill="#D32943"></path> <path d="M31.9108 21.3085C31.9449 21.5031 32.0592 21.5833 32.2538 21.5492C32.4483 21.5151 32.5286 21.4008 32.4945 21.2063C32.4604 21.0117 32.3461 20.9315 32.1515 20.9656C32.0542 20.9826 31.8938 21.2112 31.9108 21.3085Z" fill="#D32943"></path> <path d="M44.4743 20.9121C44.5084 21.1067 44.6227 21.1869 44.8173 21.1528C45.0118 21.1188 45.092 21.0044 45.058 20.8099C45.0239 20.6153 44.9096 20.5351 44.715 20.5692C44.5205 20.6033 44.4402 20.7176 44.4743 20.9121Z" fill="#D32943"></path> <path d="M47.051 19.3941C47.0851 19.5886 47.1994 19.6689 47.3939 19.6348C47.5885 19.6007 47.6687 19.4864 47.6346 19.2918C47.6005 19.0973 47.4862 19.017 47.2917 19.0511C47.0971 19.0852 47.0169 19.1995 47.051 19.3941Z" fill="#D32943"></path> <path d="M43.2128 23.4392C43.0516 23.4674 42.8981 23.3597 42.8698 23.1985C42.8416 23.0373 42.9494 22.8838 43.1105 22.8556C43.2717 22.8273 43.4252 22.9351 43.4535 23.0963C43.4817 23.2574 43.374 23.411 43.2128 23.4392Z" fill="#D32943"></path> <path d="M42.5809 25.5551C42.4198 25.5834 42.2662 25.4756 42.238 25.3144C42.2098 25.1532 42.3175 24.9997 42.4787 24.9715C42.6399 24.9432 42.7934 25.051 42.8216 25.2122C42.8499 25.3733 42.7421 25.5269 42.5809 25.5551Z" fill="#D32943"></path> <path d="M44.3558 24.2416C44.1947 24.2698 44.0411 24.162 44.0129 24.0009C43.9847 23.8397 44.0924 23.6862 44.2536 23.6579C44.4148 23.6297 44.5683 23.7375 44.5965 23.8986C44.6248 24.0598 44.517 24.2133 44.3558 24.2416Z" fill="#D32943"></path> <path d="M41.5563 21.4234C41.5904 21.618 41.7048 21.6982 41.8993 21.6641C42.0939 21.63 42.1741 21.5157 42.14 21.3212C42.1059 21.1266 41.9916 21.0464 41.7971 21.0805C41.6025 21.1146 41.5223 21.2289 41.5563 21.4234Z" fill="#D32943"></path> <path d="M42.529 21.253C42.5631 21.4476 42.6774 21.5278 42.872 21.4937C43.0665 21.4596 43.1467 21.3453 43.1126 21.1508C43.0786 20.9562 42.9643 20.876 42.7697 20.9101C42.5752 20.9442 42.4949 21.0585 42.529 21.253Z" fill="#D32943"></path> <path d="M39.7126 22.3479C39.7467 22.5425 39.861 22.6227 40.0555 22.5886C40.2501 22.5545 40.3303 22.4402 40.2962 22.2457C40.2622 22.0511 40.1478 21.9709 39.9533 22.005C39.7587 22.0391 39.6785 22.1534 39.7126 22.3479Z" fill="#D32943"></path> <path d="M38.9296 21.8836C38.7684 21.9118 38.6148 21.804 38.5866 21.6429C38.5584 21.4817 38.6661 21.3281 38.8273 21.2999C38.9885 21.2717 39.142 21.3794 39.1703 21.5406C39.1985 21.7018 39.0907 21.8553 38.9296 21.8836Z" fill="#D32943"></path> <path d="M38.1102 22.9295C37.949 22.9577 37.7955 22.85 37.7673 22.6888C37.739 22.5277 37.8468 22.3741 38.008 22.3459C38.1691 22.3176 38.3227 22.4254 38.3509 22.5866C38.3792 22.7477 38.2714 22.9013 38.1102 22.9295Z" fill="#D32943"></path> <path d="M32.8778 26.2525C32.7166 26.2807 32.5631 26.173 32.5349 26.0118C32.5066 25.8506 32.6144 25.6971 32.7755 25.6689C32.9367 25.6406 33.0903 25.7484 33.1185 25.9096C33.1467 26.0707 33.039 26.2243 32.8778 26.2525Z" fill="#D32943"></path> <path d="M33.0233 28.2321C32.8621 28.2604 32.7086 28.1526 32.6804 27.9914C32.6521 27.8303 32.7599 27.6767 32.921 27.6485C33.0822 27.6202 33.2358 27.728 33.264 27.8892C33.2923 28.0503 33.1845 28.2039 33.0233 28.2321Z" fill="#D32943"></path> <path d="M37.2074 21.7843C37.0462 21.8126 36.8927 21.7048 36.8644 21.5436C36.8362 21.3824 36.944 21.2289 37.1052 21.2007C37.2663 21.1724 37.4199 21.2802 37.4481 21.4414C37.4763 21.6025 37.3686 21.7561 37.2074 21.7843Z" fill="#D32943"></path> <path d="M35.0505 22.0619C35.0846 22.2564 35.1989 22.3367 35.3934 22.3026C35.588 22.2685 35.6682 22.1542 35.6341 21.9596C35.6001 21.7651 35.4857 21.6848 35.2912 21.7189C35.0966 21.753 35.0164 21.8673 35.0505 22.0619Z" fill="#D32943"></path> <path d="M35.9192 23.0125C35.9532 23.2071 36.0675 23.2873 36.2621 23.2532C36.4566 23.2192 36.5369 23.1048 36.5028 22.9103C36.4687 22.7157 36.3544 22.6355 36.1598 22.6696C35.9653 22.7037 35.8851 22.818 35.9192 23.0125Z" fill="#D32943"></path> <path d="M33.3676 22.7578C33.2064 22.786 33.0528 22.6782 33.0246 22.5171C32.9964 22.3559 33.1041 22.2023 33.2653 22.1741C33.4265 22.1459 33.58 22.2536 33.6083 22.4148C33.6365 22.576 33.5287 22.7295 33.3676 22.7578Z" fill="#D32943"></path> <path d="M32.537 24.307C32.3758 24.3352 32.2223 24.2274 32.194 24.0663C32.1658 23.9051 32.2736 23.7515 32.4347 23.7233C32.5959 23.6951 32.7495 23.8028 32.7777 23.964C32.8059 24.1252 32.6982 24.2787 32.537 24.307Z" fill="#D32943"></path> <path d="M33.7087 24.7032C33.7428 24.8978 33.8571 24.978 34.0516 24.9439C34.2462 24.9098 34.3264 24.7955 34.2923 24.601C34.2583 24.4064 34.1439 24.3262 33.9494 24.3603C33.7548 24.3944 33.6917 24.6059 33.7087 24.7032Z" fill="#D32943"></path> <path d="M34.3168 23.5941C34.1556 23.6224 34.0021 23.5146 33.9738 23.3534C33.9456 23.1923 34.0534 23.0387 34.2145 23.0105C34.3757 22.9822 34.5292 23.09 34.5575 23.2512C34.5857 23.4123 34.478 23.5659 34.3168 23.5941Z" fill="#D32943"></path> <path d="M45.7878 22.6872C45.8219 22.8818 45.9362 22.962 46.1308 22.9279C46.3253 22.8938 46.4055 22.7795 46.3714 22.585C46.3374 22.3904 46.223 22.3102 46.0285 22.3443C45.8339 22.3784 45.7537 22.4927 45.7878 22.6872Z" fill="#D32943"></path> <path d="M43.381 26.1167C43.4151 26.3113 43.5295 26.3915 43.724 26.3574C43.9186 26.3234 43.9988 26.209 43.9647 26.0145C43.9306 25.8199 43.8163 25.7397 43.6218 25.7738C43.4272 25.8079 43.347 25.9222 43.381 26.1167Z" fill="#D32943"></path> <path d="M47.5627 21.3737C47.5968 21.5682 47.7111 21.6485 47.9057 21.6144C48.1002 21.5803 48.1804 21.466 48.1463 21.2714C48.1123 21.0769 47.998 20.9967 47.8034 21.0307C47.7061 21.0478 47.5286 21.1791 47.5627 21.3737Z" fill="#D32943"></path> <path d="M50.051 21.3941C50.0851 21.5886 50.1994 21.6689 50.3939 21.6348C50.5885 21.6007 50.6687 21.4864 50.6346 21.2918C50.6005 21.0973 50.4862 21.017 50.2917 21.0511C50.1944 21.0682 50.0169 21.1995 50.051 21.3941Z" fill="#D32943"></path> <path d="M41.1014 23.408C40.9403 23.4362 40.7867 23.3284 40.7585 23.1673C40.7303 23.0061 40.838 22.8526 40.9992 22.8243C41.1603 22.7961 41.3139 22.9039 41.3421 23.065C41.3704 23.2262 41.2626 23.3797 41.1014 23.408Z" fill="#D32943"></path> <path d="M48.8762 23.1487C48.9102 23.3433 49.0246 23.4235 49.2191 23.3894C49.4137 23.3553 49.4939 23.241 49.4598 23.0465C49.4257 22.8519 49.3114 22.7717 49.1168 22.8058C48.9223 22.8399 48.8421 22.9542 48.8762 23.1487Z" fill="#D32943"></path> <path d="M39.0932 23.9605C38.932 23.9888 38.7784 23.881 38.7502 23.7198C38.7219 23.5587 38.8297 23.4051 38.9909 23.3769C39.1521 23.3486 39.3056 23.4564 39.3338 23.6176C39.3621 23.7787 39.2543 23.9323 39.0932 23.9605Z" fill="#D32943"></path> <path d="M40.6351 25.896C40.474 25.9242 40.3204 25.8165 40.2922 25.6553C40.2639 25.4941 40.3717 25.3406 40.5329 25.3124C40.6941 25.2841 40.8476 25.3919 40.8758 25.5531C40.9041 25.7142 40.7963 25.8678 40.6351 25.896Z" fill="#D32943"></path> <path d="M34.9691 27.8913C34.808 27.9195 34.6544 27.8118 34.6262 27.6506C34.5979 27.4894 34.7057 27.3359 34.8669 27.3077C35.028 27.2794 35.1816 27.3872 35.2098 27.5484C35.2381 27.7095 35.1303 27.8631 34.9691 27.8913Z" fill="#D32943"></path> <path d="M37.6508 24.3134C37.4896 24.3417 37.336 24.2339 37.3078 24.0727C37.2796 23.9115 37.3873 23.758 37.5485 23.7298C37.7097 23.7015 37.8632 23.8093 37.8915 23.9705C37.9197 24.1316 37.8119 24.2852 37.6508 24.3134Z" fill="#D32943"></path> <path d="M38.5189 25.2641C38.3578 25.2923 38.2042 25.1846 38.176 25.0234C38.1477 24.8622 38.2555 24.7087 38.4167 24.6805C38.5779 24.6522 38.7314 24.76 38.7596 24.9211C38.7879 25.0823 38.6801 25.2359 38.5189 25.2641Z" fill="#D32943"></path> <path d="M30.7372 26.6275C30.576 26.6557 30.4225 26.548 30.3942 26.3868C30.366 26.2256 30.4738 26.0721 30.6349 26.0439C30.7961 26.0156 30.9496 26.1234 30.9779 26.2845C31.0061 26.4457 30.8984 26.5993 30.7372 26.6275Z" fill="#D32943"></path> <path d="M26.3939 27.6348C26.2328 27.663 26.0792 27.5552 26.051 27.3941C26.0227 27.2329 26.1305 27.0794 26.2917 27.0511C26.4529 27.0229 26.6064 27.1306 26.6346 27.2918C26.6629 27.453 26.5551 27.6065 26.3939 27.6348Z" fill="#D32943"></path> <path d="M29.935 27.7706C29.7738 27.7989 29.6202 27.6911 29.592 27.5299C29.5637 27.3688 29.6715 27.2152 29.8327 27.187C29.9939 27.1588 30.1474 27.2665 30.1756 27.4277C30.2039 27.5888 30.0961 27.7424 29.935 27.7706Z" fill="#D32943"></path> <path d="M35.3283 24.2189C35.3624 24.4135 35.4767 24.4937 35.6713 24.4596C35.8658 24.4255 35.9461 24.3112 35.912 24.1167C35.8779 23.9221 35.7636 23.8419 35.569 23.876C35.4718 23.893 35.2942 24.0244 35.3283 24.2189Z" fill="#D32943"></path> <path d="M35.258 25.5346C35.2921 25.7292 35.4064 25.8094 35.601 25.7753C35.7955 25.7413 35.8757 25.6269 35.8417 25.4324C35.8076 25.2378 35.6933 25.1576 35.4987 25.1917C35.4014 25.2087 35.2239 25.3401 35.258 25.5346Z" fill="#D32943"></path> <path d="M36.3918 25.1357C36.4259 25.3302 36.5402 25.4104 36.7348 25.3764C36.9293 25.3423 37.0095 25.228 36.9754 25.0334C36.9414 24.8389 36.8271 24.7586 36.6325 24.7927C36.438 24.8268 36.3577 24.9411 36.3918 25.1357Z" fill="#D32943"></path> <path d="M36.5715 27.3097C36.6056 27.5043 36.7199 27.5845 36.9144 27.5504C37.109 27.5163 37.1892 27.402 37.1551 27.2075C37.121 27.0129 37.0067 26.9327 36.8122 26.9668C36.6176 27.0009 36.5374 27.1152 36.5715 27.3097Z" fill="#D32943"></path> <path d="M38.5173 26.9689C38.5514 27.1634 38.6657 27.2436 38.8602 27.2095C39.0548 27.1755 39.135 27.0611 39.1009 26.8666C39.0668 26.672 38.9525 26.5918 38.758 26.6259C38.5634 26.66 38.4832 26.7743 38.5173 26.9689Z" fill="#D32943"></path> <path d="M31.1589 28.4587C31.193 28.6532 31.3073 28.7334 31.5018 28.6994C31.6964 28.6653 31.7766 28.551 31.7425 28.3564C31.7084 28.1619 31.5941 28.0816 31.3996 28.1157C31.205 28.1498 31.1248 28.2641 31.1589 28.4587Z" fill="#D32943"></path> <path d="M46.1286 24.6328C46.1627 24.8273 46.277 24.9076 46.4716 24.8735C46.6661 24.8394 46.7463 24.7251 46.7123 24.5305C46.6782 24.336 46.5639 24.2557 46.3693 24.2898C46.1748 24.3239 46.0945 24.4382 46.1286 24.6328Z" fill="#D32943"></path> <path d="M28.3148 24.2446C28.1536 24.2728 28.0001 24.1651 27.9719 24.0039C27.9436 23.8427 28.0514 23.6892 28.2126 23.6609C28.3737 23.6327 28.5273 23.7405 28.5555 23.9016C28.5838 24.0628 28.476 24.2164 28.3148 24.2446Z" fill="#D32943"></path> <path d="M26.4618 23.9677C26.3006 23.9959 26.1471 23.8881 26.1188 23.727C26.0906 23.5658 26.1984 23.4123 26.3595 23.384C26.5207 23.3558 26.6743 23.4635 26.7025 23.6247C26.7307 23.7859 26.6229 23.9394 26.4618 23.9677Z" fill="#D32943"></path> <path d="M23.3939 23.6348C23.2327 23.663 23.0792 23.5553 23.051 23.3941C23.0227 23.2329 23.1305 23.0794 23.2917 23.0511C23.4528 23.0229 23.6064 23.1307 23.6346 23.2918C23.6629 23.453 23.5551 23.6065 23.3939 23.6348Z" fill="#D32943"></path> <path d="M26.3939 25.6348C26.2327 25.663 26.0792 25.5553 26.051 25.3941C26.0227 25.2329 26.1305 25.0794 26.2917 25.0511C26.4528 25.0229 26.6064 25.1307 26.6346 25.2918C26.6629 25.453 26.5551 25.6065 26.3939 25.6348Z" fill="#D32943"></path> <path d="M30.9339 24.8886C30.7728 24.9169 30.6192 24.8091 30.591 24.6479C30.5628 24.4868 30.6705 24.3332 30.8317 24.305C30.9929 24.2767 31.1464 24.3845 31.1747 24.5457C31.2029 24.7068 31.0951 24.8604 30.9339 24.8886Z" fill="#D32943"></path> <path d="M29.475 25.1442C29.3138 25.1725 29.1603 25.0647 29.132 24.9035C29.1038 24.7424 29.2115 24.5888 29.3727 24.5606C29.5339 24.5324 29.6874 24.6401 29.7157 24.8013C29.7439 24.9625 29.6361 25.116 29.475 25.1442Z" fill="#D32943"></path> <path d="M28.0204 26.0006C27.8592 26.0288 27.7057 25.921 27.6774 25.7599C27.6492 25.5987 27.7569 25.4452 27.9181 25.4169C28.0793 25.3887 28.2328 25.4964 28.2611 25.6576C28.2893 25.8188 28.1815 25.9723 28.0204 26.0006Z" fill="#D32943"></path> <path d="M24.3939 26.6348C24.2327 26.663 24.0792 26.5552 24.051 26.3941C24.0227 26.2329 24.1305 26.0794 24.2917 26.0511C24.4528 26.0229 24.6064 26.1306 24.6346 26.2918C24.6629 26.453 24.5551 26.6065 24.3939 26.6348Z" fill="#D32943"></path> <path d="M23.4169 24.9022C23.2557 24.9304 23.1022 24.8226 23.0739 24.6615C23.0457 24.5003 23.1534 24.3468 23.3146 24.3185C23.4758 24.2903 23.6293 24.398 23.6576 24.5592C23.6858 24.7204 23.578 24.8739 23.4169 24.9022Z" fill="#D32943"></path> <path d="M31.5194 23.0815C31.3582 23.1097 31.2047 23.002 31.1765 22.8408C31.1482 22.6796 31.256 22.5261 31.4171 22.4978C31.5783 22.4696 31.7319 22.5774 31.7601 22.7385C31.7883 22.8997 31.6806 23.0533 31.5194 23.0815Z" fill="#D32943"></path> <path d="M29.9003 23.5658C29.7391 23.594 29.5856 23.4863 29.5573 23.3251C29.5291 23.1639 29.6369 23.0104 29.798 22.9822C29.9592 22.9539 30.1127 23.0617 30.141 23.2229C30.1692 23.384 30.0615 23.5376 29.9003 23.5658Z" fill="#D32943"></path> </svg> 