<?xml version="1.0" encoding="UTF-8"?> <svg xmlns="http://www.w3.org/2000/svg" width="74" height="74" viewBox="0 0 74 74" fill="none"> <path d="M29.8052 51.0333C29.9693 51.799 29.4771 52.51 28.766 52.6741L24.828 53.5492C24.0623 53.7133 23.3513 53.221 23.1872 52.51L21.601 45.2903C21.4369 44.5246 21.9292 43.8136 22.6402 43.6495L26.5782 42.7744C27.344 42.6103 28.055 43.1025 28.2191 43.8136L29.8052 51.0333Z" fill="#FFD0AB"></path> <path d="M53.3243 45.9468C53.4883 46.7125 52.9961 47.4236 52.2851 47.5877L48.347 48.4628C47.5813 48.6269 46.8703 48.1346 46.7062 47.4236L45.1201 40.2039C44.956 39.4381 45.4482 38.7271 46.1593 38.563L50.0973 37.6879C50.863 37.5238 51.574 38.0161 51.7381 38.7271L53.3243 45.9468Z" fill="#FFD0AB"></path> <path d="M28.2187 49.3919C26.4138 54.3691 21.969 63.7494 20 69.0001C21.5861 70.094 35.1869 75.5238 40 73.5001C40.4923 68.9604 41.6736 57.6508 42.6034 54.1503L28.2187 49.3919Z" fill="#FFD0AB"></path> <path d="M53.7652 52.8935C54.5 55.9999 50.5 58.9999 50.5 58.9999C50.5 58.9999 44.7141 63.8185 39 62.4999C35.3452 61.6565 31.2022 58.8512 29.5 56.4999C23.6411 48.4068 21.55 31.6173 21.55 31.6173C21.0578 29.3748 22.4798 27.187 24.7223 26.6947L42.9904 22.7567C45.2328 22.2644 47.4206 23.6865 47.9129 25.929L53.7652 52.8935Z" fill="#FED7B8"></path> <path d="M49.114 31.4523C49.114 31.4523 50.9736 28.3347 51.083 26.5845C51.1377 25.7094 49.6609 22.8105 47.3637 22.0995C45.0666 21.3885 43.8633 23.9044 43.8633 23.9044C43.8633 23.9044 47.4731 24.9983 47.8013 25.6547C48.1295 26.311 49.114 31.4523 49.114 31.4523Z" fill="#363B3E"></path> <path d="M22.2582 44.1963C22.2582 44.1963 17.2263 34.4059 17.0622 31.2336C16.8981 28.0613 16.7887 25.8735 20.4533 24.7249C25.9227 23.0294 26.2509 24.178 28.5481 21.8808C30.8999 19.5836 34.838 14.497 36.4241 13.7313C39.0495 12.4186 43.6438 12.4186 44.9565 17.6146C45.941 21.4432 48.5663 21.8808 48.5116 22.0449C48.4022 22.5372 47.4724 23.2482 45.8863 24.5062C41.3466 28.1707 38.4478 29.3193 34.3457 29.1552C30.2436 28.9911 22.5316 28.3895 22.3129 31.3977C22.0941 34.4606 24.3366 43.1571 24.1725 43.9228C24.0084 44.6885 23.0786 44.5244 22.2582 44.1963Z" fill="#363B3E"></path> <circle cx="37" cy="37" r="36.5" stroke="black"></circle> <g clip-path="url(#clip0_200_5686)"> <path d="M25.0874 47.507L27.1268 53.0816C27.1268 53.0816 29.0293 56.6415 30.1851 57.7903C31.2049 58.8039 37.2878 63.0004 40.8933 63.0003C48.0318 63.0002 54.0002 56.4999 54.0002 53.9999C53.5002 51.9999 53.5002 50.4999 52.5002 47.4999C52.4504 47.5 50.9044 50.5747 50.9044 50.5747C50.9044 50.5747 47.5625 51.7271 42.9335 52.5002C35.4673 53.7752 35.8054 54.8065 31.8297 53.2235C28.3916 51.8546 26.1072 49.0274 25.0874 47.507Z" fill="#363B3E" fill-opacity="0.24" stroke="#D32943" stroke-width="0.2" stroke-linecap="round" stroke-dasharray="1.4 1.4"></path> <path d="M40.9794 55.4955C40.7681 55.4499 40.7732 55.1468 40.9859 55.1083L46.7927 54.0579C47.3066 53.9649 47.748 54.4281 47.6302 54.9369V54.9369C47.554 55.2666 47.2604 55.5 46.9221 55.5L44 55.5L41.0211 55.5C41.0071 55.5 40.9931 55.4985 40.9794 55.4955V55.4955Z" fill="#FFD0AB"></path> </g> <defs> <clipPath id="clip0_200_5686"> <rect width="32.5901" height="26.8442" fill="white" transform="translate(20.7139 45.9062) rotate(-15.399)"></rect> </clipPath> </defs> </svg> 