<?xml version="1.0" encoding="UTF-8"?> <svg xmlns="http://www.w3.org/2000/svg" width="74" height="74" viewBox="0 0 74 74" fill="none"> <path d="M48.915 34.5299C48.915 39.0406 50.8592 42.7185 53.2199 42.7185C55.5806 42.7185 57.5247 39.0406 57.5247 34.5299C57.5247 30.0193 55.5806 26.3414 53.2199 26.3414C50.8592 26.3414 48.915 30.0193 48.915 34.5299Z" fill="#363B3E"></path> <path d="M41 69.5C41 73.8025 42.2471 73.5 37.9423 73.5C33.6374 73.5 30.5 73 27.5 72L30.1658 58.9555C30.1658 54.6531 33.6374 51.1833 37.9423 51.1833C42.2471 51.1833 45.7187 54.6531 45.7187 58.9555C45.7187 58.9555 41 65.1975 41 69.5Z" fill="#FFD0AB"></path> <path d="M53.9133 51.392C53.9133 59.4418 47.3865 65.8955 39.4017 65.8955H37.2493C29.1951 65.8955 22.7378 59.3724 22.7378 51.392V34.5291C22.7378 26.4794 29.2645 20.0257 37.2493 20.0257H39.4017C47.456 20.0257 53.9133 26.5488 53.9133 34.5291V51.392Z" fill="#FED7B8"></path> <path d="M26.9019 36.4022C26.9019 37.3737 24.194 40.9128 24.0551 41.815C23.4997 46.8808 26.763 50.4893 24.194 50.4893C21.2083 50.4893 16.0703 42.7865 16.0703 36.4022C16.0703 30.0179 18.5005 24.8133 21.4861 24.8133C24.4717 24.7439 26.9019 29.9485 26.9019 36.4022Z" fill="#363B3E"></path> <path d="M23.711 48.4093C24.6136 51.3932 23.7804 54.3078 21.7668 54.9324C19.7533 55.5569 17.3925 53.6139 16.4899 50.6993C15.5873 47.7153 16.4205 44.8008 18.434 44.1762C20.3782 43.4823 22.7389 45.4253 23.711 48.4093Z" fill="#FED7B8"></path> <path d="M22.3191 49.1705C22.8746 50.9747 22.3886 52.779 21.2776 53.126C20.0973 53.4729 18.7086 52.2932 18.1532 50.489C17.5977 48.6847 18.0837 46.8805 19.1946 46.5335C20.375 46.1865 21.7637 47.3662 22.3191 49.1705Z" fill="#FFD0AB"></path> <path d="M54.6075 24.6743C54.6075 29.4625 47.1781 33.3486 38.013 33.3486C28.8478 33.3486 21.4185 29.4625 21.4185 24.6743C21.4185 19.8861 28.8478 16 38.013 16C47.1781 16 54.6075 19.9555 54.6075 24.6743Z" fill="#363B3E"></path> <path d="M36.602 56.5816C36.3981 55.5748 37.0696 54.5995 38.0829 54.4306L42.2728 53.7323C43.8233 53.4739 45.1818 54.7888 44.9741 56.3469V56.3469C44.856 57.2323 44.2422 57.9876 43.3558 58.0981C41.5587 58.3223 39.3941 58.1346 38.0698 57.9706C37.3292 57.8789 36.75 57.313 36.602 56.5816V56.5816Z" fill="#FBB177"></path> <path d="M32.8948 56C36.167 51.1206 45.2072 50.669 48.2305 55.7064C49.9492 58.5701 47.8354 57.2336 47.8354 57.2336C47.8354 57.2336 42.9927 56.5228 40.4784 56.6194C37.8131 56.7219 34.3949 57.2336 34.3949 57.2336C34.3949 57.2336 31.3312 58.3317 32.8948 56Z" fill="#CEB29B" stroke="#D32943" stroke-width="0.132135" stroke-dasharray="0.92 0.92"></path> <circle cx="37" cy="37" r="36.5" stroke="black"></circle> </svg> 