<?xml version="1.0" encoding="UTF-8"?> <svg xmlns="http://www.w3.org/2000/svg" width="74" height="75" viewBox="0 0 74 75" fill="none"> <path d="M44.9998 69C45.5882 73.262 46.6604 72.5816 42.3961 73.1704C38.1317 73.7592 34.9554 73.693 31.8468 73.1127L30.9998 54.5C30.4113 50.238 35.0794 51.6523 39.3438 51.0635C43.6082 50.4747 44.4113 48.738 44.9998 53C44.9998 53 44.4113 64.738 44.9998 69Z" fill="#FFD0AB"></path> <path d="M18.5044 40.4085L24.1475 25.3698L36.7376 26.8746L47.0961 25.3698L52.3118 33.8832L57.6298 40.4085C57.6298 40.4085 48.5303 64.452 40.9331 65.543C36.7367 66.1456 39.4816 66.1591 35.29 65.543C26.9331 64.3148 18.5044 40.4085 18.5044 40.4085Z" fill="#FED7B8"></path> <path d="M22.2659 49.0707C22.2659 49.0707 18.4921 45.3953 18.3606 44.3441C17.9843 41.3344 13.8754 40.6914 15.118 34.3988C15.87 30.5908 20.0087 25.746 20.0087 25.746C20.0087 25.746 23.1202 16.0444 28.2852 15.2123C30.4802 14.8586 31.7081 15.8475 33.9283 15.9647C37.6079 16.1588 39.7375 14.4089 43.3335 15.2123C48.6406 16.3979 50.5387 19.3062 54.6196 22.9003C64.2578 31.3891 54.6196 47.7299 54.6196 47.7299C54.6196 47.7299 56.2785 42.8293 53.4909 40.0418C51.2337 37.7845 50.4813 29.5081 47.0956 29.5081C45.1856 29.5081 44.4484 30.9878 42.5811 31.3891C38.6369 32.2367 36.419 28.9506 32.4235 29.5081C30.1228 29.8291 28.6884 30.064 26.7804 31.3891C23.4342 33.7132 26.4051 36.2796 23.0188 40.7942C21.2469 43.1565 22.2659 49.0707 22.2659 49.0707Z" fill="#363B3E"></path> <path d="M29.8011 39.0975C28.8812 39.4727 28.5181 40.9814 28.5181 40.9814C28.5181 40.9814 30.2884 39.9577 31.5974 39.6357C33.4613 39.177 36.473 40.1739 36.473 40.1739L36.7296 39.3666C36.7296 39.3666 34.4201 37.2137 29.8011 39.0975Z" fill="#CEB29B" stroke="#D32943" stroke-width="0.150482" stroke-dasharray="1.05 1.05"></path> <path d="M46.7975 39.0975C47.7174 39.4727 48.0806 40.9814 48.0806 40.9814C48.0806 40.9814 46.3102 39.9577 45.0012 39.6357C43.1373 39.177 40.1257 40.1739 40.1257 40.1739L39.8691 39.3666C39.8691 39.3666 42.1785 37.2137 46.7975 39.0975Z" fill="#CEB29B" stroke="#D32943" stroke-width="0.150482" stroke-dasharray="1.05 1.05"></path> <path d="M25.9477 49.8924C26.6268 52.1376 25.9999 54.3305 24.4848 54.8004C22.9698 55.2704 21.1936 53.8084 20.5144 51.6154C19.8353 49.3703 20.4622 47.1773 21.9772 46.7074C23.44 46.1853 25.2163 47.6472 25.9477 49.8924Z" fill="#FED7B8"></path> <path d="M55.0988 52.063C53.9914 54.1308 51.9975 55.2381 50.5939 54.4991C49.1903 53.7601 48.9681 51.4703 50.0385 49.4394C51.1459 47.3716 53.1398 46.2643 54.5434 47.0033C55.9469 47.6684 56.1692 49.9582 55.0988 52.063Z" fill="#FED7B8"></path> <circle cx="37" cy="37" r="36.5" stroke="black"></circle> </svg> 