<?xml version="1.0" encoding="UTF-8"?> <svg xmlns="http://www.w3.org/2000/svg" width="74" height="74" viewBox="0 0 74 74" fill="none"> <path d="M42.6899 65.4659C42.6899 73.5 46.2227 72.3191 38.5005 73.5C31.9447 74.5025 24.5005 71.5 24.5005 71.5L25.7291 55.2955C25.7291 50.6125 33.1352 49 36.5398 49C39.9443 49 42.6899 52.7766 42.6899 57.4595V65.4659Z" fill="#FFD0AB"></path> <path d="M53.1211 49.6782C53.1211 58.4076 49.0002 66.5001 43.0002 65.4062C43.0002 65.4062 37.9619 64.7424 35.0002 63.5001C25.1608 59.373 19.5005 49.6543 19.5005 41.0001L25.2651 31.3915C25.2651 22.6621 29.8659 16.5001 37.0005 16.5001L39.0005 17.4999C46.1971 17.4999 53.1211 22.7373 53.1211 31.3915V41.0001L55.0005 49.0001L53.1211 49.6782Z" fill="#FED7B8"></path> <path d="M40.3086 37.0704C40.3086 38.4757 34.5053 43.595 34.2077 44.8999C33.0172 52.2276 36.529 48.5 31.0232 48.5C24.6247 48.5 20.9031 48.5 18.5953 38.5C15.5951 25.5 21.5721 19.3419 28.0002 17.5C34.3988 17.3996 40.3086 27.7351 40.3086 37.0704Z" fill="#363B3E"></path> <path d="M38.5936 42.299C39.5736 45.5388 38.6689 48.7032 36.4827 49.3813C34.2965 50.0594 31.7334 47.9498 30.7534 44.7854C29.7734 41.5456 30.678 38.3812 32.8642 37.7031C34.975 36.9496 37.5381 39.0592 38.5936 42.299Z" fill="#FED7B8"></path> <path d="M37.0823 43.1254C37.6854 45.0843 37.1577 47.0432 35.9515 47.42C34.67 47.7967 33.1623 46.5158 32.5592 44.5569C31.9561 42.598 32.4838 40.639 33.69 40.2623C34.9715 39.8856 36.4792 41.1664 37.0823 43.1254Z" fill="#FFD0AB"></path> <path d="M53.0005 28.5C53.0005 33.2594 47.5005 18.7558 39.977 32C30.6362 32 23.0645 28.3815 23.0645 23.6221C23.0645 18.8627 28.6597 15.9998 38.0005 15.9998C47.3413 15.9998 53.0005 23.8096 53.0005 28.5Z" fill="#363B3E"></path> <path d="M32.8194 29.4932C30.4491 31.9635 27.1377 36.1693 27.1377 36.1693C27.1377 36.1693 28.5579 30.8513 30.8308 28.3569C33.273 25.6766 38.9273 23.8115 38.9273 23.8115C38.9273 23.8115 35.075 27.1426 32.8194 29.4932Z" fill="#FED7B8" stroke="#FED7B8" stroke-width="0.281354"></path> <circle cx="26.2855" cy="32.9017" r="0.568171" fill="#FED7B8"></circle> <circle cx="28.2742" cy="29.4929" r="0.568171" fill="#FED7B8"></circle> <circle cx="30.8314" cy="26.6519" r="0.568171" fill="#FED7B8"></circle> <circle cx="33.1033" cy="24.6634" r="0.568171" fill="#FED7B8"></circle> <circle cx="35.3758" cy="23.5269" r="0.568171" fill="#FED7B8"></circle> <circle cx="39.3533" cy="25.5157" r="0.568171" fill="#FED7B8"></circle> <circle cx="37.0804" cy="27.5041" r="0.568171" fill="#FED7B8"></circle> <circle cx="35.0921" cy="29.4929" r="0.568171" fill="#FED7B8"></circle> <circle cx="33.1033" cy="31.7654" r="0.568171" fill="#FED7B8"></circle> <circle cx="31.115" cy="33.754" r="0.568171" fill="#FED7B8"></circle> <circle cx="29.41" cy="36.0268" r="0.568171" fill="#FED7B8"></circle> <line x1="26.3622" y1="33.0665" x2="27.712" y2="33.9386" stroke="#FED7B8" stroke-width="0.284086"></line> <line x1="28.0346" y1="35.0154" x2="29.3844" y2="35.8875" stroke="#FED7B8" stroke-width="0.284086"></line> <line x1="29.8793" y1="33.0224" x2="31.2291" y2="33.8945" stroke="#FED7B8" stroke-width="0.284086"></line> <line x1="28.1816" y1="29.406" x2="29.5314" y2="30.2781" stroke="#FED7B8" stroke-width="0.284086"></line> <line x1="30.5429" y1="26.5278" x2="31.8927" y2="27.3999" stroke="#FED7B8" stroke-width="0.284086"></line> <line x1="31.7983" y1="30.6612" x2="33.1481" y2="31.5333" stroke="#FED7B8" stroke-width="0.284086"></line> <line x1="33.7167" y1="28.5205" x2="35.0665" y2="29.3926" stroke="#FED7B8" stroke-width="0.284086"></line> <line x1="33.0229" y1="24.726" x2="34.1799" y2="25.8413" stroke="#FED7B8" stroke-width="0.284086"></line> <line x1="35.2167" y1="23.447" x2="36.4713" y2="24.7017" stroke="#FED7B8" stroke-width="0.284086"></line> <line x1="38.1683" y1="24.3325" x2="39.423" y2="25.5872" stroke="#FED7B8" stroke-width="0.284086"></line> <line x1="35.8802" y1="26.3993" x2="37.1349" y2="27.6539" stroke="#FED7B8" stroke-width="0.284086"></line> <circle cx="37" cy="37" r="36.5" stroke="black"></circle> </svg> 