<?xml version="1.0" encoding="UTF-8"?> <svg xmlns="http://www.w3.org/2000/svg" width="74" height="74" viewBox="0 0 74 74" fill="none"> <path d="M53.5237 26.1312C55.0277 29.9049 56.6337 35.0155 57.4275 41.2215C58.3187 48.1795 57.8731 54.1163 57.2232 58.41C50.8362 62.5365 44.4537 63.2513 41.3345 60.4477C38.6423 58.0294 39.06 53.6104 39.3989 50.4911C40.6568 38.8635 48.622 30.4294 53.5237 26.1312Z" fill="#363B3E"></path> <path d="M44.4077 44.0622C43.9528 46.4481 43.4979 48.8339 43.043 51.2198C43.043 51.2245 43.0384 51.2291 43.0384 51.2384C42.7831 52.5891 42.5278 53.9352 42.2678 55.286C42.2586 55.3371 42.2493 55.3881 42.24 55.4392C41.553 59.0458 40.866 62.6571 40.1791 66.2638C38.7055 73.9999 38.508 73.3063 34.6089 72.9999C31.7171 72.7725 24.5005 71.9999 23.0005 69.9999L32.7847 48.2955L33.8848 47.8963L34.6089 47.6317L44.4077 44.0622Z" fill="#FFD0AB"></path> <path d="M43.043 51.2151C43.043 51.2197 43.0383 51.2244 43.0383 51.2337C42.783 52.5844 42.5277 53.9305 42.2678 55.2813C42.2585 55.3323 42.2492 55.3834 42.2399 55.4344C41.4091 55.4205 40.4343 55.2999 39.3992 54.9517C35.0916 53.4989 33.4577 49.3166 33.1792 48.56C33.4113 48.3372 33.6434 48.1144 33.8755 47.8916C34.0426 47.7338 34.2097 47.5713 34.3722 47.4135C34.4418 47.4831 34.5161 47.5527 34.595 47.627C35.5233 48.495 37.1293 49.7483 39.4549 50.5328C40.8242 50.9877 42.0682 51.1594 43.043 51.2151Z" fill="#FED7B8"></path> <path d="M55.4828 38.3205C55.0511 43.7188 52.1361 52.0647 46.1854 53.8147C35.7228 56.8968 22.7073 37.5778 24.4898 35.2198C24.9029 34.6721 25.808 35.4426 27.5905 35.2198C34.762 34.3239 35.1705 18.5095 41.7618 18.6905C47.5268 18.853 51.4909 24.6273 52.3821 25.9223C55.9748 31.1583 55.6174 36.6309 55.4828 38.3205Z" fill="#FED7B8"></path> <path d="M55.6826 33.2009C55.302 32.6578 54.81 32.2958 54.2947 32.0034C53.7749 31.7156 53.2225 31.5114 52.6515 31.3907C52.0806 31.2653 51.4865 31.2236 50.897 31.2793C50.3075 31.3303 49.7087 31.4835 49.1424 31.8177C49.0913 32.3283 49.2306 32.5882 49.3466 32.7229C49.7783 33.2288 50.5535 32.8296 52.3034 33.0246C53.06 33.1081 53.1389 33.2056 53.9141 33.2567C54.4665 33.2892 55.0328 33.2937 55.6826 33.2009Z" fill="#CEB29B" stroke="#D32943" stroke-width="0.12553" stroke-dasharray="0.88 0.88"></path> <path d="M36.5813 33.3259C36.9851 32.8013 37.4911 32.4579 38.0156 32.184C38.5448 31.9194 39.1064 31.7384 39.6866 31.6362C40.2622 31.5341 40.8564 31.5156 41.4459 31.5991C42.0354 31.678 42.6249 31.8545 43.1773 32.2072C43.2051 32.7225 43.0566 32.9731 42.9359 33.1031C42.4856 33.5904 41.7244 33.1588 39.9698 33.2794C39.2086 33.3305 39.1296 33.4233 38.3545 33.4465C37.7928 33.4605 37.2265 33.4465 36.5813 33.3259Z" fill="#CEB29B" stroke="#D32943" stroke-width="0.12553" stroke-dasharray="0.88 0.88"></path> <path d="M47.2993 43.6493C48.8033 42.4517 48.8264 41.8994 48.2741 40.2283C47.7774 38.7337 47.4386 35.7027 47.4339 35.6702L46.7516 35.7537C46.7655 35.879 47.1044 38.8962 47.6243 40.4651C48.0977 41.8947 48.107 42.0851 46.8862 43.0599L47.2993 43.6493Z" fill="#FED7B8"></path> <path d="M53.1476 20.9325C56.2343 24.9569 56.6382 29.4223 56.6846 31.5065C54.4333 31.279 47.856 24.6552 42.4251 24.6413C39.4126 25.2401 33.7543 32.6762 33.7868 32.1238V35.2245C33.7868 35.2245 27.59 32.1238 27.59 38.3252C27.59 38.9008 27.5761 40.8411 28.7691 41.6116C29.6742 42.1964 30.5051 41.6116 31.5727 42.41C33.2344 43.4776 32.5753 45.7334 32.5103 46.62C34.8173 51.5124 34.1906 57.0083 31.1503 60.0486C26.9448 64.2541 18.0002 63.9013 12.8153 57.1986C16.3384 31.7989 27.3115 14.4897 38.0758 14.0116C41.3343 13.8631 48.659 15.0793 53.1476 20.9325Z" fill="#363B3E"></path> <path d="M43.4192 47.3813C43.5677 47.7805 43.8184 48.1889 44.2361 48.5231C45.3177 49.3865 46.6452 49.0291 46.9376 48.9502C49.0078 48.3932 49.6299 46.0398 49.6577 45.9238C49.3653 46.0677 49.045 46.1977 48.6922 46.3044C48.6458 46.3183 48.5994 46.3323 48.553 46.3462C46.2599 46.9914 44.1897 46.2023 43.2289 45.7474C43.2196 45.7984 43.1175 46.5736 43.4192 47.3813Z" fill="#FED7B8"></path> <circle cx="37" cy="37" r="36.5" stroke="black"></circle> </svg> 