<?xml version="1.0" encoding="UTF-8"?> <svg xmlns="http://www.w3.org/2000/svg" width="74" height="77" viewBox="0 0 74 77" fill="none"> <path d="M27.0001 71.8259C27.6214 72.5065 30.9892 72.7205 33.7358 73.3284C37.6803 74.1967 40.9291 73.384 41.5 73C41.9706 71.0488 42.2654 67.9279 42.736 65.9766C42.8913 64.8607 43.0466 63.7448 43.2056 62.6279L43.9705 57.1478L30.7856 55.3054C30.0798 60.3307 27.7032 66.8051 27.0001 71.8259Z" fill="#FED7B8"></path> <path d="M34.4151 59.3385C34.4994 59.7394 35.5111 64.2622 39.4004 65.6574C40.6957 66.1228 41.9005 66.0926 42.7394 65.9757L43.209 62.627C42.1958 62.6251 40.8135 62.5103 39.2564 62.0303C36.9484 61.3204 35.3334 60.1359 34.4151 59.3385Z" fill="#FFD0AB"></path> <path d="M58.1758 45.5832C59.4828 48.6214 58.7815 51.7088 58.2681 53.9602C58.0152 55.0715 57.0244 58.9757 53.7829 62.6282C53.0285 63.4772 52.6531 63.9012 52.2 64.2075C47.1381 67.6046 27.7337 59.7662 27.187 46.3589C26.8554 38.1807 33.5767 28.8482 42.2329 28.1306C49.4799 27.5287 57.2853 32.9765 57.3088 37.0017C57.3185 38.4893 56.271 40.572 57.211 43.5198C57.5244 44.5025 57.79 44.6893 58.1758 45.5832Z" fill="#FED7B8"></path> <path d="M51.8405 26.8266C54.5937 29.3271 55.7633 32.356 56.2789 34.2085C50.3251 33.6014 47.7963 34.999 46.6098 36.4914C44.2393 39.4715 44.762 45.9196 44.762 45.9196L41.6371 45.9984C41.6371 45.9984 39.659 42.4238 38.3365 42.8051C38.2369 42.8357 37.915 42.9565 37.4267 44.281C36.8736 45.7808 36.2634 47.4267 36.8125 49.0161C37.4196 50.7787 38.8508 50.7456 39.3069 51.9595C39.7434 53.1287 39.1844 55.2384 34.4159 59.3423C33.9429 59.2727 23.6127 57.551 19.8414 48.1036C15.992 38.4653 22.6711 30.0527 23.4057 29.1589C28.2028 23.3222 35.13 22.0437 39.7751 21.9196C40.5777 21.897 42.6144 22.1984 45.4675 23.2898C47.2872 23.9882 49.6371 24.8256 51.8405 26.8266Z" fill="#363B3E"></path> <path d="M41.7733 47.8558C41.7733 47.8558 39.6929 45.9835 39.094 47.226C38.4915 48.4694 40.2048 49.4312 40.2048 49.4312C40.2727 49.3399 40.3442 49.2475 40.4121 49.1561C39.6184 48.7373 39.1998 48.0948 39.3308 47.6208C39.3904 47.4123 39.5765 47.1583 39.8387 47.088C40.0579 47.0293 40.2571 47.1261 40.6375 47.3245C40.8432 47.4311 41.1175 47.5925 41.4202 47.831C41.5412 47.8371 41.6585 47.8442 41.7733 47.8558Z" fill="#FFD0AB"></path> <path d="M33.5995 24.2632C33.5995 24.2632 28.6417 15.5033 20.3043 17.8991C11.9668 20.2948 13.7079 32.2962 22.059 33.1273C30.4101 33.9585 33.5995 24.2632 33.5995 24.2632Z" fill="#363B3E"></path> <circle cx="37" cy="37" r="36.5" stroke="black"></circle> <path d="M37.1021 33.5345C34.7318 36.0047 31.4204 40.2105 31.4204 40.2105C31.4204 40.2105 32.8406 34.8926 35.1135 32.3982C37.5557 29.7179 43.21 27.8528 43.21 27.8528C43.21 27.8528 39.3577 31.1839 37.1021 33.5345Z" fill="#FED7B8" stroke="#FED7B8" stroke-width="0.281354"></path> <circle cx="30.5682" cy="36.943" r="0.568171" fill="#FED7B8"></circle> <circle cx="32.5569" cy="33.5342" r="0.568171" fill="#FED7B8"></circle> <circle cx="35.1141" cy="30.6932" r="0.568171" fill="#FED7B8"></circle> <circle cx="37.386" cy="28.7047" r="0.568171" fill="#FED7B8"></circle> <circle cx="39.6585" cy="27.5682" r="0.568171" fill="#FED7B8"></circle> <circle cx="43.636" cy="29.5569" r="0.568171" fill="#FED7B8"></circle> <circle cx="41.3631" cy="31.5454" r="0.568171" fill="#FED7B8"></circle> <circle cx="39.3748" cy="33.5342" r="0.568171" fill="#FED7B8"></circle> <circle cx="37.386" cy="35.8067" r="0.568171" fill="#FED7B8"></circle> <circle cx="35.3978" cy="37.7952" r="0.568171" fill="#FED7B8"></circle> <circle cx="33.6927" cy="40.0681" r="0.568171" fill="#FED7B8"></circle> <line x1="30.645" y1="37.1077" x2="31.9948" y2="37.9799" stroke="#FED7B8" stroke-width="0.284086"></line> <line x1="32.3173" y1="39.0567" x2="33.6671" y2="39.9288" stroke="#FED7B8" stroke-width="0.284086"></line> <line x1="34.162" y1="37.0637" x2="35.5118" y2="37.9358" stroke="#FED7B8" stroke-width="0.284086"></line> <line x1="32.4643" y1="33.4473" x2="33.8141" y2="34.3194" stroke="#FED7B8" stroke-width="0.284086"></line> <line x1="34.8256" y1="30.569" x2="36.1754" y2="31.4412" stroke="#FED7B8" stroke-width="0.284086"></line> <line x1="36.081" y1="34.7025" x2="37.4308" y2="35.5746" stroke="#FED7B8" stroke-width="0.284086"></line> <line x1="37.9994" y1="32.5618" x2="39.3492" y2="33.4339" stroke="#FED7B8" stroke-width="0.284086"></line> <line x1="37.3056" y1="28.7673" x2="38.4626" y2="29.8826" stroke="#FED7B8" stroke-width="0.284086"></line> <line x1="39.4994" y1="27.4883" x2="40.754" y2="28.743" stroke="#FED7B8" stroke-width="0.284086"></line> <line x1="42.451" y1="28.3738" x2="43.7057" y2="29.6285" stroke="#FED7B8" stroke-width="0.284086"></line> <line x1="40.1629" y1="30.4405" x2="41.4176" y2="31.6952" stroke="#FED7B8" stroke-width="0.284086"></line> </svg> 