<?xml version="1.0" encoding="UTF-8"?> <svg xmlns="http://www.w3.org/2000/svg" width="90" height="90" viewBox="0 0 90 90" fill="none"> <path d="M22.9998 28.5C21.0759 33.3277 23 46.5 23 46.5C23 46.5 20.4521 60.1829 21.2834 65.6757C29.4543 70.9546 36.7524 71.6947 40.7428 68.1081C44.1869 65.0144 42.3798 63.8522 41.9463 59.8618C40.3371 44.9869 29.2705 33.9987 22.9998 28.5Z" fill="#363B3E"></path> <path d="M35.5396 51.6372C36.1215 54.6894 36.7034 57.7416 37.2854 60.7938C37.2854 60.7997 37.2913 60.8057 37.2913 60.8176C37.6179 62.5455 37.9445 64.2676 38.277 65.9956C38.2889 66.0609 38.3008 66.1262 38.3127 66.1915C39.1915 70.8054 37.2913 83.9464 36.4868 88.1757C36.6411 88.3894 45.4206 89.1757 50.4086 88.7838C54.108 88.4928 60.8111 87.5675 58.9868 84.527L50.4086 57.0527L49.0012 56.5421L48.0749 56.2036L35.5396 51.6372Z" fill="#FFD0AB"></path> <path d="M37.2847 60.788C37.2847 60.7939 37.2906 60.7999 37.2906 60.8118C37.6172 62.5398 37.9438 64.2618 38.2764 65.9898C38.2882 66.0551 38.3001 66.1204 38.312 66.1857C39.3749 66.1679 40.6219 66.0136 41.9461 65.5682C47.4566 63.7096 49.5468 58.3593 49.9031 57.3914C49.6062 57.1064 49.3093 56.8213 49.0124 56.5363C48.7986 56.3344 48.5849 56.1266 48.377 55.9247C48.288 56.0138 48.193 56.1029 48.092 56.1979C46.9044 57.3083 44.8498 58.9116 41.8748 59.9151C40.1231 60.4971 38.5317 60.7168 37.2847 60.788Z" fill="#FED7B8"></path> <path d="M21.3708 44.292C21.923 51.198 25.6521 61.8747 33.2648 64.1133C46.6493 68.0562 63.2997 43.3419 61.0194 40.3254C60.4909 39.6247 64.7162 37.4626 64.7162 37.4626C64.7162 37.4626 56.7614 21.1342 40.433 19.4595C33.0578 19.6673 25.6634 25.7576 24.5233 27.4143C19.9272 34.1125 21.1986 42.1305 21.3708 44.292Z" fill="#FED7B8"></path> <path d="M31.8397 51.1091C29.9158 49.5771 29.8861 48.8704 30.5927 46.7327C31.2281 44.8207 31.6616 40.9431 31.6675 40.9016L32.5404 41.0084C32.5226 41.1687 32.0891 45.0285 31.4241 47.0356C30.8184 48.8645 30.8065 49.108 32.3682 50.355L31.8397 51.1091Z" fill="#FED7B8"></path> <path d="M49.1257 36.3647C51.9582 37.0438 49.2845 34.7964 49.2251 37.4626C52.1051 37.1716 49.8109 36.4573 49.1257 36.3647V40.3313C49.1257 40.3313 57.0531 36.3647 57.0531 44.298C57.0531 45.0343 57.0708 47.5164 55.5448 48.5022C54.3868 49.2504 53.3239 48.5022 51.9582 49.5235C49.8323 50.8893 50.6755 53.7752 50.7586 54.9093C47.8074 61.1681 46.8689 64.5528 50.7584 68.4423C56.1383 73.8222 57.8298 68.4423 68.7162 68.4423C73.9997 31.5 44.5 2.99998 22.5 29C18.3314 28.81 51.3185 29.9263 49.1257 36.3647Z" fill="#363B3E"></path> <path d="M36.8045 55.883C36.6145 56.3937 36.2939 56.9162 35.7594 57.3438C34.3758 58.4482 32.6776 57.991 32.3035 57.8901C29.6551 57.1775 28.8594 54.1669 28.8237 54.0184C29.1978 54.2025 29.6076 54.3688 30.0589 54.5054C30.1182 54.5232 30.1776 54.541 30.237 54.5588C33.1704 55.3842 35.8188 54.3747 37.048 53.7928C37.0599 53.8581 37.1905 54.8498 36.8045 55.883Z" fill="#FED7B8"></path> <circle cx="45" cy="45" r="44.3919" stroke="black" stroke-width="1.21622"></circle> <path d="M47.3821 27.5843C46.9773 27.2472 46.4754 26.7273 46.4081 26.0599C46.8864 26.4583 47.3648 26.8568 47.9935 27.0747C48.5486 27.2314 49.2876 27.5413 49.9828 27.3053C49.5248 27.3313 49.1835 26.8432 48.9893 26.4777C48.7818 26.2031 48.4036 25.6843 48.4835 25.1395C48.7512 25.5663 49.2429 25.8739 49.8481 25.9704C50.3664 26.0964 50.8612 26.101 51.4796 26.1067C51.0718 26.0727 50.7304 25.5846 50.5229 25.3099C50.2418 24.9739 50.0109 24.5777 49.7799 24.1816C50.5526 24.8252 51.3152 25.2566 52.5154 25.2373C52.1975 24.8707 51.9798 24.3838 51.8992 23.8072C51.936 23.8378 51.936 23.8378 51.9728 23.8685C52.2538 24.2044 52.5553 24.9649 52.9601 25.3021C52.9601 25.3021 52.9969 25.3327 53.0336 25.3634C53.1808 25.486 54.5385 24.1498 54.699 24.1816C54.8963 24.244 53.7461 25.8549 53.9434 25.9173C53.9669 26.0388 54.0773 26.1307 54.1008 26.2522C54.3083 26.5269 54.6895 26.7425 54.9972 26.8969C54.4421 26.7403 53.6233 26.9752 53.1817 26.6074C53.3062 27.7299 53.9623 28.8877 54.6983 29.5007C53.812 29.0682 52.6987 29.0579 52.1765 28.1135C52.2439 28.7809 52.5688 29.6629 52.9603 30.0908C52.3786 30.1158 51.6058 29.4721 51.1878 29.2258C50.8645 30.5867 51.7711 31.4437 52.4703 32.026C52.0021 31.8399 51.6177 31.9273 51.1127 31.7104C50.6946 31.4641 50.3635 31.1883 49.9454 30.9419C49.5915 31.6661 50.3377 32.4913 50.6188 32.8273C49.9768 32.7001 49.6354 32.212 49.1438 31.9044C48.977 32.4787 49.1712 32.8442 49.2284 33.2994C49.4194 33.9679 49.8845 34.4572 50.1256 35.0656C49.7945 34.7897 49.313 34.6943 48.9818 34.4185C48.577 34.0814 48.1989 33.5627 48.1182 32.986C47.9953 34.1063 48.5575 34.7783 49.0327 35.4798C48.7251 35.3254 48.4041 35.2618 48.1465 35.0473C47.9022 34.7419 47.7581 34.3163 47.5507 34.0416C47.5209 34.5263 47.665 34.9519 47.7723 35.3469C47.8929 35.6511 48.0134 35.9553 48.1841 36.1993C48.2444 36.3514 48.5153 36.4752 48.5388 36.5966C48.2444 36.3515 47.8866 36.2572 47.5922 36.012C47.2243 35.7056 46.2072 34.7566 46.0397 34.2095C45.9794 34.0574 46.006 33.8758 46.0193 33.785C44.5553 34.1958 43.4749 33.3978 42.6286 32.6929C43.5312 32.7315 44.4073 32.9518 45.5503 32.4774C44.3971 32.7395 43.0897 32.3638 42.9651 31.2412C43.2493 31.2741 43.3832 31.4875 43.6173 31.5806C43.8882 31.7043 44.2593 31.7077 44.5803 31.7713C45.0751 31.7759 45.6333 31.6295 46.1414 31.5433C45.4861 31.5069 44.3391 31.1629 44.235 30.4649C44.9474 30.9564 46.1108 30.9065 47.2139 30.7046C46.5954 30.6988 45.98 30.3901 45.5385 30.0223C45.2809 29.8077 44.4948 29.2549 44.6115 28.7408C45.1031 29.0484 45.5713 29.2346 46.2133 29.3617C46.8185 29.4583 47.3767 29.3119 48.0452 29.2574C47.3297 29.069 47.0517 28.4299 46.4864 28.061C47.1151 28.279 47.8174 28.5582 48.6496 28.2325C48.0679 28.2574 47.6999 27.951 47.3821 27.5843Z" fill="#FED7B8"></path> <path d="M45.0771 34.8259C44.9328 34.7141 44.8367 34.6396 44.7297 34.4798C44.6335 34.4053 44.6599 34.272 44.7344 34.1758C44.8089 34.0796 44.9423 34.106 45.0384 34.1805C45.1935 34.3776 45.4339 34.5638 45.6635 34.6647C45.7597 34.7391 45.8186 34.8617 45.7441 34.9579C45.6696 35.054 45.547 35.1129 45.4509 35.0385C45.3655 35.0493 45.2213 34.9376 45.0771 34.8259ZM46.321 35.4048C46.273 35.3675 46.214 35.245 46.2513 35.1969C46.2777 35.0635 46.4003 35.0046 46.5337 35.031C46.5817 35.0682 46.6671 35.0574 46.7524 35.0465C46.9711 35.0621 47.2379 35.1149 47.4566 35.1305C47.59 35.1569 47.6489 35.2794 47.6225 35.4128C47.5961 35.5462 47.4736 35.6051 47.3402 35.5787C47.1215 35.5632 46.8546 35.5104 46.6732 35.4467C46.5878 35.4576 46.5398 35.4203 46.4544 35.4312C46.3691 35.442 46.321 35.4048 46.321 35.4048ZM44.2536 33.8034C44.2055 33.7661 44.2055 33.7661 44.1574 33.7289C44.1466 33.6436 44.0985 33.6063 44.0877 33.521C44.0179 33.3131 43.9482 33.1052 43.8303 32.8601C43.7714 32.7375 43.8459 32.6414 43.9204 32.5452C44.0429 32.4863 44.1391 32.5608 44.2352 32.6353C44.3531 32.8804 44.4229 33.0883 44.4926 33.2962C44.5034 33.3815 44.5515 33.4187 44.5996 33.456C44.6585 33.5785 44.584 33.6747 44.5096 33.7709C44.4351 33.867 44.3017 33.8406 44.2536 33.8034ZM48.0553 35.748C48.0072 35.7107 47.9483 35.5882 47.9855 35.5401C48.0119 35.4067 48.1345 35.3478 48.2679 35.3742C48.5827 35.4642 48.8604 35.6024 49.1753 35.6924C49.2714 35.7669 49.3304 35.8895 49.2559 35.9856C49.1814 36.0818 49.0588 36.1407 48.9627 36.0662C48.7331 35.9653 48.4555 35.8272 48.1887 35.7744C48.0553 35.748 48.0553 35.748 48.0553 35.748ZM43.4877 32.2101L43.4396 32.1728C43.2736 31.8904 43.1186 31.6934 42.9635 31.4964C42.8673 31.4219 42.8937 31.2885 42.9682 31.1923C43.0427 31.0962 43.1761 31.1225 43.2723 31.197C43.4754 31.4313 43.6413 31.7137 43.8445 31.948C43.9034 32.0705 43.877 32.2039 43.7544 32.2629C43.6691 32.2737 43.5838 32.2845 43.4877 32.2101Z" fill="#FF2972"></path> </svg> 