<?xml version="1.0" encoding="UTF-8"?> <svg xmlns="http://www.w3.org/2000/svg" width="74" height="74" viewBox="0 0 74 74" fill="none"> <path d="M61.0001 64.5C57.2001 61.2 46.4002 61.9006 46.4002 61.9006C46.4002 61.9006 46.4002 61.9006 46.4002 62.0006C43.8002 58.2006 44.6003 48.9006 44.6003 48.9006L37.0003 45.7006L29.4002 48.9006C29.4002 48.9006 30.2003 58.2006 27.6003 62.0006C27.6003 62.0006 27.6003 62.0006 27.6003 61.9006C27.6003 61.9006 17.8001 61.7 14.0001 65C13.0001 65.9 18.3002 66.5 17.5002 68L27.0001 72L37.0003 73.5L47.5 72L57 67.5C56.2 66 62.0001 65.4 61.0001 64.5Z" fill="#FED7B8"></path> <path d="M50.2 20.5006C49.3 19.0006 48.1 17.8006 46.8 16.7006C44.1 14.6006 39.9 19.4006 36.9 21.0006C34 19.4006 29.7 14.6006 27 16.7006C25.7 17.8006 24.5 19.0006 23.6 20.5006C21.8 23.3006 20.5 23.7005 20.5 27.1005C20.5 30.8005 24.1 39.9005 24.8 40.6005C26.1 41.9005 28 43.8006 29.9 44.2006H30C33 41.7006 34.3 40.7006 36.9 38.5006C39.5 40.6006 40.8 41.7006 43.8 44.2006H43.9C45.8 43.8006 47.7 41.9005 49 40.6005C49.7 39.9005 53.3 30.8005 53.3 27.1005C53.3 23.7005 52 23.3006 50.2 20.5006Z" fill="#363B3E"></path> <path d="M29.4004 48.9006C29.4004 49.0006 29.4004 49.1006 29.4004 49.2006C29.4004 49.3006 29.4004 49.3006 29.4004 49.4006C29.6004 53.4006 29.3004 58.7006 27.9004 61.4006C31.8004 62.7006 36.0004 63.1006 39.6004 61.8006C41.6004 61.1006 43.2004 60.0006 44.9004 58.0006C44.9004 58.0006 44.0004 52.5006 44.5004 48.8006L36.9004 45.6006L29.3004 48.8006C29.4004 48.9006 29.4004 48.9006 29.4004 48.9006Z" fill="#FED7B8"></path> <path d="M24.0002 36.7006C24.0002 36.7006 22.4002 35.2006 21.4002 35.9006C21.1002 36.2006 20.5002 37.0006 21.0002 38.1006C22.3002 41.3006 22.6001 43.7006 23.8001 44.2006C24.7001 44.6006 26.1002 43.3006 26.1002 43.3006L24.0002 36.7006Z" fill="#FED7B8"></path> <path d="M24.8003 41.9006C24.6003 37.2006 21.8003 37.2006 21.8003 37.2006C22.5003 38.1006 22.7003 38.8006 22.8003 39.8006C22.9003 40.1006 23.0003 41.1006 23.0003 41.5006C22.8003 43.5006 24.9003 43.7006 24.8003 41.9006Z" fill="#FED7B8"></path> <path d="M49.9003 36.7006C49.9003 36.7006 51.5003 35.2006 52.5003 35.9006C52.8003 36.2006 53.4003 37.0006 52.9003 38.1006C51.6003 41.3006 51.3003 43.7006 50.1003 44.2006C49.2003 44.6006 47.8003 43.3006 47.8003 43.3006L49.9003 36.7006Z" fill="#FED7B8"></path> <path d="M49.1001 41.9006C49.3001 37.2006 52.1001 37.2006 52.1001 37.2006C51.4001 38.1006 51.2001 38.8006 51.1001 39.8006C51.0001 40.1006 50.9001 41.1006 50.9001 41.5006C51.1001 43.5006 49.0001 43.7006 49.1001 41.9006Z" fill="#FED7B8"></path> <path d="M37.0002 15.0006C34.8002 15.0006 21.4001 14.7006 22.3001 27.5006C22.7001 34.0006 23.4002 42.6006 24.6002 45.6006C26.7002 50.8006 34.3002 57.3006 36.9002 57.3006C39.5002 57.3006 47.2002 50.8006 49.2002 45.6006C50.4002 42.6006 51.1002 34.0006 51.5002 27.5006C52.5002 15.1006 39.2002 15.0006 37.0002 15.0006Z" fill="#FED7B8"></path> <path d="M38.7005 43.7006C38.7005 43.7006 38.7005 44.2006 38.3005 44.5006C37.9005 44.8006 36.9005 44.7006 36.9005 44.7006C36.9005 44.7006 35.9005 44.8006 35.5005 44.5006C35.1005 44.2006 35.1005 43.7006 35.1005 43.7006C34.6005 43.7006 34.3005 44.4006 34.7005 45.1006C35.0005 45.5006 35.8005 45.6006 36.3005 45.5006C36.7005 45.5006 37.0005 45.5006 37.4005 45.5006C38.0005 45.5006 38.8005 45.5006 39.0005 45.1006C39.5005 44.4006 39.3005 43.8006 38.7005 43.7006Z" fill="#FED7B8"></path> <path d="M36.9005 47.9006C34.8005 47.9006 33.0005 47.5006 33.0005 47.5006C33.1005 48.0006 33.6005 48.9006 34.2005 49.3006C35.9005 50.2006 37.9005 50.2006 39.6005 49.3006C40.2005 49.0006 40.7005 48.0006 40.8005 47.5006C40.9005 47.5006 39.0005 47.9006 36.9005 47.9006Z" fill="#FED7B8"></path> <path d="M51.8003 29.8005H50.7003C50.8003 31.2005 50.9003 32.7005 50.8003 34.0005C50.4003 38.9005 47.8003 43.6005 47.0003 45.7005C46.9003 45.9005 46.9003 46.0005 46.8003 46.2005C46.3003 46.5005 45.9003 46.8005 45.4003 47.1005C44.1003 46.7005 40.9003 45.7005 37.1003 45.7005C33.3003 45.7005 30.1003 46.7005 28.8003 47.1005C28.3003 46.8005 27.9003 46.5005 27.4003 46.2005C27.3003 46.0005 27.2003 45.9005 27.2003 45.7005C26.4003 43.6005 23.8003 38.9005 23.4003 34.0005C23.3003 32.7005 23.2003 31.3005 23.2003 29.8005H22.3003C22.7003 34.8005 23.4003 40.4005 24.3003 43.8005C24.3003 43.8005 24.3003 43.8005 24.2003 43.8005C24.6003 47.9005 25.1003 50.7005 25.8003 52.5005C27.7003 57.3005 34.7003 59.6005 37.1003 59.6005C39.5003 59.6005 46.5003 57.3005 48.4003 52.5005C49.1003 50.7005 49.6003 47.9005 50.0003 43.8005C50.0003 43.8005 50.0003 43.8005 49.9003 43.8005C50.7003 40.4005 51.4003 34.8005 51.8003 29.8005ZM36.9003 50.9005C35.6003 50.9005 33.5003 50.0005 31.1003 48.6005C33.2003 47.4005 36.8003 47.3005 36.9003 47.3005C37.0003 47.3005 40.7003 47.4005 42.7003 48.6005C40.4003 49.9005 38.2003 50.9005 36.9003 50.9005Z" fill="#363B3E"></path> <path d="M29.9004 15.3006C26.2004 14.4006 22.7004 16.3006 21.3004 20.8006C20.4004 23.6006 20.3004 28.3006 21.3004 31.3006C21.9004 31.6006 22.5004 31.8006 23.1004 32.1006C23.2004 30.6006 23.1004 29.0006 23.7004 27.6006C24.0004 26.9006 24.4004 26.3006 24.9004 25.8006C25.5004 25.3006 26.2004 24.9006 26.6004 24.2006C27.4004 23.0006 27.6004 21.7006 28.1004 20.4006C28.6004 19.3006 29.5004 18.4006 30.1004 17.3006C30.5004 16.7006 31.1004 15.6006 29.9004 15.3006Z" fill="#363B3E"></path> <path d="M43.9003 15.3006C47.6003 14.4006 51.1003 16.3006 52.5003 20.8006C53.4003 23.6006 53.5003 28.3006 52.5003 31.3006C51.9003 31.6006 51.3004 31.8006 50.7004 32.1006C50.6004 30.6006 50.7003 29.0006 50.1003 27.6006C49.8003 26.9006 49.4003 26.3006 48.9003 25.8006C48.3003 25.3006 47.6004 24.9006 47.2004 24.2006C46.4004 23.0006 46.2004 21.7006 45.7004 20.4006C45.2004 19.3006 44.3004 18.4006 43.7004 17.3006C43.3004 16.7006 42.7003 15.6006 43.9003 15.3006Z" fill="#363B3E"></path> <circle cx="37" cy="37" r="36.5" stroke="black"></circle> <path d="M26.9002 24.5007C26.8002 24.5007 26.7002 24.4006 26.7002 24.3006C26.7002 24.2006 26.8002 24.1006 26.9002 24.1006C27.0002 24.1006 27.1002 24.1006 27.3002 24.1006C27.4002 24.1006 27.5002 24.2006 27.6002 24.3006C27.6002 24.4006 27.5002 24.5006 27.4002 24.6006C27.2002 24.5006 27.0002 24.5007 26.9002 24.5007Z" fill="#FF2972"></path> <path d="M36.9004 24.8006C36.7004 24.8006 36.6004 24.8006 36.4004 24.8006C36.3004 24.8006 36.2004 24.7006 36.2004 24.6006C36.2004 24.5006 36.3004 24.4006 36.4004 24.4006C36.7004 24.4006 36.9004 24.4006 37.2004 24.4006C37.3004 24.4006 37.4004 24.5006 37.4004 24.6006C37.4004 24.7006 37.3004 24.8006 37.2004 24.8006C37.3004 24.8006 37.1004 24.8006 36.9004 24.8006ZM38.2004 24.5006C38.1004 24.5006 38.0004 24.5006 38.0004 24.4006C37.9004 24.3006 38.0004 24.2006 38.1004 24.1006C38.2004 24.1006 38.2004 24.0006 38.3004 24.0006C38.5004 23.9006 38.7004 23.8006 38.9004 23.7006C39.0004 23.6006 39.1004 23.7006 39.2004 23.8006C39.3004 23.9006 39.2004 24.0006 39.1004 24.1006C38.9004 24.2006 38.7004 24.3006 38.5004 24.4006C38.4004 24.4006 38.4004 24.4006 38.2004 24.5006C38.2004 24.5006 38.3004 24.5006 38.2004 24.5006ZM35.7004 24.5006C35.6004 24.5006 35.6004 24.5006 35.7004 24.5006C35.5004 24.4006 35.5004 24.4006 35.4004 24.4006C35.2004 24.3006 35.0004 24.2006 34.8004 24.1006C34.7004 24.0006 34.7004 23.9006 34.7004 23.8006C34.8004 23.7006 34.9004 23.7006 35.0004 23.7006C35.2004 23.8006 35.4004 23.9006 35.6004 24.0006C35.7004 24.0006 35.7004 24.1006 35.8004 24.1006C35.9004 24.2006 35.9004 24.3006 35.9004 24.4006C35.8004 24.4006 35.8004 24.5006 35.7004 24.5006ZM28.1004 24.2006C28.0004 24.2006 27.9004 24.1006 27.9004 24.0006C27.9004 23.9006 27.9004 23.8006 28.0004 23.7006L28.8004 23.5006C28.9004 23.5006 29.0004 23.5006 29.1004 23.6006C29.1004 23.7006 29.1004 23.8006 29.0004 23.9006L28.1004 24.2006C28.2004 24.2006 28.2004 24.2006 28.1004 24.2006ZM45.7004 24.2006L44.8004 23.9006C44.7004 23.9006 44.6004 23.7006 44.7004 23.6006C44.7004 23.5006 44.9004 23.4006 45.0004 23.5006L45.8004 23.7006C45.9004 23.7006 46.0004 23.9006 45.9004 24.0006C45.9004 24.1006 45.8004 24.2006 45.7004 24.2006ZM29.8004 23.7006C29.7004 23.7006 29.6004 23.6006 29.6004 23.5006C29.6004 23.4006 29.6004 23.3006 29.8004 23.2006C30.1004 23.1006 30.4004 23.1006 30.7004 23.0006C30.8004 23.0006 30.9004 23.1006 31.0004 23.2006C31.0004 23.3006 30.9004 23.4006 30.8004 23.5006C30.4004 23.6006 30.2004 23.6006 29.8004 23.7006C29.8004 23.7006 29.9004 23.7006 29.8004 23.7006ZM44.1004 23.7006C44.0004 23.7006 44.0004 23.7006 44.1004 23.7006C43.8004 23.6006 43.5004 23.6006 43.2004 23.5006C43.1004 23.5006 43.0004 23.4006 43.0004 23.2006C43.0004 23.1006 43.1004 23.0006 43.3004 23.0006C43.6004 23.1006 43.9004 23.1006 44.2004 23.2006C44.3004 23.2006 44.4004 23.3006 44.4004 23.5006C44.2004 23.7006 44.2004 23.7006 44.1004 23.7006ZM39.8004 23.7006C39.7004 23.7006 39.6004 23.6006 39.6004 23.6006C39.6004 23.5006 39.6004 23.4006 39.7004 23.3006C40.0004 23.2006 40.3004 23.1006 40.6004 23.0006C40.7004 23.0006 40.8004 23.0006 40.9004 23.2006C40.9004 23.3006 40.9004 23.4006 40.7004 23.5006C40.4004 23.5006 40.1004 23.6006 39.8004 23.7006ZM34.1004 23.7006C33.7004 23.6006 33.5004 23.5006 33.2004 23.4006C33.1004 23.4006 33.0004 23.3006 33.0004 23.1006C33.0004 23.0006 33.1004 22.9006 33.3004 22.9006C33.6004 23.0006 33.9004 23.1006 34.2004 23.2006C34.3004 23.2006 34.4004 23.4006 34.3004 23.5006C34.3004 23.6006 34.2004 23.7006 34.1004 23.7006ZM31.5004 23.4006C31.4004 23.4006 31.3004 23.3006 31.3004 23.2006C31.3004 23.1006 31.4004 23.0006 31.5004 23.0006C31.8004 23.0006 32.1004 22.9006 32.3004 22.9006H32.4004C32.5004 22.9006 32.6004 23.0006 32.6004 23.1006C32.6004 23.2006 32.5004 23.3006 32.4004 23.3006H32.3004C32.1004 23.3006 31.8004 23.4006 31.5004 23.4006C31.5004 23.4006 31.6004 23.4006 31.5004 23.4006ZM42.3004 23.4006C42.0004 23.4006 41.7004 23.4006 41.5004 23.4006H41.4004C41.3004 23.4006 41.2004 23.3006 41.2004 23.2006C41.2004 23.1006 41.3004 23.0006 41.4004 23.0006H41.5004C41.8004 23.0006 42.0004 23.0006 42.3004 23.1006C42.4004 23.1006 42.5004 23.2006 42.5004 23.3006C42.5004 23.3006 42.5004 23.4006 42.3004 23.4006Z" fill="#FF2972"></path> <path d="M47.0003 24.5006C46.9003 24.5006 46.7003 24.5006 46.5003 24.4006C46.4003 24.4006 46.3003 24.3006 46.3003 24.1006C46.3003 24.0006 46.4003 23.9006 46.6003 23.9006C46.8003 23.9006 46.9003 23.9006 47.0003 23.9006C47.1003 23.9006 47.2003 24.0006 47.2003 24.1006C47.2003 24.4006 47.1003 24.5006 47.0003 24.5006Z" fill="#FF2972"></path> <path d="M31.6999 18.5006C31.8656 18.5006 31.9999 18.3663 31.9999 18.2006C31.9999 18.035 31.8656 17.9006 31.6999 17.9006C31.5342 17.9006 31.3999 18.035 31.3999 18.2006C31.3999 18.3663 31.5342 18.5006 31.6999 18.5006Z" fill="#D32943"></path> <path d="M30.0998 18.5006C30.2655 18.5006 30.3998 18.3663 30.3998 18.2006C30.3998 18.035 30.2655 17.9006 30.0998 17.9006C29.9341 17.9006 29.7998 18.035 29.7998 18.2006C29.7998 18.3663 29.9341 18.5006 30.0998 18.5006Z" fill="#D32943"></path> <path d="M31.1996 19.5006C31.1996 19.7006 31.0996 19.8006 30.8996 19.8006C30.6996 19.8006 30.5996 19.7006 30.5996 19.5006C30.5996 19.3006 30.6996 19.2006 30.8996 19.2006C30.9996 19.2006 31.1996 19.4006 31.1996 19.5006Z" fill="#D32943"></path> <path d="M29.1999 20.1006C29.3656 20.1006 29.4999 19.9663 29.4999 19.8006C29.4999 19.6349 29.3656 19.5006 29.1999 19.5006C29.0342 19.5006 28.8999 19.6349 28.8999 19.8006C28.8999 19.9663 29.0342 20.1006 29.1999 20.1006Z" fill="#D32943"></path> <path d="M32.5998 19.7006C32.7655 19.7006 32.8998 19.5663 32.8998 19.4006C32.8998 19.2349 32.7655 19.1006 32.5998 19.1006C32.4341 19.1006 32.2998 19.2349 32.2998 19.4006C32.2998 19.5663 32.4341 19.7006 32.5998 19.7006Z" fill="#D32943"></path> <path d="M33.7997 18.1005C33.7997 18.3005 33.6997 18.4005 33.4997 18.4005C33.2997 18.4005 33.1997 18.3005 33.1997 18.1005C33.1997 17.9005 33.2997 17.8005 33.4997 17.8005C33.6997 17.8005 33.7997 17.9005 33.7997 18.1005Z" fill="#D32943"></path> <path d="M35.1 19.1005C35.1 19.3005 35 19.4005 34.8 19.4005C34.6 19.4005 34.5 19.3005 34.5 19.1005C34.5 18.9005 34.6 18.8005 34.8 18.8005C35 18.8005 35.1 19.0005 35.1 19.1005Z" fill="#D32943"></path> <path d="M35.8 18.2006C35.9657 18.2006 36.1 18.0663 36.1 17.9006C36.1 17.7349 35.9657 17.6006 35.8 17.6006C35.6343 17.6006 35.5 17.7349 35.5 17.9006C35.5 18.0663 35.6343 18.2006 35.8 18.2006Z" fill="#D32943"></path> <path d="M36.8 19.3006C36.9657 19.3006 37.1 19.1662 37.1 19.0006C37.1 18.8349 36.9657 18.7006 36.8 18.7006C36.6343 18.7006 36.5 18.8349 36.5 19.0006C36.5 19.1662 36.6343 19.3006 36.8 19.3006Z" fill="#D32943"></path> <path d="M38.1 17.9006C38.1 18.1006 38 18.2006 37.8 18.2006C37.6 18.2006 37.5 18.1006 37.5 17.9006C37.5 17.7006 37.6 17.6006 37.8 17.6006C37.9 17.6006 38.1 17.8006 38.1 17.9006Z" fill="#D32943"></path> <path d="M39.3996 18.2006C39.5653 18.2006 39.6996 18.0663 39.6996 17.9006C39.6996 17.7349 39.5653 17.6006 39.3996 17.6006C39.2339 17.6006 39.0996 17.7349 39.0996 17.9006C39.0996 18.0663 39.2339 18.2006 39.3996 18.2006Z" fill="#D32943"></path> <path d="M38.9999 19.1005C38.9999 19.3005 38.8999 19.4005 38.6999 19.4005C38.4999 19.4005 38.3999 19.3005 38.3999 19.1005C38.3999 18.9005 38.4999 18.8005 38.6999 18.8005C38.8999 18.8005 38.9999 18.9005 38.9999 19.1005Z" fill="#D32943"></path> <path d="M41.4997 18.4005C41.6654 18.4005 41.7997 18.2662 41.7997 18.1005C41.7997 17.9349 41.6654 17.8005 41.4997 17.8005C41.334 17.8005 41.1997 17.9349 41.1997 18.1005C41.1997 18.2662 41.334 18.4005 41.4997 18.4005Z" fill="#D32943"></path> <path d="M42.5998 19.6006C42.7655 19.6006 42.8998 19.4663 42.8998 19.3006C42.8998 19.1349 42.7655 19.0006 42.5998 19.0006C42.4341 19.0006 42.2998 19.1349 42.2998 19.3006C42.2998 19.4663 42.4341 19.6006 42.5998 19.6006Z" fill="#D32943"></path> <path d="M43.4997 18.5006C43.6654 18.5006 43.7997 18.3663 43.7997 18.2006C43.7997 18.035 43.6654 17.9006 43.4997 17.9006C43.334 17.9006 43.1997 18.035 43.1997 18.2006C43.1997 18.3663 43.334 18.5006 43.4997 18.5006Z" fill="#D32943"></path> <path d="M44.3 19.8006C44.4657 19.8006 44.6 19.6662 44.6 19.5006C44.6 19.3349 44.4657 19.2006 44.3 19.2006C44.1343 19.2006 44 19.3349 44 19.5006C44 19.6662 44.1343 19.8006 44.3 19.8006Z" fill="#D32943"></path> <path d="M40.9999 19.1005C40.9999 19.3005 40.8999 19.4005 40.6999 19.4005C40.4999 19.4005 40.3999 19.3005 40.3999 19.1005C40.3999 18.9005 40.4999 18.8005 40.6999 18.8005C40.7999 18.8005 40.9999 19.0005 40.9999 19.1005Z" fill="#D32943"></path> <path d="M30.1996 20.9006C30.1996 21.1006 30.0996 21.2006 29.8996 21.2006C29.6996 21.2006 29.5996 21.1006 29.5996 20.9006C29.5996 20.7006 29.6996 20.6006 29.8996 20.6006C30.0996 20.6006 30.1996 20.7006 30.1996 20.9006Z" fill="#D32943"></path> <path d="M30.9997 22.1006C31.1654 22.1006 31.2997 21.9663 31.2997 21.8006C31.2997 21.6349 31.1654 21.5006 30.9997 21.5006C30.834 21.5006 30.6997 21.6349 30.6997 21.8006C30.6997 21.9663 30.834 22.1006 30.9997 22.1006Z" fill="#D32943"></path> <path d="M32.1996 20.8006C32.1996 21.0006 32.0996 21.1006 31.8996 21.1006C31.6996 21.1006 31.5996 21.0006 31.5996 20.8006C31.5996 20.6006 31.6996 20.5006 31.8996 20.5006C32.0996 20.5006 32.1996 20.6006 32.1996 20.8006Z" fill="#D32943"></path> <path d="M33.3998 21.5006C33.3998 21.7006 33.2998 21.8006 33.0998 21.8006C32.8998 21.8006 32.7998 21.7006 32.7998 21.5006C32.7998 21.3006 32.8998 21.2006 33.0998 21.2006C33.2998 21.2006 33.3998 21.3006 33.3998 21.5006Z" fill="#D32943"></path> <path d="M34.0998 20.9005C34.2655 20.9005 34.3998 20.7662 34.3998 20.6005C34.3998 20.4349 34.2655 20.3005 34.0998 20.3005C33.9341 20.3005 33.7998 20.4349 33.7998 20.6005C33.7998 20.7662 33.9341 20.9005 34.0998 20.9005Z" fill="#D32943"></path> <path d="M35.0998 21.8006C35.2655 21.8006 35.3998 21.6662 35.3998 21.5006C35.3998 21.3349 35.2655 21.2006 35.0998 21.2006C34.9341 21.2006 34.7998 21.3349 34.7998 21.5006C34.7998 21.6662 34.9341 21.8006 35.0998 21.8006Z" fill="#D32943"></path> <path d="M35.8 20.5006C35.9657 20.5006 36.1 20.3663 36.1 20.2006C36.1 20.035 35.9657 19.9006 35.8 19.9006C35.6343 19.9006 35.5 20.035 35.5 20.2006C35.5 20.3663 35.6343 20.5006 35.8 20.5006Z" fill="#D32943"></path> <path d="M37.9999 20.4006C37.9999 20.6006 37.8999 20.7006 37.6999 20.7006C37.4999 20.7006 37.3999 20.6006 37.3999 20.4006C37.3999 20.2006 37.4999 20.1006 37.6999 20.1006C37.8999 20.1006 37.9999 20.2006 37.9999 20.4006Z" fill="#D32943"></path> <path d="M37.2997 21.5006C37.2997 21.7006 37.1997 21.8006 36.9997 21.8006C36.7997 21.8006 36.6997 21.7006 36.6997 21.5006C36.6997 21.3006 36.7997 21.2006 36.9997 21.2006C37.1997 21.2006 37.2997 21.3006 37.2997 21.5006Z" fill="#D32943"></path> <path d="M39.8 20.8006C39.9657 20.8006 40.1 20.6662 40.1 20.5006C40.1 20.3349 39.9657 20.2006 39.8 20.2006C39.6343 20.2006 39.5 20.3349 39.5 20.5006C39.5 20.6662 39.6343 20.8006 39.8 20.8006Z" fill="#D32943"></path> <path d="M40.8996 22.2006C41.0653 22.2006 41.1996 22.0663 41.1996 21.9006C41.1996 21.7349 41.0653 21.6006 40.8996 21.6006C40.7339 21.6006 40.5996 21.7349 40.5996 21.9006C40.5996 22.0663 40.7339 22.2006 40.8996 22.2006Z" fill="#D32943"></path> <path d="M39.7997 22.8006C39.7997 23.0006 39.6997 23.1006 39.4997 23.1006C39.2997 23.1006 39.1997 23.0006 39.1997 22.8006C39.1997 22.6006 39.2997 22.5006 39.4997 22.5006C39.6997 22.5006 39.7997 22.7006 39.7997 22.8006Z" fill="#D32943"></path> <path d="M38.9997 21.8006C39.1654 21.8006 39.2997 21.6662 39.2997 21.5006C39.2997 21.3349 39.1654 21.2006 38.9997 21.2006C38.834 21.2006 38.6997 21.3349 38.6997 21.5006C38.6997 21.6662 38.834 21.8006 38.9997 21.8006Z" fill="#D32943"></path> <path d="M30.1996 22.7006C30.1996 22.9006 30.0996 23.0006 29.8996 23.0006C29.6996 23.0006 29.5996 22.9006 29.5996 22.7006C29.5996 22.5006 29.6996 22.4006 29.8996 22.4006C30.0996 22.4006 30.1996 22.5006 30.1996 22.7006Z" fill="#D32943"></path> <path d="M28.6996 21.5006C28.6996 21.7006 28.5996 21.8006 28.3996 21.8006C28.1996 21.8006 28.0996 21.7006 28.0996 21.5006C28.0996 21.3006 28.1996 21.2006 28.3996 21.2006C28.4996 21.2006 28.6996 21.3006 28.6996 21.5006Z" fill="#D32943"></path> <path d="M32.1999 22.8006C32.3656 22.8006 32.4999 22.6662 32.4999 22.5006C32.4999 22.3349 32.3656 22.2006 32.1999 22.2006C32.0342 22.2006 31.8999 22.3349 31.8999 22.5006C31.8999 22.6662 32.0342 22.8006 32.1999 22.8006Z" fill="#D32943"></path> <path d="M28.3998 23.0006C28.3998 23.2006 28.2998 23.3006 28.0998 23.3006C27.8998 23.3006 27.7998 23.2006 27.7998 23.0006C27.7998 22.8006 27.8998 22.7006 28.0998 22.7006C28.2998 22.7006 28.3998 22.8006 28.3998 23.0006Z" fill="#D32943"></path> <path d="M34.3 23.0006C34.4657 23.0006 34.6 22.8663 34.6 22.7006C34.6 22.535 34.4657 22.4006 34.3 22.4006C34.1343 22.4006 34 22.535 34 22.7006C34 22.8663 34.1343 23.0006 34.3 23.0006Z" fill="#D32943"></path> <path d="M35.8 23.1006C35.9657 23.1006 36.1 22.9663 36.1 22.8006C36.1 22.6349 35.9657 22.5006 35.8 22.5006C35.6343 22.5006 35.5 22.6349 35.5 22.8006C35.5 22.9663 35.6343 23.1006 35.8 23.1006Z" fill="#D32943"></path> <path d="M38.1 22.6005C38.1 22.8005 38 22.9005 37.8 22.9005C37.6 22.9005 37.5 22.8005 37.5 22.6005C37.5 22.4005 37.6 22.3005 37.8 22.3005C37.9 22.3005 38.1 22.4005 38.1 22.6005Z" fill="#D32943"></path> <path d="M37.1996 23.7006C37.1996 23.9006 37.0996 24.0006 36.8996 24.0006C36.6996 24.0006 36.5996 23.9006 36.5996 23.7006C36.5996 23.5006 36.6996 23.4006 36.8996 23.4006C37.0996 23.4006 37.1996 23.5006 37.1996 23.7006Z" fill="#D32943"></path> <path d="M45.0998 21.4005C45.2655 21.4005 45.3998 21.2662 45.3998 21.1005C45.3998 20.9349 45.2655 20.8005 45.0998 20.8005C44.9341 20.8005 44.7998 20.9349 44.7998 21.1005C44.7998 21.2662 44.9341 21.4005 45.0998 21.4005Z" fill="#D32943"></path> <path d="M42.5998 22.5006C42.7655 22.5006 42.8998 22.3663 42.8998 22.2006C42.8998 22.035 42.7655 21.9006 42.5998 21.9006C42.4341 21.9006 42.2998 22.035 42.2998 22.2006C42.2998 22.3663 42.4341 22.5006 42.5998 22.5006Z" fill="#D32943"></path> <path d="M44.0998 22.5006C44.2655 22.5006 44.3998 22.3663 44.3998 22.2006C44.3998 22.035 44.2655 21.9006 44.0998 21.9006C43.9341 21.9006 43.7998 22.035 43.7998 22.2006C43.7998 22.3663 43.9341 22.5006 44.0998 22.5006Z" fill="#D32943"></path> <path d="M45.6999 23.1006C45.8656 23.1006 45.9999 22.9663 45.9999 22.8006C45.9999 22.6349 45.8656 22.5006 45.6999 22.5006C45.5342 22.5006 45.3999 22.6349 45.3999 22.8006C45.3999 22.9663 45.5342 23.1006 45.6999 23.1006Z" fill="#D32943"></path> <path d="M41.6999 20.8006C41.8656 20.8006 41.9999 20.6662 41.9999 20.5006C41.9999 20.3349 41.8656 20.2006 41.6999 20.2006C41.5342 20.2006 41.3999 20.3349 41.3999 20.5006C41.3999 20.6662 41.5342 20.8006 41.6999 20.8006Z" fill="#D32943"></path> <path d="M43.3996 21.0006C43.5653 21.0006 43.6996 20.8663 43.6996 20.7006C43.6996 20.535 43.5653 20.4006 43.3996 20.4006C43.2339 20.4006 43.0996 20.535 43.0996 20.7006C43.0996 20.8663 43.2339 21.0006 43.3996 21.0006Z" fill="#D32943"></path> </svg> 