<?xml version="1.0" encoding="UTF-8"?> <svg xmlns="http://www.w3.org/2000/svg" width="74" height="74" viewBox="0 0 74 74" fill="none"> <g clip-path="url(#clip0_200_5692)"> <path d="M55.5702 36.7539C57.1197 36.5092 58.5061 34.6335 58.6692 32.2685C58.8323 30.719 58.9138 28.1909 58.0983 27.4569C57.0381 26.5599 56.9566 28.5171 55.978 27.8647C54.0207 27.9463 52.3081 30.1482 52.4712 32.9209C52.5528 35.3675 53.9392 36.9985 55.5702 36.7539Z" fill="#FED7B8"></path> <path d="M19.7689 36.6723C18.2194 36.4277 16.833 34.552 16.6699 32.187C16.5068 30.6375 16.4252 28.1094 17.2407 27.3754C18.3009 26.4783 18.3825 28.4356 19.3611 27.7832C21.3184 27.8647 23.0309 30.0666 22.8678 32.8394C22.7863 35.3675 21.3184 36.917 19.7689 36.6723Z" fill="#FED7B8"></path> <path d="M27.6796 54.3691C29.066 55.0215 30.9417 56.0002 32.4096 56.571C33.1436 56.8157 33.796 57.3865 34.2037 58.039L36.161 61.0564C36.4057 61.4642 37.3027 61.6273 37.6289 61.6273C37.9552 61.6273 38.8522 61.4642 39.0969 61.0564L41.0541 58.039C41.4619 57.3865 42.1143 56.8972 42.8483 56.571C44.3162 56.0002 46.1919 55.0215 47.5783 54.3691C49.6171 53.3905 51.085 51.5964 51.819 49.476L55.3258 39.7713H37.6289H19.9321L23.4389 49.476C24.1729 51.5964 25.7223 53.3905 27.6796 54.3691Z" fill="#FED7B8"></path> <path d="M27.6796 54.3691C29.066 55.0215 30.9417 56.0002 32.4096 56.571C33.1436 56.8157 33.796 57.3865 34.2037 58.039L36.161 61.0564C36.4057 61.4642 37.3027 61.6273 37.6289 61.6273C37.9552 61.6273 38.8522 61.4642 39.0969 61.0564L41.0541 58.039C41.4619 57.3865 42.1143 56.8972 42.8483 56.571C44.3162 56.0002 46.1919 55.0215 47.5783 54.3691C49.6171 53.3905 51.085 51.5964 51.819 49.476L55.3258 39.7713H37.6289H19.9321L23.4389 49.476C24.1729 51.5964 25.7223 53.3905 27.6796 54.3691Z" fill="#FED7B8"></path> <path d="M44.5611 55.8371C43.5825 55.9186 42.5223 56.1633 41.5436 56.2449C40.6466 56.3264 39.5864 56.408 38.8524 56.7342C38.6893 57.305 39.1787 57.9575 39.4233 58.5283C39.5864 59.0992 39.4233 59.7516 39.9126 59.9963L41.1359 58.039C41.5436 57.3866 42.1961 56.8973 42.93 56.5711C43.3378 56.3264 43.9902 56.0818 44.5611 55.8371Z" fill="#FED7B8"></path> <path d="M30.6973 55.8371C31.6759 55.9186 32.7361 56.1633 33.7147 56.2449C34.6118 56.3264 35.6719 56.408 36.4059 56.7342C36.569 57.305 36.0797 57.9575 35.835 58.5283C35.6719 59.0992 35.8351 59.7516 35.3457 59.9963L34.1225 58.039C33.7147 57.3866 33.0623 56.8973 32.3283 56.5711C31.9205 56.3264 31.3497 56.0818 30.6973 55.8371Z" fill="#FED7B8"></path> <path d="M42.1957 55.3478C41.4617 55.4294 41.4617 56.0003 41.7064 56.0818C42.2772 56.2449 43.3374 55.9187 44.1529 55.7556C45.4578 55.4294 46.5995 55.1847 47.7412 54.3692C48.3121 53.9615 49.2907 53.2275 49.78 52.6566C49.9431 52.4935 51.0033 51.3518 50.514 51.1887C50.1878 51.1071 49.8616 51.678 49.6169 51.9227C49.2907 52.2489 47.9859 53.3906 47.0073 53.7984C45.05 54.777 43.6636 55.2663 42.1957 55.3478Z" fill="#3E1314"></path> <path d="M33.062 55.3478C33.796 55.4294 33.796 56.0003 33.5513 56.0818C32.9804 56.2449 31.9203 55.9187 31.1047 55.7556C29.7999 55.4294 28.6582 55.1847 27.5165 54.3692C26.9456 53.9615 25.967 53.2275 25.4777 52.6566C25.3145 52.4935 24.2544 51.3518 24.7437 51.1887C25.0699 51.1071 25.3961 51.678 25.6407 51.9227C25.9669 52.2489 27.2718 53.3906 28.2504 53.7984C30.2077 54.777 31.594 55.2663 33.062 55.3478Z" fill="#3E1314"></path> <path d="M60.3002 31.0453C60.2187 30.7191 60.0556 30.3929 59.8925 30.1483C59.7293 29.822 58.9138 27.457 58.5876 27.457C58.8323 27.3755 59.1585 27.2939 59.4032 27.3755C58.2614 25.1736 56.3857 23.2979 55.0809 21.2591C55.4071 21.096 55.8149 21.096 56.1411 21.096C55.244 20.362 54.4285 19.5465 53.3683 18.8941C52.145 18.1601 51.0033 17.5892 49.8616 16.6922C48.8014 15.7951 47.415 15.2242 46.1917 14.7349C45.5393 14.4902 37.7103 12.533 37.7103 13.1039C37.7103 12.8592 32.8172 13.5932 32.3279 13.7563C30.4522 14.2456 28.658 14.898 26.9454 15.7951C23.6833 17.5892 21.0737 20.2804 18.1378 22.6455C18.464 22.6455 18.7902 22.5639 19.198 22.5639C18.464 23.6241 17.1592 24.6027 16.6698 25.7444C16.9145 25.7444 17.1592 25.7444 17.4038 25.7444C16.833 26.8862 15.7728 28.1094 15.1204 29.3327C15.365 29.2512 15.6097 29.3327 15.8543 29.2512C15.2835 30.4745 14.5495 31.6977 14.0602 33.0026C14.3864 33.0026 14.6311 32.921 14.9573 32.8395C14.9573 33.9812 14.0602 35.286 13.734 36.3462C13.4893 37.1617 13.0816 38.0588 13 38.8743C13.3262 38.6297 13.8155 38.5481 14.2233 38.4666C13.734 38.5481 13.8155 41.9733 13.8155 42.3811C13.734 44.0121 13.8971 45.7247 14.5495 47.2742C14.6311 47.1111 14.8757 46.948 15.0388 46.7033C15.365 47.682 15.6097 48.7421 15.7728 49.8023C15.9359 50.6178 16.0174 52.2489 16.5883 52.9013C16.7514 52.6566 16.9961 52.412 17.1592 52.2489C18.2193 53.3906 18.5456 55.1847 19.3611 56.5711C19.8504 57.4682 20.5843 58.1206 21.1552 58.9361C21.6445 59.5886 21.8892 60.4041 22.6232 60.7303C22.7047 59.8332 22.6232 58.9361 22.6232 58.0391C22.6232 56.8158 23.1125 55.511 23.7649 54.5323C24.7435 52.9828 26.3746 52.6566 27.5978 51.4333C30.6153 48.2528 34.2035 47.0295 37.8734 47.8451C41.5432 47.0295 45.1315 48.3344 48.149 51.4333C49.3722 52.7382 51.0848 52.9828 51.9819 54.5323C52.6343 55.5925 53.0421 56.8158 53.1236 58.0391C53.1236 58.2837 53.0421 60.7303 53.1236 60.7303C53.613 60.5672 56.9566 57.2235 56.875 53.4721C57.1197 53.7168 57.3644 53.9615 57.6906 54.043C57.609 52.7382 58.5061 51.9227 58.9954 50.7809C59.5663 49.5577 59.3216 47.7635 59.8109 46.5402C60.0556 46.7033 60.3002 46.948 60.3818 47.1111C60.7895 45.48 61.2788 44.3383 61.2788 42.5442C61.2788 40.8316 61.3604 39.2821 61.1157 37.651C61.3604 37.7326 61.6866 37.8141 61.9313 37.9772C62.0128 36.754 61.4419 35.8569 61.1973 34.7152C60.9526 33.4103 60.708 32.1871 60.3002 31.0453Z" fill="#363B3E"></path> <path d="M33.1437 36.6724C31.8389 36.2647 30.6971 36.2647 29.3107 36.5093C30.1263 35.5307 32.1651 35.0414 33.4699 35.0414C33.0621 34.7152 32.3282 34.5521 31.7573 34.3074C32.3282 34.0628 32.899 33.9812 33.4699 33.8997C31.9204 33.7366 29.7185 33.0841 28.169 33.655C29.1476 33.1657 30.1263 32.5948 31.1864 32.1871C31.6758 32.024 32.2466 31.8609 32.8175 31.8609C32.9806 31.8609 33.7961 31.6162 33.8777 31.6162C32.9806 31.4531 32.2466 31.2084 31.4311 31.2084C32.1651 30.4745 33.3883 30.2298 34.2854 30.1483C33.8777 29.9852 33.3068 29.8221 32.8175 29.8221C32.1651 29.8221 31.5942 29.7405 30.9418 29.7405C29.8 29.7405 28.6583 29.9036 27.5166 29.8221C28.2506 29.4143 28.903 28.925 29.7185 28.5988C31.0233 28.0279 32.4913 27.6202 33.7961 27.1308C33.3883 26.56 32.4913 26.2338 31.8389 26.2338C32.4097 25.9076 33.1437 25.9891 33.7961 25.7445C33.3883 25.3367 32.6544 25.4182 32.1651 25.1736C32.7359 24.6027 33.7961 24.5212 34.5301 24.3581C33.633 23.2979 31.5126 23.6241 30.2894 23.6241C30.534 22.8901 32.9806 22.6455 33.7146 22.6455C33.3884 22.4008 32.899 22.2377 32.4913 22.0746C33.0621 21.4222 34.7747 21.4222 35.5903 21.4222C34.7747 20.7698 33.633 20.6067 32.6544 20.362C33.633 19.7911 34.6116 19.3018 35.7534 18.9756C34.8563 18.731 33.9592 18.5679 32.9806 18.5679C33.8777 18.2417 34.8563 18.1601 35.8349 18.1601C35.264 17.7523 34.6932 17.4261 34.1223 17.1815C34.8563 17.1815 35.5087 17.3446 36.1611 17.5892C35.8349 17.0999 35.4272 16.6922 35.1825 16.0398C35.4272 16.2844 35.7534 16.6106 35.998 16.8553C36.3242 16.6106 36.3242 15.7951 36.4873 15.4689C36.5689 15.632 36.732 15.8766 36.8135 16.0398C36.8135 16.0398 37.3844 15.3873 37.3844 15.3058C37.6291 15.632 37.6291 16.1213 37.7922 16.4475C38.0368 16.1213 38.4446 15.7951 38.6892 15.4689C38.6077 15.9582 38.1999 16.5291 37.9553 17.0184C38.4446 16.6106 39.2601 16.2844 39.7494 16.0398C39.3417 16.6106 38.7708 17.0184 38.4446 17.6708C39.3417 17.5892 40.1572 17.1815 41.0543 17.1815C40.2387 17.5892 39.5863 18.0786 39.097 18.731C39.831 18.8125 40.5649 18.5679 41.2989 18.731C40.6465 19.0572 39.9941 19.3834 39.5047 19.9543C39.9941 20.0358 40.5649 19.8727 41.1358 19.7912C40.728 20.4436 39.9941 20.8513 39.5863 21.5037C40.4834 21.5853 41.3805 21.2591 42.2775 21.3406C41.5436 21.6668 40.5649 21.9115 39.9941 22.5639C40.8911 22.9717 42.1144 22.727 43.0115 23.2163C42.4406 23.3794 40.5649 23.2979 40.5649 24.195C41.3805 24.5212 42.196 24.6027 43.0931 24.6843C43.7455 24.7658 44.9688 24.8474 45.4581 25.3367C44.2348 25.7445 42.6853 25.3367 41.5435 25.9076C42.3591 26.3153 43.4193 26.1522 44.0717 26.6415C43.5008 26.8046 41.2989 26.8046 41.1358 27.457C41.2989 26.9677 44.3979 28.191 44.7241 28.2726C45.7027 28.5172 46.7629 28.6803 47.5784 29.4143C45.7843 29.4958 43.827 29.0881 42.1144 29.5774C42.9299 29.5774 43.9901 30.3114 44.561 30.8822C43.827 30.8007 43.2562 30.8007 42.5222 30.8007C42.1144 30.8007 41.6251 30.7191 41.2173 30.7191C40.8911 30.7191 40.4834 30.9638 40.1572 30.8822C40.9727 30.8822 41.9513 31.3715 42.6853 31.6162C43.2562 31.7793 43.9086 32.024 44.3163 32.5133C44.1532 32.3502 42.2775 32.4317 41.9513 32.4317C41.3804 32.5133 40.4018 32.921 40.0756 33.4103C41.2989 34.3074 43.5824 34.2259 44.6425 35.4492C43.1746 35.5307 41.7882 35.0414 40.3203 35.3676C40.5649 35.6123 40.9727 35.6123 41.3805 35.6938C42.1144 35.9385 42.8484 36.2647 43.5008 36.6724C44.3163 37.0802 45.1319 37.6511 45.8658 38.1404C44.3979 38.3035 42.6853 37.488 41.2989 37.8957C41.7882 38.385 43.1746 38.3035 43.7455 38.8743C43.3377 38.8743 41.6251 38.7112 41.5435 39.119C41.3804 39.6083 42.7668 40.1792 43.0115 40.5054C42.2775 40.5869 41.3805 40.1792 40.6465 40.4238C41.7067 40.5054 42.7668 41.3209 43.7455 41.6471C42.7668 41.6471 41.462 41.484 40.4834 41.8102C42.6037 41.8102 45.0503 42.3811 46.7629 43.6859C44.8872 43.4413 42.93 43.1966 41.0543 43.6044C41.5436 43.6044 42.4406 43.6044 42.6853 44.0937C42.196 44.1752 40.9727 43.849 40.8911 44.4199C40.8096 44.9907 41.7882 45.4801 41.8698 45.9694C41.3805 45.9694 40.9727 45.8063 40.4834 45.6432C40.3203 45.6432 39.2601 45.6432 39.1785 45.5616C39.5048 45.9694 40.3203 46.1325 40.1572 46.7849C39.4232 46.8664 38.363 46.4587 37.5475 46.6218C36.732 46.4587 35.6718 46.8664 34.9378 46.7849C34.6932 46.1325 35.5087 45.9694 35.9165 45.5616C34.9378 45.4801 34.1223 45.8878 33.2252 45.9694C33.4699 45.1539 34.6116 44.8276 35.2641 44.2568C34.2854 44.3383 33.3884 44.8276 32.4097 44.8276C32.3282 44.8276 33.0621 43.849 33.1437 43.7675C33.4699 43.4413 34.0408 43.2782 34.2854 42.8704C33.7961 42.7073 33.1437 42.6257 32.6544 42.6257C31.7573 42.6257 30.7787 43.0335 29.8816 42.9519C30.3709 42.6257 30.6971 42.1364 31.1864 41.8102C32.002 41.2394 32.899 40.6685 33.8777 40.3423C33.0621 39.853 31.7573 40.0161 30.7787 39.9345C31.1864 39.5268 32.0835 39.4452 32.6544 39.2821C31.268 38.7928 29.3923 39.4452 27.9244 39.5268C28.3321 38.9559 29.1476 38.4666 29.7185 38.0588C30.8602 37.3248 32.4913 36.6724 33.7961 36.3462C33.3068 36.754 33.2252 36.754 33.1437 36.6724Z" fill="#575757"></path> <path d="M38.4448 39.6083H38.3632C38.6079 39.4452 38.9341 39.4452 39.1788 39.2005C38.9341 39.0374 38.6079 38.9559 38.2817 38.8743C38.771 38.385 39.5865 38.385 40.1574 38.2219C39.6681 37.9772 39.0972 37.8957 38.6079 37.7326C38.771 37.651 38.771 37.5695 38.9341 37.5695C38.771 37.4064 38.3633 37.4064 38.2001 37.2433C38.2817 37.0802 38.5264 36.9986 38.6079 36.8355C38.4448 36.754 38.2817 36.754 38.2001 36.754C38.4448 36.5093 38.8525 36.3462 39.0972 36.1831C38.8525 36.02 38.5263 35.9384 38.2817 35.8569C38.771 35.6122 39.4234 35.6938 39.9127 35.5307C39.3419 35.286 38.8525 34.6336 38.2817 34.4705C38.6079 34.3074 38.9341 34.1443 39.2603 34.0627C39.0157 33.9812 38.5263 33.7365 38.1186 33.7365C38.2817 33.5734 38.6079 33.4103 38.8526 33.3288C38.771 33.0841 38.5263 33.0841 38.2817 33.0841C38.5263 32.8395 38.6894 32.4317 39.0972 32.3501C38.8525 32.1055 38.4448 32.187 38.1186 31.9424C38.2001 31.7793 39.2603 31.29 39.3419 31.4531C39.0972 31.1269 38.6079 31.0453 38.3632 30.7191C38.037 30.3929 38.2817 30.4744 38.5263 30.1482C38.3632 30.0667 38.2001 30.0667 38.1186 30.0667C38.2817 29.9036 38.6894 29.822 38.8526 29.7405C38.6079 29.6589 38.3632 29.4958 38.037 29.4143C38.2817 29.1696 38.771 29.0065 39.0972 28.925C38.771 28.7619 38.3632 28.5987 37.9555 28.5987C38.1186 28.3541 38.3632 28.2725 38.5263 28.191C38.3632 28.0279 38.1186 28.0279 37.8739 27.9463C38.1186 27.7832 38.3632 27.6201 38.5263 27.457C37.3846 27.457 38.6894 26.8046 39.0972 26.7231C38.6894 26.4784 38.2001 26.3968 37.7108 26.3153C37.9555 25.9891 38.2817 25.6629 37.6293 25.7444C37.7924 25.4182 38.2001 25.0105 38.5263 24.9289C38.2001 24.7658 37.8739 24.6842 37.4662 24.6842C37.6293 24.358 38.1186 24.1134 38.3632 23.9503C38.1186 23.9503 37.9555 23.9503 37.7108 23.9503C37.6293 23.7872 37.7108 23.7872 37.4662 23.7872C37.4662 23.7056 37.5477 23.0532 37.6293 22.9716C37.5477 23.0532 37.4662 23.0532 37.3846 23.0532C37.4662 22.8085 37.4662 22.4823 37.4662 22.1561C37.3846 22.2377 37.3031 22.2377 37.3031 22.3192C37.2215 22.2377 37.2215 22.2377 37.14 22.1561C37.14 22.4823 37.14 22.8085 37.2215 23.0532C37.14 22.9717 37.0584 22.9716 36.9769 22.9716C36.9769 23.2163 37.0584 23.461 37.14 23.7872C37.0584 23.7056 36.8953 23.7872 36.8138 23.7056C36.8953 23.8687 37.0584 24.0318 37.14 24.1949C37.0584 24.1949 36.9769 24.1949 36.8953 24.1949C36.9769 24.358 37.0584 24.6027 37.0584 24.7658C36.7322 24.7658 36.4875 24.4396 36.0798 24.4396C36.2429 24.6842 36.6506 24.8474 36.7322 25.1736H36.1613C36.2429 25.4182 37.3846 26.6415 36.4875 26.6415C36.5691 26.8861 36.7322 27.1308 36.8138 27.3755C36.8138 27.3755 35.8351 27.1308 35.672 27.1308C35.9167 27.3755 36.1613 27.5386 36.406 27.7832C36.1613 27.8648 35.7536 27.8648 35.5089 28.0279C35.8351 28.191 36.1613 28.2725 36.406 28.5172C36.0798 28.7619 35.672 29.0065 35.3458 29.1696C35.7536 29.3327 36.2429 29.5774 36.5691 29.9036C36.3244 29.9851 36.0798 30.0667 35.8351 30.1482C36.0798 29.9851 36.5691 30.556 36.406 30.7191C36.2429 31.0453 35.4274 31.2084 35.1827 31.3715C35.4274 31.4531 35.9167 31.4531 36.0798 31.6977C35.9167 31.8608 35.5905 31.9424 35.4274 32.1055C35.672 32.187 36.0798 32.187 36.406 32.187C36.3244 32.2686 36.3244 32.4317 36.2429 32.5132C36.7322 32.4317 36.2429 33.1657 36.1613 33.4103C36.2429 33.4103 36.406 33.4103 36.4875 33.4103C36.4875 33.4103 36.3244 33.7365 36.2429 33.8181C36.0798 34.0627 35.7536 34.1443 35.5905 34.3889C35.8351 34.4705 36.0798 34.4705 36.3244 34.4705C35.9982 34.5521 35.7536 34.7967 35.5089 34.9598C35.7536 34.9598 35.9982 34.9598 36.1613 35.1229C35.9167 35.2045 35.5089 35.4491 35.3458 35.6122C35.5905 35.6122 35.8351 35.6122 36.0798 35.7753C35.5905 36.1831 34.9381 36.2646 34.3672 36.6724C35.0196 36.754 35.5905 36.754 36.2429 36.9171C35.9167 37.0802 35.5905 37.3248 35.4274 37.5695C35.7536 37.5695 35.9982 37.5695 36.2429 37.8141C35.9982 38.0588 35.5905 38.1403 35.3458 38.4665C35.5905 38.4665 35.9167 38.4666 36.0798 38.6297C35.7536 38.8743 35.3458 39.119 35.1012 39.4452C35.2643 39.2821 35.9982 39.6083 36.0798 39.6898C35.7536 40.016 35.2643 40.0976 34.8565 40.4238C35.1012 40.4238 35.5905 40.4238 35.8351 40.5054C35.5905 40.5869 35.3458 40.75 35.1827 40.9947C36.1613 40.9947 35.4274 41.1578 35.3458 41.6471C35.672 41.6471 36.0798 41.6471 36.406 41.7286C36.0798 41.9733 35.672 42.2179 35.4274 42.5442C35.8351 42.5442 36.1613 42.5442 36.4875 42.7073C35.9982 43.0335 35.3458 43.1966 34.9381 43.6859C35.3458 43.6859 35.7536 43.7674 36.1613 44.0121C35.9982 44.1752 35.672 44.2567 35.4274 44.5014C35.7536 44.5014 36.2429 44.583 36.4875 44.8276C36.2429 44.9092 35.9982 45.0723 35.8351 45.3169C36.0798 45.3169 36.3244 45.3169 36.4875 45.48C36.2429 45.6431 36.0798 45.8062 35.9167 45.9693C36.0798 46.1324 36.406 46.214 36.5691 46.3771C36.4876 46.5402 36.3244 46.6218 36.1613 46.7033C36.3244 46.8664 36.4875 46.7849 36.7322 46.8664C36.6506 46.948 36.5691 47.1111 36.406 47.1926C36.6506 47.0295 36.8953 48.0081 37.2215 47.845C37.3031 47.7635 37.4662 47.3557 37.5477 47.1926C37.6293 47.1111 38.037 46.6218 38.037 46.6218C37.9555 46.6218 37.7924 46.5402 37.7108 46.5402C37.7924 46.3771 38.037 46.214 38.2001 46.0509C37.9555 46.0509 37.7924 46.0509 37.5477 46.0509C37.7108 45.8062 37.9555 45.7247 38.2001 45.48C38.037 45.3985 37.8739 45.3169 37.7108 45.3985C38.1186 44.9907 38.6894 44.9092 39.2603 44.7461C38.771 44.5014 38.2817 44.5014 37.7924 44.3383C37.9555 44.1752 38.2001 44.0936 38.4448 44.0121C38.2001 43.849 37.9555 43.7674 37.6293 43.6859C37.8739 43.5228 38.2817 43.4412 38.6079 43.3597C38.4448 43.2781 38.2001 43.1966 38.037 43.115C38.3632 43.115 38.6079 42.8704 38.9341 42.8704C38.6079 42.7073 37.9555 42.7073 37.6293 42.4626C37.7924 42.2179 38.1186 42.1364 38.3632 42.0548C38.2001 41.9733 38.037 41.9733 37.7924 41.9733C38.037 41.8102 38.3633 41.7286 38.6079 41.6471C38.4448 41.5655 38.2817 41.484 38.1186 41.4024C38.3632 41.0762 39.0157 40.9947 39.4234 40.9947C39.1788 40.6685 38.6894 40.5054 38.2817 40.4238C38.3632 40.3422 38.4448 40.1791 38.6079 40.1791C38.5264 40.016 38.3633 40.016 38.2001 39.9345C38.2817 39.7714 38.4448 39.6898 38.5263 39.6083C38.771 39.6898 38.6079 39.6083 38.4448 39.6083Z" fill="#FED7B8"></path> <path d="M58.9741 -4C58.9741 -4 44.3875 5.03543 43.9151 5.2126C43.5608 5.33071 40.7852 7.69291 39.8403 8.46063C39.6631 8.63779 39.4269 8.7559 39.1316 8.7559C38.482 8.87401 37.1237 9.11023 37.0056 9.16929C36.8875 9.22834 38.6592 9.28741 39.2498 9.28741C39.3679 9.28741 39.486 9.2874 39.6041 9.22835C40.4899 8.81496 44.6828 6.62992 44.8009 6.62992C44.919 6.62992 59.6828 -2.64173 59.8009 -2.8189C59.919 -2.93701 59.5647 -3.70472 58.9741 -4Z" fill="#2D5D9B"></path> <path opacity="0.85" d="M59.8006 -2.75984C59.7415 -2.52362 44.9187 6.68898 44.8005 6.68898C44.7415 6.68898 42.6155 7.75197 41.0801 8.51969C42.6155 7.22048 44.0328 5.80315 45.3911 4.32677C49.1706 2.02362 58.9147 -4 58.9147 -4C59.5643 -3.70472 59.9187 -2.93701 59.8006 -2.75984Z" fill="#2D5D9B"></path> <path d="M37.9504 5.86218C37.9504 5.86218 37.6551 6.33463 37.478 7.811C37.3599 8.81494 37.4189 9.5236 37.3599 9.87793C37.3599 9.99604 37.3008 10.1142 37.3008 10.2913C37.3008 10.3504 37.3008 10.4094 37.3008 10.4685C37.3008 10.5275 37.3598 10.5866 37.4189 10.6456C37.478 10.7047 37.5961 10.7047 37.6551 10.6456C37.7142 10.5866 37.7142 10.5866 37.7142 10.5275V10.4685C37.7142 10.4094 37.7142 10.4094 37.7142 10.3504C37.7142 10.2913 37.7142 10.2323 37.7142 10.2323C37.7142 10.1732 37.6551 10.1141 37.6551 10.0551C37.6551 9.99604 37.5961 9.87792 37.5961 9.75981C37.5961 9.40548 37.5961 9.16926 37.5961 8.57871C37.5961 7.87005 37.6551 7.69289 37.7142 7.2795C37.8323 6.51179 37.9504 5.86218 37.9504 5.86218Z" fill="#282F39"></path> <path opacity="0.55" d="M37.7141 10.9999H37.3007C37.1826 10.9999 37.1235 10.8818 37.1235 10.8227V8.6377H37.9503V10.8227C37.9503 10.9408 37.8322 10.9999 37.7141 10.9999Z" fill="#F3D6B8"></path> <path d="M37.9503 8.57868C37.9503 8.63773 37.7731 8.6968 37.5369 8.6968C37.3007 8.6968 37.1235 8.63773 37.1235 8.57868C37.1235 8.51962 37.3007 8.46057 37.5369 8.46057C37.7731 8.46057 37.9503 8.51962 37.9503 8.57868Z" fill="#F3D6B8"></path> <path d="M37.5371 8.57871C37.5371 8.51966 37.5371 8.51966 37.5371 8.4606C37.5371 7.75194 37.5961 7.57478 37.6552 7.16139C37.7733 6.51179 37.9505 5.86218 37.9505 5.86218C37.9505 5.86218 37.6552 6.33463 37.478 7.811C37.419 8.10628 37.4189 8.34249 37.4189 8.57871C37.4189 8.63777 37.5371 8.63777 37.5371 8.57871Z" fill="#282F39"></path> <path d="M58.974 -4C58.974 -4 45.1551 6.21653 44.7417 6.3937C44.3874 6.51181 41.6118 8.87401 40.6669 9.64173C40.4898 9.8189 40.2535 9.93701 39.9583 9.93701C39.3087 10.0551 37.9504 10.2913 37.8323 10.3504C37.7142 10.4094 39.4858 10.4685 40.0764 10.4685C40.1945 10.4685 40.3126 10.4685 40.4307 10.4094C41.3166 9.99606 45.5095 7.81103 45.6276 7.81103C45.7457 7.81103 59.7417 -2.58268 59.8598 -2.8189C59.9189 -2.93701 59.5646 -3.70472 58.974 -4Z" fill="#3D71A3"></path> <circle cx="37" cy="37" r="36.5" stroke="black"></circle> </g> <defs> <clipPath id="clip0_200_5692"> <rect width="74" height="74" rx="37" fill="white"></rect> </clipPath> </defs> </svg> 