<?xml version="1.0" encoding="UTF-8"?> <svg xmlns="http://www.w3.org/2000/svg" width="74" height="74" viewBox="0 0 74 74" fill="none"> <path d="M46.6021 64.4038C50.4335 64.343 55.1772 64.2213 59.0086 64.2213C61.7453 64.2213 63.2049 62.7009 62.7792 59.7817C62.5968 58.5046 61.6845 57.5315 61.3804 56.3152C60.9547 54.8556 61.5021 52.1797 61.3804 50.4768C61.0764 46.9495 59.6776 44.2127 58.7045 41.1111C57.3666 36.7932 58.1572 33.3266 58.1572 28.8262C58.1572 26.5152 57.4274 24.3866 56.7584 22.1972C55.9678 19.8254 54.6906 18.0617 53.6568 15.8723C52.5621 13.5005 50.7984 11.4936 48.3657 10.3989C45.2033 9.0001 41.5543 8.75683 38.1486 9.54745C37.5404 9.66908 36.3241 9.24336 35.5943 9.18255C34.5604 9.12173 33.5266 9.12173 32.4927 9.24337C30.6682 9.42581 28.6613 9.85154 27.08 10.8854C23.4919 13.1964 21.4241 15.8723 19.9645 19.7646C19.478 21.1025 18.7482 22.3189 18.3225 23.7176C17.471 26.576 17.3494 29.4344 17.3494 32.3536C17.3494 35.2119 17.7143 38.0703 17.3494 40.8679C16.8629 44.3952 15.0384 45.794 14.4302 49.2605C14.0045 51.754 14.9168 55.5854 13.6396 57.7748C12.6057 59.5385 11.1462 62.7009 13.7004 63.4307C15.8898 64.0997 18.4441 63.1874 20.7551 63.4307C23.6135 63.7348 26.4111 64.2213 29.2694 64.4646C33.7698 64.8903 38.3311 64.7078 42.8923 64.5254C44.0478 64.4038 45.3249 64.4038 46.6021 64.4038Z" fill="#363B3E"></path> <path d="M62 64.0001C61.2094 62.4797 63.9731 62.8515 63 62.0001C59.8984 59.3241 52.1362 59.66 48.1224 59.3559C47.2709 59.2951 46.4803 58.7478 46.1762 57.9571C44.5342 53.7608 45.0816 46.5845 45.0816 46.5845L37.7836 43.4828L30.4856 46.5845C30.4856 46.5845 31.0938 53.7608 29.3909 57.9571C29.0868 58.7478 28.2962 59.2951 27.4448 59.3559C23.4917 59.5992 13.6014 58.8241 10.4998 61.5001C9.52674 62.3515 13.2906 62.9797 12.5 64.5001C12.5 64.5001 24.9555 74.0001 37.7836 74.0001C50.6116 74.0001 62 64.0001 62 64.0001Z" fill="#FED7B8"></path> <path d="M45.0815 46.5845L37.7836 43.4828L30.4856 46.5845C30.4856 46.5845 31.0938 54.0041 29.3301 58.1396C31.5803 58.9302 36.7497 58.2612 39.2432 57.2273C41.9799 56.1326 43.0138 54.4298 45.0815 52.3012C44.8383 49.2604 45.0815 46.5845 45.0815 46.5845Z" fill="#FFD0AB"></path> <path d="M25.1944 34.847C25.1944 34.847 23.6132 33.3874 22.7009 34.1172C22.3969 34.3604 21.8495 35.1511 22.2752 36.2458C23.4916 39.3474 23.8565 41.6584 24.9512 42.1449C25.8634 42.5098 27.2014 41.2935 27.2014 41.2935L25.1944 34.847Z" fill="#FED7B8"></path> <path d="M26.0454 39.8339C25.8629 35.2727 23.187 35.2727 23.187 35.2727C23.856 36.1849 24.0384 36.7931 24.2209 37.7662C24.2817 38.0703 24.4033 38.9825 24.3425 39.4082C24.0993 41.476 26.1062 41.5976 26.0454 39.8339Z" fill="#FFD0AB"></path> <path d="M50.2506 34.847C50.2506 34.847 51.8318 33.3874 52.7441 34.1172C53.0481 34.3604 53.5955 35.1511 53.1698 36.2458C51.9535 39.3474 51.5886 41.6584 50.4939 42.1449C49.5816 42.5098 48.2437 41.2935 48.2437 41.2935L50.2506 34.847Z" fill="#FED7B8"></path> <path d="M49.4599 39.8339C49.6423 35.2727 52.3182 35.2727 52.3182 35.2727C51.6492 36.1849 51.4668 36.7931 51.2843 37.7662C51.2235 38.0703 51.1019 38.9825 51.1627 39.4082C51.406 41.476 49.399 41.5976 49.4599 39.8339Z" fill="#FFD0AB"></path> <path d="M37.7226 14.291C37.7226 14.291 29.5732 13.1963 23.1875 18.0008C23.1875 18.0008 23.7957 38.4351 25.8026 43.4828C27.8095 48.4698 34.5602 54.7947 37.7226 54.7947C40.885 54.7947 47.6357 48.4698 49.6426 43.4828C51.6495 38.4959 52.2577 18.0008 52.2577 18.0008C45.872 13.1963 37.7226 14.291 37.7226 14.291Z" fill="#FED7B8"></path> <path d="M49.7033 29.6776C49.7033 29.6776 47.5139 29.1302 46.6625 29.1302C45.8111 29.1302 42.4054 30.9547 41.189 30.4073C39.9727 29.7992 40.3984 27.9747 41.0066 27.9139C42.6486 27.7314 46.176 27.549 46.9666 27.6706C47.818 27.7314 51.1021 29.5559 49.7033 29.6776Z" fill="#363B3E"></path> <path d="M25.8028 29.6775C25.8028 29.6775 27.9922 29.1302 28.8436 29.1302C29.6342 29.1302 33.1008 30.9546 34.3171 30.4073C35.5334 29.7991 35.1077 27.9746 34.4995 27.9138C32.8575 27.7314 29.3302 27.5489 28.5395 27.6705C27.6881 27.7314 24.404 29.5559 25.8028 29.6775Z" fill="#363B3E"></path> <path d="M37.9659 16.0547C36.9928 19.3996 32.8573 20.6159 29.8165 21.2241C28.4785 21.4673 26.7149 21.5281 25.7418 22.5012C24.0997 24.2041 23.9781 27.1841 22.9442 29.191C22.1536 30.6506 22.0928 28.4612 21.9712 27.6098C21.7887 26.211 21.4846 24.8122 21.6671 23.4134C21.8495 22.1971 22.2144 21.0416 22.4577 19.8253C22.6402 18.8522 22.7618 17.8183 23.1875 16.9061C24.2822 14.6559 26.8365 13.0747 29.2083 12.5273C30.6679 12.2232 32.0667 12.0408 33.5263 12.1016C34.5602 12.1624 35.8981 11.98 36.7495 12.5273C37.7834 13.2571 38.27 15.0208 37.9659 16.0547Z" fill="#363B3E"></path> <path d="M37.5402 16.0547C38.5133 19.3996 42.6488 20.6159 45.6896 21.2241C47.0276 21.4673 48.7912 21.5281 49.7643 22.5012C51.4063 24.2041 51.528 27.1841 52.5619 29.191C53.3525 30.6506 53.4133 28.4612 53.5349 27.6098C53.7174 26.211 54.0214 24.8122 53.839 23.4134C53.6565 22.1971 53.2916 21.0416 53.0484 19.8253C52.8659 18.8522 52.7443 17.8183 52.3186 16.9061C51.2239 14.6559 48.6696 13.0747 46.2978 12.5273C44.8382 12.2232 43.4394 12.0408 41.9798 12.1016C40.9459 12.1624 39.608 11.98 38.7565 12.5273C37.7227 13.2571 37.2361 15.0208 37.5402 16.0547Z" fill="#363B3E"></path> <path d="M33.8305 13.5004C33.1615 13.5004 32.2493 13.4396 31.6411 13.0747C32.4317 13.0747 33.2223 13.0747 34.0129 12.8922C34.6819 12.7098 35.655 12.5273 36.1415 12.0408C35.7158 12.2841 34.986 12.1624 34.4995 12.0408C34.0738 11.98 33.2832 11.8584 32.9183 11.4935C33.5264 11.6151 34.2562 11.5543 34.9252 11.311C35.5334 11.1286 36.0199 10.8853 36.628 10.5812C36.2023 10.7637 35.4725 10.642 35.0468 10.5812C34.4995 10.5204 33.9521 10.3988 33.4048 10.2771C34.6819 10.2771 35.7766 10.1555 36.9321 9.54734C36.324 9.48653 35.7158 9.30408 35.1685 9C35.2293 9 35.2293 9 35.2901 9C35.8374 9.06082 36.7497 9.3649 37.4187 9.3649C37.4187 9.3649 37.4795 9.3649 37.5403 9.3649C37.7836 9.3649 37.966 9.42572 38.1484 9.3649C38.3917 9.30409 38.635 9.30408 38.8783 9.24326C38.9999 9.30408 39.1823 9.30409 39.304 9.3649C39.7297 9.42572 40.277 9.3649 40.7027 9.30408C40.0338 9.48653 39.4256 10.0339 38.6958 10.0339C39.7297 10.642 41.3109 11.0069 42.5272 11.0069C41.3109 11.1894 40.2162 11.7367 38.9391 11.4327C39.5472 11.7976 40.5811 12.1624 41.3109 12.2233C40.7636 12.5273 39.4864 12.5273 38.8783 12.5882C39.6689 13.5612 41.2501 13.622 42.4056 13.622C41.7974 13.7437 41.4934 13.9869 40.8244 14.1086C40.2162 14.1694 39.6689 14.1694 39.0607 14.2302C39.304 14.8384 40.7027 14.96 41.2501 15.0208C40.5203 15.2641 39.7905 15.1424 39.0607 15.2033C39.3648 15.629 39.8513 15.7506 40.277 15.9939C41.0068 16.298 41.8583 16.3588 42.5881 16.602C42.0407 16.602 41.4934 16.7845 40.946 16.7845C40.277 16.7845 39.4864 16.6629 38.9391 16.3588C39.7297 17.0886 40.8244 17.2102 41.8582 17.3926C41.4325 17.4535 41.0676 17.5751 40.6419 17.5751C40.1554 17.5143 39.6689 17.3318 39.2432 17.271C39.6081 17.5751 40.0946 17.7575 40.5203 17.94C40.8852 18.0616 41.2501 18.1833 41.615 18.2441C41.7974 18.3049 42.1623 18.2441 42.284 18.3049C41.7974 18.3049 41.3717 18.4265 40.8852 18.4265C40.277 18.4265 38.5134 18.3657 37.9052 18.1224C37.7227 18.0616 37.6011 17.94 37.5403 17.8792C36.4456 18.8522 34.7427 18.9131 33.344 18.9131C34.2562 18.4873 35.2901 18.1833 36.0199 17.3318C35.1076 18.0616 33.5264 18.4874 32.4925 17.8792C32.7966 17.7576 33.1007 17.8184 33.4048 17.7575C33.7697 17.6967 34.1346 17.5143 34.4995 17.3926C34.986 17.1494 35.4117 16.7845 35.8374 16.4804C35.1685 16.7845 33.7697 17.1494 33.1007 16.7845C34.1954 16.7237 35.2901 16.1155 36.2023 15.4465C35.5942 15.7506 34.7427 15.8722 34.0129 15.8722C33.5872 15.8722 32.3709 15.9331 32.0668 15.5682C32.7966 15.5073 33.4048 15.3857 34.1346 15.1425C34.8036 14.8992 35.2293 14.5343 35.8374 14.1694C34.986 14.4127 34.1954 14.1694 33.344 14.2302C34.1346 14.0478 35.0468 13.8653 35.5942 13.2571C35.0468 13.5612 34.4387 13.5612 33.8305 13.5004Z" fill="#FED7B8"></path> <circle cx="37" cy="37" r="36.5" stroke="black"></circle> <path d="M37.7233 21.5567C37.5408 21.5567 37.4192 21.5567 37.2368 21.4958C37.1151 21.4958 37.0543 21.3742 37.0543 21.2526C37.0543 21.131 37.1759 21.0701 37.2976 21.0701C37.5408 21.1309 37.8449 21.1309 38.0882 21.0701C38.2098 21.0701 38.3315 21.131 38.3315 21.2526C38.3315 21.3742 38.2706 21.4958 38.149 21.4958C38.0882 21.5567 37.9057 21.5567 37.7233 21.5567ZM39.0612 21.2526C39.0004 21.2526 38.8788 21.1918 38.8788 21.1309C38.818 21.0093 38.8788 20.8877 39.0004 20.8269C39.0613 20.8269 39.1221 20.766 39.1829 20.7052C39.3653 20.5836 39.6086 20.462 39.791 20.3403C39.9127 20.2795 40.0343 20.3403 40.0951 20.462C40.1559 20.5836 40.0951 20.7052 39.9735 20.766C39.791 20.8877 39.5478 21.0093 39.3653 21.0701C39.3045 21.1309 39.2437 21.1309 39.1829 21.1918C39.1221 21.2526 39.0612 21.2526 39.0612 21.2526ZM36.4461 21.2526C36.3853 21.2526 36.3853 21.2526 36.3245 21.2526C36.2637 21.1918 36.2029 21.1918 36.1421 21.1309C35.9596 21.0093 35.7772 20.8877 35.5339 20.766C35.4123 20.7052 35.4123 20.5836 35.4123 20.462C35.4731 20.3403 35.5947 20.3403 35.7163 20.3403C35.9596 20.462 36.1421 20.5836 36.3245 20.7052C36.3853 20.766 36.4462 20.766 36.507 20.766C36.6286 20.8269 36.6286 20.9485 36.6286 21.0701C36.6286 21.1918 36.507 21.2526 36.4461 21.2526ZM40.6425 20.462C40.5817 20.462 40.46 20.4012 40.46 20.3403C40.3992 20.2187 40.46 20.0971 40.5817 20.0363C40.8857 19.9146 41.1898 19.8538 41.4939 19.7322C41.6155 19.7322 41.7372 19.793 41.7372 19.9146C41.7372 20.0363 41.6763 20.1579 41.5547 20.1579C41.3115 20.2187 41.0074 20.2795 40.7641 20.4011C40.6425 20.462 40.6425 20.462 40.6425 20.462ZM34.8649 20.462H34.8041C34.5 20.3403 34.2568 20.2795 34.0135 20.2187C33.8919 20.2187 33.8311 20.0971 33.8311 19.9754C33.8311 19.8538 33.9527 19.793 34.0743 19.793C34.3784 19.8538 34.6825 19.9754 34.9866 20.0363C35.1082 20.0971 35.169 20.2187 35.1082 20.3403C35.0474 20.4012 34.9866 20.462 34.8649 20.462Z" fill="#FF2972"></path> </svg> 