<?xml version="1.0" encoding="UTF-8"?> <svg xmlns="http://www.w3.org/2000/svg" width="74" height="74" viewBox="0 0 74 74" fill="none"> <path d="M56.9995 66.9C51.9995 65.4487 46.3959 65.4487 46.3959 65.4487C46.3959 65.4487 46.3959 65.4487 46.3959 65.5487C43.7959 61.7487 44.5959 52.4487 44.5959 52.4487L36.9959 49.2487L29.3959 52.4487C29.3959 52.4487 30.1959 61.7487 27.5959 65.5487C27.5959 65.5487 27.5959 65.5487 27.5959 65.4487C27.5959 65.4487 21.4995 65.4487 16.1995 66.9C15.1995 67.8 21.3 68 20.5 69.5C20.5 69.5 30.3424 73.7245 37.5 73.5C44.1255 73.2922 54.9959 69 54.9959 69C54.1959 67.5 57.9995 67.8 56.9995 66.9Z" fill="#FED7B8"></path> <path d="M50.1961 24.0487C49.2961 22.5487 48.0961 21.3487 46.7961 20.2487C44.0961 18.1487 39.8961 22.9487 36.8961 24.5487C33.9961 22.9487 29.6961 18.1487 26.9961 20.2487C25.6961 21.3487 24.4961 22.5487 23.5961 24.0487C21.7961 26.8487 20.4961 27.2487 20.4961 30.6487C20.4961 34.3487 24.0961 43.4487 24.7961 44.1487C26.0961 45.4487 27.9961 47.3487 29.8961 47.7487H29.9961C32.9961 45.2487 34.2961 44.2487 36.8961 42.0487C39.4961 44.1487 40.7961 45.2487 43.7961 47.7487H43.8961C45.7961 47.3487 47.6961 45.4487 48.9961 44.1487C49.6961 43.4487 53.2961 34.3487 53.2961 30.6487C53.3961 27.2487 52.0961 26.8487 50.1961 24.0487Z" fill="#363B3E"></path> <path d="M29.396 52.4487C29.396 52.5487 29.396 52.6487 29.396 52.7487C29.396 52.8487 29.396 52.8487 29.396 52.9487C29.596 56.9487 29.296 62.2487 27.896 64.9487C31.796 66.2487 35.996 66.6487 39.596 65.3487C41.596 64.6487 43.196 63.5487 44.896 61.5487C44.896 61.5487 43.996 56.0487 44.496 52.3487L36.896 49.1487L29.296 52.3487C29.396 52.4487 29.396 52.4487 29.396 52.4487Z" fill="#FFD0AB"></path> <path d="M23.9958 40.2487C23.9958 40.2487 22.3958 38.7487 21.3958 39.4487C21.0958 39.7487 20.4958 40.5487 20.9958 41.6487C22.2958 44.8487 22.5958 47.2487 23.7958 47.7487C24.6958 48.1487 26.0958 46.8487 26.0958 46.8487L23.9958 40.2487Z" fill="#FED7B8"></path> <path d="M24.8955 45.4487C24.6955 40.7487 21.8955 40.7487 21.8955 40.7487C22.5955 41.6487 22.7955 42.3487 22.8955 43.3487C22.9955 43.6487 23.0955 44.6487 23.0955 45.0487C22.8955 47.0487 24.8955 47.2487 24.8955 45.4487Z" fill="#FFD0AB"></path> <path d="M49.8959 40.2487C49.8959 40.2487 51.4959 38.7487 52.4959 39.4487C52.7959 39.7487 53.3959 40.5487 52.8959 41.6487C51.5959 44.8487 51.2959 47.2487 50.0959 47.7487C49.1959 48.1487 47.7959 46.8487 47.7959 46.8487L49.8959 40.2487Z" fill="#FED7B8"></path> <path d="M49.0957 45.4487C49.2957 40.7487 52.0957 40.7487 52.0957 40.7487C51.3957 41.6487 51.1957 42.3487 51.0957 43.3487C50.9957 43.6487 50.8957 44.6487 50.8957 45.0487C51.0957 47.0487 48.9957 47.2487 49.0957 45.4487Z" fill="#FFD0AB"></path> <path d="M36.9958 18.5487C34.7958 18.5487 21.3958 18.2487 22.2958 31.0487C22.6958 37.5487 23.3958 46.1487 24.5958 49.1487C26.6958 54.3487 34.2958 60.8487 36.8958 60.8487C39.4958 60.8487 47.1957 54.3487 49.1957 49.1487C50.3957 46.1487 51.0958 37.5487 51.4958 31.0487C52.5958 18.6487 39.1958 18.5487 36.9958 18.5487Z" fill="#FED7B8"></path> <path d="M51.7959 33.3487H50.6959C50.7959 34.7487 50.8959 36.2487 50.7959 37.5487C50.3959 42.4487 47.7959 47.1487 46.9959 49.2487C46.8959 49.4487 46.8959 49.5487 46.7959 49.7487C46.2959 50.0487 45.8959 50.3487 45.3959 50.6487C44.0959 50.2487 40.8959 49.2487 37.0959 49.2487C33.2959 49.2487 30.0959 50.2487 28.7959 50.6487C28.2959 50.3487 27.8959 50.0487 27.3959 49.7487C27.2959 49.5487 27.1959 49.4487 27.1959 49.2487C26.3959 47.1487 23.7959 42.4487 23.3959 37.5487C23.2959 36.2487 23.1959 34.8487 23.1959 33.3487H22.2959C22.6959 38.3487 23.3959 43.9487 24.2959 47.3487C24.2959 47.3487 24.2959 47.3487 24.1959 47.3487C24.5959 51.4487 25.0959 54.2487 25.7959 56.0487C27.6959 60.8487 34.6959 63.1487 37.0959 63.1487C39.4959 63.1487 46.4959 60.8487 48.3959 56.0487C49.0959 54.2487 49.5959 51.4487 49.9959 47.3487C49.9959 47.3487 49.9959 47.3487 49.8959 47.3487C50.6959 43.9487 51.3959 38.3487 51.7959 33.3487ZM36.9959 54.4487C35.6959 54.4487 33.5959 53.5487 31.1959 52.1487C33.2959 50.9487 36.8959 50.8487 36.9959 50.8487C37.0959 50.8487 40.7959 50.9487 42.7959 52.1487C40.3959 53.4487 38.1959 54.4487 36.9959 54.4487Z" fill="#363B3E"></path> <path d="M29.896 18.8487C26.196 17.9487 22.696 19.8487 21.296 24.3487C20.396 27.1487 20.296 31.8487 21.296 34.8487C21.896 35.1487 22.496 35.3487 23.096 35.6487C23.196 34.1487 23.096 32.5487 23.696 31.1487C23.996 30.4487 24.396 29.8487 24.896 29.3487C25.496 28.8487 26.196 28.4487 26.596 27.7487C27.396 26.5487 27.596 25.2487 28.096 23.9487C28.596 22.8487 29.496 21.9487 30.096 20.8487C30.496 20.2487 31.096 19.1487 29.896 18.8487Z" fill="#363B3E"></path> <path d="M43.9959 18.8487C47.6959 17.9487 51.1959 19.8487 52.5959 24.3487C53.4959 27.1487 53.5959 31.8487 52.5959 34.8487C51.9959 35.1487 51.3959 35.3487 50.7959 35.6487C50.6959 34.1487 50.7959 32.5487 50.1959 31.1487C49.8959 30.4487 49.4959 29.8487 48.9959 29.3487C48.3959 28.8487 47.6959 28.4487 47.2959 27.7487C46.4959 26.5487 46.2959 25.2487 45.7959 23.9487C45.2959 22.8487 44.3959 21.9487 43.7959 20.8487C43.2959 20.2487 42.6959 19.1487 43.9959 18.8487Z" fill="#363B3E"></path> <path d="M47.6959 19.9487C46.2959 18.3487 44.2959 17.7487 42.1959 17.5487C40.6959 17.4487 38.8959 17.2487 36.8959 17.1487C34.9959 17.2487 33.0959 17.4487 31.5959 17.5487C29.4959 17.7487 27.4959 18.3487 26.0959 19.9487C24.7959 21.5487 20.7959 26.2487 22.3959 28.3487C23.0959 29.3487 23.7959 29.9487 25.1959 28.8487C26.6959 27.7487 28.1959 26.9487 28.7959 26.7487C30.9959 26.0487 33.7959 27.0487 35.8959 27.5487C36.2959 27.6487 36.5959 27.8487 36.8959 27.8487C37.1959 27.8487 37.4959 27.6487 37.8959 27.5487C39.9959 27.0487 42.7959 26.0487 44.9959 26.7487C45.5959 26.9487 47.0959 27.7487 48.5959 28.8487C49.9959 29.9487 50.6959 29.3487 51.3959 28.3487C52.9959 26.2487 49.0959 21.5487 47.6959 19.9487Z" fill="#363B3E"></path> <path d="M35.4957 26.8487C33.6957 25.3487 31.1957 24.5487 29.3957 22.7487C27.9957 21.2487 27.4957 18.3487 28.9957 16.6487C30.5957 14.8487 33.9957 14.8487 36.2957 15.1487C38.8957 15.5487 41.1957 16.1487 43.7957 16.4487C45.7957 16.6487 47.9957 16.8487 49.9957 16.1487C50.6957 19.9487 49.7957 24.6487 45.5957 25.8487C43.5957 26.4487 41.4957 25.9487 39.4957 26.5487C37.1957 27.1487 37.3957 28.4487 35.4957 26.8487Z" fill="#363B3E"></path> <circle cx="37" cy="37" r="36.5" stroke="black"></circle> </svg> 