<?xml version="1.0" encoding="UTF-8"?> <svg xmlns="http://www.w3.org/2000/svg" width="74" height="74" viewBox="0 0 74 74" fill="none"> <path d="M61 64.5C57.2656 61.2907 42.6961 60.7112 42.6961 60.7112V60.7696C40.187 57.0351 40.9455 47.9324 40.9455 47.9324L33.535 44.7815L22.7985 33.7532C22.7985 33.7532 26.8247 57.0935 24.3156 60.8279V60.7696C24.3156 60.7696 18 63 12.5003 64C11.5083 64.8169 15.2586 64.5624 14.5 66.0211L24.3156 71L35.5002 74L47.5 72L53.5 69.5L58 66.5C57.1831 64.9829 61.9336 65.3753 61 64.5Z" fill="#FFD0AB"></path> <path d="M33.1265 53.4757C34.5852 57.9687 38.0279 59.3108 41.9374 59.4275C40.3036 55.2263 40.8871 47.9908 40.8871 47.9908L33.4766 44.8399L31.8428 42.8559C32.2512 46.4153 32.0762 50.2081 33.1265 53.4757Z" fill="#FED7B8"></path> <path d="M39.0205 15.0227C36.9199 15.0227 21.457 14.5559 21.5153 28.1516C21.8654 34.5118 23.7326 36.6124 29.1009 44.8399C32.0768 49.3912 38.5537 56.2182 41.1211 56.2182C43.2801 56.2182 50.749 58.3189 53.6082 53.7675C53.7832 53.4758 53.7249 52.8922 53.7249 52.6005C53.7249 51.9003 53.6665 51.2001 53.6082 50.5582C53.5498 49.858 53.4331 49.2745 53.3164 48.6326C53.1997 47.9908 53.7249 47.6407 54.0166 47.1155C54.3667 46.532 53.7248 46.4153 53.258 46.1819C53.8415 45.8902 54.3084 45.5401 54.075 44.8399C53.8416 44.1396 53.3747 43.1477 53.8415 42.5058C54.1333 42.039 54.7168 41.8056 55.1836 41.5139C55.8838 41.1054 57.5177 40.4636 56.9341 39.3549C55.5921 36.9625 53.7249 34.3951 53.8999 32.5862C54.075 30.719 54.7168 27.8015 54.25 26.1677C50.5156 13.9724 41.1211 15.0227 39.0205 15.0227Z" fill="#FED7B8"></path> <path d="M53.4326 45.7735C53.841 45.5984 54.1911 45.2483 54.1328 44.7815C54.0744 44.5481 54.0161 44.373 53.8994 44.198C53.8994 44.1396 53.7243 43.7895 53.7243 43.7895C50.2233 43.8479 46.6639 45.7735 45.4385 46.1819C41.9375 45.5984 42.346 35.0369 41.9375 30.2522C41.8208 29.0268 39.1367 29.3769 39.1367 29.3769C29.042 28.7351 32.7765 50.2665 33.0682 51.6085C33.3016 52.9506 35.0521 55.343 37.6779 56.8017C39.5451 57.852 41.7625 59.3108 48.181 58.0854C49.6398 57.7937 53.2575 57.1518 53.9577 55.8098C54.3078 55.1096 54.4829 52.3671 53.3159 48.2825C52.674 47.9908 50.5734 47.699 49.2313 47.2906C48.9396 47.1739 48.9396 46.7654 49.2313 46.7071C50.6901 46.4737 53.3742 45.8318 53.4326 45.7735Z" fill="#363B3E"></path> <path d="M41.9957 30.7774C41.9957 30.7774 41.5289 25.4674 41.0037 24.3588C38.9031 20.2159 38.1446 17.0066 32.5429 16.4814C30.4423 16.248 25.2491 16.073 21.573 21.6163C17.0216 28.3266 22.2732 34.7452 23.0317 36.6708C23.2652 36.4957 24.7239 35.3287 25.1324 34.9786C26.241 34.045 29.2753 34.5701 29.9755 35.212C31.5509 36.7291 30.8507 39.0631 29.3336 40.4052C28.1082 41.4555 25.6575 42.8559 24.3155 43.7312C24.1988 45.365 24.7823 47.8741 24.7823 47.8741C25.3658 48.7493 33.4765 45.365 33.5349 41.8056C33.5932 36.0289 33.9433 38.2462 36.0439 34.9202C37.1526 33.2281 38.4363 32.2945 41.704 34.9786C41.704 34.9786 41.6456 30.7774 41.9957 30.7774Z" fill="#363B3E"></path> <path d="M36.2774 36.1456C36.2774 36.1456 34.7019 34.6868 33.7683 35.3871C33.4182 35.6205 31.726 37.2543 32.1345 38.3629C33.3598 41.5139 34.8769 42.9726 36.044 43.4394C36.9776 43.8479 38.2613 42.5642 38.2613 42.5642L36.2774 36.1456Z" fill="#FFD0AB"></path> <path d="M37.0945 41.1638C36.9195 36.6124 34.2354 36.6124 34.2354 36.6124C34.9356 37.4877 35.1106 38.1879 35.2273 39.1215C35.2857 39.4132 35.4024 40.3469 35.4024 40.7553C35.169 42.7976 37.1529 42.9143 37.0945 41.1638Z" fill="#FED7B8"></path> <path d="M41.5293 24.7089C41.4126 24.7089 41.2959 24.6505 41.2959 24.5338C41.2959 24.4171 41.3543 24.3004 41.5293 24.3004C41.646 24.3004 41.7627 24.2421 41.9378 24.2421C42.0545 24.1837 42.1712 24.2421 42.2295 24.3588C42.2879 24.4755 42.1712 24.5922 42.0545 24.5922C41.8211 24.6505 41.646 24.7089 41.5293 24.7089Z" fill="#D32943"></path> <path d="M52.2069 24.1254C52.0318 24.1254 51.8568 24.1254 51.6817 24.1254C51.565 24.1254 51.4483 24.0087 51.4483 23.892C51.4483 23.7753 51.565 23.7169 51.6817 23.7169C51.9735 23.7169 52.2652 23.7169 52.557 23.6586C52.6737 23.6002 52.7904 23.7169 52.8488 23.8336C52.9071 23.9503 52.7904 24.067 52.6737 24.067C52.557 24.067 52.3819 24.067 52.2069 24.1254ZM50.8648 23.892C50.8065 23.892 50.8065 23.892 50.7481 23.892C50.6898 23.892 50.6314 23.8336 50.5731 23.8336C50.398 23.7169 50.1646 23.6586 49.9312 23.5419C49.8145 23.4835 49.7562 23.3668 49.8145 23.2501C49.8729 23.1334 49.9896 23.0751 50.1063 23.1334C50.3397 23.2501 50.5731 23.3085 50.8065 23.4252C50.8648 23.4252 50.9232 23.4835 50.9815 23.4835C51.0982 23.5419 51.1566 23.6586 51.0982 23.7753C51.0399 23.8336 50.9232 23.892 50.8648 23.892ZM42.8124 24.3588C42.6957 24.3588 42.6374 24.3004 42.579 24.2421C42.5207 24.1254 42.579 24.0087 42.6958 23.9503L43.571 23.6586C43.6877 23.6002 43.8044 23.6586 43.8628 23.7753C43.9211 23.892 43.8628 24.0087 43.7461 24.067L42.8708 24.3588C42.8708 24.3004 42.8708 24.3588 42.8124 24.3588ZM44.563 23.7169C44.4463 23.7169 44.3879 23.6586 44.3296 23.6002C44.2712 23.4835 44.3296 23.3668 44.4463 23.3085C44.738 23.1918 45.0298 23.1334 45.3215 23.0167C45.4382 22.9584 45.5549 23.0167 45.6133 23.1334C45.6716 23.2501 45.5549 23.3668 45.4382 23.3668C45.2048 23.4835 44.9131 23.6002 44.563 23.7169C44.6213 23.7169 44.6213 23.7169 44.563 23.7169ZM49.1143 23.3085H49.056C48.7642 23.2501 48.4725 23.1918 48.1807 23.1334C48.064 23.1334 47.9473 23.0167 48.0056 22.9C48.0056 22.7833 48.1224 22.725 48.2391 22.725C48.5308 22.7833 48.8809 22.8417 49.1727 22.9C49.2894 22.9584 49.3477 23.0751 49.3477 23.1334C49.2894 23.1918 49.231 23.2501 49.1143 23.3085ZM46.3718 23.1918C46.2551 23.1918 46.1384 23.1334 46.1384 23.0167C46.1384 22.9 46.1968 22.7833 46.3135 22.7833C46.6052 22.725 46.897 22.6666 47.1887 22.6666H47.2471C47.3638 22.6666 47.4805 22.725 47.4805 22.8417C47.4805 22.9584 47.3638 23.0751 47.2471 23.0751H47.1887C46.9553 23.1334 46.7219 23.1334 46.3718 23.1918Z" fill="#D32943"></path> <path d="M24.0819 36.6124C24.1403 36.7875 24.0236 36.9625 23.9069 37.0209C23.7318 37.0792 23.5568 36.9625 23.4984 36.8458C23.4401 36.6708 23.5568 36.4957 23.6735 36.4374C23.8485 36.3207 24.0236 36.4374 24.0819 36.6124Z" fill="#D32943"></path> <path d="M26.0663 35.3871C26.1247 35.5621 26.008 35.7372 25.8912 35.7955C25.7162 35.8539 25.5412 35.7372 25.4828 35.6205C25.4245 35.4454 25.5411 35.2703 25.6579 35.212C25.8329 35.1536 26.008 35.212 26.0663 35.3871Z" fill="#D32943"></path> <path d="M25.308 36.6124C25.3664 36.7875 25.2497 36.9625 25.133 37.0209C24.9579 37.0792 24.7829 36.9625 24.7245 36.8458C24.6662 36.6708 24.7829 36.4957 24.8996 36.4374C25.133 36.3207 25.2497 36.4374 25.308 36.6124Z" fill="#D32943"></path> <path d="M27.7577 35.0953C27.8161 35.2703 27.6994 35.4454 27.5827 35.5037C27.4076 35.5621 27.2326 35.4454 27.1742 35.3287C27.1159 35.1536 27.2326 34.9786 27.3493 34.9202C27.5243 34.8035 27.6994 34.9202 27.7577 35.0953Z" fill="#D32943"></path> <path d="M29.392 35.6788C29.4503 35.8539 29.3337 36.0289 29.2169 36.0873C29.0419 36.1456 28.8668 36.0289 28.8085 35.9122C28.7501 35.7371 28.8668 35.5621 28.9836 35.5037C29.1586 35.4454 29.3336 35.5037 29.392 35.6788Z" fill="#D32943"></path> <path d="M27.2333 36.379C27.2917 36.5541 27.1749 36.7291 27.0582 36.7875C26.8832 36.8458 26.7081 36.7291 26.6498 36.6124C26.5914 36.4374 26.7081 36.2623 26.8248 36.204C26.9999 36.1456 27.175 36.2623 27.2333 36.379Z" fill="#D32943"></path> <path d="M24.3153 38.8297C24.3737 39.0048 24.257 39.1798 24.1403 39.2382C23.9652 39.2965 23.7902 39.1798 23.7318 39.0631C23.6735 38.8881 23.7902 38.713 23.9069 38.6547C24.0819 38.5963 24.257 38.6547 24.3153 38.8297Z" fill="#D32943"></path> <path d="M25.1908 37.9545C25.2492 38.1295 25.1325 38.3046 25.0158 38.3629C24.8407 38.4213 24.6657 38.3046 24.6073 38.1879C24.549 38.0128 24.6657 37.8378 24.7824 37.7794C24.9574 37.7211 25.1325 37.7794 25.1908 37.9545Z" fill="#D32943"></path> <path d="M26.5331 37.4877C26.5915 37.6627 26.4748 37.8378 26.3581 37.8961C26.183 37.9545 26.008 37.8378 25.9496 37.7211C25.8913 37.546 26.0079 37.371 26.1246 37.3126C26.2997 37.2543 26.4748 37.371 26.5331 37.4877Z" fill="#D32943"></path> <path d="M26.2992 38.8297C26.3576 39.0048 26.2409 39.1798 26.1242 39.2382C25.9491 39.2965 25.7741 39.1798 25.7157 39.0631C25.6574 38.8881 25.7741 38.713 25.8908 38.6547C26.0658 38.5963 26.2409 38.6547 26.2992 38.8297Z" fill="#D32943"></path> <path d="M28.6337 36.9042C28.692 37.0792 28.5753 37.2543 28.4586 37.3126C28.2836 37.371 28.1085 37.2543 28.0502 37.1376C27.9918 36.9625 28.1085 36.7875 28.2252 36.7291C28.4003 36.6708 28.5753 36.7291 28.6337 36.9042Z" fill="#D32943"></path> <path d="M29.9755 37.7794C30.0338 37.9545 29.9171 38.1295 29.8004 38.1879C29.6254 38.2462 29.4503 38.1295 29.392 38.0128C29.3336 37.8378 29.4503 37.6627 29.567 37.6044C29.7421 37.4877 29.9171 37.6044 29.9755 37.7794Z" fill="#D32943"></path> <path d="M30.4423 36.4957C30.5006 36.6708 30.3839 36.8458 30.2672 36.9042C30.0922 36.9625 29.9171 36.8458 29.8588 36.7291C29.8004 36.5541 29.9171 36.379 30.0338 36.3206C30.2089 36.2623 30.3839 36.3207 30.4423 36.4957Z" fill="#D32943"></path> <path d="M27.8749 38.0712C27.9333 38.2462 27.8166 38.4213 27.6999 38.4796C27.5248 38.538 27.3497 38.4213 27.2914 38.3046C27.233 38.1295 27.3498 37.9545 27.4665 37.8961C27.6415 37.8378 27.8166 37.8961 27.8749 38.0712Z" fill="#D32943"></path> <path d="M25.308 39.705C25.3664 39.88 25.2497 40.0551 25.133 40.1134C24.9579 40.1718 24.7829 40.0551 24.7245 39.9384C24.6662 39.7633 24.7829 39.5883 24.8996 39.5299C25.133 39.4716 25.2497 39.5299 25.308 39.705Z" fill="#D32943"></path> <path d="M24.6073 40.9304C24.6657 41.1054 24.549 41.2805 24.4323 41.3388C24.2572 41.3972 24.0822 41.2805 24.0238 41.1638C23.9655 40.9887 24.0822 40.8137 24.1989 40.7553C24.4323 40.697 24.6073 40.8137 24.6073 40.9304Z" fill="#D32943"></path> <path d="M26.0077 41.5722C26.0661 41.7473 25.9494 41.9223 25.8327 41.9807C25.6576 42.039 25.4826 41.9223 25.4242 41.8056C25.3659 41.6306 25.4826 41.4555 25.5993 41.3972C25.7743 41.3388 25.9494 41.3972 26.0077 41.5722Z" fill="#D32943"></path> <path d="M26.5912 40.2302C26.6496 40.4052 26.5329 40.5803 26.4162 40.6386C26.2411 40.697 26.0661 40.5803 26.0077 40.4636C25.9494 40.2885 26.0661 40.1135 26.1828 40.0551C26.3578 39.9968 26.5329 40.1135 26.5912 40.2302Z" fill="#D32943"></path> <path d="M27.5834 39.4132C27.6418 39.5883 27.5251 39.7633 27.4084 39.8217C27.2333 39.88 27.0582 39.7634 26.9999 39.6467C26.9415 39.4716 27.0583 39.2965 27.175 39.2382C27.35 39.1798 27.5251 39.2382 27.5834 39.4132Z" fill="#D32943"></path> <path d="M28.5751 40.1718C28.6335 40.3469 28.5168 40.5219 28.4001 40.5803C28.225 40.6386 28.0499 40.5219 27.9916 40.4052C27.9332 40.2302 28.0499 40.0551 28.1666 39.9968C28.3417 39.9384 28.5168 40.0551 28.5751 40.1718Z" fill="#D32943"></path> <path d="M25.0155 42.5642C25.0739 42.7392 24.9572 42.9143 24.8405 42.9726C24.6654 43.031 24.4904 42.9143 24.432 42.7976C24.3737 42.6225 24.4904 42.4475 24.6071 42.3891C24.7821 42.3308 24.9572 42.4475 25.0155 42.5642Z" fill="#D32943"></path> <path d="M27.4662 41.1638C27.5246 41.3388 27.4079 41.5139 27.2912 41.5722C27.1161 41.6306 26.9411 41.5139 26.8827 41.3972C26.8244 41.2221 26.9411 41.0471 27.0578 40.9887C27.2328 40.9304 27.4079 41.0471 27.4662 41.1638Z" fill="#D32943"></path> <path d="M28.9252 38.6547C28.9835 38.8297 28.8668 39.0048 28.7501 39.0631C28.5751 39.1215 28.4 39.0048 28.3417 38.8881C28.2833 38.713 28.4 38.538 28.5167 38.4796C28.6918 38.4213 28.8668 38.4796 28.9252 38.6547Z" fill="#D32943"></path> <path d="M29.9169 39.0631C29.9752 39.2382 29.8586 39.4132 29.7419 39.4716C29.5668 39.5299 29.3917 39.4132 29.3334 39.2965C29.275 39.1215 29.3918 38.9464 29.5085 38.8881C29.6835 38.8297 29.8585 38.9464 29.9169 39.0631Z" fill="#D32943"></path> <path d="M23.3882 40.499L17.6836 40.8911L17.7556 41.9389L23.4603 41.5468L23.3882 40.499Z" fill="#BFB8B8"></path> <path d="M20.5105 40.3646L17.6582 40.5608L17.7743 42.2489L20.6266 42.0527L20.5105 40.3646Z" fill="#959595"></path> <path d="M19.7645 42.3891L19.5894 40.0551L15.6216 39.9384L15.7966 43.0893L19.7645 42.3891Z" fill="#666666"></path> <path d="M19.7647 42.2141L19.648 40.9304H15.6802L15.7969 42.7392L19.7647 42.2141Z" fill="#404040"></path> <path d="M19.7064 41.864V41.2805L15.6802 41.4555L15.7385 42.2141L19.7064 41.864Z" fill="#2E2E2E"></path> <path d="M15.7167 39.9475L0.677734 40.9818L0.89392 44.1252L15.9329 43.0909L15.7167 39.9475Z" fill="#BFB8B8"></path> <path d="M15.8376 40.9936L1 42.143L1.10314 43.8311L15.9407 42.6818L15.8376 40.9936Z" fill="#958F8F"></path> <path d="M15.8879 41.4708L1.04883 42.6182L1.09499 43.375L15.9341 42.2276L15.8879 41.4708Z" fill="#757372"></path> <circle cx="37" cy="37" r="36.5" stroke="black"></circle> </svg> 