<?xml version="1.0" encoding="UTF-8"?> <svg xmlns="http://www.w3.org/2000/svg" width="116" height="116" viewBox="0 0 116 116" fill="none"> <circle cx="58" cy="58" r="57.5" stroke="#515845"></circle> <path d="M87.1988 64.3585H28.8008C27.3893 64.3585 26.2451 64.9161 26.2451 65.6038C26.2451 66.2916 27.3893 66.8491 28.8008 66.8491H87.1988C88.6103 66.8491 89.7546 66.2916 89.7546 65.6038C89.7546 64.9161 88.6103 64.3585 87.1988 64.3585Z" fill="#515845"></path> <path d="M31.7676 37.4414H51.1035C51.6163 37.4414 52.1082 37.6451 52.4708 38.0077C52.8334 38.3704 53.0371 38.8622 53.0371 39.375V45.1758H29.834V39.375C29.834 38.8622 30.0377 38.3704 30.4003 38.0077C30.7629 37.6451 31.2548 37.4414 31.7676 37.4414V37.4414Z" fill="#BA9C69"></path> <path d="M51.1035 45.1758H31.7676V49.043H51.1035V45.1758Z" fill="#515845"></path> <path d="M49.1699 60V74.8242C49.1699 76.8755 48.3551 78.8428 46.9046 80.2932C45.4541 81.7437 43.4868 82.5586 41.4355 82.5586C39.3843 82.5586 37.417 81.7437 35.9665 80.2932C34.516 78.8428 33.7012 76.8755 33.7012 74.8242V60H49.1699Z" fill="#940000"></path> <path d="M64.8965 37.4414H84.2324C84.7452 37.4414 85.2371 37.6451 85.5997 38.0077C85.9623 38.3704 86.166 38.8622 86.166 39.375V45.1758H62.9629V39.375C62.9629 38.8622 63.1666 38.3704 63.5292 38.0077C63.8918 37.6451 64.3837 37.4414 64.8965 37.4414Z" fill="#BA9C69"></path> <path d="M84.2324 45.1758H64.8965V49.043H84.2324V45.1758Z" fill="#515845"></path> <path d="M82.2988 60V74.8242C82.2988 76.8755 81.484 78.8428 80.0335 80.2932C78.583 81.7437 76.6157 82.5586 74.5645 82.5586C72.5132 82.5586 70.5459 81.7437 69.0954 80.2932C67.6449 78.8428 66.8301 76.8755 66.8301 74.8242V60H82.2988Z" fill="#940000"></path> <path d="M34.2012 49.543H48.6699V74.8242C48.6699 76.7429 47.9077 78.583 46.551 79.9397C45.1943 81.2964 43.3542 82.0586 41.4355 82.0586C39.5169 82.0586 37.6768 81.2964 36.3201 79.9397C34.9634 78.583 34.2012 76.7429 34.2012 74.8242V49.543Z" stroke="#515845"></path> <path d="M67.3301 49.543H81.7988V74.8242C81.7988 76.7429 81.0366 78.583 79.6799 79.9397C78.3232 81.2964 76.4831 82.0586 74.5645 82.0586C72.6458 82.0586 70.8057 81.2964 69.449 79.9397C68.0923 78.583 67.3301 76.7429 67.3301 74.8242V49.543Z" stroke="#515845"></path> </svg> 