<?xml version="1.0" encoding="UTF-8"?> <svg xmlns="http://www.w3.org/2000/svg" width="116" height="116" viewBox="0 0 116 116" fill="none"> <circle cx="58" cy="58" r="57.5" stroke="#515845"></circle> <g clip-path="url(#clip0_279_5771)"> <path d="M51.1768 73.2881C51.1768 77.9631 47.3869 81.7529 42.7119 81.7529C38.0369 81.7529 34.2471 77.9631 34.2471 73.2881C34.2471 68.6131 38.0369 64.8232 42.7119 64.8232C47.3869 64.8232 51.1768 68.6131 51.1768 73.2881Z" fill="#F5EEEC" stroke="#515845"></path> <path d="M45.7002 74.2842C45.7002 75.0767 45.3854 75.8368 44.8249 76.3972C44.2645 76.9576 43.5045 77.2725 42.7119 77.2725C41.9194 77.2725 41.1593 76.9576 40.5989 76.3972C40.0385 75.8368 39.7236 75.0767 39.7236 74.2842C39.7236 72.6337 42.7119 69.3037 42.7119 69.3037C42.7119 69.3037 45.7002 72.6337 45.7002 74.2842Z" fill="#BA9C69"></path> <path d="M62.1627 47.6007L48.6013 61.1621C48.2417 61.5217 47.754 61.7237 47.2454 61.7237C46.7369 61.7237 46.2492 61.5217 45.8896 61.1621L43.6293 58.9019L59.9039 42.6273L62.1642 44.8875C62.3423 45.0657 62.4836 45.2773 62.58 45.5101C62.6764 45.7429 62.7259 45.9924 62.7258 46.2444C62.7256 46.4964 62.6758 46.7459 62.5792 46.9786C62.4826 47.2113 62.3411 47.4227 62.1627 47.6007V47.6007Z" fill="#515845"></path> <path d="M57.1899 45.3413L46.343 56.1882L42.7262 52.5714C42.4888 52.334 42.3004 52.0521 42.1719 51.7419C42.0434 51.4316 41.9773 51.0991 41.9773 50.7634C41.9773 50.4276 42.0434 50.0951 42.1719 49.7848C42.3004 49.4746 42.4888 49.1927 42.7262 48.9553L49.957 41.7245C50.1945 41.4871 50.4763 41.2987 50.7866 41.1702C51.0968 41.0417 51.4293 40.9756 51.7651 40.9756C52.1009 40.9756 52.4334 41.0417 52.7436 41.1702C53.0538 41.2987 53.3357 41.4871 53.5731 41.7245L57.1899 45.3413Z" fill="#515845"></path> <path d="M35.49 34.4902C36.1018 33.8776 36.8397 33.4056 37.6525 33.1073C38.4653 32.809 39.3333 32.6914 40.1962 32.7628C41.059 32.8342 41.8959 33.0929 42.6486 33.5207C43.4013 33.9486 44.0517 34.5354 44.5544 35.2403L49.508 42.1751L43.1768 48.5053L36.242 43.5547C35.537 43.0521 34.9501 42.4018 34.522 41.6492C34.094 40.8966 33.8351 40.0597 33.7636 39.1969C33.692 38.334 33.8093 37.4659 34.1075 36.6531C34.4057 35.8402 34.8775 35.1021 35.49 34.4902V34.4902Z" fill="#BA9C69"></path> <path d="M76.5943 79.2148L78.8853 81.5058C79.1216 81.7482 79.4037 81.9412 79.7152 82.0736C80.0267 82.2061 80.3614 82.2754 80.6999 82.2776C81.0383 82.2797 81.3739 82.2146 81.687 82.086C82.0001 81.9575 82.2846 81.768 82.524 81.5287C82.7633 81.2893 82.9527 81.0048 83.0813 80.6917C83.2099 80.3786 83.275 80.0431 83.2728 79.7046C83.2707 79.3661 83.2014 79.0314 83.0689 78.7199C82.9364 78.4084 82.7434 78.1263 82.5011 77.89L80.2101 75.599C80.4426 74.7321 80.4428 73.8193 80.2106 72.9524C79.9784 72.0854 79.522 71.2949 78.8873 70.6604L75.5334 67.3025L61.0532 67.2876L71.6556 77.888C72.2898 78.5234 73.0801 78.9806 73.9471 79.2135C74.8141 79.4464 75.7271 79.4469 76.5943 79.2148Z" fill="#940000"></path> <path d="M42.7119 68.5566C42.6071 68.5567 42.5034 68.5788 42.4076 68.6216C42.3119 68.6643 42.2262 68.7267 42.1561 68.8047C41.6252 69.3963 38.9766 72.4414 38.9766 74.2842C38.9766 75.2749 39.3701 76.225 40.0706 76.9255C40.7711 77.626 41.7212 78.0195 42.7119 78.0195C43.7026 78.0195 44.6527 77.626 45.3532 76.9255C46.0537 76.225 46.4473 75.2749 46.4473 74.2842C46.4473 72.4414 43.7987 69.3963 43.2677 68.8057C43.1977 68.7275 43.1121 68.6649 43.0163 68.622C42.9206 68.5791 42.8168 68.5568 42.7119 68.5566V68.5566ZM42.7119 76.5254C42.1177 76.5249 41.5479 76.2886 41.1277 75.8684C40.7075 75.4482 40.4712 74.8784 40.4707 74.2842C40.4707 73.4873 41.6461 71.7521 42.7119 70.4522C43.7777 71.7521 44.9531 73.4883 44.9531 74.2842C44.9526 74.8784 44.7163 75.4482 44.2961 75.8684C43.8759 76.2886 43.3062 76.5249 42.7119 76.5254V76.5254Z" fill="#BA9C69"></path> <path d="M57.2251 62.6L69.3376 61.325L75.7126 67.7L62.3251 68.3375L57.2251 62.6Z" fill="#BA9C69"></path> <path d="M76.9478 78.8613L76.7438 78.6572L76.465 78.7318C75.6827 78.9412 74.859 78.9407 74.0768 78.7306C73.2947 78.5205 72.5816 78.108 72.0095 77.5348L72.0092 77.5345L52.4727 57.998L58.9982 51.4725L78.5337 71.0139L78.5338 71.014C79.1064 71.5864 79.5181 72.2996 79.7276 73.0817C79.9371 73.8639 79.937 74.6874 79.7272 75.4694L79.6523 75.7484L79.8565 75.9525L82.1475 78.2436L82.1475 78.2436L82.152 78.248C82.347 78.4381 82.5022 78.665 82.6088 78.9156C82.7154 79.1662 82.7711 79.4354 82.7728 79.7077C82.7745 79.98 82.7222 80.2499 82.6187 80.5018C82.5153 80.7537 82.3629 80.9826 82.1704 81.1751C81.9778 81.3677 81.749 81.5201 81.4971 81.6235C81.2452 81.7269 80.9753 81.7793 80.703 81.7776C80.4307 81.7758 80.1614 81.7201 79.9109 81.6135C79.6603 81.507 79.4334 81.3517 79.2432 81.1567L79.2433 81.1567L79.2388 81.1523L76.9478 78.8613Z" stroke="#515845"></path> </g> <defs> <clipPath id="clip0_279_5771"> <rect width="51" height="51" fill="white" transform="translate(33 32)"></rect> </clipPath> </defs> </svg> 