<?xml version="1.0" encoding="UTF-8"?> <svg xmlns="http://www.w3.org/2000/svg" width="116" height="116" viewBox="0 0 116 116" fill="none"> <circle cx="58" cy="58" r="57.5" stroke="#515845"></circle> <path d="M57.5001 29C50.0329 29 43.9946 42.2289 43.9946 58.5C43.9946 74.7711 50.0329 88 57.5001 88C64.9673 88 71.0056 74.7711 71.0056 58.5C71.0056 42.2289 64.9673 29 57.5001 29ZM57.5001 85.557C51.3696 85.557 46.4376 73.4344 46.4376 58.5C46.4376 43.5656 51.3696 31.443 57.5001 31.443C63.6306 31.443 68.5626 43.5656 68.5626 58.5C68.5626 73.4344 63.6306 85.557 57.5001 85.557Z" fill="#515845"></path> <path d="M64.2757 46.7922C50.1711 38.6336 35.6976 37.2969 31.964 43.75C28.2304 50.2031 36.6195 62.0492 50.7242 70.2078C64.8289 78.3664 79.3023 79.7031 83.0359 73.25C86.7695 66.7969 78.3804 54.9508 64.2757 46.7922ZM80.9156 72.0055C77.8734 77.3062 64.9211 75.5086 51.9687 68.0414C39.0164 60.6203 31.0422 50.2492 34.0843 44.9945C37.1265 39.6937 50.0789 41.4453 63.0312 48.9125C75.9836 56.3797 83.9578 66.7508 80.9156 72.0055ZM58.0992 54.8125C55.7023 54.8125 53.8125 56.7484 53.8125 59.0992C53.8125 61.4961 55.7484 63.3859 58.0992 63.3859C60.4961 63.3859 62.3859 61.45 62.3859 59.0992C62.432 56.7484 60.4961 54.8125 58.0992 54.8125Z" fill="#BA9C69"></path> <path d="M83.0359 43.75C79.3023 37.2969 64.8289 38.6336 50.7242 46.7922C36.6195 54.9508 28.2304 66.7969 31.964 73.25C35.6976 79.7031 50.1711 78.3664 64.2757 70.2078C78.3804 62.0492 86.7695 50.2031 83.0359 43.75ZM63.0312 68.0875C50.0789 75.5547 37.1265 77.3062 34.0843 72.0516C31.0422 66.7508 39.0164 56.3797 51.9687 48.9125C64.9211 41.4453 77.8734 39.6937 80.9156 44.9484C83.9578 50.2492 75.9836 60.6203 63.0312 68.0875Z" fill="#515845"></path> </svg> 