<?xml version="1.0" encoding="UTF-8"?> <svg xmlns="http://www.w3.org/2000/svg" width="116" height="116" viewBox="0 0 116 116" fill="none"> <circle cx="58" cy="58" r="57.5" stroke="#515845"></circle> <path d="M48.4483 52.5862C49.2001 50.5814 48.4483 47.1034 48.4483 47.1034C48.4483 43.9965 46.0725 41.6207 42.9656 41.6207H39.3104C36.2035 41.6207 33.8276 43.9965 33.8276 47.1034V59.8451C33.8276 59.8451 46.4435 57.9324 48.4483 52.5862Z" fill="#BA9C69"></path> <path d="M42.9657 41.6207V37.9655C42.9657 36.869 42.0519 36.1379 41.1381 36.1379C40.5899 36.1379 40.2243 36.3207 39.8588 36.6862C39.4933 37.0517 39.3105 37.4172 39.3105 37.9655V41.6207H42.9657Z" fill="#515845"></path> <path d="M81.345 37.9655V41.6207C81.345 42.5345 80.4312 43.4483 79.5174 43.4483H57.5864C56.6726 43.4483 55.7588 42.5345 55.7588 41.6207V37.9655C55.7588 37.0517 56.6726 36.1379 57.5864 36.1379H79.5174C80.4312 36.1379 81.345 37.0517 81.345 37.9655Z" fill="#515845"></path> <path d="M78.604 41.6207V37.9655C78.604 37.0517 77.6902 36.1379 76.7764 36.1379H79.5177C80.4315 36.1379 81.3453 37.0517 81.3453 37.9655V41.6207C81.3453 42.5345 80.4315 43.4483 79.5177 43.4483H76.7764C77.6902 43.4483 78.604 42.5345 78.604 41.6207Z" fill="#515845"></path> <path d="M83.1725 56.2414H53.9312V70.8621H83.1725V56.2414Z" fill="#BA9C69"></path> <path d="M83.1725 56.2414H80.4312V70.8621H83.1725V56.2414Z" fill="#BA9C69"></path> <path d="M44.7933 70.8621H37.4829V80H44.7933V70.8621Z" fill="#515845"></path> <path d="M48.4483 70.862H33.8276V46.1896C33.8276 43.631 35.838 41.6207 38.3966 41.6207H43.8794C46.438 41.6207 48.4483 43.631 48.4483 46.1896V70.862Z" stroke="#515845" stroke-miterlimit="10" stroke-linecap="round" stroke-linejoin="round"></path> <path d="M39.3105 41.6207H42.9657V37.9655C42.9657 36.869 42.0519 36.1379 41.1381 36.1379C40.5899 36.1379 40.2243 36.3207 39.8588 36.6862C39.4933 37.0517 39.3105 37.4172 39.3105 37.9655" stroke="#515845" stroke-miterlimit="10" stroke-linecap="round" stroke-linejoin="round"></path> <path d="M41.1382 36.1379V27" stroke="#515845" stroke-miterlimit="10" stroke-linecap="round" stroke-linejoin="round"></path> <path d="M44.7933 70.8621H37.4829V80H44.7933V70.8621Z" stroke="#515845" stroke-miterlimit="10" stroke-linecap="round" stroke-linejoin="round"></path> <path d="M42.9653 58.069H48.4481V63.5517H42.9653" stroke="#515845" stroke-miterlimit="10" stroke-linecap="round" stroke-linejoin="round"></path> <path d="M42.9653 47.1035H48.4481V52.5862H42.9653" stroke="#515845" stroke-miterlimit="10" stroke-linecap="round" stroke-linejoin="round"></path> <path d="M48.4483 80H33.8276" stroke="#515845" stroke-miterlimit="10" stroke-linecap="round" stroke-linejoin="round"></path> <path d="M32 70.8621H50.2759" stroke="#515845" stroke-miterlimit="10" stroke-linecap="round" stroke-linejoin="round"></path> <path d="M59.4139 45.4586C59.4139 46.3724 58.8657 47.1034 57.9519 47.2861C55.576 47.8344 53.9312 50.0275 53.9312 52.5861V74.5172C53.9312 77.6241 56.307 79.9999 59.4139 79.9999H77.6898C80.7967 79.9999 83.1725 77.6241 83.1725 74.5172V52.5861C83.1725 50.0275 81.5277 48.0172 79.1518 47.2861C78.238 47.1034 77.6898 46.3724 77.6898 45.4586" stroke="#515845" stroke-miterlimit="10" stroke-linecap="round" stroke-linejoin="round"></path> <path d="M72.2072 65.3793H61.2417" stroke="#515845" stroke-miterlimit="10" stroke-linecap="round" stroke-linejoin="round"></path> <path d="M61.2417 61.7241H75.8624" stroke="#515845" stroke-miterlimit="10" stroke-linecap="round" stroke-linejoin="round"></path> </svg> 