<?xml version="1.0" encoding="UTF-8"?> <svg xmlns="http://www.w3.org/2000/svg" width="603" height="233" viewBox="0 0 603 233" fill="none"> <path fill-rule="evenodd" clip-rule="evenodd" d="M412.935 156.736C409.531 157.076 405.446 161.161 401.021 168.99L388.426 190.435V205.753C388.426 208.477 389.447 210.519 391.149 211.2C392.17 211.54 394.213 211.881 397.617 212.221V214.604H368.683V212.221C374.129 212.221 377.193 210.859 377.533 207.796C377.533 207.115 377.873 206.094 377.873 204.732V192.137L359.492 161.501C358.13 159.459 357.109 158.097 356.428 157.416C355.407 156.395 353.705 156.055 351.662 156.055V153.672H379.916V156.055C376.852 156.055 375.15 156.395 374.81 156.395C372.767 156.736 371.746 157.757 371.746 159.459C371.746 160.48 372.767 162.863 374.81 166.267L387.064 187.031L395.234 173.075C398.297 167.969 399.659 164.224 399.659 161.501C399.659 159.799 398.978 158.438 397.957 157.416C396.936 156.395 395.574 156.055 393.872 156.055V153.672H412.935V156.736ZM522.203 77.0817C519.48 81.5069 517.778 86.9534 517.778 93.421C517.778 99.8887 518.799 105.675 520.501 110.781C522.884 117.249 525.948 122.015 530.713 124.738C533.437 126.44 536.16 127.121 539.223 127.121C541.606 127.121 544.329 126.44 546.712 125.419C550.797 123.376 553.861 119.972 555.563 115.207C557.265 111.122 557.946 106.356 557.946 101.25C557.946 93.421 556.244 86.2725 553.18 80.4857C549.095 72.9969 543.649 69.2525 536.16 69.2525C530.373 68.9121 525.607 71.6353 522.203 77.0817ZM275.413 77.0817C272.689 81.5069 270.987 86.9534 270.987 93.421C270.987 99.8887 272.009 105.675 273.711 110.781C276.093 117.249 279.157 122.015 283.923 124.738C286.646 126.44 289.369 127.121 292.433 127.121C294.815 127.121 297.539 126.44 299.921 125.419C304.006 123.376 307.07 119.972 308.772 115.207C310.474 111.122 311.155 106.356 311.155 101.25C311.155 93.421 309.453 86.2725 306.389 80.4857C302.304 72.9969 296.858 69.2525 289.369 69.2525C283.242 68.9121 278.476 71.6353 275.413 77.0817ZM218.906 98.5271V119.632C218.906 122.355 219.927 124.057 222.31 125.078C223.672 125.759 226.054 126.099 229.118 126.099C237.968 126.099 242.394 121.674 242.394 112.824C242.394 108.399 241.372 104.995 238.99 102.612C236.607 100.229 233.203 98.8674 229.118 98.8674H218.906V98.5271ZM218.906 76.7413V95.8038H227.076C230.139 95.8038 232.522 95.4634 234.224 94.7826C236.607 94.1018 238.309 92.3997 239.33 90.3573C240.351 87.9745 241.032 85.5918 241.032 83.209C241.032 80.8262 240.351 78.4434 239.33 76.0606C237.968 73.3373 236.266 71.6353 234.224 70.9545C232.522 70.2737 230.139 69.9333 227.076 69.9333C224.352 69.9333 222.31 70.2737 220.948 70.9545C219.927 72.3161 218.906 74.0181 218.906 76.7413ZM313.538 120.653C307.07 126.78 299.241 129.503 290.05 129.503C281.199 129.503 273.711 126.44 267.924 120.313C262.137 114.185 259.073 106.697 259.073 97.8462C259.073 88.315 262.137 80.8261 267.924 75.0393C274.051 69.2525 281.54 66.5293 291.071 66.5293C300.262 66.5293 307.751 69.5929 313.878 75.3797C320.005 81.1665 323.069 88.6554 323.069 97.8462C323.409 107.037 320.005 114.526 313.538 120.653ZM249.202 101.931C252.606 104.654 254.308 108.399 254.308 113.164C254.308 123.376 246.819 128.142 231.501 128.142H199.163V125.759C202.567 125.759 204.609 125.419 205.971 124.397C207.673 123.376 208.354 121.334 208.354 118.27V78.103C208.354 74.699 207.673 72.3162 206.311 71.295C204.95 70.2738 202.907 69.9333 199.163 69.9333V67.5505H232.862C237.968 67.5505 242.734 68.9121 246.478 71.295C250.904 74.0182 252.946 78.103 252.946 82.8686C252.946 86.9534 251.244 90.017 248.18 92.7402C245.457 95.123 241.713 96.4846 237.628 96.825V97.1654C242.394 98.527 246.479 100.229 249.202 101.931ZM394.893 125.759C392.511 125.759 390.809 126.78 389.447 128.482H387.064V106.697H389.787C394.553 120.313 401.701 127.121 410.892 127.121C414.296 127.121 417.36 126.1 420.083 123.717C422.466 121.674 423.828 118.611 423.828 115.207C423.828 111.803 422.806 109.079 421.104 107.377C418.381 104.654 413.615 102.952 405.786 101.591C397.617 100.569 391.83 97.8462 389.107 93.7614C387.064 91.0381 386.043 87.6342 386.043 84.2302C386.043 79.4645 387.745 75.0393 390.809 71.6353C393.872 68.2313 397.957 66.5293 403.063 66.5293C404.425 66.5293 406.467 66.8697 409.531 67.2101C412.254 67.8909 414.637 67.8909 415.998 67.8909C417.36 67.8909 419.062 67.5505 420.424 66.8697H423.828L425.87 84.5706H422.806C420.083 79.4646 417.36 75.7201 414.977 73.6777C411.573 70.2737 407.488 68.5717 403.063 68.5717C399.999 68.5717 397.276 69.5929 394.893 71.6353C392.511 73.6777 391.489 76.401 391.489 79.4646C391.489 82.5282 392.511 84.5706 394.893 86.2726C397.957 88.315 403.744 90.017 412.594 91.3786C424.508 93.0806 430.636 99.2078 430.636 109.76C430.636 115.207 428.593 119.632 424.849 123.376C421.104 127.121 416.339 129.163 411.233 129.163C409.531 129.163 406.807 128.482 403.063 127.461C399.319 126.44 396.936 125.759 394.893 125.759ZM383.66 112.824L377.873 128.142H325.792V125.759C331.238 125.759 334.302 124.398 334.983 122.015C335.323 121.334 335.323 120.313 335.323 119.291V76.7413C335.323 73.3373 334.302 71.6353 331.919 70.9545C330.558 70.6141 328.515 70.2737 325.792 70.2737V67.8909H355.747V70.2737C352.003 70.2737 349.62 70.6142 348.599 71.295C346.897 72.3162 345.876 74.3585 345.876 77.7626V119.632C345.876 122.355 346.897 124.057 348.599 125.078C350.301 125.759 352.684 126.099 356.428 126.099C361.534 126.099 365.959 125.078 369.704 122.695C372.767 120.993 375.831 117.589 379.575 113.164H383.66V112.824ZM503.481 128.142H474.888V125.759C478.292 125.759 480.674 125.419 482.036 124.738C483.398 124.057 484.079 122.015 484.079 119.291V98.8674H453.442V119.632C453.442 122.355 454.464 124.057 456.166 125.078C457.527 125.759 459.57 126.099 462.293 126.099V128.482H433.699V126.099C437.103 126.099 439.146 125.759 440.167 125.078C441.869 124.057 442.55 122.355 442.55 119.291V77.0817C442.55 74.0181 441.869 72.3161 440.507 71.6353C439.146 70.9545 436.763 70.6141 433.359 70.6141V68.2313H461.952V70.6141C459.229 70.6141 457.187 70.9545 455.825 71.6353C454.123 72.6565 453.102 74.3585 453.102 77.0817V96.1442H483.738V77.4221C483.738 74.6989 482.717 72.6565 481.015 71.9757C479.653 71.2949 477.611 70.9545 474.888 70.9545V68.5717H503.481V70.9545C500.418 70.9545 498.375 71.2949 497.014 71.9757C495.312 72.9969 494.291 74.6989 494.291 77.4221V120.313C494.291 123.036 495.312 125.078 497.014 125.759C498.035 126.44 500.418 126.78 503.481 126.78V128.142ZM560.669 120.653C554.201 126.78 546.372 129.503 537.181 129.503C528.331 129.503 520.842 126.44 515.055 120.313C509.268 114.185 506.205 106.697 506.205 97.8462C506.205 88.315 509.268 80.8261 515.055 75.0393C521.182 69.2525 528.671 66.5293 538.202 66.5293C547.393 66.5293 554.882 69.5929 561.009 75.3797C567.136 81.1665 570.2 88.6554 570.2 97.8462C570.2 107.037 567.136 114.526 560.669 120.653ZM602.538 128.142H574.285V125.759C577.689 125.759 580.072 125.419 581.093 124.738C582.454 123.717 583.135 121.674 583.135 118.27V77.7626C583.135 75.0393 582.454 72.9969 580.752 71.6353C579.391 70.6141 577.348 69.9333 574.285 69.9333V67.5505H602.879V69.9333C599.815 69.9333 597.432 70.2738 596.411 71.295C595.049 72.3162 594.028 74.3585 594.028 77.4221V117.93C594.028 120.993 594.709 123.036 596.411 124.057C597.773 125.078 599.815 125.419 602.879 125.419V128.142H602.538ZM326.813 156.736C332.26 156.736 336.685 157.757 339.748 159.118C343.152 160.82 346.216 163.884 348.939 168.309H352.003L348.939 154.012H294.475L291.411 168.309H294.135C297.539 164.224 300.943 161.161 303.666 159.459C307.07 157.416 311.495 156.395 316.261 156.395V205.073C316.261 208.477 315.24 210.519 313.538 211.54C312.176 212.221 310.134 212.561 306.389 212.561V214.944H336.344V212.561C332.6 212.561 329.877 211.881 328.856 210.859C327.494 209.838 326.813 208.136 326.813 205.413V156.736ZM280.519 205.073C280.519 208.136 281.199 210.179 282.901 211.2C284.263 212.221 286.305 212.561 289.369 212.561V214.944H260.775V212.561C264.179 212.561 266.562 212.221 267.583 211.54C268.945 210.519 269.626 208.477 269.626 205.073V164.565C269.626 161.842 268.945 159.799 267.243 158.438C265.881 157.416 263.839 156.736 260.775 156.736V154.353H289.369V156.736C286.305 156.736 283.923 157.076 282.901 158.097C281.54 159.118 280.519 161.161 280.519 164.224V205.073ZM259.073 202.009C252.606 211.54 243.415 215.965 231.841 215.965C222.991 215.965 215.502 212.902 209.715 207.115C203.588 200.988 200.524 193.839 200.524 184.989C200.524 176.139 203.588 168.65 209.375 162.522C215.162 156.395 222.65 153.332 231.501 153.332C233.203 153.332 235.926 153.672 239.33 154.693C242.734 155.714 245.457 156.055 247.159 156.055C249.542 156.055 251.244 155.374 252.946 153.672H256.35V172.734H253.627C248.181 161.501 241.032 155.714 232.522 155.714C225.714 155.714 220.608 158.778 217.204 165.246C214.14 170.352 212.779 176.819 212.779 183.968C212.779 191.457 214.481 197.924 218.225 203.371C222.31 209.498 228.097 212.561 235.245 212.561C243.415 212.561 250.563 208.477 256.35 200.647L259.073 202.009Z" fill="white"></path> <path fill-rule="evenodd" clip-rule="evenodd" d="M21.8142 4.57657C27.2606 6.95938 34.409 1.8533 34.409 22.2774V88.996C38.1534 86.9536 49.3867 82.5284 60.9603 80.486C63.3431 80.1456 65.0451 79.8053 67.0875 78.1033C68.4491 76.7417 69.4703 75.0396 69.4703 71.976V42.7014V12.4058C69.4703 5.25733 73.8956 2.53416 80.0228 2.87456C86.4904 3.21496 93.6388 8.6614 98.064 18.533C102.83 29.0855 103.51 46.4459 98.7449 59.3812C95.0004 69.9336 89.554 74.0184 80.0228 77.082C77.2996 78.1032 76.9592 79.1245 80.0228 79.8053C120.871 90.0173 143.337 119.292 140.274 159.119C138.231 190.436 119.85 227.199 86.4904 227.88C43.5998 228.561 27.601 166.267 43.5998 127.802C51.0887 106.356 66.7471 98.1869 79.0016 97.5061C91.256 97.1657 103.851 104.654 89.554 124.738C73.8956 147.205 102.149 173.416 120.19 157.417C121.552 156.055 122.913 154.693 123.935 153.332C132.104 140.737 126.658 126.1 118.829 115.207C111.68 105.676 101.808 99.8889 93.2984 96.8253C80.0228 92.0597 63.0027 91.7193 51.0887 94.7829C25.899 101.591 0.709302 127.461 0.0284995 158.098C-0.652303 183.287 10.9213 202.009 28.6222 215.966C43.2594 227.539 65.0451 233.326 86.8308 232.986C114.403 232.645 137.891 223.455 156.273 199.967C170.569 181.585 174.654 158.778 168.867 135.291C166.144 123.036 160.698 112.824 154.23 104.655C144.699 92.0597 129.381 81.8476 115.084 77.4224C123.594 71.6356 128.7 64.8276 131.764 59.0408C141.635 39.9783 135.508 20.235 117.807 8.321C108.616 1.85338 98.4045 0.151289 88.8732 0.151289C74.9168 -0.189112 60.9603 0.151289 47.3442 0.151289H21.1334C17.7294 -0.189112 18.4101 3.21496 21.8142 4.57657Z" fill="white"></path> <path fill-rule="evenodd" clip-rule="evenodd" d="M210.734 6.95935H216.861V1.51302V1.1726H217.202H218.563H218.904V1.51302V15.8098V16.1502H218.563H217.202H216.861V15.8098V9.00178H210.734V15.8098V16.1502H210.394H209.032H208.692V15.8098V1.51302V1.1726H209.032H210.394H210.734V1.51302V6.95935ZM230.818 1.1726L236.605 15.8098L236.945 16.1502H236.264H234.903H234.562V15.8098L233.201 12.0654H227.754L226.393 15.8098V16.1502H226.052H224.691H224.01L224.35 15.8098L230.137 1.1726L230.477 0.15133L230.818 1.1726ZM230.477 5.25735L228.435 10.3634H232.52L230.477 5.25735ZM243.753 16.1502H242.391H242.051V15.8098V1.51302V1.1726H242.391H243.753H244.094V1.51302V15.8098V16.1502H243.753ZM258.731 5.25735C258.731 5.93815 258.731 6.27855 258.39 6.95935C258.05 7.29976 258.05 7.98064 257.369 8.32104C257.029 8.66144 256.688 9.00178 256.008 9.00178C255.667 9.00178 254.986 9.3422 254.646 9.3422L258.731 15.8098L259.071 16.4907H258.39H257.029H256.688L252.263 9.68263V16.4907V16.8311H251.923H250.902H250.561V16.4907V2.19376V1.85334H250.902H254.306C254.986 1.85334 255.667 1.85336 256.008 2.19376C256.688 2.53416 257.029 2.5342 257.369 2.8746C257.71 3.215 258.05 3.55538 258.39 4.23619C258.731 4.23619 258.731 4.57655 258.731 5.25735ZM254.306 7.29978C254.646 7.29978 254.986 7.29978 255.327 7.29978C255.667 7.29978 256.008 6.95935 256.008 6.95935C256.348 6.61895 256.348 6.61902 256.348 6.27861C256.348 5.93821 256.348 5.93817 256.348 5.59777C256.348 5.25737 256.348 4.91703 256.348 4.91703C256.348 4.57663 256.008 4.57659 256.008 4.23619C255.667 3.89578 255.667 3.89576 255.327 3.89576C254.986 3.89576 254.646 3.89576 254.306 3.89576H252.263V7.98062H254.306V7.29978ZM280.516 1.51302V2.8746V3.21502H280.176H277.453V15.8098V16.1502H277.112H275.751H275.41V15.8098V3.21502H272.687H272.347V2.8746V1.51302V1.1726H272.687H279.836H280.176V1.51302H280.516ZM294.132 5.25735C294.132 5.93815 294.132 6.27855 293.792 6.95935C293.452 7.29976 293.452 7.98064 292.771 8.32104C292.43 8.66144 292.09 9.00178 291.409 9.00178C291.069 9.00178 290.388 9.3422 290.048 9.3422L294.132 15.8098L294.473 16.4907H293.792H292.43H292.09L287.665 9.68263V16.4907V16.8311H287.324H285.963H285.622V16.4907V2.19376V1.85334H285.963H289.367C290.048 1.85334 290.728 1.85336 291.069 2.19376C291.75 2.53416 292.09 2.5342 292.43 2.8746C292.771 3.215 293.111 3.55538 293.452 4.23619C294.132 4.23619 294.132 4.57655 294.132 5.25735ZM290.048 7.29978C290.388 7.29978 290.728 7.29978 291.069 7.29978C291.409 7.29978 291.75 6.95935 291.75 6.95935C292.09 6.61895 292.09 6.61902 292.09 6.27861C292.09 5.93821 292.09 5.93817 292.09 5.59777C292.09 5.25737 292.09 4.91703 292.09 4.91703C292.09 4.57663 291.75 4.57659 291.75 4.23619C291.409 3.89578 291.409 3.89576 291.069 3.89576C290.728 3.89576 290.388 3.89576 290.048 3.89576H288.005V7.98062H290.048V7.29978ZM305.025 1.1726L310.812 15.8098L311.153 16.1502H310.472H309.11H308.77V15.8098L307.408 12.0654H301.962L300.6 15.8098V16.1502H300.26H298.898H298.217L298.558 15.8098L304.344 1.1726L304.685 0.15133L305.025 1.1726ZM304.685 5.25735L302.642 10.3634H306.727L304.685 5.25735ZM326.811 1.1726H328.173H328.513V1.51302V16.1502V17.1714L327.832 16.4907L318.301 5.59777V15.8098V16.1502H317.961H316.599H316.259V15.8098V1.51302V0.491752L316.939 1.1726L326.471 12.0654V1.51302V1.1726H326.811ZM340.427 4.23619C340.427 3.89578 340.087 3.89574 340.087 3.55534L339.746 3.21502C339.746 3.21502 339.406 2.8746 339.065 2.8746C338.725 2.8746 338.725 2.8746 338.385 2.8746C338.044 2.8746 337.704 2.8746 337.363 2.8746C337.023 2.8746 337.023 3.21502 336.683 3.21502C336.683 3.21502 336.342 3.55536 336.342 3.89576C336.342 4.23617 336.342 4.23621 336.342 4.57661C336.342 4.91701 336.342 4.91695 336.683 5.25735C336.683 5.59775 337.023 5.59779 337.363 5.93819L338.725 6.61904C339.065 6.95944 339.746 6.95938 340.087 7.29978C340.427 7.64018 340.767 7.6402 340.767 7.6402C341.108 7.9806 341.448 8.32104 341.789 8.32104C342.129 8.66144 342.469 9.0018 342.469 9.3422C342.81 9.68261 342.81 10.023 343.15 10.3634C343.15 10.7038 343.491 11.0443 343.491 11.7251C343.491 12.7463 343.15 13.7674 342.129 14.7886C341.789 15.129 341.108 15.4694 340.767 15.8098C340.087 16.1502 339.746 16.1502 339.065 16.1502C338.385 16.1502 338.044 16.1502 337.363 15.8098C336.683 15.8098 336.342 15.4695 336.002 15.1291C335.661 14.7887 335.321 14.4482 334.981 14.1078C334.64 13.7674 334.3 13.427 334.3 12.7462V12.4058H334.64L335.661 12.0654H336.002V12.4058C336.002 12.7462 336.342 13.0867 336.342 13.4271C336.683 13.7675 336.683 13.7674 337.023 14.1078C337.363 14.1078 337.363 14.4482 337.704 14.4482C338.044 14.4482 338.385 14.4482 338.725 14.4482C339.065 14.4482 339.406 14.4482 339.746 14.4482C340.087 14.4482 340.427 14.1078 340.427 14.1078C340.767 13.7674 340.767 13.7675 340.767 13.4271C340.767 13.0867 340.767 12.7462 340.767 12.4058C340.767 11.725 340.427 10.7039 339.406 10.023C339.406 10.023 339.065 9.68263 338.725 9.68263C338.385 9.68263 338.044 9.34218 337.704 9.00178C337.023 8.66138 336.342 8.32102 336.002 7.98062C335.661 7.64022 335.321 7.64018 335.321 7.29978C334.981 6.95938 334.64 6.61902 334.3 6.27861C333.959 5.93821 333.959 5.25743 333.959 4.91703C333.959 4.23623 333.959 3.89574 334.3 3.55534C334.64 3.21494 334.64 2.87458 334.981 2.53418C335.321 2.19378 335.661 1.85334 336.342 1.85334C336.683 1.85334 337.363 1.51302 338.044 1.51302C339.065 1.51302 339.746 1.85336 340.427 2.19376C340.767 2.53416 341.108 2.5342 341.108 2.8746C341.448 3.215 341.448 3.55536 341.789 3.89576L342.129 4.23619H341.789L340.767 4.91703L340.427 4.23619ZM352.341 1.1726C353.022 1.1726 353.703 1.17262 354.043 1.51302C354.724 1.85342 355.064 1.85336 355.405 2.19376C355.745 2.53416 356.085 2.87454 356.426 3.55534C356.766 3.89574 356.766 4.57655 356.766 5.25735C356.766 5.93815 356.766 6.27855 356.426 6.95935C356.085 7.29976 356.085 7.98064 355.405 8.32104C355.064 8.66144 354.724 9.00178 354.043 9.00178C353.703 9.34218 353.022 9.3422 352.341 9.3422H350.299V16.1502V16.4907H349.958H348.597H348.256V16.1502V1.85334V1.51302H348.597H352.341V1.1726ZM352.341 7.29978C352.681 7.29978 353.022 7.29978 353.362 7.29978C353.703 7.29978 354.043 6.95935 354.043 6.95935C354.384 6.61895 354.383 6.61902 354.383 6.27861C354.383 5.93821 354.383 5.93817 354.383 5.59777C354.383 5.25737 354.383 4.91703 354.383 4.91703C354.383 4.57663 354.043 4.57659 354.043 4.23619C353.703 3.89578 353.703 3.89576 353.362 3.89576C353.022 3.89576 352.681 3.89576 352.341 3.89576H350.299V7.98062H352.341V7.29978ZM364.255 14.4482H367.319H367.659V14.7886V16.1502V16.4907H367.319H362.553H362.213V16.1502V1.85334V1.51302H362.553H363.915H364.255V1.85334V14.4482ZM379.573 1.1726L385.36 15.8098L385.7 16.1502H385.02H383.658H383.318V15.8098L381.956 12.0654H376.51L375.148 15.8098V16.1502H374.808H373.446H372.765L373.106 15.8098L378.892 1.1726L379.233 0.15133L379.573 1.1726ZM379.233 5.25735L377.19 10.3634H381.275L379.233 5.25735ZM401.359 1.1726H402.72H403.061V1.51302V16.1502V17.1714L402.38 16.4907L392.849 5.59777V15.8098V16.1502H392.508H391.147H390.806V15.8098V1.51302V0.491752L391.487 1.1726L401.018 12.0654V1.51302V1.1726H401.359ZM416.337 1.51302V2.8746V3.21502H415.996H413.273V15.8098V16.1502H412.933H411.571H411.231V15.8098V3.21502H408.507H408.167V2.8746V1.51302V1.1726H408.507H415.656H415.996V1.51302H416.337ZM425.527 1.1726L431.314 15.8098L431.655 16.1502H430.974H429.612H429.272V15.8098L427.91 12.0654H422.464L421.102 15.8098V16.1502H420.762H419.4H418.719L419.06 15.8098L424.847 1.1726L425.187 0.15133L425.527 1.1726ZM425.187 5.25735L423.145 10.3634H427.229L425.187 5.25735ZM441.867 1.51302V2.8746V3.21502H441.526H438.803V15.8098V16.1502H438.463H437.101H436.761V15.8098V3.21502H434.037H433.697V2.8746V1.51302V1.1726H434.037H441.186H441.526V1.51302H441.867ZM449.015 16.1502H447.653H447.313V15.8098V1.51302V1.1726H447.653H449.015H449.355V1.51302V15.8098V16.1502H449.015ZM470.801 8.66136C470.801 9.68256 470.46 10.7039 470.12 11.7251C469.779 12.7463 469.099 13.427 468.418 14.1078C467.737 14.7886 466.716 15.4694 466.035 15.8098C465.014 16.1502 463.993 16.4907 462.971 16.4907C461.95 16.4907 460.929 16.1502 459.908 15.8098C458.887 15.4694 458.206 14.7886 457.525 14.1078C456.844 13.427 456.163 12.4059 455.823 11.7251C455.483 10.7039 455.142 9.68256 455.142 8.66136C455.142 7.64016 455.483 6.61897 455.823 5.59777C456.163 4.57657 456.844 3.89583 457.525 3.21502C458.206 2.53422 459.227 1.85342 459.908 1.51302C460.929 1.17262 461.95 0.832174 462.971 0.832174C463.993 0.832174 465.014 1.17262 466.035 1.51302C467.056 1.85342 467.737 2.53422 468.418 3.21502C469.099 3.89583 469.779 4.91697 470.12 5.59777C470.46 6.61897 470.801 7.64016 470.801 8.66136ZM462.971 14.4482C463.652 14.4482 464.673 14.4482 465.354 14.1078C466.035 13.7674 466.716 13.427 467.056 12.7462C467.737 12.0654 468.077 11.725 468.418 11.0442C468.758 10.3634 468.758 9.68256 468.758 8.66136C468.758 7.98056 468.758 6.95942 468.418 6.27861C468.077 5.59781 467.737 4.91701 467.056 4.57661C466.375 3.89581 466.035 3.55543 465.354 3.21502C464.673 2.87462 463.993 2.8746 462.971 2.8746C462.291 2.8746 461.269 2.87462 460.589 3.21502C459.908 3.55543 459.227 3.89581 458.887 4.57661C458.206 5.25741 457.865 5.59781 457.525 6.27861C457.185 6.95942 457.185 7.64016 457.185 8.66136C457.185 9.34216 457.185 10.3634 457.525 11.0442C457.865 11.725 458.206 12.4058 458.887 12.7462C459.567 13.427 459.908 13.7674 460.589 14.1078C461.269 14.4482 462.291 14.4482 462.971 14.4482ZM487.14 1.1726H488.502H488.842V1.51302V16.1502V17.1714L488.161 16.4907L478.63 5.59777V15.8098V16.1502H478.29H476.928H476.588V15.8098V1.51302V0.491752L477.268 1.1726L486.8 12.0654V1.51302V1.1726H487.14ZM216.181 45.0843L215.159 43.7228C214.819 44.0632 214.479 44.4035 214.138 44.4035C213.798 44.7439 213.457 44.7439 213.117 45.0843C212.777 45.0843 212.436 45.4248 212.096 45.4248C211.755 45.4248 211.415 45.4248 211.075 45.4248C210.053 45.4248 209.032 45.0843 208.351 44.4035C208.011 44.0631 207.671 43.7227 207.671 43.0419C207.33 42.7015 207.33 42.0207 207.33 41.3399C207.33 40.3187 207.671 39.2975 208.351 38.6167C208.692 38.2763 209.032 37.9359 209.373 37.5955C209.713 37.2551 210.053 36.9147 210.394 36.5743L209.713 35.8935C209.713 35.5531 209.373 35.5531 209.373 35.2127C209.373 34.8723 209.032 34.8723 209.032 34.5319C209.032 34.1915 209.032 34.1915 209.032 33.8511C209.032 33.5107 209.032 33.5107 209.032 33.1703C209.032 32.1491 209.373 31.4682 210.053 30.7874C210.394 30.447 210.734 30.1067 211.075 30.1067C211.415 30.1067 212.096 29.7663 212.436 29.7663C212.777 29.7663 213.457 29.7663 213.798 30.1067C214.138 30.1067 214.479 30.447 214.819 30.7874C215.159 31.1278 215.5 31.4683 215.5 31.8087C215.84 32.1491 215.84 32.4895 215.84 33.1703C215.84 33.5107 215.84 33.8511 215.84 34.1915C215.84 34.5319 215.5 34.8723 215.5 35.2127C215.159 35.5531 215.159 35.8935 214.819 35.8935C214.479 36.2339 214.138 36.2339 213.798 36.5743L212.777 37.2551L215.159 40.6592L216.861 39.2975L217.202 38.9572L217.542 39.2975L218.223 40.3187L218.563 40.6592L218.223 40.9995L216.181 42.3612L217.542 44.4035L217.883 45.0843H217.202H216.181ZM213.457 35.2127C213.798 34.8723 213.798 34.8723 214.138 34.8723L214.479 34.5319L214.819 34.1915C214.819 34.1915 214.819 33.8511 214.819 33.5107V33.1703L214.479 32.8299C214.479 32.8299 214.138 32.4894 213.798 32.4894C213.457 32.4894 213.457 32.4894 213.117 32.4894C212.777 32.4894 212.777 32.4894 212.436 32.4894C212.096 32.4894 212.096 32.4895 212.096 32.8299L211.755 33.1703C211.755 33.1703 211.755 33.5107 211.755 33.8511C211.755 34.1915 211.755 34.1915 211.755 34.5319C211.755 34.8723 212.096 35.2127 212.096 35.2127L212.777 35.8935L213.457 35.2127ZM209.713 41.3399C209.713 41.6803 209.713 42.0207 209.713 42.0207C209.713 42.3611 210.053 42.3611 210.053 42.7015C210.053 42.7015 210.394 43.0419 210.734 43.0419C211.075 43.0419 211.075 43.0419 211.415 43.0419C211.755 43.0419 211.755 43.0419 212.096 43.0419C212.436 43.0419 212.436 43.0419 212.777 42.7015C213.117 42.7015 213.457 42.3612 213.457 42.3612C213.798 42.3612 213.798 42.0207 214.138 41.6803L211.755 38.2763C211.415 38.6167 211.075 38.6168 210.734 38.9572C210.394 39.2976 210.053 39.2975 210.053 39.6379L209.713 39.9783C209.713 39.9783 209.713 40.3187 209.373 40.3187V40.6592C209.713 40.9996 209.713 41.3399 209.713 41.3399ZM238.647 29.7663L244.434 44.4035L244.774 44.7439H244.094H242.732H242.391V44.4035L241.03 40.6592H235.583L234.222 44.4035V44.7439H233.881H232.52H231.839L232.179 44.4035L237.966 29.7663L238.307 28.7451L238.647 29.7663ZM238.307 34.1915L236.264 39.2975H240.349L238.307 34.1915ZM256.348 32.1491H250.902V35.8935H256.008H256.348V36.2339V37.5955V37.9359H256.008H250.902V43.3823H256.008H256.348V43.7228V45.0843V45.4248H256.008H249.2H248.859V45.0843V30.7874V30.4471H249.2H256.008H256.348V30.7874V32.1491V32.4894V32.1491ZM268.602 33.1703C268.602 32.8299 268.262 32.8298 268.262 32.4894L267.922 32.1491C267.922 32.1491 267.581 31.8087 267.241 31.8087C266.9 31.8087 266.9 31.8087 266.56 31.8087C266.22 31.8087 265.879 31.8087 265.539 31.8087C265.198 31.8087 265.198 32.1491 264.858 32.1491C264.858 32.1491 264.518 32.4895 264.518 32.8299C264.518 33.1703 264.518 33.1703 264.518 33.5107C264.518 33.8511 264.518 33.8511 264.858 34.1915C264.858 34.5319 265.198 34.5319 265.539 34.8723L266.9 35.5531C267.241 35.8935 267.922 35.8935 268.262 36.2339C268.602 36.5743 268.943 36.5743 268.943 36.5743C269.283 36.9147 269.624 37.2551 269.964 37.2551C270.304 37.5955 270.645 37.9359 270.645 38.2763C270.985 38.6167 270.985 38.9571 271.326 39.2975C271.326 39.6379 271.666 39.9784 271.666 40.6592C271.666 41.6804 271.326 42.7015 270.304 43.7228C269.964 44.0632 269.283 44.4035 268.943 44.7439C268.262 45.0843 267.922 45.0843 267.241 45.0843C266.56 45.0843 266.22 45.0843 265.539 44.7439C264.858 44.7439 264.518 44.4036 264.177 44.0632C263.837 43.7228 263.496 43.3823 263.156 43.0419C262.816 42.7015 262.475 42.3611 262.475 41.6803V41.3399H262.816L263.837 40.9995H264.177V41.3399C264.177 41.6803 264.518 42.0208 264.518 42.3612C264.858 42.7016 264.858 42.7015 265.198 43.0419C265.539 43.0419 265.539 43.3823 265.879 43.3823C266.22 43.3823 266.56 43.3823 266.9 43.3823C267.241 43.3823 267.581 43.3823 267.922 43.3823C268.262 43.3823 268.602 43.0419 268.602 43.0419C268.943 42.7015 268.943 42.7016 268.943 42.3612C268.943 42.0208 268.943 41.6803 268.943 41.3399C268.943 40.6591 268.602 39.638 267.581 38.9572C267.581 38.9572 267.241 38.6167 266.9 38.6167C266.56 38.6167 266.22 38.2763 265.879 37.9359C265.198 37.5955 264.518 37.2551 264.177 36.9147C263.837 36.5743 263.496 36.5743 263.496 36.2339C263.156 35.8935 262.816 35.5531 262.475 35.2127C262.135 34.8723 262.135 34.1915 262.135 33.8511C262.135 33.1703 262.135 32.8298 262.475 32.4894C262.816 32.149 262.816 31.8087 263.156 31.4683C263.496 31.1279 263.837 30.7874 264.518 30.7874C264.858 30.7874 265.539 30.4471 266.22 30.4471C267.241 30.4471 267.922 30.7875 268.602 31.1279C268.943 31.4683 269.283 31.4683 269.283 31.8087C269.624 32.1491 269.624 32.4895 269.964 32.8299L270.304 33.1703H269.964L268.943 33.8511L268.602 33.1703ZM283.92 30.4471V31.8087V32.1491H283.58H280.857V44.7439V45.0843H280.516H279.155H278.814V44.7439V32.1491H276.091H275.751V31.8087V30.4471V30.1067H276.091H283.24H283.58V30.4471H283.92ZM291.409 35.8935H297.536V30.4471V30.1067H297.877H299.238H299.579V30.4471V44.7439V45.0843H299.238H297.877H297.536V44.7439V37.9359H291.409V44.7439V45.0843H291.069H289.707H289.367V44.7439V30.4471V30.1067H289.707H291.069H291.409V30.4471V35.8935ZM313.195 32.1491H308.089V35.8935H313.195H313.535V36.2339V37.5955V37.9359H313.195H308.089V43.3823H313.195H313.535V43.7228V45.0843V45.4248H313.195H306.387H306.047V45.0843V30.7874V30.4471H306.387H313.195H313.535V30.7874V32.1491V32.4894H313.195V32.1491ZM326.811 30.4471V31.8087V32.1491H326.471H323.747V44.7439V45.0843H323.407H322.386H322.045V44.7439V32.1491H319.322H318.982V31.8087V30.4471V30.1067H319.322H326.471H326.811V30.4471ZM333.959 45.0843H332.598H332.257V44.7439V30.4471V30.1067H332.598H333.959H334.3V30.4471V44.7439V45.0843H333.959ZM342.129 37.5955C342.129 39.2975 342.81 40.6591 343.831 41.6803C344.852 42.7015 346.214 43.0419 347.575 43.0419C347.916 43.0419 348.256 43.0419 348.597 43.0419C348.937 43.0419 349.277 43.0419 349.277 43.0419C349.618 43.0419 349.618 43.0419 349.958 43.0419C350.299 43.0419 350.299 43.0419 350.639 42.7015C350.979 42.7015 351.32 42.3612 351.66 42.3612C352.001 42.0208 352.341 42.0207 352.681 41.6803L353.362 41.3399V42.0207V43.3823V43.7228C353.022 44.0632 352.681 44.0631 352.341 44.4035C352.001 44.7439 351.66 44.7439 351.32 44.7439C350.979 45.0843 350.299 45.0843 349.618 45.0843C348.937 45.0843 348.256 45.0843 347.916 45.0843C346.895 45.0843 345.873 44.7439 344.852 44.4035C343.831 44.0631 343.15 43.3823 342.469 42.7015C341.789 42.0207 341.108 40.9995 340.767 40.3187C340.427 39.2975 340.087 38.2764 340.087 37.2551C340.087 34.8723 340.767 33.1703 342.129 31.8087C342.81 31.1279 343.491 30.4471 344.512 30.1067C345.533 29.7663 346.554 29.4259 347.575 29.4259C348.256 29.4259 348.937 29.4259 349.277 29.4259C349.958 29.4259 350.299 29.4259 350.639 29.7663C350.979 29.7663 351.32 30.1067 351.66 30.1067C352.001 30.1067 352.341 30.447 352.681 30.7874H353.022V31.1279V32.4894V33.1703L352.341 32.8299C352.001 32.8299 351.66 32.4894 351.66 32.4894C351.32 32.4894 351.32 32.1491 350.979 32.1491C350.639 32.1491 350.639 31.8087 350.299 31.8087C349.958 31.8087 349.958 31.8087 349.618 31.4683C349.277 31.4683 348.937 31.4683 348.597 31.1279C348.256 30.7875 347.916 31.1279 347.575 31.1279C346.214 31.1279 344.852 31.4682 343.831 32.4894C343.15 33.1702 342.81 33.5107 342.469 34.1915C342.469 35.8935 342.129 36.9147 342.129 37.5955ZM369.361 37.5955C369.361 39.2975 370.042 40.6591 371.063 41.6803C372.084 42.7015 373.446 43.0419 374.808 43.0419C375.148 43.0419 375.488 43.0419 375.829 43.0419C376.169 43.0419 376.51 43.0419 376.51 43.0419C376.85 43.0419 376.85 43.0419 377.19 43.0419C377.531 43.0419 377.531 43.0419 377.871 42.7015C378.212 42.7015 378.552 42.3612 378.892 42.3612C379.233 42.0208 379.573 42.0207 379.914 41.6803L380.594 41.3399V42.0207V43.3823V43.7228C380.254 44.0632 379.914 44.0631 379.573 44.4035C379.233 44.7439 378.892 44.7439 378.552 44.7439C378.212 45.0843 377.531 45.0843 376.85 45.0843C376.169 45.0843 375.488 45.0843 375.148 45.0843C374.127 45.0843 373.106 44.7439 372.084 44.4035C371.063 44.0631 370.382 43.3823 369.702 42.7015C369.021 42.0207 368.34 40.9995 368 40.3187C367.659 39.2975 367.319 38.2764 367.319 37.2551C367.319 34.8723 368 33.1703 369.361 31.8087C370.042 31.1279 370.723 30.4471 371.744 30.1067C372.765 29.7663 373.786 29.4259 374.808 29.4259C375.488 29.4259 376.169 29.4259 376.51 29.4259C377.19 29.4259 377.531 29.4259 377.871 29.7663C378.212 29.7663 378.552 30.1067 378.892 30.1067C379.233 30.1067 379.573 30.447 379.914 30.7874H380.254V31.1279V32.4894V33.1703L379.573 32.8299C379.233 32.8299 378.892 32.4894 378.892 32.4894C378.552 32.4894 378.552 32.1491 378.212 32.1491C377.871 32.1491 377.871 31.8087 377.531 31.8087C377.19 31.8087 377.19 31.8087 376.85 31.4683C376.51 31.4683 376.169 31.4683 375.829 31.1279C375.488 30.7875 375.148 31.1279 374.808 31.1279C373.446 31.1279 372.084 31.4682 371.063 32.4894C370.382 33.1702 370.042 33.5107 369.702 34.1915C369.361 35.8935 369.361 36.9147 369.361 37.5955ZM388.083 43.0419H391.147H391.487V43.3823V44.7439V45.0843H391.147H386.381H386.041V44.7439V30.4471V30.1067H386.381H387.743H388.083V30.4471V43.0419ZM399.316 45.0843H397.955H397.614V44.7439V30.4471V30.1067H397.955H399.316H399.657V30.4471V44.7439V45.0843H399.316ZM417.017 30.1067H418.379H418.719V30.4471V45.0843V46.1055L418.039 45.4248L408.507 34.5319V44.7439V45.0843H408.167H406.805H406.465V44.7439V30.4471V29.4259L407.146 30.1067L416.677 40.9995V30.4471V30.1067H417.017ZM426.549 45.0843H425.187H424.847V44.7439V30.4471V30.1067H425.187H426.549H426.889V30.4471V44.7439V45.0843H426.549ZM434.718 37.5955C434.718 39.2975 435.399 40.6591 436.42 41.6803C437.441 42.7015 438.803 43.0419 440.165 43.0419C440.505 43.0419 440.845 43.0419 441.186 43.0419C441.526 43.0419 441.867 43.0419 441.867 43.0419C442.207 43.0419 442.207 43.0419 442.547 43.0419C442.888 43.0419 442.888 43.0419 443.228 42.7015C443.569 42.7015 443.909 42.3612 444.249 42.3612C444.59 42.0208 444.93 42.0207 445.271 41.6803L445.951 41.3399V42.0207V43.3823V43.7228C445.611 44.0632 445.271 44.0631 444.93 44.4035C444.59 44.7439 444.249 44.7439 443.909 44.7439C443.569 45.0843 442.888 45.0843 442.207 45.0843C441.526 45.0843 440.845 45.0843 440.505 45.0843C439.484 45.0843 438.463 44.7439 437.441 44.4035C436.42 44.0631 435.739 43.3823 435.059 42.7015C434.378 42.0207 433.697 40.9995 433.357 40.3187C433.016 39.2975 432.676 38.2764 432.676 37.2551C432.676 34.8723 433.357 33.1703 434.718 31.8087C435.399 31.1279 436.08 30.4471 437.101 30.1067C438.122 29.7663 439.143 29.4259 440.165 29.4259C440.845 29.4259 441.526 29.4259 441.867 29.4259C442.547 29.4259 442.888 29.4259 443.228 29.7663C443.569 29.7663 443.909 30.1067 444.249 30.1067C444.59 30.1067 444.93 30.447 445.271 30.7874H445.611V31.1279V32.4894V33.1703L444.93 32.8299C444.59 32.8299 444.249 32.4894 444.249 32.4894C443.909 32.4894 443.909 32.1491 443.569 32.1491C443.228 32.1491 443.228 31.8087 442.888 31.8087C442.547 31.8087 442.547 31.8087 442.207 31.4683C441.867 31.4683 441.526 31.4683 441.186 31.1279C440.845 30.7875 440.505 31.1279 440.165 31.1279C438.803 31.1279 437.441 31.4682 436.42 32.4894C435.739 33.1702 435.399 33.5107 435.059 34.1915C435.059 35.8935 434.718 36.9147 434.718 37.5955Z" fill="white"></path> </svg> 